<?xml version="1.0" encoding="utf-8" standalone="no"?>
<!DOCTYPE svg PUBLIC "-//W3C//DTD SVG 1.1//EN"
  "http://www.w3.org/Graphics/SVG/1.1/DTD/svg11.dtd">
<!-- Created with matplotlib (http://matplotlib.org/) -->
<svg height="395.29625pt" version="1.1" viewBox="0 0 821.216625 395.29625" width="821.216625pt" xmlns="http://www.w3.org/2000/svg" xmlns:xlink="http://www.w3.org/1999/xlink">
 <defs>
  <style type="text/css">
*{stroke-linecap:butt;stroke-linejoin:round;}
  </style>
 </defs>
 <g id="figure_1">
  <g id="patch_1">
   <path d="M 0 395.29625 
L 821.216625 395.29625 
L 821.216625 0 
L 0 0 
z
" style="fill:#ffffff;"/>
  </g>
  <g id="axes_1">
   <g id="patch_2">
    <path d="M 47.803125 350.54 
L 717.403125 350.54 
L 717.403125 17.9 
L 47.803125 17.9 
z
" style="fill:#ffffff;"/>
   </g>
   <g id="PolyCollection_1">
    <path clip-path="url(#p821ccf5460)" d="M 47.803125 270.506316 
L 47.803125 350.54 
L 50.991696 350.54 
L 54.180268 350.54 
L 57.368839 350.54 
L 60.557411 350.54 
L 63.745982 350.54 
L 66.934554 350.54 
L 70.123125 350.54 
L 73.311696 350.54 
L 76.500268 350.54 
L 79.688839 350.54 
L 82.877411 350.54 
L 86.065982 350.54 
L 89.254554 350.54 
L 92.443125 350.54 
L 95.631696 350.54 
L 98.820268 350.54 
L 102.008839 350.54 
L 105.197411 350.54 
L 108.385982 350.54 
L 111.574554 350.54 
L 114.763125 350.54 
L 117.951696 350.54 
L 121.140268 350.54 
L 124.328839 350.54 
L 127.517411 350.54 
L 130.705982 350.54 
L 133.894554 350.54 
L 137.083125 350.54 
L 140.271696 350.54 
L 143.460268 350.54 
L 146.648839 350.54 
L 149.837411 350.54 
L 153.025982 350.54 
L 156.214554 350.54 
L 159.403125 350.54 
L 162.591696 350.54 
L 165.780268 350.54 
L 168.968839 350.54 
L 172.157411 350.54 
L 175.345982 350.54 
L 178.534554 350.54 
L 181.723125 350.54 
L 184.911696 350.54 
L 188.100268 350.54 
L 191.288839 350.54 
L 194.477411 350.54 
L 197.665982 350.54 
L 200.854554 350.54 
L 204.043125 350.54 
L 207.231696 350.54 
L 210.420268 350.54 
L 213.608839 350.54 
L 216.797411 350.54 
L 219.985982 350.54 
L 223.174554 350.54 
L 226.363125 350.54 
L 229.551696 350.54 
L 232.740268 350.54 
L 235.928839 350.54 
L 239.117411 350.54 
L 242.305982 350.54 
L 245.494554 350.54 
L 248.683125 350.54 
L 251.871696 350.54 
L 255.060268 350.54 
L 258.248839 350.54 
L 261.437411 350.54 
L 264.625982 350.54 
L 267.814554 350.54 
L 271.003125 350.54 
L 274.191696 350.54 
L 277.380268 350.54 
L 280.568839 350.54 
L 283.757411 350.54 
L 286.945982 350.54 
L 290.134554 350.54 
L 293.323125 350.54 
L 296.511696 350.54 
L 299.700268 350.54 
L 302.888839 350.54 
L 306.077411 350.54 
L 309.265982 350.54 
L 312.454554 350.54 
L 315.643125 350.54 
L 318.831696 350.54 
L 322.020268 350.54 
L 325.208839 350.54 
L 328.397411 350.54 
L 331.585982 350.54 
L 334.774554 350.54 
L 337.963125 350.54 
L 341.151696 350.54 
L 344.340268 350.54 
L 347.528839 350.54 
L 350.717411 350.54 
L 353.905982 350.54 
L 357.094554 350.54 
L 360.283125 350.54 
L 363.471696 350.54 
L 366.660268 350.54 
L 369.848839 350.54 
L 373.037411 350.54 
L 376.225982 350.54 
L 379.414554 350.54 
L 382.603125 350.54 
L 385.791696 350.54 
L 388.980268 350.54 
L 392.168839 350.54 
L 395.357411 350.54 
L 398.545982 350.54 
L 401.734554 350.54 
L 404.923125 350.54 
L 408.111696 350.54 
L 411.300268 350.54 
L 414.488839 350.54 
L 417.677411 350.54 
L 420.865982 350.54 
L 424.054554 350.54 
L 427.243125 350.54 
L 430.431696 350.54 
L 433.620268 350.54 
L 436.808839 350.54 
L 439.997411 350.54 
L 443.185982 350.54 
L 446.374554 350.54 
L 449.563125 350.54 
L 452.751696 350.54 
L 455.940268 350.54 
L 459.128839 350.54 
L 462.317411 350.54 
L 465.505982 350.54 
L 468.694554 350.54 
L 471.883125 350.54 
L 475.071696 350.54 
L 478.260268 350.54 
L 481.448839 350.54 
L 484.637411 350.54 
L 487.825982 350.54 
L 491.014554 350.54 
L 494.203125 350.54 
L 497.391696 350.54 
L 500.580268 350.54 
L 503.768839 350.54 
L 506.957411 350.54 
L 510.145982 350.54 
L 513.334554 350.54 
L 516.523125 350.54 
L 519.711696 350.54 
L 522.900268 350.54 
L 526.088839 350.54 
L 529.277411 350.54 
L 532.465982 350.54 
L 535.654554 350.54 
L 538.843125 350.54 
L 542.031696 350.54 
L 545.220268 350.54 
L 548.408839 350.54 
L 551.597411 350.54 
L 554.785982 350.54 
L 557.974554 350.54 
L 561.163125 350.54 
L 564.351696 350.54 
L 567.540268 350.54 
L 570.728839 350.54 
L 573.917411 350.54 
L 577.105982 350.54 
L 580.294554 350.54 
L 583.483125 350.54 
L 586.671696 350.54 
L 589.860268 350.54 
L 593.048839 350.54 
L 596.237411 350.54 
L 599.425982 350.54 
L 602.614554 350.54 
L 605.803125 350.54 
L 608.991696 350.54 
L 612.180268 350.54 
L 615.368839 350.54 
L 618.557411 350.54 
L 621.745982 350.54 
L 624.934554 350.54 
L 628.123125 350.54 
L 631.311696 350.54 
L 634.500268 350.54 
L 637.688839 350.54 
L 640.877411 350.54 
L 644.065982 350.54 
L 647.254554 350.54 
L 650.443125 350.54 
L 653.631696 350.54 
L 656.820268 350.54 
L 660.008839 350.54 
L 663.197411 350.54 
L 666.385982 350.54 
L 669.574554 350.54 
L 672.763125 350.54 
L 675.951696 350.54 
L 679.140268 350.54 
L 682.328839 350.54 
L 685.517411 350.54 
L 685.517411 328.864211 
L 685.517411 328.864211 
L 682.328839 277.175789 
L 679.140268 272.173684 
L 675.951696 280.510526 
L 672.763125 250.497895 
L 669.574554 245.495789 
L 666.385982 230.489474 
L 663.197411 252.165263 
L 660.008839 212.148421 
L 656.820268 207.146316 
L 653.631696 238.826316 
L 650.443125 230.489474 
L 647.254554 252.165263 
L 644.065982 247.163158 
L 640.877411 210.481053 
L 637.688839 145.453684 
L 634.500268 92.097895 
L 631.311696 78.758947 
L 628.123125 108.771579 
L 624.934554 127.112632 
L 621.745982 145.453684 
L 618.557411 125.445263 
L 615.368839 157.125263 
L 612.180268 172.131579 
L 608.991696 178.801053 
L 605.803125 168.796842 
L 602.614554 160.46 
L 599.425982 145.453684 
L 596.237411 155.457895 
L 593.048839 125.445263 
L 589.860268 157.125263 
L 586.671696 132.114737 
L 583.483125 165.462105 
L 580.294554 135.449474 
L 577.105982 167.129474 
L 573.917411 167.129474 
L 570.728839 95.432632 
L 567.540268 150.455789 
L 564.351696 195.474737 
L 561.163125 163.794737 
L 557.974554 192.14 
L 554.785982 162.127368 
L 551.597411 187.137895 
L 548.408839 232.156842 
L 545.220268 188.805263 
L 542.031696 158.792632 
L 538.843125 192.14 
L 535.654554 223.82 
L 532.465982 193.807368 
L 529.277411 180.468421 
L 526.088839 192.14 
L 522.900268 135.449474 
L 519.711696 165.462105 
L 516.523125 152.123158 
L 513.334554 157.125263 
L 510.145982 163.794737 
L 506.957411 173.798947 
L 503.768839 145.453684 
L 500.580268 122.110526 
L 497.391696 138.784211 
L 494.203125 175.466316 
L 491.014554 142.118947 
L 487.825982 170.464211 
L 484.637411 175.466316 
L 481.448839 128.78 
L 478.260268 135.449474 
L 475.071696 90.430526 
L 471.883125 107.104211 
L 468.694554 113.773684 
L 465.505982 87.095789 
L 462.317411 160.46 
L 459.128839 102.102105 
L 455.940268 118.775789 
L 452.751696 140.451579 
L 449.563125 90.430526 
L 446.374554 65.42 
L 443.185982 38.742105 
L 439.997411 73.756842 
L 436.808839 93.765263 
L 433.620268 70.422105 
L 430.431696 107.104211 
L 427.243125 87.095789 
L 424.054554 105.436842 
L 420.865982 105.436842 
L 417.677411 125.445263 
L 414.488839 157.125263 
L 411.300268 153.790526 
L 408.111696 152.123158 
L 404.923125 97.1 
L 401.734554 130.447368 
L 398.545982 100.434737 
L 395.357411 113.773684 
L 392.168839 88.763158 
L 388.980268 55.415789 
L 385.791696 75.424211 
L 382.603125 232.156842 
L 379.414554 37.074737 
L 376.225982 63.752632 
L 373.037411 117.108421 
L 369.848839 145.453684 
L 366.660268 302.186316 
L 363.471696 335.533684 
L 360.283125 323.862105 
L 357.094554 335.533684 
L 353.905982 305.521053 
L 350.717411 292.182105 
L 347.528839 307.188421 
L 344.340268 297.184211 
L 341.151696 312.190526 
L 337.963125 322.194737 
L 334.774554 308.855789 
L 331.585982 305.521053 
L 328.397411 297.184211 
L 325.208839 278.843158 
L 322.020268 292.182105 
L 318.831696 283.845263 
L 315.643125 310.523158 
L 312.454554 285.512632 
L 309.265982 273.841053 
L 306.077411 277.175789 
L 302.888839 275.508421 
L 299.700268 305.521053 
L 296.511696 290.514737 
L 293.323125 290.514737 
L 290.134554 288.847368 
L 286.945982 280.510526 
L 283.757411 293.849474 
L 280.568839 292.182105 
L 277.380268 282.177895 
L 274.191696 295.516842 
L 271.003125 340.535789 
L 267.814554 97.1 
L 264.625982 132.114737 
L 261.437411 190.472632 
L 258.248839 177.133684 
L 255.060268 182.135789 
L 251.871696 230.489474 
L 248.683125 310.523158 
L 245.494554 333.866316 
L 242.305982 237.158947 
L 239.117411 263.836842 
L 235.928839 253.832632 
L 232.740268 225.487368 
L 229.551696 223.82 
L 226.363125 247.163158 
L 223.174554 283.845263 
L 219.985982 272.173684 
L 216.797411 302.186316 
L 213.608839 303.853684 
L 210.420268 243.828421 
L 207.231696 253.832632 
L 204.043125 260.502105 
L 200.854554 187.137895 
L 197.665982 208.813684 
L 194.477411 218.817895 
L 191.288839 267.171579 
L 188.100268 260.502105 
L 184.911696 193.807368 
L 181.723125 205.478947 
L 178.534554 237.158947 
L 175.345982 207.146316 
L 172.157411 195.474737 
L 168.968839 210.481053 
L 165.780268 198.809474 
L 162.591696 197.142105 
L 159.403125 225.487368 
L 156.214554 210.481053 
L 153.025982 202.144211 
L 149.837411 152.123158 
L 146.648839 183.803158 
L 143.460268 153.790526 
L 140.271696 165.462105 
L 137.083125 167.129474 
L 133.894554 167.129474 
L 130.705982 163.794737 
L 127.517411 180.468421 
L 124.328839 195.474737 
L 121.140268 148.788421 
L 117.951696 167.129474 
L 114.763125 167.129474 
L 111.574554 202.144211 
L 108.385982 207.146316 
L 105.197411 165.462105 
L 102.008839 212.148421 
L 98.820268 152.123158 
L 95.631696 165.462105 
L 92.443125 238.826316 
L 89.254554 160.46 
L 86.065982 120.443158 
L 82.877411 187.137895 
L 79.688839 230.489474 
L 76.500268 200.476842 
L 73.311696 165.462105 
L 70.123125 190.472632 
L 66.934554 152.123158 
L 63.745982 190.472632 
L 60.557411 223.82 
L 57.368839 218.817895 
L 54.180268 265.504211 
L 50.991696 258.834737 
L 47.803125 270.506316 
z
" style="fill:#faf0e6;"/>
   </g>
   <g id="matplotlib.axis_1">
    <g id="xtick_1">
     <g id="line2d_1">
      <path clip-path="url(#p821ccf5460)" d="M 47.803125 350.54 
L 47.803125 17.9 
" style="fill:none;stroke:#b0b0b0;stroke-linecap:square;stroke-width:0.8;"/>
     </g>
     <g id="line2d_2">
      <defs>
       <path d="M 0 0 
L 0 3.5 
" id="m4dfa08290c" style="stroke:#000000;stroke-width:0.8;"/>
      </defs>
      <g>
       <use style="stroke:#000000;stroke-width:0.8;" x="47.803125" xlink:href="#m4dfa08290c" y="350.54"/>
      </g>
     </g>
     <g id="text_1">
      <!-- 0 -->
      <defs>
       <path d="M 31.78125 66.40625 
Q 24.171875 66.40625 20.328125 58.90625 
Q 16.5 51.421875 16.5 36.375 
Q 16.5 21.390625 20.328125 13.890625 
Q 24.171875 6.390625 31.78125 6.390625 
Q 39.453125 6.390625 43.28125 13.890625 
Q 47.125 21.390625 47.125 36.375 
Q 47.125 51.421875 43.28125 58.90625 
Q 39.453125 66.40625 31.78125 66.40625 
z
M 31.78125 74.21875 
Q 44.046875 74.21875 50.515625 64.515625 
Q 56.984375 54.828125 56.984375 36.375 
Q 56.984375 17.96875 50.515625 8.265625 
Q 44.046875 -1.421875 31.78125 -1.421875 
Q 19.53125 -1.421875 13.0625 8.265625 
Q 6.59375 17.96875 6.59375 36.375 
Q 6.59375 54.828125 13.0625 64.515625 
Q 19.53125 74.21875 31.78125 74.21875 
z
" id="DejaVuSans-30"/>
      </defs>
      <g transform="translate(44.621875 365.138438)scale(0.1 -0.1)">
       <use xlink:href="#DejaVuSans-30"/>
      </g>
     </g>
    </g>
    <g id="xtick_2">
     <g id="line2d_3">
      <path clip-path="url(#p821ccf5460)" d="M 154.088839 350.54 
L 154.088839 17.9 
" style="fill:none;stroke:#b0b0b0;stroke-linecap:square;stroke-width:0.8;"/>
     </g>
     <g id="line2d_4">
      <g>
       <use style="stroke:#000000;stroke-width:0.8;" x="154.088839" xlink:href="#m4dfa08290c" y="350.54"/>
      </g>
     </g>
     <g id="text_2">
      <!-- 5 -->
      <defs>
       <path d="M 10.796875 72.90625 
L 49.515625 72.90625 
L 49.515625 64.59375 
L 19.828125 64.59375 
L 19.828125 46.734375 
Q 21.96875 47.46875 24.109375 47.828125 
Q 26.265625 48.1875 28.421875 48.1875 
Q 40.625 48.1875 47.75 41.5 
Q 54.890625 34.8125 54.890625 23.390625 
Q 54.890625 11.625 47.5625 5.09375 
Q 40.234375 -1.421875 26.90625 -1.421875 
Q 22.3125 -1.421875 17.546875 -0.640625 
Q 12.796875 0.140625 7.71875 1.703125 
L 7.71875 11.625 
Q 12.109375 9.234375 16.796875 8.0625 
Q 21.484375 6.890625 26.703125 6.890625 
Q 35.15625 6.890625 40.078125 11.328125 
Q 45.015625 15.765625 45.015625 23.390625 
Q 45.015625 31 40.078125 35.4375 
Q 35.15625 39.890625 26.703125 39.890625 
Q 22.75 39.890625 18.8125 39.015625 
Q 14.890625 38.140625 10.796875 36.28125 
z
" id="DejaVuSans-35"/>
      </defs>
      <g transform="translate(150.907589 365.138438)scale(0.1 -0.1)">
       <use xlink:href="#DejaVuSans-35"/>
      </g>
     </g>
    </g>
    <g id="xtick_3">
     <g id="line2d_5">
      <path clip-path="url(#p821ccf5460)" d="M 260.374554 350.54 
L 260.374554 17.9 
" style="fill:none;stroke:#b0b0b0;stroke-linecap:square;stroke-width:0.8;"/>
     </g>
     <g id="line2d_6">
      <g>
       <use style="stroke:#000000;stroke-width:0.8;" x="260.374554" xlink:href="#m4dfa08290c" y="350.54"/>
      </g>
     </g>
     <g id="text_3">
      <!-- 10 -->
      <defs>
       <path d="M 12.40625 8.296875 
L 28.515625 8.296875 
L 28.515625 63.921875 
L 10.984375 60.40625 
L 10.984375 69.390625 
L 28.421875 72.90625 
L 38.28125 72.90625 
L 38.28125 8.296875 
L 54.390625 8.296875 
L 54.390625 0 
L 12.40625 0 
z
" id="DejaVuSans-31"/>
      </defs>
      <g transform="translate(254.012054 365.138438)scale(0.1 -0.1)">
       <use xlink:href="#DejaVuSans-31"/>
       <use x="63.623047" xlink:href="#DejaVuSans-30"/>
      </g>
     </g>
    </g>
    <g id="xtick_4">
     <g id="line2d_7">
      <path clip-path="url(#p821ccf5460)" d="M 366.660268 350.54 
L 366.660268 17.9 
" style="fill:none;stroke:#b0b0b0;stroke-linecap:square;stroke-width:0.8;"/>
     </g>
     <g id="line2d_8">
      <g>
       <use style="stroke:#000000;stroke-width:0.8;" x="366.660268" xlink:href="#m4dfa08290c" y="350.54"/>
      </g>
     </g>
     <g id="text_4">
      <!-- 15 -->
      <g transform="translate(360.297768 365.138438)scale(0.1 -0.1)">
       <use xlink:href="#DejaVuSans-31"/>
       <use x="63.623047" xlink:href="#DejaVuSans-35"/>
      </g>
     </g>
    </g>
    <g id="xtick_5">
     <g id="line2d_9">
      <path clip-path="url(#p821ccf5460)" d="M 472.945982 350.54 
L 472.945982 17.9 
" style="fill:none;stroke:#b0b0b0;stroke-linecap:square;stroke-width:0.8;"/>
     </g>
     <g id="line2d_10">
      <g>
       <use style="stroke:#000000;stroke-width:0.8;" x="472.945982" xlink:href="#m4dfa08290c" y="350.54"/>
      </g>
     </g>
     <g id="text_5">
      <!-- 20 -->
      <defs>
       <path d="M 19.1875 8.296875 
L 53.609375 8.296875 
L 53.609375 0 
L 7.328125 0 
L 7.328125 8.296875 
Q 12.9375 14.109375 22.625 23.890625 
Q 32.328125 33.6875 34.8125 36.53125 
Q 39.546875 41.84375 41.421875 45.53125 
Q 43.3125 49.21875 43.3125 52.78125 
Q 43.3125 58.59375 39.234375 62.25 
Q 35.15625 65.921875 28.609375 65.921875 
Q 23.96875 65.921875 18.8125 64.3125 
Q 13.671875 62.703125 7.8125 59.421875 
L 7.8125 69.390625 
Q 13.765625 71.78125 18.9375 73 
Q 24.125 74.21875 28.421875 74.21875 
Q 39.75 74.21875 46.484375 68.546875 
Q 53.21875 62.890625 53.21875 53.421875 
Q 53.21875 48.921875 51.53125 44.890625 
Q 49.859375 40.875 45.40625 35.40625 
Q 44.1875 33.984375 37.640625 27.21875 
Q 31.109375 20.453125 19.1875 8.296875 
z
" id="DejaVuSans-32"/>
      </defs>
      <g transform="translate(466.583482 365.138438)scale(0.1 -0.1)">
       <use xlink:href="#DejaVuSans-32"/>
       <use x="63.623047" xlink:href="#DejaVuSans-30"/>
      </g>
     </g>
    </g>
    <g id="xtick_6">
     <g id="line2d_11">
      <path clip-path="url(#p821ccf5460)" d="M 579.231696 350.54 
L 579.231696 17.9 
" style="fill:none;stroke:#b0b0b0;stroke-linecap:square;stroke-width:0.8;"/>
     </g>
     <g id="line2d_12">
      <g>
       <use style="stroke:#000000;stroke-width:0.8;" x="579.231696" xlink:href="#m4dfa08290c" y="350.54"/>
      </g>
     </g>
     <g id="text_6">
      <!-- 25 -->
      <g transform="translate(572.869196 365.138438)scale(0.1 -0.1)">
       <use xlink:href="#DejaVuSans-32"/>
       <use x="63.623047" xlink:href="#DejaVuSans-35"/>
      </g>
     </g>
    </g>
    <g id="xtick_7">
     <g id="line2d_13">
      <path clip-path="url(#p821ccf5460)" d="M 685.517411 350.54 
L 685.517411 17.9 
" style="fill:none;stroke:#b0b0b0;stroke-linecap:square;stroke-width:0.8;"/>
     </g>
     <g id="line2d_14">
      <g>
       <use style="stroke:#000000;stroke-width:0.8;" x="685.517411" xlink:href="#m4dfa08290c" y="350.54"/>
      </g>
     </g>
     <g id="text_7">
      <!-- 30 -->
      <defs>
       <path d="M 40.578125 39.3125 
Q 47.65625 37.796875 51.625 33 
Q 55.609375 28.21875 55.609375 21.1875 
Q 55.609375 10.40625 48.1875 4.484375 
Q 40.765625 -1.421875 27.09375 -1.421875 
Q 22.515625 -1.421875 17.65625 -0.515625 
Q 12.796875 0.390625 7.625 2.203125 
L 7.625 11.71875 
Q 11.71875 9.328125 16.59375 8.109375 
Q 21.484375 6.890625 26.8125 6.890625 
Q 36.078125 6.890625 40.9375 10.546875 
Q 45.796875 14.203125 45.796875 21.1875 
Q 45.796875 27.640625 41.28125 31.265625 
Q 36.765625 34.90625 28.71875 34.90625 
L 20.21875 34.90625 
L 20.21875 43.015625 
L 29.109375 43.015625 
Q 36.375 43.015625 40.234375 45.921875 
Q 44.09375 48.828125 44.09375 54.296875 
Q 44.09375 59.90625 40.109375 62.90625 
Q 36.140625 65.921875 28.71875 65.921875 
Q 24.65625 65.921875 20.015625 65.03125 
Q 15.375 64.15625 9.8125 62.3125 
L 9.8125 71.09375 
Q 15.4375 72.65625 20.34375 73.4375 
Q 25.25 74.21875 29.59375 74.21875 
Q 40.828125 74.21875 47.359375 69.109375 
Q 53.90625 64.015625 53.90625 55.328125 
Q 53.90625 49.265625 50.4375 45.09375 
Q 46.96875 40.921875 40.578125 39.3125 
z
" id="DejaVuSans-33"/>
      </defs>
      <g transform="translate(679.154911 365.138438)scale(0.1 -0.1)">
       <use xlink:href="#DejaVuSans-33"/>
       <use x="63.623047" xlink:href="#DejaVuSans-30"/>
      </g>
     </g>
    </g>
    <g id="text_8">
     <!-- Time (s) -->
     <defs>
      <path d="M -0.296875 72.90625 
L 61.375 72.90625 
L 61.375 64.59375 
L 35.5 64.59375 
L 35.5 0 
L 25.59375 0 
L 25.59375 64.59375 
L -0.296875 64.59375 
z
" id="DejaVuSans-54"/>
      <path d="M 9.421875 54.6875 
L 18.40625 54.6875 
L 18.40625 0 
L 9.421875 0 
z
M 9.421875 75.984375 
L 18.40625 75.984375 
L 18.40625 64.59375 
L 9.421875 64.59375 
z
" id="DejaVuSans-69"/>
      <path d="M 52 44.1875 
Q 55.375 50.25 60.0625 53.125 
Q 64.75 56 71.09375 56 
Q 79.640625 56 84.28125 50.015625 
Q 88.921875 44.046875 88.921875 33.015625 
L 88.921875 0 
L 79.890625 0 
L 79.890625 32.71875 
Q 79.890625 40.578125 77.09375 44.375 
Q 74.3125 48.1875 68.609375 48.1875 
Q 61.625 48.1875 57.5625 43.546875 
Q 53.515625 38.921875 53.515625 30.90625 
L 53.515625 0 
L 44.484375 0 
L 44.484375 32.71875 
Q 44.484375 40.625 41.703125 44.40625 
Q 38.921875 48.1875 33.109375 48.1875 
Q 26.21875 48.1875 22.15625 43.53125 
Q 18.109375 38.875 18.109375 30.90625 
L 18.109375 0 
L 9.078125 0 
L 9.078125 54.6875 
L 18.109375 54.6875 
L 18.109375 46.1875 
Q 21.1875 51.21875 25.484375 53.609375 
Q 29.78125 56 35.6875 56 
Q 41.65625 56 45.828125 52.96875 
Q 50 49.953125 52 44.1875 
z
" id="DejaVuSans-6d"/>
      <path d="M 56.203125 29.59375 
L 56.203125 25.203125 
L 14.890625 25.203125 
Q 15.484375 15.921875 20.484375 11.0625 
Q 25.484375 6.203125 34.421875 6.203125 
Q 39.59375 6.203125 44.453125 7.46875 
Q 49.3125 8.734375 54.109375 11.28125 
L 54.109375 2.78125 
Q 49.265625 0.734375 44.1875 -0.34375 
Q 39.109375 -1.421875 33.890625 -1.421875 
Q 20.796875 -1.421875 13.15625 6.1875 
Q 5.515625 13.8125 5.515625 26.8125 
Q 5.515625 40.234375 12.765625 48.109375 
Q 20.015625 56 32.328125 56 
Q 43.359375 56 49.78125 48.890625 
Q 56.203125 41.796875 56.203125 29.59375 
z
M 47.21875 32.234375 
Q 47.125 39.59375 43.09375 43.984375 
Q 39.0625 48.390625 32.421875 48.390625 
Q 24.90625 48.390625 20.390625 44.140625 
Q 15.875 39.890625 15.1875 32.171875 
z
" id="DejaVuSans-65"/>
      <path id="DejaVuSans-20"/>
      <path d="M 31 75.875 
Q 24.46875 64.65625 21.28125 53.65625 
Q 18.109375 42.671875 18.109375 31.390625 
Q 18.109375 20.125 21.3125 9.0625 
Q 24.515625 -2 31 -13.1875 
L 23.1875 -13.1875 
Q 15.875 -1.703125 12.234375 9.375 
Q 8.59375 20.453125 8.59375 31.390625 
Q 8.59375 42.28125 12.203125 53.3125 
Q 15.828125 64.359375 23.1875 75.875 
z
" id="DejaVuSans-28"/>
      <path d="M 44.28125 53.078125 
L 44.28125 44.578125 
Q 40.484375 46.53125 36.375 47.5 
Q 32.28125 48.484375 27.875 48.484375 
Q 21.1875 48.484375 17.84375 46.4375 
Q 14.5 44.390625 14.5 40.28125 
Q 14.5 37.15625 16.890625 35.375 
Q 19.28125 33.59375 26.515625 31.984375 
L 29.59375 31.296875 
Q 39.15625 29.25 43.1875 25.515625 
Q 47.21875 21.78125 47.21875 15.09375 
Q 47.21875 7.46875 41.1875 3.015625 
Q 35.15625 -1.421875 24.609375 -1.421875 
Q 20.21875 -1.421875 15.453125 -0.5625 
Q 10.6875 0.296875 5.421875 2 
L 5.421875 11.28125 
Q 10.40625 8.6875 15.234375 7.390625 
Q 20.0625 6.109375 24.8125 6.109375 
Q 31.15625 6.109375 34.5625 8.28125 
Q 37.984375 10.453125 37.984375 14.40625 
Q 37.984375 18.0625 35.515625 20.015625 
Q 33.0625 21.96875 24.703125 23.78125 
L 21.578125 24.515625 
Q 13.234375 26.265625 9.515625 29.90625 
Q 5.8125 33.546875 5.8125 39.890625 
Q 5.8125 47.609375 11.28125 51.796875 
Q 16.75 56 26.8125 56 
Q 31.78125 56 36.171875 55.265625 
Q 40.578125 54.546875 44.28125 53.078125 
z
" id="DejaVuSans-73"/>
      <path d="M 8.015625 75.875 
L 15.828125 75.875 
Q 23.140625 64.359375 26.78125 53.3125 
Q 30.421875 42.28125 30.421875 31.390625 
Q 30.421875 20.453125 26.78125 9.375 
Q 23.140625 -1.703125 15.828125 -13.1875 
L 8.015625 -13.1875 
Q 14.5 -2 17.703125 9.0625 
Q 20.90625 20.125 20.90625 31.390625 
Q 20.90625 42.671875 17.703125 53.65625 
Q 14.5 64.65625 8.015625 75.875 
z
" id="DejaVuSans-29"/>
     </defs>
     <g transform="translate(362.120313 378.816563)scale(0.1 -0.1)">
      <use xlink:href="#DejaVuSans-54"/>
      <use x="61.037109" xlink:href="#DejaVuSans-69"/>
      <use x="88.820312" xlink:href="#DejaVuSans-6d"/>
      <use x="186.232422" xlink:href="#DejaVuSans-65"/>
      <use x="247.755859" xlink:href="#DejaVuSans-20"/>
      <use x="279.542969" xlink:href="#DejaVuSans-28"/>
      <use x="318.556641" xlink:href="#DejaVuSans-73"/>
      <use x="370.65625" xlink:href="#DejaVuSans-29"/>
     </g>
    </g>
   </g>
   <g id="matplotlib.axis_2">
    <g id="ytick_1">
     <g id="line2d_15">
      <path clip-path="url(#p821ccf5460)" d="M 47.803125 350.54 
L 717.403125 350.54 
" style="fill:none;stroke:#b0b0b0;stroke-linecap:square;stroke-width:0.8;"/>
     </g>
     <g id="line2d_16">
      <defs>
       <path d="M 0 0 
L -3.5 0 
" id="mb261d17efe" style="stroke:#000000;stroke-width:0.8;"/>
      </defs>
      <g>
       <use style="stroke:#000000;stroke-width:0.8;" x="47.803125" xlink:href="#mb261d17efe" y="350.54"/>
      </g>
     </g>
     <g id="text_9">
      <!-- 0 -->
      <g transform="translate(34.440625 354.339219)scale(0.1 -0.1)">
       <use xlink:href="#DejaVuSans-30"/>
      </g>
     </g>
    </g>
    <g id="ytick_2">
     <g id="line2d_17">
      <path clip-path="url(#p821ccf5460)" d="M 47.803125 308.855789 
L 717.403125 308.855789 
" style="fill:none;stroke:#b0b0b0;stroke-linecap:square;stroke-width:0.8;"/>
     </g>
     <g id="line2d_18">
      <g>
       <use style="stroke:#000000;stroke-width:0.8;" x="47.803125" xlink:href="#mb261d17efe" y="308.855789"/>
      </g>
     </g>
     <g id="text_10">
      <!-- 2 -->
      <g transform="translate(34.440625 312.655008)scale(0.1 -0.1)">
       <use xlink:href="#DejaVuSans-32"/>
      </g>
     </g>
    </g>
    <g id="ytick_3">
     <g id="line2d_19">
      <path clip-path="url(#p821ccf5460)" d="M 47.803125 267.171579 
L 717.403125 267.171579 
" style="fill:none;stroke:#b0b0b0;stroke-linecap:square;stroke-width:0.8;"/>
     </g>
     <g id="line2d_20">
      <g>
       <use style="stroke:#000000;stroke-width:0.8;" x="47.803125" xlink:href="#mb261d17efe" y="267.171579"/>
      </g>
     </g>
     <g id="text_11">
      <!-- 4 -->
      <defs>
       <path d="M 37.796875 64.3125 
L 12.890625 25.390625 
L 37.796875 25.390625 
z
M 35.203125 72.90625 
L 47.609375 72.90625 
L 47.609375 25.390625 
L 58.015625 25.390625 
L 58.015625 17.1875 
L 47.609375 17.1875 
L 47.609375 0 
L 37.796875 0 
L 37.796875 17.1875 
L 4.890625 17.1875 
L 4.890625 26.703125 
z
" id="DejaVuSans-34"/>
      </defs>
      <g transform="translate(34.440625 270.970798)scale(0.1 -0.1)">
       <use xlink:href="#DejaVuSans-34"/>
      </g>
     </g>
    </g>
    <g id="ytick_4">
     <g id="line2d_21">
      <path clip-path="url(#p821ccf5460)" d="M 47.803125 225.487368 
L 717.403125 225.487368 
" style="fill:none;stroke:#b0b0b0;stroke-linecap:square;stroke-width:0.8;"/>
     </g>
     <g id="line2d_22">
      <g>
       <use style="stroke:#000000;stroke-width:0.8;" x="47.803125" xlink:href="#mb261d17efe" y="225.487368"/>
      </g>
     </g>
     <g id="text_12">
      <!-- 6 -->
      <defs>
       <path d="M 33.015625 40.375 
Q 26.375 40.375 22.484375 35.828125 
Q 18.609375 31.296875 18.609375 23.390625 
Q 18.609375 15.53125 22.484375 10.953125 
Q 26.375 6.390625 33.015625 6.390625 
Q 39.65625 6.390625 43.53125 10.953125 
Q 47.40625 15.53125 47.40625 23.390625 
Q 47.40625 31.296875 43.53125 35.828125 
Q 39.65625 40.375 33.015625 40.375 
z
M 52.59375 71.296875 
L 52.59375 62.3125 
Q 48.875 64.0625 45.09375 64.984375 
Q 41.3125 65.921875 37.59375 65.921875 
Q 27.828125 65.921875 22.671875 59.328125 
Q 17.53125 52.734375 16.796875 39.40625 
Q 19.671875 43.65625 24.015625 45.921875 
Q 28.375 48.1875 33.59375 48.1875 
Q 44.578125 48.1875 50.953125 41.515625 
Q 57.328125 34.859375 57.328125 23.390625 
Q 57.328125 12.15625 50.6875 5.359375 
Q 44.046875 -1.421875 33.015625 -1.421875 
Q 20.359375 -1.421875 13.671875 8.265625 
Q 6.984375 17.96875 6.984375 36.375 
Q 6.984375 53.65625 15.1875 63.9375 
Q 23.390625 74.21875 37.203125 74.21875 
Q 40.921875 74.21875 44.703125 73.484375 
Q 48.484375 72.75 52.59375 71.296875 
z
" id="DejaVuSans-36"/>
      </defs>
      <g transform="translate(34.440625 229.286587)scale(0.1 -0.1)">
       <use xlink:href="#DejaVuSans-36"/>
      </g>
     </g>
    </g>
    <g id="ytick_5">
     <g id="line2d_23">
      <path clip-path="url(#p821ccf5460)" d="M 47.803125 183.803158 
L 717.403125 183.803158 
" style="fill:none;stroke:#b0b0b0;stroke-linecap:square;stroke-width:0.8;"/>
     </g>
     <g id="line2d_24">
      <g>
       <use style="stroke:#000000;stroke-width:0.8;" x="47.803125" xlink:href="#mb261d17efe" y="183.803158"/>
      </g>
     </g>
     <g id="text_13">
      <!-- 8 -->
      <defs>
       <path d="M 31.78125 34.625 
Q 24.75 34.625 20.71875 30.859375 
Q 16.703125 27.09375 16.703125 20.515625 
Q 16.703125 13.921875 20.71875 10.15625 
Q 24.75 6.390625 31.78125 6.390625 
Q 38.8125 6.390625 42.859375 10.171875 
Q 46.921875 13.96875 46.921875 20.515625 
Q 46.921875 27.09375 42.890625 30.859375 
Q 38.875 34.625 31.78125 34.625 
z
M 21.921875 38.8125 
Q 15.578125 40.375 12.03125 44.71875 
Q 8.5 49.078125 8.5 55.328125 
Q 8.5 64.0625 14.71875 69.140625 
Q 20.953125 74.21875 31.78125 74.21875 
Q 42.671875 74.21875 48.875 69.140625 
Q 55.078125 64.0625 55.078125 55.328125 
Q 55.078125 49.078125 51.53125 44.71875 
Q 48 40.375 41.703125 38.8125 
Q 48.828125 37.15625 52.796875 32.3125 
Q 56.78125 27.484375 56.78125 20.515625 
Q 56.78125 9.90625 50.3125 4.234375 
Q 43.84375 -1.421875 31.78125 -1.421875 
Q 19.734375 -1.421875 13.25 4.234375 
Q 6.78125 9.90625 6.78125 20.515625 
Q 6.78125 27.484375 10.78125 32.3125 
Q 14.796875 37.15625 21.921875 38.8125 
z
M 18.3125 54.390625 
Q 18.3125 48.734375 21.84375 45.5625 
Q 25.390625 42.390625 31.78125 42.390625 
Q 38.140625 42.390625 41.71875 45.5625 
Q 45.3125 48.734375 45.3125 54.390625 
Q 45.3125 60.0625 41.71875 63.234375 
Q 38.140625 66.40625 31.78125 66.40625 
Q 25.390625 66.40625 21.84375 63.234375 
Q 18.3125 60.0625 18.3125 54.390625 
z
" id="DejaVuSans-38"/>
      </defs>
      <g transform="translate(34.440625 187.602377)scale(0.1 -0.1)">
       <use xlink:href="#DejaVuSans-38"/>
      </g>
     </g>
    </g>
    <g id="ytick_6">
     <g id="line2d_25">
      <path clip-path="url(#p821ccf5460)" d="M 47.803125 142.118947 
L 717.403125 142.118947 
" style="fill:none;stroke:#b0b0b0;stroke-linecap:square;stroke-width:0.8;"/>
     </g>
     <g id="line2d_26">
      <g>
       <use style="stroke:#000000;stroke-width:0.8;" x="47.803125" xlink:href="#mb261d17efe" y="142.118947"/>
      </g>
     </g>
     <g id="text_14">
      <!-- 10 -->
      <g transform="translate(28.078125 145.918166)scale(0.1 -0.1)">
       <use xlink:href="#DejaVuSans-31"/>
       <use x="63.623047" xlink:href="#DejaVuSans-30"/>
      </g>
     </g>
    </g>
    <g id="ytick_7">
     <g id="line2d_27">
      <path clip-path="url(#p821ccf5460)" d="M 47.803125 100.434737 
L 717.403125 100.434737 
" style="fill:none;stroke:#b0b0b0;stroke-linecap:square;stroke-width:0.8;"/>
     </g>
     <g id="line2d_28">
      <g>
       <use style="stroke:#000000;stroke-width:0.8;" x="47.803125" xlink:href="#mb261d17efe" y="100.434737"/>
      </g>
     </g>
     <g id="text_15">
      <!-- 12 -->
      <g transform="translate(28.078125 104.233956)scale(0.1 -0.1)">
       <use xlink:href="#DejaVuSans-31"/>
       <use x="63.623047" xlink:href="#DejaVuSans-32"/>
      </g>
     </g>
    </g>
    <g id="ytick_8">
     <g id="line2d_29">
      <path clip-path="url(#p821ccf5460)" d="M 47.803125 58.750526 
L 717.403125 58.750526 
" style="fill:none;stroke:#b0b0b0;stroke-linecap:square;stroke-width:0.8;"/>
     </g>
     <g id="line2d_30">
      <g>
       <use style="stroke:#000000;stroke-width:0.8;" x="47.803125" xlink:href="#mb261d17efe" y="58.750526"/>
      </g>
     </g>
     <g id="text_16">
      <!-- 14 -->
      <g transform="translate(28.078125 62.549745)scale(0.1 -0.1)">
       <use xlink:href="#DejaVuSans-31"/>
       <use x="63.623047" xlink:href="#DejaVuSans-34"/>
      </g>
     </g>
    </g>
    <g id="text_17">
     <!-- Sending Rate (Mbit/s) -->
     <defs>
      <path d="M 53.515625 70.515625 
L 53.515625 60.890625 
Q 47.90625 63.578125 42.921875 64.890625 
Q 37.9375 66.21875 33.296875 66.21875 
Q 25.25 66.21875 20.875 63.09375 
Q 16.5 59.96875 16.5 54.203125 
Q 16.5 49.359375 19.40625 46.890625 
Q 22.3125 44.4375 30.421875 42.921875 
L 36.375 41.703125 
Q 47.40625 39.59375 52.65625 34.296875 
Q 57.90625 29 57.90625 20.125 
Q 57.90625 9.515625 50.796875 4.046875 
Q 43.703125 -1.421875 29.984375 -1.421875 
Q 24.8125 -1.421875 18.96875 -0.25 
Q 13.140625 0.921875 6.890625 3.21875 
L 6.890625 13.375 
Q 12.890625 10.015625 18.65625 8.296875 
Q 24.421875 6.59375 29.984375 6.59375 
Q 38.421875 6.59375 43.015625 9.90625 
Q 47.609375 13.234375 47.609375 19.390625 
Q 47.609375 24.75 44.3125 27.78125 
Q 41.015625 30.8125 33.5 32.328125 
L 27.484375 33.5 
Q 16.453125 35.6875 11.515625 40.375 
Q 6.59375 45.0625 6.59375 53.421875 
Q 6.59375 63.09375 13.40625 68.65625 
Q 20.21875 74.21875 32.171875 74.21875 
Q 37.3125 74.21875 42.625 73.28125 
Q 47.953125 72.359375 53.515625 70.515625 
z
" id="DejaVuSans-53"/>
      <path d="M 54.890625 33.015625 
L 54.890625 0 
L 45.90625 0 
L 45.90625 32.71875 
Q 45.90625 40.484375 42.875 44.328125 
Q 39.84375 48.1875 33.796875 48.1875 
Q 26.515625 48.1875 22.3125 43.546875 
Q 18.109375 38.921875 18.109375 30.90625 
L 18.109375 0 
L 9.078125 0 
L 9.078125 54.6875 
L 18.109375 54.6875 
L 18.109375 46.1875 
Q 21.34375 51.125 25.703125 53.5625 
Q 30.078125 56 35.796875 56 
Q 45.21875 56 50.046875 50.171875 
Q 54.890625 44.34375 54.890625 33.015625 
z
" id="DejaVuSans-6e"/>
      <path d="M 45.40625 46.390625 
L 45.40625 75.984375 
L 54.390625 75.984375 
L 54.390625 0 
L 45.40625 0 
L 45.40625 8.203125 
Q 42.578125 3.328125 38.25 0.953125 
Q 33.9375 -1.421875 27.875 -1.421875 
Q 17.96875 -1.421875 11.734375 6.484375 
Q 5.515625 14.40625 5.515625 27.296875 
Q 5.515625 40.1875 11.734375 48.09375 
Q 17.96875 56 27.875 56 
Q 33.9375 56 38.25 53.625 
Q 42.578125 51.265625 45.40625 46.390625 
z
M 14.796875 27.296875 
Q 14.796875 17.390625 18.875 11.75 
Q 22.953125 6.109375 30.078125 6.109375 
Q 37.203125 6.109375 41.296875 11.75 
Q 45.40625 17.390625 45.40625 27.296875 
Q 45.40625 37.203125 41.296875 42.84375 
Q 37.203125 48.484375 30.078125 48.484375 
Q 22.953125 48.484375 18.875 42.84375 
Q 14.796875 37.203125 14.796875 27.296875 
z
" id="DejaVuSans-64"/>
      <path d="M 45.40625 27.984375 
Q 45.40625 37.75 41.375 43.109375 
Q 37.359375 48.484375 30.078125 48.484375 
Q 22.859375 48.484375 18.828125 43.109375 
Q 14.796875 37.75 14.796875 27.984375 
Q 14.796875 18.265625 18.828125 12.890625 
Q 22.859375 7.515625 30.078125 7.515625 
Q 37.359375 7.515625 41.375 12.890625 
Q 45.40625 18.265625 45.40625 27.984375 
z
M 54.390625 6.78125 
Q 54.390625 -7.171875 48.1875 -13.984375 
Q 42 -20.796875 29.203125 -20.796875 
Q 24.46875 -20.796875 20.265625 -20.09375 
Q 16.0625 -19.390625 12.109375 -17.921875 
L 12.109375 -9.1875 
Q 16.0625 -11.328125 19.921875 -12.34375 
Q 23.78125 -13.375 27.78125 -13.375 
Q 36.625 -13.375 41.015625 -8.765625 
Q 45.40625 -4.15625 45.40625 5.171875 
L 45.40625 9.625 
Q 42.625 4.78125 38.28125 2.390625 
Q 33.9375 0 27.875 0 
Q 17.828125 0 11.671875 7.65625 
Q 5.515625 15.328125 5.515625 27.984375 
Q 5.515625 40.671875 11.671875 48.328125 
Q 17.828125 56 27.875 56 
Q 33.9375 56 38.28125 53.609375 
Q 42.625 51.21875 45.40625 46.390625 
L 45.40625 54.6875 
L 54.390625 54.6875 
z
" id="DejaVuSans-67"/>
      <path d="M 44.390625 34.1875 
Q 47.5625 33.109375 50.5625 29.59375 
Q 53.5625 26.078125 56.59375 19.921875 
L 66.609375 0 
L 56 0 
L 46.6875 18.703125 
Q 43.0625 26.03125 39.671875 28.421875 
Q 36.28125 30.8125 30.421875 30.8125 
L 19.671875 30.8125 
L 19.671875 0 
L 9.8125 0 
L 9.8125 72.90625 
L 32.078125 72.90625 
Q 44.578125 72.90625 50.734375 67.671875 
Q 56.890625 62.453125 56.890625 51.90625 
Q 56.890625 45.015625 53.6875 40.46875 
Q 50.484375 35.9375 44.390625 34.1875 
z
M 19.671875 64.796875 
L 19.671875 38.921875 
L 32.078125 38.921875 
Q 39.203125 38.921875 42.84375 42.21875 
Q 46.484375 45.515625 46.484375 51.90625 
Q 46.484375 58.296875 42.84375 61.546875 
Q 39.203125 64.796875 32.078125 64.796875 
z
" id="DejaVuSans-52"/>
      <path d="M 34.28125 27.484375 
Q 23.390625 27.484375 19.1875 25 
Q 14.984375 22.515625 14.984375 16.5 
Q 14.984375 11.71875 18.140625 8.90625 
Q 21.296875 6.109375 26.703125 6.109375 
Q 34.1875 6.109375 38.703125 11.40625 
Q 43.21875 16.703125 43.21875 25.484375 
L 43.21875 27.484375 
z
M 52.203125 31.203125 
L 52.203125 0 
L 43.21875 0 
L 43.21875 8.296875 
Q 40.140625 3.328125 35.546875 0.953125 
Q 30.953125 -1.421875 24.3125 -1.421875 
Q 15.921875 -1.421875 10.953125 3.296875 
Q 6 8.015625 6 15.921875 
Q 6 25.140625 12.171875 29.828125 
Q 18.359375 34.515625 30.609375 34.515625 
L 43.21875 34.515625 
L 43.21875 35.40625 
Q 43.21875 41.609375 39.140625 45 
Q 35.0625 48.390625 27.6875 48.390625 
Q 23 48.390625 18.546875 47.265625 
Q 14.109375 46.140625 10.015625 43.890625 
L 10.015625 52.203125 
Q 14.9375 54.109375 19.578125 55.046875 
Q 24.21875 56 28.609375 56 
Q 40.484375 56 46.34375 49.84375 
Q 52.203125 43.703125 52.203125 31.203125 
z
" id="DejaVuSans-61"/>
      <path d="M 18.3125 70.21875 
L 18.3125 54.6875 
L 36.8125 54.6875 
L 36.8125 47.703125 
L 18.3125 47.703125 
L 18.3125 18.015625 
Q 18.3125 11.328125 20.140625 9.421875 
Q 21.96875 7.515625 27.59375 7.515625 
L 36.8125 7.515625 
L 36.8125 0 
L 27.59375 0 
Q 17.1875 0 13.234375 3.875 
Q 9.28125 7.765625 9.28125 18.015625 
L 9.28125 47.703125 
L 2.6875 47.703125 
L 2.6875 54.6875 
L 9.28125 54.6875 
L 9.28125 70.21875 
z
" id="DejaVuSans-74"/>
      <path d="M 9.8125 72.90625 
L 24.515625 72.90625 
L 43.109375 23.296875 
L 61.8125 72.90625 
L 76.515625 72.90625 
L 76.515625 0 
L 66.890625 0 
L 66.890625 64.015625 
L 48.09375 14.015625 
L 38.1875 14.015625 
L 19.390625 64.015625 
L 19.390625 0 
L 9.8125 0 
z
" id="DejaVuSans-4d"/>
      <path d="M 48.6875 27.296875 
Q 48.6875 37.203125 44.609375 42.84375 
Q 40.53125 48.484375 33.40625 48.484375 
Q 26.265625 48.484375 22.1875 42.84375 
Q 18.109375 37.203125 18.109375 27.296875 
Q 18.109375 17.390625 22.1875 11.75 
Q 26.265625 6.109375 33.40625 6.109375 
Q 40.53125 6.109375 44.609375 11.75 
Q 48.6875 17.390625 48.6875 27.296875 
z
M 18.109375 46.390625 
Q 20.953125 51.265625 25.265625 53.625 
Q 29.59375 56 35.59375 56 
Q 45.5625 56 51.78125 48.09375 
Q 58.015625 40.1875 58.015625 27.296875 
Q 58.015625 14.40625 51.78125 6.484375 
Q 45.5625 -1.421875 35.59375 -1.421875 
Q 29.59375 -1.421875 25.265625 0.953125 
Q 20.953125 3.328125 18.109375 8.203125 
L 18.109375 0 
L 9.078125 0 
L 9.078125 75.984375 
L 18.109375 75.984375 
z
" id="DejaVuSans-62"/>
      <path d="M 25.390625 72.90625 
L 33.6875 72.90625 
L 8.296875 -9.28125 
L 0 -9.28125 
z
" id="DejaVuSans-2f"/>
     </defs>
     <g transform="translate(21.998438 238.325469)rotate(-90)scale(0.1 -0.1)">
      <use xlink:href="#DejaVuSans-53"/>
      <use x="63.476562" xlink:href="#DejaVuSans-65"/>
      <use x="125" xlink:href="#DejaVuSans-6e"/>
      <use x="188.378906" xlink:href="#DejaVuSans-64"/>
      <use x="251.855469" xlink:href="#DejaVuSans-69"/>
      <use x="279.638672" xlink:href="#DejaVuSans-6e"/>
      <use x="343.017578" xlink:href="#DejaVuSans-67"/>
      <use x="406.494141" xlink:href="#DejaVuSans-20"/>
      <use x="438.28125" xlink:href="#DejaVuSans-52"/>
      <use x="507.732422" xlink:href="#DejaVuSans-61"/>
      <use x="569.011719" xlink:href="#DejaVuSans-74"/>
      <use x="608.220703" xlink:href="#DejaVuSans-65"/>
      <use x="669.744141" xlink:href="#DejaVuSans-20"/>
      <use x="701.53125" xlink:href="#DejaVuSans-28"/>
      <use x="740.544922" xlink:href="#DejaVuSans-4d"/>
      <use x="826.824219" xlink:href="#DejaVuSans-62"/>
      <use x="890.300781" xlink:href="#DejaVuSans-69"/>
      <use x="918.083984" xlink:href="#DejaVuSans-74"/>
      <use x="957.292969" xlink:href="#DejaVuSans-2f"/>
      <use x="990.984375" xlink:href="#DejaVuSans-73"/>
      <use x="1043.083984" xlink:href="#DejaVuSans-29"/>
     </g>
    </g>
   </g>
   <g id="line2d_31">
    <path clip-path="url(#p821ccf5460)" d="M 47.803125 300.310526 
L 50.991696 235.491579 
L 54.180268 233.824211 
L 57.368839 220.485263 
L 60.557411 250.497895 
L 63.745982 257.167368 
L 66.934554 203.811579 
L 70.123125 172.131579 
L 73.311696 162.127368 
L 76.500268 167.129474 
L 79.688839 187.137895 
L 82.877411 247.163158 
L 86.065982 160.46 
L 89.254554 137.116842 
L 95.631696 190.472632 
L 98.820268 147.121053 
L 102.008839 193.807368 
L 105.197411 173.798947 
L 108.385982 200.476842 
L 111.574554 220.485263 
L 114.763125 217.150526 
L 117.951696 157.125263 
L 121.140268 143.786316 
L 124.328839 163.794737 
L 130.705982 183.803158 
L 137.083125 157.125263 
L 143.460268 170.464211 
L 146.648839 157.125263 
L 149.837411 207.146316 
L 153.025982 157.125263 
L 156.214554 200.476842 
L 162.591696 220.485263 
L 165.780268 190.472632 
L 168.968839 207.146316 
L 172.157411 243.828421 
L 175.345982 160.46 
L 178.534554 248.830526 
L 181.723125 235.491579 
L 184.911696 223.82 
L 188.100268 193.807368 
L 191.288839 267.171579 
L 194.477411 253.832632 
L 197.665982 217.150526 
L 200.854554 187.137895 
L 204.043125 223.82 
L 207.231696 257.167368 
L 210.420268 257.167368 
L 213.608839 267.171579 
L 216.797411 337.201053 
L 219.985982 283.845263 
L 223.174554 250.497895 
L 226.363125 260.502105 
L 229.551696 263.836842 
L 232.740268 210.481053 
L 235.928839 217.150526 
L 239.117411 270.506316 
L 242.305982 283.845263 
L 245.494554 270.506316 
L 248.683125 330.531579 
L 251.871696 250.497895 
L 255.060268 217.150526 
L 258.248839 203.811579 
L 261.437411 323.862105 
L 264.625982 330.531579 
L 267.814554 203.811579 
L 271.003125 267.171579 
L 274.191696 310.523158 
L 277.380268 283.845263 
L 280.568839 283.845263 
L 283.757411 300.518947 
L 286.945982 290.514737 
L 290.134554 277.175789 
L 293.323125 293.849474 
L 296.511696 283.845263 
L 299.700268 307.188421 
L 302.888839 343.870526 
L 306.077411 217.150526 
L 309.265982 273.841053 
L 312.454554 273.841053 
L 315.643125 333.866316 
L 318.831696 270.506316 
L 322.020268 285.512632 
L 325.208839 308.855789 
L 328.397411 308.855789 
L 331.585982 350.54 
L 334.774554 282.177895 
L 337.963125 337.201053 
L 341.151696 285.512632 
L 344.340268 298.851579 
L 347.528839 310.523158 
L 350.717411 293.849474 
L 353.905982 297.184211 
L 357.094554 323.862105 
L 360.283125 330.531579 
L 363.471696 330.531579 
L 366.660268 340.535789 
L 369.848839 260.502105 
L 373.037411 240.493684 
L 376.225982 223.82 
L 379.414554 213.815789 
L 382.603125 207.146316 
L 385.791696 190.472632 
L 388.980268 163.794737 
L 395.357411 130.447368 
L 398.545982 100.434737 
L 401.734554 103.769474 
L 404.923125 87.095789 
L 408.111696 103.769474 
L 411.300268 153.790526 
L 414.488839 170.464211 
L 417.677411 163.794737 
L 420.865982 117.108421 
L 424.054554 80.426316 
L 427.243125 97.1 
L 430.431696 77.091579 
L 433.620268 100.434737 
L 436.808839 93.765263 
L 439.997411 73.756842 
L 443.185982 97.1 
L 446.374554 60.417895 
L 449.563125 33.74 
L 452.751696 90.430526 
L 455.940268 133.782105 
L 459.128839 107.104211 
L 462.317411 143.786316 
L 465.505982 117.108421 
L 468.694554 103.769474 
L 471.883125 117.108421 
L 475.071696 123.777895 
L 478.260268 153.790526 
L 481.448839 342.203158 
L 484.637411 330.531579 
L 487.825982 108.771579 
L 491.014554 133.782105 
L 494.203125 187.137895 
L 497.391696 173.798947 
L 500.580268 127.112632 
L 503.768839 120.443158 
L 506.957411 137.116842 
L 510.145982 167.129474 
L 513.334554 163.794737 
L 516.523125 153.790526 
L 519.711696 157.125263 
L 522.900268 143.786316 
L 526.088839 180.468421 
L 529.277411 193.807368 
L 532.465982 233.824211 
L 535.654554 143.786316 
L 538.843125 220.485263 
L 542.031696 173.798947 
L 545.220268 187.137895 
L 548.408839 230.489474 
L 551.597411 187.137895 
L 554.785982 197.142105 
L 557.974554 170.464211 
L 561.163125 237.158947 
L 564.351696 170.464211 
L 567.540268 163.794737 
L 570.728839 147.121053 
L 573.917411 140.451579 
L 577.105982 147.121053 
L 580.294554 157.125263 
L 583.483125 120.443158 
L 586.671696 170.464211 
L 589.860268 137.116842 
L 593.048839 133.782105 
L 596.237411 157.125263 
L 599.425982 117.108421 
L 602.614554 160.46 
L 608.991696 173.798947 
L 612.180268 183.803158 
L 615.368839 143.786316 
L 618.557411 163.794737 
L 621.745982 133.782105 
L 624.934554 120.443158 
L 628.123125 147.121053 
L 631.311696 113.773684 
L 634.500268 97.1 
L 637.688839 73.756842 
L 640.877411 163.794737 
L 644.065982 233.824211 
L 647.254554 260.502105 
L 650.443125 237.158947 
L 653.631696 240.493684 
L 656.820268 203.811579 
L 660.008839 227.154737 
L 663.197411 227.154737 
L 666.385982 233.824211 
L 669.574554 247.163158 
L 672.763125 247.163158 
L 675.951696 312.190526 
L 679.140268 272.173684 
L 682.328839 283.845263 
L 682.328839 283.845263 
" style="fill:none;stroke:#1f77b4;stroke-linecap:square;stroke-width:1.5;"/>
   </g>
   <g id="line2d_32">
    <path clip-path="url(#p821ccf5460)" d="M 47.803125 350.331579 
L 50.991696 267.171579 
L 54.180268 197.142105 
L 57.368839 232.573684 
L 60.557411 234.241053 
L 63.745982 232.573684 
L 66.934554 221.944211 
L 70.123125 227.154737 
L 73.311696 227.154737 
L 76.500268 225.487368 
L 79.688839 219.026316 
L 82.877411 218.401053 
L 86.065982 218.401053 
L 89.254554 223.611579 
L 92.443125 227.154737 
L 95.631696 225.487368 
L 98.820268 234.241053 
L 102.008839 236.116842 
L 105.197411 239.66 
L 108.385982 232.573684 
L 111.574554 223.611579 
L 114.763125 227.154737 
L 117.951696 227.154737 
L 121.140268 220.068421 
L 124.328839 218.401053 
L 127.517411 216.525263 
L 130.705982 200.685263 
L 133.894554 190.055789 
L 137.083125 202.977895 
L 140.271696 190.055789 
L 143.460268 186.512632 
L 146.648839 185.262105 
L 149.837411 182.969474 
L 153.025982 197.142105 
L 156.214554 194.224211 
L 159.403125 191.931579 
L 162.591696 200.685263 
L 165.780268 202.561053 
L 168.968839 206.521053 
L 172.157411 209.647368 
L 175.345982 199.017895 
L 178.534554 207.771579 
L 181.723125 197.142105 
L 184.911696 201.310526 
L 188.100268 197.142105 
L 191.288839 202.561053 
L 194.477411 211.314737 
L 197.665982 209.647368 
L 200.854554 211.94 
L 204.043125 211.314737 
L 207.231696 200.685263 
L 210.420268 195.474737 
L 213.608839 196.1 
L 216.797411 200.685263 
L 219.985982 204.228421 
L 223.174554 202.561053 
L 226.363125 202.561053 
L 229.551696 204.853684 
L 232.740268 202.561053 
L 235.928839 197.142105 
L 239.117411 195.474737 
L 242.305982 197.767368 
L 245.494554 195.474737 
L 248.683125 195.474737 
L 251.871696 197.142105 
L 255.060268 195.891579 
L 258.248839 195.474737 
L 264.625982 209.647368 
L 267.814554 211.314737 
L 271.003125 210.064211 
L 274.191696 211.314737 
L 277.380268 211.314737 
L 280.568839 209.647368 
L 283.757411 211.314737 
L 286.945982 211.314737 
L 290.134554 210.064211 
L 293.323125 211.314737 
L 296.511696 209.647368 
L 299.700268 211.314737 
L 302.888839 195.474737 
L 306.077411 195.891579 
L 309.265982 197.142105 
L 312.454554 195.474737 
L 315.643125 195.474737 
L 318.831696 195.891579 
L 322.020268 197.142105 
L 325.208839 195.474737 
L 328.397411 195.474737 
L 331.585982 196.1 
L 334.774554 197.142105 
L 337.963125 195.474737 
L 341.151696 195.891579 
L 344.340268 197.142105 
L 347.528839 195.474737 
L 350.717411 195.474737 
L 353.905982 195.891579 
L 357.094554 197.142105 
L 360.283125 195.474737 
L 363.471696 200.685263 
L 366.660268 210.064211 
L 369.848839 211.314737 
L 373.037411 211.314737 
L 376.225982 209.647368 
L 379.414554 211.314737 
L 382.603125 209.647368 
L 385.791696 211.314737 
L 388.980268 211.94 
L 392.168839 209.647368 
L 395.357411 211.314737 
L 398.545982 211.314737 
L 401.734554 209.647368 
L 404.923125 211.314737 
L 408.111696 211.314737 
L 411.300268 210.064211 
L 414.488839 211.314737 
L 417.677411 209.647368 
L 420.865982 211.314737 
L 424.054554 211.314737 
L 427.243125 209.647368 
L 430.431696 211.94 
L 433.620268 211.314737 
L 436.808839 209.647368 
L 439.997411 211.314737 
L 443.185982 209.647368 
L 446.374554 211.314737 
L 449.563125 211.314737 
L 452.751696 210.064211 
L 455.940268 211.314737 
L 459.128839 211.314737 
L 462.317411 209.647368 
L 465.505982 211.314737 
L 468.694554 211.314737 
L 471.883125 210.064211 
L 475.071696 211.314737 
L 478.260268 209.647368 
L 481.448839 211.314737 
L 484.637411 211.314737 
L 487.825982 206.104211 
L 491.014554 202.977895 
L 494.203125 211.314737 
L 497.391696 214.857895 
L 500.580268 215.066316 
L 503.768839 211.106316 
L 506.957411 211.314737 
L 510.145982 216.525263 
L 513.334554 209.647368 
L 516.523125 213.607368 
L 519.711696 213.190526 
L 522.900268 211.314737 
L 526.088839 214.857895 
L 529.277411 211.314737 
L 532.465982 209.647368 
L 535.654554 213.190526 
L 538.843125 211.94 
L 542.031696 213.190526 
L 545.220268 213.190526 
L 548.408839 211.314737 
L 551.597411 225.487368 
L 554.785982 236.116842 
L 557.974554 234.241053 
L 561.163125 237.784211 
L 564.351696 225.487368 
L 567.540268 227.154737 
L 570.728839 225.487368 
L 573.917411 225.487368 
L 577.105982 227.154737 
L 580.294554 223.611579 
L 583.483125 229.030526 
L 586.671696 232.573684 
L 589.860268 234.241053 
L 593.048839 236.116842 
L 596.237411 241.327368 
L 599.425982 256.750526 
L 602.614554 257.375789 
L 605.803125 255.5 
L 608.991696 248.413684 
L 612.180268 246.746316 
L 615.368839 248.413684 
L 618.557411 247.996842 
L 621.745982 246.746316 
L 624.934554 239.66 
L 628.123125 237.784211 
L 631.311696 237.784211 
L 634.500268 236.116842 
L 637.688839 237.784211 
L 644.065982 237.784211 
L 647.254554 239.66 
L 650.443125 246.746316 
L 653.631696 255.083158 
L 656.820268 260.918947 
L 660.008839 257.375789 
L 663.197411 264.462105 
L 666.385982 270.923158 
L 669.574554 269.672632 
L 672.763125 264.462105 
L 675.951696 258.417895 
L 679.140268 259.043158 
L 682.328839 253.832632 
L 685.517411 341.786316 
L 685.517411 341.786316 
" style="fill:none;stroke:#ff7f0e;stroke-dasharray:6,2.25;stroke-dashoffset:0;stroke-width:1.5;"/>
   </g>
   <g id="line2d_33">
    <path clip-path="url(#p821ccf5460)" d="M 47.803125 345.537895 
L 50.991696 332.198947 
L 54.180268 340.535789 
L 60.557411 337.201053 
L 63.745982 343.870526 
L 66.934554 343.870526 
L 73.311696 347.205263 
L 76.500268 347.205263 
L 79.688839 345.537895 
L 86.065982 345.537895 
L 89.254554 348.872632 
L 92.443125 348.872632 
L 95.631696 347.205263 
L 98.820268 348.872632 
L 102.008839 347.205263 
L 108.385982 347.205263 
L 111.574554 345.537895 
L 114.763125 345.537895 
L 117.951696 347.205263 
L 124.328839 347.205263 
L 127.517411 338.868421 
L 130.705982 318.86 
L 133.894554 312.190526 
L 137.083125 323.862105 
L 140.271696 327.196842 
L 143.460268 333.866316 
L 146.648839 342.203158 
L 149.837411 343.870526 
L 153.025982 342.203158 
L 156.214554 342.203158 
L 159.403125 340.535789 
L 162.591696 340.535789 
L 168.968839 337.201053 
L 172.157411 337.201053 
L 178.534554 333.866316 
L 181.723125 328.864211 
L 184.911696 327.196842 
L 188.100268 333.866316 
L 191.288839 338.868421 
L 194.477411 340.535789 
L 200.854554 347.205263 
L 204.043125 345.537895 
L 207.231696 347.205263 
L 210.420268 343.870526 
L 213.608839 345.537895 
L 216.797411 343.870526 
L 219.985982 345.537895 
L 223.174554 335.533684 
L 226.363125 332.198947 
L 229.551696 332.198947 
L 232.740268 338.868421 
L 235.928839 337.201053 
L 239.117411 313.857895 
L 242.305982 312.190526 
L 245.494554 323.862105 
L 248.683125 323.862105 
L 251.871696 328.864211 
L 255.060268 342.203158 
L 258.248839 343.870526 
L 261.437411 347.205263 
L 267.814554 347.205263 
L 271.003125 348.872632 
L 274.191696 347.205263 
L 277.380268 348.872632 
L 280.568839 348.872632 
L 283.757411 347.205263 
L 286.945982 348.872632 
L 290.134554 347.205263 
L 293.323125 348.872632 
L 296.511696 347.205263 
L 299.700268 348.872632 
L 302.888839 347.205263 
L 306.077411 348.872632 
L 309.265982 348.872632 
L 312.454554 347.205263 
L 315.643125 348.872632 
L 318.831696 348.872632 
L 322.020268 347.205263 
L 325.208839 348.872632 
L 328.397411 347.205263 
L 331.585982 347.205263 
L 334.774554 348.872632 
L 337.963125 347.205263 
L 341.151696 348.872632 
L 344.340268 347.205263 
L 347.528839 348.872632 
L 350.717411 348.872632 
L 353.905982 347.205263 
L 357.094554 348.872632 
L 360.283125 347.205263 
L 373.037411 347.205263 
L 376.225982 348.872632 
L 379.414554 348.872632 
L 382.603125 347.205263 
L 385.791696 348.872632 
L 388.980268 347.205263 
L 392.168839 348.872632 
L 395.357411 347.205263 
L 398.545982 348.872632 
L 401.734554 347.205263 
L 404.923125 348.872632 
L 414.488839 338.868421 
L 417.677411 343.870526 
L 420.865982 345.537895 
L 436.808839 345.537895 
L 439.997411 347.205263 
L 443.185982 345.537895 
L 446.374554 347.205263 
L 449.563125 347.205263 
L 452.751696 348.872632 
L 455.940268 347.205263 
L 459.128839 348.872632 
L 462.317411 347.205263 
L 465.505982 348.872632 
L 468.694554 348.872632 
L 471.883125 347.205263 
L 475.071696 348.872632 
L 478.260268 347.205263 
L 481.448839 347.205263 
L 484.637411 348.872632 
L 487.825982 347.205263 
L 491.014554 348.872632 
L 494.203125 347.205263 
L 497.391696 348.872632 
L 500.580268 348.872632 
L 503.768839 347.205263 
L 519.711696 347.205263 
L 522.900268 345.537895 
L 526.088839 347.205263 
L 529.277411 345.537895 
L 532.465982 347.205263 
L 545.220268 347.205263 
L 548.408839 345.537895 
L 551.597411 347.205263 
L 567.540268 347.205263 
L 570.728839 343.870526 
L 573.917411 337.201053 
L 577.105982 335.533684 
L 580.294554 332.198947 
L 583.483125 332.198947 
L 586.671696 328.864211 
L 589.860268 328.864211 
L 596.237411 335.533684 
L 599.425982 333.866316 
L 602.614554 340.535789 
L 605.803125 340.535789 
L 608.991696 342.203158 
L 612.180268 347.205263 
L 621.745982 347.205263 
L 624.934554 348.872632 
L 628.123125 348.872632 
L 631.311696 347.205263 
L 634.500268 347.205263 
L 637.688839 348.872632 
L 640.877411 347.205263 
L 644.065982 348.872632 
L 647.254554 347.205263 
L 650.443125 348.872632 
L 653.631696 348.872632 
L 656.820268 347.205263 
L 669.574554 347.205263 
L 672.763125 348.872632 
L 675.951696 347.205263 
L 682.328839 347.205263 
L 682.328839 347.205263 
" style="fill:none;stroke:#2ca02c;stroke-dasharray:1.5,1.5;stroke-dashoffset:0;stroke-width:1.5;"/>
   </g>
   <g id="line2d_34">
    <path clip-path="url(#p821ccf5460)" d="M 50.991696 350.331579 
L 54.180268 308.438947 
L 57.368839 258.626316 
L 60.557411 252.582105 
L 63.745982 306.98 
L 66.934554 308.022105 
L 70.123125 306.98 
L 73.311696 307.813684 
L 76.500268 308.022105 
L 79.688839 308.855789 
L 82.877411 306.146316 
L 86.065982 307.813684 
L 89.254554 308.855789 
L 92.443125 308.022105 
L 95.631696 307.813684 
L 98.820268 310.523158 
L 102.008839 309.481053 
L 105.197411 308.022105 
L 108.385982 310.314737 
L 111.574554 308.022105 
L 114.763125 307.813684 
L 117.951696 306.98 
L 121.140268 309.481053 
L 124.328839 307.813684 
L 127.517411 308.855789 
L 130.705982 309.272632 
L 133.894554 310.523158 
L 137.083125 309.689474 
L 140.271696 308.022105 
L 143.460268 310.523158 
L 146.648839 307.813684 
L 149.837411 309.689474 
L 153.025982 310.106316 
L 156.214554 311.148421 
L 159.403125 311.356842 
L 162.591696 312.190526 
L 165.780268 312.815789 
L 168.968839 311.148421 
L 172.157411 312.190526 
L 175.345982 311.148421 
L 178.534554 309.481053 
L 181.723125 311.148421 
L 184.911696 308.855789 
L 188.100268 309.481053 
L 191.288839 310.523158 
L 194.477411 311.148421 
L 197.665982 309.481053 
L 200.854554 311.982105 
L 204.043125 311.356842 
L 207.231696 311.148421 
L 210.420268 311.356842 
L 213.608839 311.982105 
L 216.797411 311.773684 
L 219.985982 310.94 
L 223.174554 311.773684 
L 226.363125 313.024211 
L 229.551696 311.356842 
L 232.740268 313.649474 
L 235.928839 311.356842 
L 239.117411 311.356842 
L 242.305982 311.982105 
L 248.683125 311.565263 
L 251.871696 311.773684 
L 255.060268 311.148421 
L 258.248839 309.689474 
L 261.437411 310.314737 
L 264.625982 309.481053 
L 267.814554 311.356842 
L 271.003125 310.94 
L 277.380268 311.356842 
L 280.568839 311.982105 
L 283.757411 311.148421 
L 286.945982 311.356842 
L 290.134554 312.190526 
L 293.323125 312.815789 
L 296.511696 314.483158 
L 299.700268 314.066316 
L 302.888839 315.525263 
L 306.077411 313.649474 
L 309.265982 313.024211 
L 312.454554 312.190526 
L 315.643125 315.108421 
L 318.831696 310.731579 
L 322.020268 314.066316 
L 325.208839 313.024211 
L 328.397411 311.356842 
L 331.585982 314.691579 
L 334.774554 310.314737 
L 337.963125 312.815789 
L 341.151696 312.190526 
L 344.340268 312.815789 
L 347.528839 313.024211 
L 350.717411 313.857895 
L 353.905982 312.815789 
L 357.094554 313.024211 
L 360.283125 313.024211 
L 363.471696 312.398947 
L 366.660268 311.982105 
L 369.848839 311.148421 
L 373.037411 311.982105 
L 376.225982 313.024211 
L 379.414554 312.815789 
L 382.603125 312.398947 
L 385.791696 311.356842 
L 388.980268 311.148421 
L 392.168839 310.314737 
L 395.357411 309.689474 
L 398.545982 309.481053 
L 401.734554 311.982105 
L 404.923125 311.356842 
L 408.111696 309.689474 
L 411.300268 312.190526 
L 414.488839 309.689474 
L 417.677411 312.815789 
L 420.865982 311.982105 
L 424.054554 311.356842 
L 427.243125 314.483158 
L 430.431696 313.857895 
L 433.620268 313.024211 
L 436.808839 311.356842 
L 439.997411 313.024211 
L 443.185982 311.982105 
L 446.374554 313.024211 
L 449.563125 312.815789 
L 452.751696 311.982105 
L 455.940268 313.024211 
L 459.128839 313.024211 
L 462.317411 313.649474 
L 465.505982 311.356842 
L 468.694554 312.815789 
L 471.883125 315.316842 
L 475.071696 314.691579 
L 478.260268 314.691579 
L 481.448839 315.525263 
L 484.637411 314.483158 
L 487.825982 314.691579 
L 491.014554 314.691579 
L 494.203125 313.649474 
L 497.391696 314.691579 
L 500.580268 316.358947 
L 506.957411 314.691579 
L 513.334554 314.691579 
L 516.523125 315.525263 
L 519.711696 314.483158 
L 522.900268 316.358947 
L 526.088839 315.525263 
L 529.277411 316.358947 
L 532.465982 314.691579 
L 535.654554 315.525263 
L 538.843125 314.691579 
L 542.031696 316.150526 
L 545.220268 316.358947 
L 548.408839 315.316842 
L 551.597411 316.150526 
L 554.785982 314.691579 
L 557.974554 315.316842 
L 561.163125 316.150526 
L 564.351696 314.691579 
L 567.540268 316.150526 
L 570.728839 317.192632 
L 573.917411 316.358947 
L 577.105982 316.150526 
L 580.294554 317.192632 
L 583.483125 316.358947 
L 589.860268 316.358947 
L 593.048839 315.316842 
L 596.237411 316.358947 
L 599.425982 316.150526 
L 602.614554 317.192632 
L 605.803125 316.358947 
L 612.180268 316.358947 
L 615.368839 315.525263 
L 618.557411 314.483158 
L 621.745982 314.691579 
L 624.934554 316.984211 
L 628.123125 314.691579 
L 631.311696 314.483158 
L 634.500268 316.358947 
L 637.688839 317.192632 
L 640.877411 316.358947 
L 644.065982 316.358947 
L 647.254554 315.733684 
L 650.443125 316.358947 
L 656.820268 316.358947 
L 660.008839 317.192632 
L 663.197411 316.150526 
L 666.385982 317.817895 
L 669.574554 318.026316 
L 675.951696 316.358947 
L 679.140268 317.817895 
L 682.328839 316.984211 
L 685.517411 348.872632 
L 685.517411 348.872632 
" style="fill:none;stroke:#d62728;stroke-dasharray:4.5,1.5,2.25,1.5;stroke-dashoffset:0;stroke-width:1.5;"/>
   </g>
   <g id="line2d_35"/>
   <g id="line2d_36"/>
   <g id="line2d_37"/>
   <g id="line2d_38"/>
   <g id="line2d_39"/>
   <g id="patch_3">
    <path d="M 47.803125 350.54 
L 47.803125 17.9 
" style="fill:none;stroke:#000000;stroke-linecap:square;stroke-linejoin:miter;stroke-width:0.8;"/>
   </g>
   <g id="patch_4">
    <path d="M 717.403125 350.54 
L 717.403125 17.9 
" style="fill:none;stroke:#000000;stroke-linecap:square;stroke-linejoin:miter;stroke-width:0.8;"/>
   </g>
   <g id="patch_5">
    <path d="M 47.803125 350.54 
L 717.403125 350.54 
" style="fill:none;stroke:#000000;stroke-linecap:square;stroke-linejoin:miter;stroke-width:0.8;"/>
   </g>
   <g id="patch_6">
    <path d="M 47.803125 17.9 
L 717.403125 17.9 
" style="fill:none;stroke:#000000;stroke-linecap:square;stroke-linejoin:miter;stroke-width:0.8;"/>
   </g>
   <g id="legend_1">
    <g id="patch_7">
     <path d="M 726.499125 221.2475 
L 804.416625 221.2475 
Q 806.816625 221.2475 806.816625 218.8475 
L 806.816625 149.5925 
Q 806.816625 147.1925 804.416625 147.1925 
L 726.499125 147.1925 
Q 724.099125 147.1925 724.099125 149.5925 
L 724.099125 218.8475 
Q 724.099125 221.2475 726.499125 221.2475 
z
" style="fill:#ffffff;opacity:0.8;stroke:#cccccc;stroke-linejoin:miter;"/>
    </g>
    <g id="line2d_40">
     <path d="M 728.899125 156.910625 
L 752.899125 156.910625 
" style="fill:none;stroke:#1f77b4;stroke-linecap:square;stroke-width:1.5;"/>
    </g>
    <g id="line2d_41"/>
    <g id="text_18">
     <!-- bbr -->
     <defs>
      <path d="M 41.109375 46.296875 
Q 39.59375 47.171875 37.8125 47.578125 
Q 36.03125 48 33.890625 48 
Q 26.265625 48 22.1875 43.046875 
Q 18.109375 38.09375 18.109375 28.8125 
L 18.109375 0 
L 9.078125 0 
L 9.078125 54.6875 
L 18.109375 54.6875 
L 18.109375 46.1875 
Q 20.953125 51.171875 25.484375 53.578125 
Q 30.03125 56 36.53125 56 
Q 37.453125 56 38.578125 55.875 
Q 39.703125 55.765625 41.0625 55.515625 
z
" id="DejaVuSans-72"/>
     </defs>
     <g transform="translate(762.499125 161.110625)scale(0.12 -0.12)">
      <use xlink:href="#DejaVuSans-62"/>
      <use x="63.476562" xlink:href="#DejaVuSans-62"/>
      <use x="126.953125" xlink:href="#DejaVuSans-72"/>
     </g>
    </g>
    <g id="line2d_42">
     <path d="M 728.899125 174.524375 
L 752.899125 174.524375 
" style="fill:none;stroke:#ff7f0e;stroke-dasharray:6,2.25;stroke-dashoffset:0;stroke-width:1.5;"/>
    </g>
    <g id="line2d_43"/>
    <g id="text_19">
     <!-- aurora -->
     <defs>
      <path d="M 8.5 21.578125 
L 8.5 54.6875 
L 17.484375 54.6875 
L 17.484375 21.921875 
Q 17.484375 14.15625 20.5 10.265625 
Q 23.53125 6.390625 29.59375 6.390625 
Q 36.859375 6.390625 41.078125 11.03125 
Q 45.3125 15.671875 45.3125 23.6875 
L 45.3125 54.6875 
L 54.296875 54.6875 
L 54.296875 0 
L 45.3125 0 
L 45.3125 8.40625 
Q 42.046875 3.421875 37.71875 1 
Q 33.40625 -1.421875 27.6875 -1.421875 
Q 18.265625 -1.421875 13.375 4.4375 
Q 8.5 10.296875 8.5 21.578125 
z
M 31.109375 56 
z
" id="DejaVuSans-75"/>
      <path d="M 30.609375 48.390625 
Q 23.390625 48.390625 19.1875 42.75 
Q 14.984375 37.109375 14.984375 27.296875 
Q 14.984375 17.484375 19.15625 11.84375 
Q 23.34375 6.203125 30.609375 6.203125 
Q 37.796875 6.203125 41.984375 11.859375 
Q 46.1875 17.53125 46.1875 27.296875 
Q 46.1875 37.015625 41.984375 42.703125 
Q 37.796875 48.390625 30.609375 48.390625 
z
M 30.609375 56 
Q 42.328125 56 49.015625 48.375 
Q 55.71875 40.765625 55.71875 27.296875 
Q 55.71875 13.875 49.015625 6.21875 
Q 42.328125 -1.421875 30.609375 -1.421875 
Q 18.84375 -1.421875 12.171875 6.21875 
Q 5.515625 13.875 5.515625 27.296875 
Q 5.515625 40.765625 12.171875 48.375 
Q 18.84375 56 30.609375 56 
z
" id="DejaVuSans-6f"/>
     </defs>
     <g transform="translate(762.499125 178.724375)scale(0.12 -0.12)">
      <use xlink:href="#DejaVuSans-61"/>
      <use x="61.279297" xlink:href="#DejaVuSans-75"/>
      <use x="124.658203" xlink:href="#DejaVuSans-72"/>
      <use x="165.740234" xlink:href="#DejaVuSans-6f"/>
      <use x="226.921875" xlink:href="#DejaVuSans-72"/>
      <use x="268.035156" xlink:href="#DejaVuSans-61"/>
     </g>
    </g>
    <g id="line2d_44">
     <path d="M 728.899125 192.138125 
L 752.899125 192.138125 
" style="fill:none;stroke:#2ca02c;stroke-dasharray:1.5,1.5;stroke-dashoffset:0;stroke-width:1.5;"/>
    </g>
    <g id="line2d_45"/>
    <g id="text_20">
     <!-- pareto -->
     <defs>
      <path d="M 18.109375 8.203125 
L 18.109375 -20.796875 
L 9.078125 -20.796875 
L 9.078125 54.6875 
L 18.109375 54.6875 
L 18.109375 46.390625 
Q 20.953125 51.265625 25.265625 53.625 
Q 29.59375 56 35.59375 56 
Q 45.5625 56 51.78125 48.09375 
Q 58.015625 40.1875 58.015625 27.296875 
Q 58.015625 14.40625 51.78125 6.484375 
Q 45.5625 -1.421875 35.59375 -1.421875 
Q 29.59375 -1.421875 25.265625 0.953125 
Q 20.953125 3.328125 18.109375 8.203125 
z
M 48.6875 27.296875 
Q 48.6875 37.203125 44.609375 42.84375 
Q 40.53125 48.484375 33.40625 48.484375 
Q 26.265625 48.484375 22.1875 42.84375 
Q 18.109375 37.203125 18.109375 27.296875 
Q 18.109375 17.390625 22.1875 11.75 
Q 26.265625 6.109375 33.40625 6.109375 
Q 40.53125 6.109375 44.609375 11.75 
Q 48.6875 17.390625 48.6875 27.296875 
z
" id="DejaVuSans-70"/>
     </defs>
     <g transform="translate(762.499125 196.338125)scale(0.12 -0.12)">
      <use xlink:href="#DejaVuSans-70"/>
      <use x="63.476562" xlink:href="#DejaVuSans-61"/>
      <use x="124.755859" xlink:href="#DejaVuSans-72"/>
      <use x="165.837891" xlink:href="#DejaVuSans-65"/>
      <use x="227.361328" xlink:href="#DejaVuSans-74"/>
      <use x="266.570312" xlink:href="#DejaVuSans-6f"/>
     </g>
    </g>
    <g id="line2d_46">
     <path d="M 728.899125 209.751875 
L 752.899125 209.751875 
" style="fill:none;stroke:#d62728;stroke-dasharray:4.5,1.5,2.25,1.5;stroke-dashoffset:0;stroke-width:1.5;"/>
    </g>
    <g id="line2d_47"/>
    <g id="text_21">
     <!-- pcc -->
     <defs>
      <path d="M 48.78125 52.59375 
L 48.78125 44.1875 
Q 44.96875 46.296875 41.140625 47.34375 
Q 37.3125 48.390625 33.40625 48.390625 
Q 24.65625 48.390625 19.8125 42.84375 
Q 14.984375 37.3125 14.984375 27.296875 
Q 14.984375 17.28125 19.8125 11.734375 
Q 24.65625 6.203125 33.40625 6.203125 
Q 37.3125 6.203125 41.140625 7.25 
Q 44.96875 8.296875 48.78125 10.40625 
L 48.78125 2.09375 
Q 45.015625 0.34375 40.984375 -0.53125 
Q 36.96875 -1.421875 32.421875 -1.421875 
Q 20.0625 -1.421875 12.78125 6.34375 
Q 5.515625 14.109375 5.515625 27.296875 
Q 5.515625 40.671875 12.859375 48.328125 
Q 20.21875 56 33.015625 56 
Q 37.15625 56 41.109375 55.140625 
Q 45.0625 54.296875 48.78125 52.59375 
z
" id="DejaVuSans-63"/>
     </defs>
     <g transform="translate(762.499125 213.951875)scale(0.12 -0.12)">
      <use xlink:href="#DejaVuSans-70"/>
      <use x="63.476562" xlink:href="#DejaVuSans-63"/>
      <use x="118.457031" xlink:href="#DejaVuSans-63"/>
     </g>
    </g>
   </g>
  </g>
 </g>
 <defs>
  <clipPath id="p821ccf5460">
   <rect height="332.64" width="669.6" x="47.803125" y="17.9"/>
  </clipPath>
 </defs>
</svg>
