<?xml version="1.0" encoding="utf-8" standalone="no"?>
<!DOCTYPE svg PUBLIC "-//W3C//DTD SVG 1.1//EN"
  "http://www.w3.org/Graphics/SVG/1.1/DTD/svg11.dtd">
<!-- Created with matplotlib (http://matplotlib.org/) -->
<svg height="395.29625pt" version="1.1" viewBox="0 0 821.216625 395.29625" width="821.216625pt" xmlns="http://www.w3.org/2000/svg" xmlns:xlink="http://www.w3.org/1999/xlink">
 <defs>
  <style type="text/css">
*{stroke-linecap:butt;stroke-linejoin:round;}
  </style>
 </defs>
 <g id="figure_1">
  <g id="patch_1">
   <path d="M 0 395.29625 
L 821.216625 395.29625 
L 821.216625 0 
L 0 0 
z
" style="fill:#ffffff;"/>
  </g>
  <g id="axes_1">
   <g id="patch_2">
    <path d="M 47.803125 350.54 
L 717.403125 350.54 
L 717.403125 17.9 
L 47.803125 17.9 
z
" style="fill:#ffffff;"/>
   </g>
   <g id="PolyCollection_1">
    <path clip-path="url(#p8a43952c93)" d="M 47.803125 269.654894 
L 47.803125 350.54 
L 50.991696 350.54 
L 54.180268 350.54 
L 57.368839 350.54 
L 60.557411 350.54 
L 63.745982 350.54 
L 66.934554 350.54 
L 70.123125 350.54 
L 73.311696 350.54 
L 76.500268 350.54 
L 79.688839 350.54 
L 82.877411 350.54 
L 86.065982 350.54 
L 89.254554 350.54 
L 92.443125 350.54 
L 95.631696 350.54 
L 98.820268 350.54 
L 102.008839 350.54 
L 105.197411 350.54 
L 108.385982 350.54 
L 111.574554 350.54 
L 114.763125 350.54 
L 117.951696 350.54 
L 121.140268 350.54 
L 124.328839 350.54 
L 127.517411 350.54 
L 130.705982 350.54 
L 133.894554 350.54 
L 137.083125 350.54 
L 140.271696 350.54 
L 143.460268 350.54 
L 146.648839 350.54 
L 149.837411 350.54 
L 153.025982 350.54 
L 156.214554 350.54 
L 159.403125 350.54 
L 162.591696 350.54 
L 165.780268 350.54 
L 168.968839 350.54 
L 172.157411 350.54 
L 175.345982 350.54 
L 178.534554 350.54 
L 181.723125 350.54 
L 184.911696 350.54 
L 188.100268 350.54 
L 191.288839 350.54 
L 194.477411 350.54 
L 197.665982 350.54 
L 200.854554 350.54 
L 204.043125 350.54 
L 207.231696 350.54 
L 210.420268 350.54 
L 213.608839 350.54 
L 216.797411 350.54 
L 219.985982 350.54 
L 223.174554 350.54 
L 226.363125 350.54 
L 229.551696 350.54 
L 232.740268 350.54 
L 235.928839 350.54 
L 239.117411 350.54 
L 242.305982 350.54 
L 245.494554 350.54 
L 248.683125 350.54 
L 251.871696 350.54 
L 255.060268 350.54 
L 258.248839 350.54 
L 261.437411 350.54 
L 264.625982 350.54 
L 267.814554 350.54 
L 271.003125 350.54 
L 274.191696 350.54 
L 277.380268 350.54 
L 280.568839 350.54 
L 283.757411 350.54 
L 286.945982 350.54 
L 290.134554 350.54 
L 293.323125 350.54 
L 296.511696 350.54 
L 299.700268 350.54 
L 302.888839 350.54 
L 306.077411 350.54 
L 309.265982 350.54 
L 312.454554 350.54 
L 315.643125 350.54 
L 318.831696 350.54 
L 322.020268 350.54 
L 325.208839 350.54 
L 328.397411 350.54 
L 331.585982 350.54 
L 334.774554 350.54 
L 337.963125 350.54 
L 341.151696 350.54 
L 344.340268 350.54 
L 347.528839 350.54 
L 350.717411 350.54 
L 353.905982 350.54 
L 357.094554 350.54 
L 360.283125 350.54 
L 363.471696 350.54 
L 366.660268 350.54 
L 369.848839 350.54 
L 373.037411 350.54 
L 376.225982 350.54 
L 379.414554 350.54 
L 382.603125 350.54 
L 385.791696 350.54 
L 388.980268 350.54 
L 392.168839 350.54 
L 395.357411 350.54 
L 398.545982 350.54 
L 401.734554 350.54 
L 404.923125 350.54 
L 408.111696 350.54 
L 411.300268 350.54 
L 414.488839 350.54 
L 417.677411 350.54 
L 420.865982 350.54 
L 424.054554 350.54 
L 427.243125 350.54 
L 430.431696 350.54 
L 433.620268 350.54 
L 436.808839 350.54 
L 439.997411 350.54 
L 443.185982 350.54 
L 446.374554 350.54 
L 449.563125 350.54 
L 452.751696 350.54 
L 455.940268 350.54 
L 459.128839 350.54 
L 462.317411 350.54 
L 465.505982 350.54 
L 468.694554 350.54 
L 471.883125 350.54 
L 475.071696 350.54 
L 478.260268 350.54 
L 481.448839 350.54 
L 484.637411 350.54 
L 487.825982 350.54 
L 491.014554 350.54 
L 494.203125 350.54 
L 497.391696 350.54 
L 500.580268 350.54 
L 503.768839 350.54 
L 506.957411 350.54 
L 510.145982 350.54 
L 513.334554 350.54 
L 516.523125 350.54 
L 519.711696 350.54 
L 522.900268 350.54 
L 526.088839 350.54 
L 529.277411 350.54 
L 532.465982 350.54 
L 535.654554 350.54 
L 538.843125 350.54 
L 542.031696 350.54 
L 545.220268 350.54 
L 548.408839 350.54 
L 551.597411 350.54 
L 554.785982 350.54 
L 557.974554 350.54 
L 561.163125 350.54 
L 564.351696 350.54 
L 567.540268 350.54 
L 570.728839 350.54 
L 573.917411 350.54 
L 577.105982 350.54 
L 580.294554 350.54 
L 583.483125 350.54 
L 586.671696 350.54 
L 589.860268 350.54 
L 593.048839 350.54 
L 596.237411 350.54 
L 599.425982 350.54 
L 602.614554 350.54 
L 605.803125 350.54 
L 608.991696 350.54 
L 612.180268 350.54 
L 615.368839 350.54 
L 618.557411 350.54 
L 621.745982 350.54 
L 624.934554 350.54 
L 628.123125 350.54 
L 631.311696 350.54 
L 634.500268 350.54 
L 637.688839 350.54 
L 640.877411 350.54 
L 644.065982 350.54 
L 647.254554 350.54 
L 650.443125 350.54 
L 653.631696 350.54 
L 656.820268 350.54 
L 660.008839 350.54 
L 663.197411 350.54 
L 666.385982 350.54 
L 669.574554 350.54 
L 672.763125 350.54 
L 675.951696 350.54 
L 679.140268 350.54 
L 682.328839 350.54 
L 685.517411 350.54 
L 685.517411 330.318723 
L 685.517411 330.318723 
L 682.328839 276.395319 
L 679.140268 271.34 
L 675.951696 279.765532 
L 672.763125 249.433617 
L 669.574554 244.378298 
L 666.385982 229.21234 
L 663.197411 251.118723 
L 660.008839 210.67617 
L 656.820268 205.620851 
L 653.631696 237.637872 
L 650.443125 229.21234 
L 647.254554 251.118723 
L 644.065982 246.063404 
L 640.877411 208.991064 
L 637.688839 143.271915 
L 634.500268 89.348511 
L 631.311696 75.86766 
L 628.123125 106.199574 
L 624.934554 124.735745 
L 621.745982 143.271915 
L 618.557411 123.050638 
L 615.368839 155.06766 
L 612.180268 170.233617 
L 608.991696 176.974043 
L 605.803125 166.863404 
L 602.614554 158.437872 
L 599.425982 143.271915 
L 596.237411 153.382553 
L 593.048839 123.050638 
L 589.860268 155.06766 
L 586.671696 129.791064 
L 583.483125 163.493191 
L 580.294554 133.161277 
L 577.105982 165.178298 
L 573.917411 165.178298 
L 570.728839 92.718723 
L 567.540268 148.327234 
L 564.351696 193.825106 
L 561.163125 161.808085 
L 557.974554 190.454894 
L 554.785982 160.122979 
L 551.597411 185.399574 
L 548.408839 230.897447 
L 545.220268 187.084681 
L 542.031696 156.752766 
L 538.843125 190.454894 
L 535.654554 222.471915 
L 532.465982 192.14 
L 529.277411 178.659149 
L 526.088839 190.454894 
L 522.900268 133.161277 
L 519.711696 163.493191 
L 516.523125 150.01234 
L 513.334554 155.06766 
L 510.145982 161.808085 
L 506.957411 171.918723 
L 503.768839 143.271915 
L 500.580268 119.680426 
L 497.391696 136.531489 
L 494.203125 173.60383 
L 491.014554 139.901702 
L 487.825982 168.548511 
L 484.637411 173.60383 
L 481.448839 126.420851 
L 478.260268 133.161277 
L 475.071696 87.663404 
L 471.883125 104.514468 
L 468.694554 111.254894 
L 465.505982 84.293191 
L 462.317411 158.437872 
L 459.128839 99.459149 
L 455.940268 116.310213 
L 452.751696 138.216596 
L 449.563125 87.663404 
L 446.374554 62.386809 
L 443.185982 35.425106 
L 439.997411 70.81234 
L 436.808839 91.033617 
L 433.620268 67.442128 
L 430.431696 104.514468 
L 427.243125 84.293191 
L 424.054554 102.829362 
L 420.865982 102.829362 
L 417.677411 123.050638 
L 414.488839 155.06766 
L 411.300268 151.697447 
L 408.111696 150.01234 
L 404.923125 94.40383 
L 401.734554 128.105957 
L 398.545982 97.774043 
L 395.357411 111.254894 
L 392.168839 85.978298 
L 388.980268 52.27617 
L 385.791696 72.497447 
L 382.603125 230.897447 
L 379.414554 33.74 
L 376.225982 60.701702 
L 373.037411 114.625106 
L 369.848839 143.271915 
L 366.660268 301.671915 
L 363.471696 335.374043 
L 360.283125 323.578298 
L 357.094554 335.374043 
L 353.905982 305.042128 
L 350.717411 291.561277 
L 347.528839 306.727234 
L 344.340268 296.616596 
L 341.151696 311.782553 
L 337.963125 321.893191 
L 334.774554 308.41234 
L 331.585982 305.042128 
L 328.397411 296.616596 
L 325.208839 278.080426 
L 322.020268 291.561277 
L 318.831696 283.135745 
L 315.643125 310.097447 
L 312.454554 284.820851 
L 309.265982 273.025106 
L 306.077411 276.395319 
L 302.888839 274.710213 
L 299.700268 305.042128 
L 296.511696 289.87617 
L 293.323125 289.87617 
L 290.134554 288.191064 
L 286.945982 279.765532 
L 283.757411 293.246383 
L 280.568839 291.561277 
L 277.380268 281.450638 
L 274.191696 294.931489 
L 271.003125 340.429362 
L 267.814554 94.40383 
L 264.625982 129.791064 
L 261.437411 188.769787 
L 258.248839 175.288936 
L 255.060268 180.344255 
L 251.871696 229.21234 
L 248.683125 310.097447 
L 245.494554 333.688936 
L 242.305982 235.952766 
L 239.117411 262.914468 
L 235.928839 252.80383 
L 232.740268 224.157021 
L 229.551696 222.471915 
L 226.363125 246.063404 
L 223.174554 283.135745 
L 219.985982 271.34 
L 216.797411 301.671915 
L 213.608839 303.357021 
L 210.420268 242.693191 
L 207.231696 252.80383 
L 204.043125 259.544255 
L 200.854554 185.399574 
L 197.665982 207.305957 
L 194.477411 217.416596 
L 191.288839 266.284681 
L 188.100268 259.544255 
L 184.911696 192.14 
L 181.723125 203.935745 
L 178.534554 235.952766 
L 175.345982 205.620851 
L 172.157411 193.825106 
L 168.968839 208.991064 
L 165.780268 197.195319 
L 162.591696 195.510213 
L 159.403125 224.157021 
L 156.214554 208.991064 
L 153.025982 200.565532 
L 149.837411 150.01234 
L 146.648839 182.029362 
L 143.460268 151.697447 
L 140.271696 163.493191 
L 137.083125 165.178298 
L 133.894554 165.178298 
L 130.705982 161.808085 
L 127.517411 178.659149 
L 124.328839 193.825106 
L 121.140268 146.642128 
L 117.951696 165.178298 
L 114.763125 165.178298 
L 111.574554 200.565532 
L 108.385982 205.620851 
L 105.197411 163.493191 
L 102.008839 210.67617 
L 98.820268 150.01234 
L 95.631696 163.493191 
L 92.443125 237.637872 
L 89.254554 158.437872 
L 86.065982 117.995319 
L 82.877411 185.399574 
L 79.688839 229.21234 
L 76.500268 198.880426 
L 73.311696 163.493191 
L 70.123125 188.769787 
L 66.934554 150.01234 
L 63.745982 188.769787 
L 60.557411 222.471915 
L 57.368839 217.416596 
L 54.180268 264.599574 
L 50.991696 257.859149 
L 47.803125 269.654894 
z
" style="fill:#faf0e6;"/>
   </g>
   <g id="matplotlib.axis_1">
    <g id="xtick_1">
     <g id="line2d_1">
      <path clip-path="url(#p8a43952c93)" d="M 47.803125 350.54 
L 47.803125 17.9 
" style="fill:none;stroke:#b0b0b0;stroke-linecap:square;stroke-width:0.8;"/>
     </g>
     <g id="line2d_2">
      <defs>
       <path d="M 0 0 
L 0 3.5 
" id="m6cb293333f" style="stroke:#000000;stroke-width:0.8;"/>
      </defs>
      <g>
       <use style="stroke:#000000;stroke-width:0.8;" x="47.803125" xlink:href="#m6cb293333f" y="350.54"/>
      </g>
     </g>
     <g id="text_1">
      <!-- 0 -->
      <defs>
       <path d="M 31.78125 66.40625 
Q 24.171875 66.40625 20.328125 58.90625 
Q 16.5 51.421875 16.5 36.375 
Q 16.5 21.390625 20.328125 13.890625 
Q 24.171875 6.390625 31.78125 6.390625 
Q 39.453125 6.390625 43.28125 13.890625 
Q 47.125 21.390625 47.125 36.375 
Q 47.125 51.421875 43.28125 58.90625 
Q 39.453125 66.40625 31.78125 66.40625 
z
M 31.78125 74.21875 
Q 44.046875 74.21875 50.515625 64.515625 
Q 56.984375 54.828125 56.984375 36.375 
Q 56.984375 17.96875 50.515625 8.265625 
Q 44.046875 -1.421875 31.78125 -1.421875 
Q 19.53125 -1.421875 13.0625 8.265625 
Q 6.59375 17.96875 6.59375 36.375 
Q 6.59375 54.828125 13.0625 64.515625 
Q 19.53125 74.21875 31.78125 74.21875 
z
" id="DejaVuSans-30"/>
      </defs>
      <g transform="translate(44.621875 365.138438)scale(0.1 -0.1)">
       <use xlink:href="#DejaVuSans-30"/>
      </g>
     </g>
    </g>
    <g id="xtick_2">
     <g id="line2d_3">
      <path clip-path="url(#p8a43952c93)" d="M 154.088839 350.54 
L 154.088839 17.9 
" style="fill:none;stroke:#b0b0b0;stroke-linecap:square;stroke-width:0.8;"/>
     </g>
     <g id="line2d_4">
      <g>
       <use style="stroke:#000000;stroke-width:0.8;" x="154.088839" xlink:href="#m6cb293333f" y="350.54"/>
      </g>
     </g>
     <g id="text_2">
      <!-- 5 -->
      <defs>
       <path d="M 10.796875 72.90625 
L 49.515625 72.90625 
L 49.515625 64.59375 
L 19.828125 64.59375 
L 19.828125 46.734375 
Q 21.96875 47.46875 24.109375 47.828125 
Q 26.265625 48.1875 28.421875 48.1875 
Q 40.625 48.1875 47.75 41.5 
Q 54.890625 34.8125 54.890625 23.390625 
Q 54.890625 11.625 47.5625 5.09375 
Q 40.234375 -1.421875 26.90625 -1.421875 
Q 22.3125 -1.421875 17.546875 -0.640625 
Q 12.796875 0.140625 7.71875 1.703125 
L 7.71875 11.625 
Q 12.109375 9.234375 16.796875 8.0625 
Q 21.484375 6.890625 26.703125 6.890625 
Q 35.15625 6.890625 40.078125 11.328125 
Q 45.015625 15.765625 45.015625 23.390625 
Q 45.015625 31 40.078125 35.4375 
Q 35.15625 39.890625 26.703125 39.890625 
Q 22.75 39.890625 18.8125 39.015625 
Q 14.890625 38.140625 10.796875 36.28125 
z
" id="DejaVuSans-35"/>
      </defs>
      <g transform="translate(150.907589 365.138438)scale(0.1 -0.1)">
       <use xlink:href="#DejaVuSans-35"/>
      </g>
     </g>
    </g>
    <g id="xtick_3">
     <g id="line2d_5">
      <path clip-path="url(#p8a43952c93)" d="M 260.374554 350.54 
L 260.374554 17.9 
" style="fill:none;stroke:#b0b0b0;stroke-linecap:square;stroke-width:0.8;"/>
     </g>
     <g id="line2d_6">
      <g>
       <use style="stroke:#000000;stroke-width:0.8;" x="260.374554" xlink:href="#m6cb293333f" y="350.54"/>
      </g>
     </g>
     <g id="text_3">
      <!-- 10 -->
      <defs>
       <path d="M 12.40625 8.296875 
L 28.515625 8.296875 
L 28.515625 63.921875 
L 10.984375 60.40625 
L 10.984375 69.390625 
L 28.421875 72.90625 
L 38.28125 72.90625 
L 38.28125 8.296875 
L 54.390625 8.296875 
L 54.390625 0 
L 12.40625 0 
z
" id="DejaVuSans-31"/>
      </defs>
      <g transform="translate(254.012054 365.138438)scale(0.1 -0.1)">
       <use xlink:href="#DejaVuSans-31"/>
       <use x="63.623047" xlink:href="#DejaVuSans-30"/>
      </g>
     </g>
    </g>
    <g id="xtick_4">
     <g id="line2d_7">
      <path clip-path="url(#p8a43952c93)" d="M 366.660268 350.54 
L 366.660268 17.9 
" style="fill:none;stroke:#b0b0b0;stroke-linecap:square;stroke-width:0.8;"/>
     </g>
     <g id="line2d_8">
      <g>
       <use style="stroke:#000000;stroke-width:0.8;" x="366.660268" xlink:href="#m6cb293333f" y="350.54"/>
      </g>
     </g>
     <g id="text_4">
      <!-- 15 -->
      <g transform="translate(360.297768 365.138438)scale(0.1 -0.1)">
       <use xlink:href="#DejaVuSans-31"/>
       <use x="63.623047" xlink:href="#DejaVuSans-35"/>
      </g>
     </g>
    </g>
    <g id="xtick_5">
     <g id="line2d_9">
      <path clip-path="url(#p8a43952c93)" d="M 472.945982 350.54 
L 472.945982 17.9 
" style="fill:none;stroke:#b0b0b0;stroke-linecap:square;stroke-width:0.8;"/>
     </g>
     <g id="line2d_10">
      <g>
       <use style="stroke:#000000;stroke-width:0.8;" x="472.945982" xlink:href="#m6cb293333f" y="350.54"/>
      </g>
     </g>
     <g id="text_5">
      <!-- 20 -->
      <defs>
       <path d="M 19.1875 8.296875 
L 53.609375 8.296875 
L 53.609375 0 
L 7.328125 0 
L 7.328125 8.296875 
Q 12.9375 14.109375 22.625 23.890625 
Q 32.328125 33.6875 34.8125 36.53125 
Q 39.546875 41.84375 41.421875 45.53125 
Q 43.3125 49.21875 43.3125 52.78125 
Q 43.3125 58.59375 39.234375 62.25 
Q 35.15625 65.921875 28.609375 65.921875 
Q 23.96875 65.921875 18.8125 64.3125 
Q 13.671875 62.703125 7.8125 59.421875 
L 7.8125 69.390625 
Q 13.765625 71.78125 18.9375 73 
Q 24.125 74.21875 28.421875 74.21875 
Q 39.75 74.21875 46.484375 68.546875 
Q 53.21875 62.890625 53.21875 53.421875 
Q 53.21875 48.921875 51.53125 44.890625 
Q 49.859375 40.875 45.40625 35.40625 
Q 44.1875 33.984375 37.640625 27.21875 
Q 31.109375 20.453125 19.1875 8.296875 
z
" id="DejaVuSans-32"/>
      </defs>
      <g transform="translate(466.583482 365.138438)scale(0.1 -0.1)">
       <use xlink:href="#DejaVuSans-32"/>
       <use x="63.623047" xlink:href="#DejaVuSans-30"/>
      </g>
     </g>
    </g>
    <g id="xtick_6">
     <g id="line2d_11">
      <path clip-path="url(#p8a43952c93)" d="M 579.231696 350.54 
L 579.231696 17.9 
" style="fill:none;stroke:#b0b0b0;stroke-linecap:square;stroke-width:0.8;"/>
     </g>
     <g id="line2d_12">
      <g>
       <use style="stroke:#000000;stroke-width:0.8;" x="579.231696" xlink:href="#m6cb293333f" y="350.54"/>
      </g>
     </g>
     <g id="text_6">
      <!-- 25 -->
      <g transform="translate(572.869196 365.138438)scale(0.1 -0.1)">
       <use xlink:href="#DejaVuSans-32"/>
       <use x="63.623047" xlink:href="#DejaVuSans-35"/>
      </g>
     </g>
    </g>
    <g id="xtick_7">
     <g id="line2d_13">
      <path clip-path="url(#p8a43952c93)" d="M 685.517411 350.54 
L 685.517411 17.9 
" style="fill:none;stroke:#b0b0b0;stroke-linecap:square;stroke-width:0.8;"/>
     </g>
     <g id="line2d_14">
      <g>
       <use style="stroke:#000000;stroke-width:0.8;" x="685.517411" xlink:href="#m6cb293333f" y="350.54"/>
      </g>
     </g>
     <g id="text_7">
      <!-- 30 -->
      <defs>
       <path d="M 40.578125 39.3125 
Q 47.65625 37.796875 51.625 33 
Q 55.609375 28.21875 55.609375 21.1875 
Q 55.609375 10.40625 48.1875 4.484375 
Q 40.765625 -1.421875 27.09375 -1.421875 
Q 22.515625 -1.421875 17.65625 -0.515625 
Q 12.796875 0.390625 7.625 2.203125 
L 7.625 11.71875 
Q 11.71875 9.328125 16.59375 8.109375 
Q 21.484375 6.890625 26.8125 6.890625 
Q 36.078125 6.890625 40.9375 10.546875 
Q 45.796875 14.203125 45.796875 21.1875 
Q 45.796875 27.640625 41.28125 31.265625 
Q 36.765625 34.90625 28.71875 34.90625 
L 20.21875 34.90625 
L 20.21875 43.015625 
L 29.109375 43.015625 
Q 36.375 43.015625 40.234375 45.921875 
Q 44.09375 48.828125 44.09375 54.296875 
Q 44.09375 59.90625 40.109375 62.90625 
Q 36.140625 65.921875 28.71875 65.921875 
Q 24.65625 65.921875 20.015625 65.03125 
Q 15.375 64.15625 9.8125 62.3125 
L 9.8125 71.09375 
Q 15.4375 72.65625 20.34375 73.4375 
Q 25.25 74.21875 29.59375 74.21875 
Q 40.828125 74.21875 47.359375 69.109375 
Q 53.90625 64.015625 53.90625 55.328125 
Q 53.90625 49.265625 50.4375 45.09375 
Q 46.96875 40.921875 40.578125 39.3125 
z
" id="DejaVuSans-33"/>
      </defs>
      <g transform="translate(679.154911 365.138438)scale(0.1 -0.1)">
       <use xlink:href="#DejaVuSans-33"/>
       <use x="63.623047" xlink:href="#DejaVuSans-30"/>
      </g>
     </g>
    </g>
    <g id="text_8">
     <!-- Time (s) -->
     <defs>
      <path d="M -0.296875 72.90625 
L 61.375 72.90625 
L 61.375 64.59375 
L 35.5 64.59375 
L 35.5 0 
L 25.59375 0 
L 25.59375 64.59375 
L -0.296875 64.59375 
z
" id="DejaVuSans-54"/>
      <path d="M 9.421875 54.6875 
L 18.40625 54.6875 
L 18.40625 0 
L 9.421875 0 
z
M 9.421875 75.984375 
L 18.40625 75.984375 
L 18.40625 64.59375 
L 9.421875 64.59375 
z
" id="DejaVuSans-69"/>
      <path d="M 52 44.1875 
Q 55.375 50.25 60.0625 53.125 
Q 64.75 56 71.09375 56 
Q 79.640625 56 84.28125 50.015625 
Q 88.921875 44.046875 88.921875 33.015625 
L 88.921875 0 
L 79.890625 0 
L 79.890625 32.71875 
Q 79.890625 40.578125 77.09375 44.375 
Q 74.3125 48.1875 68.609375 48.1875 
Q 61.625 48.1875 57.5625 43.546875 
Q 53.515625 38.921875 53.515625 30.90625 
L 53.515625 0 
L 44.484375 0 
L 44.484375 32.71875 
Q 44.484375 40.625 41.703125 44.40625 
Q 38.921875 48.1875 33.109375 48.1875 
Q 26.21875 48.1875 22.15625 43.53125 
Q 18.109375 38.875 18.109375 30.90625 
L 18.109375 0 
L 9.078125 0 
L 9.078125 54.6875 
L 18.109375 54.6875 
L 18.109375 46.1875 
Q 21.1875 51.21875 25.484375 53.609375 
Q 29.78125 56 35.6875 56 
Q 41.65625 56 45.828125 52.96875 
Q 50 49.953125 52 44.1875 
z
" id="DejaVuSans-6d"/>
      <path d="M 56.203125 29.59375 
L 56.203125 25.203125 
L 14.890625 25.203125 
Q 15.484375 15.921875 20.484375 11.0625 
Q 25.484375 6.203125 34.421875 6.203125 
Q 39.59375 6.203125 44.453125 7.46875 
Q 49.3125 8.734375 54.109375 11.28125 
L 54.109375 2.78125 
Q 49.265625 0.734375 44.1875 -0.34375 
Q 39.109375 -1.421875 33.890625 -1.421875 
Q 20.796875 -1.421875 13.15625 6.1875 
Q 5.515625 13.8125 5.515625 26.8125 
Q 5.515625 40.234375 12.765625 48.109375 
Q 20.015625 56 32.328125 56 
Q 43.359375 56 49.78125 48.890625 
Q 56.203125 41.796875 56.203125 29.59375 
z
M 47.21875 32.234375 
Q 47.125 39.59375 43.09375 43.984375 
Q 39.0625 48.390625 32.421875 48.390625 
Q 24.90625 48.390625 20.390625 44.140625 
Q 15.875 39.890625 15.1875 32.171875 
z
" id="DejaVuSans-65"/>
      <path id="DejaVuSans-20"/>
      <path d="M 31 75.875 
Q 24.46875 64.65625 21.28125 53.65625 
Q 18.109375 42.671875 18.109375 31.390625 
Q 18.109375 20.125 21.3125 9.0625 
Q 24.515625 -2 31 -13.1875 
L 23.1875 -13.1875 
Q 15.875 -1.703125 12.234375 9.375 
Q 8.59375 20.453125 8.59375 31.390625 
Q 8.59375 42.28125 12.203125 53.3125 
Q 15.828125 64.359375 23.1875 75.875 
z
" id="DejaVuSans-28"/>
      <path d="M 44.28125 53.078125 
L 44.28125 44.578125 
Q 40.484375 46.53125 36.375 47.5 
Q 32.28125 48.484375 27.875 48.484375 
Q 21.1875 48.484375 17.84375 46.4375 
Q 14.5 44.390625 14.5 40.28125 
Q 14.5 37.15625 16.890625 35.375 
Q 19.28125 33.59375 26.515625 31.984375 
L 29.59375 31.296875 
Q 39.15625 29.25 43.1875 25.515625 
Q 47.21875 21.78125 47.21875 15.09375 
Q 47.21875 7.46875 41.1875 3.015625 
Q 35.15625 -1.421875 24.609375 -1.421875 
Q 20.21875 -1.421875 15.453125 -0.5625 
Q 10.6875 0.296875 5.421875 2 
L 5.421875 11.28125 
Q 10.40625 8.6875 15.234375 7.390625 
Q 20.0625 6.109375 24.8125 6.109375 
Q 31.15625 6.109375 34.5625 8.28125 
Q 37.984375 10.453125 37.984375 14.40625 
Q 37.984375 18.0625 35.515625 20.015625 
Q 33.0625 21.96875 24.703125 23.78125 
L 21.578125 24.515625 
Q 13.234375 26.265625 9.515625 29.90625 
Q 5.8125 33.546875 5.8125 39.890625 
Q 5.8125 47.609375 11.28125 51.796875 
Q 16.75 56 26.8125 56 
Q 31.78125 56 36.171875 55.265625 
Q 40.578125 54.546875 44.28125 53.078125 
z
" id="DejaVuSans-73"/>
      <path d="M 8.015625 75.875 
L 15.828125 75.875 
Q 23.140625 64.359375 26.78125 53.3125 
Q 30.421875 42.28125 30.421875 31.390625 
Q 30.421875 20.453125 26.78125 9.375 
Q 23.140625 -1.703125 15.828125 -13.1875 
L 8.015625 -13.1875 
Q 14.5 -2 17.703125 9.0625 
Q 20.90625 20.125 20.90625 31.390625 
Q 20.90625 42.671875 17.703125 53.65625 
Q 14.5 64.65625 8.015625 75.875 
z
" id="DejaVuSans-29"/>
     </defs>
     <g transform="translate(362.120313 378.816563)scale(0.1 -0.1)">
      <use xlink:href="#DejaVuSans-54"/>
      <use x="61.037109" xlink:href="#DejaVuSans-69"/>
      <use x="88.820312" xlink:href="#DejaVuSans-6d"/>
      <use x="186.232422" xlink:href="#DejaVuSans-65"/>
      <use x="247.755859" xlink:href="#DejaVuSans-20"/>
      <use x="279.542969" xlink:href="#DejaVuSans-28"/>
      <use x="318.556641" xlink:href="#DejaVuSans-73"/>
      <use x="370.65625" xlink:href="#DejaVuSans-29"/>
     </g>
    </g>
   </g>
   <g id="matplotlib.axis_2">
    <g id="ytick_1">
     <g id="line2d_15">
      <path clip-path="url(#p8a43952c93)" d="M 47.803125 350.54 
L 717.403125 350.54 
" style="fill:none;stroke:#b0b0b0;stroke-linecap:square;stroke-width:0.8;"/>
     </g>
     <g id="line2d_16">
      <defs>
       <path d="M 0 0 
L -3.5 0 
" id="m658911d7d4" style="stroke:#000000;stroke-width:0.8;"/>
      </defs>
      <g>
       <use style="stroke:#000000;stroke-width:0.8;" x="47.803125" xlink:href="#m658911d7d4" y="350.54"/>
      </g>
     </g>
     <g id="text_9">
      <!-- 0 -->
      <g transform="translate(34.440625 354.339219)scale(0.1 -0.1)">
       <use xlink:href="#DejaVuSans-30"/>
      </g>
     </g>
    </g>
    <g id="ytick_2">
     <g id="line2d_17">
      <path clip-path="url(#p8a43952c93)" d="M 47.803125 308.41234 
L 717.403125 308.41234 
" style="fill:none;stroke:#b0b0b0;stroke-linecap:square;stroke-width:0.8;"/>
     </g>
     <g id="line2d_18">
      <g>
       <use style="stroke:#000000;stroke-width:0.8;" x="47.803125" xlink:href="#m658911d7d4" y="308.41234"/>
      </g>
     </g>
     <g id="text_10">
      <!-- 2 -->
      <g transform="translate(34.440625 312.211559)scale(0.1 -0.1)">
       <use xlink:href="#DejaVuSans-32"/>
      </g>
     </g>
    </g>
    <g id="ytick_3">
     <g id="line2d_19">
      <path clip-path="url(#p8a43952c93)" d="M 47.803125 266.284681 
L 717.403125 266.284681 
" style="fill:none;stroke:#b0b0b0;stroke-linecap:square;stroke-width:0.8;"/>
     </g>
     <g id="line2d_20">
      <g>
       <use style="stroke:#000000;stroke-width:0.8;" x="47.803125" xlink:href="#m658911d7d4" y="266.284681"/>
      </g>
     </g>
     <g id="text_11">
      <!-- 4 -->
      <defs>
       <path d="M 37.796875 64.3125 
L 12.890625 25.390625 
L 37.796875 25.390625 
z
M 35.203125 72.90625 
L 47.609375 72.90625 
L 47.609375 25.390625 
L 58.015625 25.390625 
L 58.015625 17.1875 
L 47.609375 17.1875 
L 47.609375 0 
L 37.796875 0 
L 37.796875 17.1875 
L 4.890625 17.1875 
L 4.890625 26.703125 
z
" id="DejaVuSans-34"/>
      </defs>
      <g transform="translate(34.440625 270.0839)scale(0.1 -0.1)">
       <use xlink:href="#DejaVuSans-34"/>
      </g>
     </g>
    </g>
    <g id="ytick_4">
     <g id="line2d_21">
      <path clip-path="url(#p8a43952c93)" d="M 47.803125 224.157021 
L 717.403125 224.157021 
" style="fill:none;stroke:#b0b0b0;stroke-linecap:square;stroke-width:0.8;"/>
     </g>
     <g id="line2d_22">
      <g>
       <use style="stroke:#000000;stroke-width:0.8;" x="47.803125" xlink:href="#m658911d7d4" y="224.157021"/>
      </g>
     </g>
     <g id="text_12">
      <!-- 6 -->
      <defs>
       <path d="M 33.015625 40.375 
Q 26.375 40.375 22.484375 35.828125 
Q 18.609375 31.296875 18.609375 23.390625 
Q 18.609375 15.53125 22.484375 10.953125 
Q 26.375 6.390625 33.015625 6.390625 
Q 39.65625 6.390625 43.53125 10.953125 
Q 47.40625 15.53125 47.40625 23.390625 
Q 47.40625 31.296875 43.53125 35.828125 
Q 39.65625 40.375 33.015625 40.375 
z
M 52.59375 71.296875 
L 52.59375 62.3125 
Q 48.875 64.0625 45.09375 64.984375 
Q 41.3125 65.921875 37.59375 65.921875 
Q 27.828125 65.921875 22.671875 59.328125 
Q 17.53125 52.734375 16.796875 39.40625 
Q 19.671875 43.65625 24.015625 45.921875 
Q 28.375 48.1875 33.59375 48.1875 
Q 44.578125 48.1875 50.953125 41.515625 
Q 57.328125 34.859375 57.328125 23.390625 
Q 57.328125 12.15625 50.6875 5.359375 
Q 44.046875 -1.421875 33.015625 -1.421875 
Q 20.359375 -1.421875 13.671875 8.265625 
Q 6.984375 17.96875 6.984375 36.375 
Q 6.984375 53.65625 15.1875 63.9375 
Q 23.390625 74.21875 37.203125 74.21875 
Q 40.921875 74.21875 44.703125 73.484375 
Q 48.484375 72.75 52.59375 71.296875 
z
" id="DejaVuSans-36"/>
      </defs>
      <g transform="translate(34.440625 227.95624)scale(0.1 -0.1)">
       <use xlink:href="#DejaVuSans-36"/>
      </g>
     </g>
    </g>
    <g id="ytick_5">
     <g id="line2d_23">
      <path clip-path="url(#p8a43952c93)" d="M 47.803125 182.029362 
L 717.403125 182.029362 
" style="fill:none;stroke:#b0b0b0;stroke-linecap:square;stroke-width:0.8;"/>
     </g>
     <g id="line2d_24">
      <g>
       <use style="stroke:#000000;stroke-width:0.8;" x="47.803125" xlink:href="#m658911d7d4" y="182.029362"/>
      </g>
     </g>
     <g id="text_13">
      <!-- 8 -->
      <defs>
       <path d="M 31.78125 34.625 
Q 24.75 34.625 20.71875 30.859375 
Q 16.703125 27.09375 16.703125 20.515625 
Q 16.703125 13.921875 20.71875 10.15625 
Q 24.75 6.390625 31.78125 6.390625 
Q 38.8125 6.390625 42.859375 10.171875 
Q 46.921875 13.96875 46.921875 20.515625 
Q 46.921875 27.09375 42.890625 30.859375 
Q 38.875 34.625 31.78125 34.625 
z
M 21.921875 38.8125 
Q 15.578125 40.375 12.03125 44.71875 
Q 8.5 49.078125 8.5 55.328125 
Q 8.5 64.0625 14.71875 69.140625 
Q 20.953125 74.21875 31.78125 74.21875 
Q 42.671875 74.21875 48.875 69.140625 
Q 55.078125 64.0625 55.078125 55.328125 
Q 55.078125 49.078125 51.53125 44.71875 
Q 48 40.375 41.703125 38.8125 
Q 48.828125 37.15625 52.796875 32.3125 
Q 56.78125 27.484375 56.78125 20.515625 
Q 56.78125 9.90625 50.3125 4.234375 
Q 43.84375 -1.421875 31.78125 -1.421875 
Q 19.734375 -1.421875 13.25 4.234375 
Q 6.78125 9.90625 6.78125 20.515625 
Q 6.78125 27.484375 10.78125 32.3125 
Q 14.796875 37.15625 21.921875 38.8125 
z
M 18.3125 54.390625 
Q 18.3125 48.734375 21.84375 45.5625 
Q 25.390625 42.390625 31.78125 42.390625 
Q 38.140625 42.390625 41.71875 45.5625 
Q 45.3125 48.734375 45.3125 54.390625 
Q 45.3125 60.0625 41.71875 63.234375 
Q 38.140625 66.40625 31.78125 66.40625 
Q 25.390625 66.40625 21.84375 63.234375 
Q 18.3125 60.0625 18.3125 54.390625 
z
" id="DejaVuSans-38"/>
      </defs>
      <g transform="translate(34.440625 185.82858)scale(0.1 -0.1)">
       <use xlink:href="#DejaVuSans-38"/>
      </g>
     </g>
    </g>
    <g id="ytick_6">
     <g id="line2d_25">
      <path clip-path="url(#p8a43952c93)" d="M 47.803125 139.901702 
L 717.403125 139.901702 
" style="fill:none;stroke:#b0b0b0;stroke-linecap:square;stroke-width:0.8;"/>
     </g>
     <g id="line2d_26">
      <g>
       <use style="stroke:#000000;stroke-width:0.8;" x="47.803125" xlink:href="#m658911d7d4" y="139.901702"/>
      </g>
     </g>
     <g id="text_14">
      <!-- 10 -->
      <g transform="translate(28.078125 143.700921)scale(0.1 -0.1)">
       <use xlink:href="#DejaVuSans-31"/>
       <use x="63.623047" xlink:href="#DejaVuSans-30"/>
      </g>
     </g>
    </g>
    <g id="ytick_7">
     <g id="line2d_27">
      <path clip-path="url(#p8a43952c93)" d="M 47.803125 97.774043 
L 717.403125 97.774043 
" style="fill:none;stroke:#b0b0b0;stroke-linecap:square;stroke-width:0.8;"/>
     </g>
     <g id="line2d_28">
      <g>
       <use style="stroke:#000000;stroke-width:0.8;" x="47.803125" xlink:href="#m658911d7d4" y="97.774043"/>
      </g>
     </g>
     <g id="text_15">
      <!-- 12 -->
      <g transform="translate(28.078125 101.573261)scale(0.1 -0.1)">
       <use xlink:href="#DejaVuSans-31"/>
       <use x="63.623047" xlink:href="#DejaVuSans-32"/>
      </g>
     </g>
    </g>
    <g id="ytick_8">
     <g id="line2d_29">
      <path clip-path="url(#p8a43952c93)" d="M 47.803125 55.646383 
L 717.403125 55.646383 
" style="fill:none;stroke:#b0b0b0;stroke-linecap:square;stroke-width:0.8;"/>
     </g>
     <g id="line2d_30">
      <g>
       <use style="stroke:#000000;stroke-width:0.8;" x="47.803125" xlink:href="#m658911d7d4" y="55.646383"/>
      </g>
     </g>
     <g id="text_16">
      <!-- 14 -->
      <g transform="translate(28.078125 59.445602)scale(0.1 -0.1)">
       <use xlink:href="#DejaVuSans-31"/>
       <use x="63.623047" xlink:href="#DejaVuSans-34"/>
      </g>
     </g>
    </g>
    <g id="text_17">
     <!-- Sending Rate (Mbit/s) -->
     <defs>
      <path d="M 53.515625 70.515625 
L 53.515625 60.890625 
Q 47.90625 63.578125 42.921875 64.890625 
Q 37.9375 66.21875 33.296875 66.21875 
Q 25.25 66.21875 20.875 63.09375 
Q 16.5 59.96875 16.5 54.203125 
Q 16.5 49.359375 19.40625 46.890625 
Q 22.3125 44.4375 30.421875 42.921875 
L 36.375 41.703125 
Q 47.40625 39.59375 52.65625 34.296875 
Q 57.90625 29 57.90625 20.125 
Q 57.90625 9.515625 50.796875 4.046875 
Q 43.703125 -1.421875 29.984375 -1.421875 
Q 24.8125 -1.421875 18.96875 -0.25 
Q 13.140625 0.921875 6.890625 3.21875 
L 6.890625 13.375 
Q 12.890625 10.015625 18.65625 8.296875 
Q 24.421875 6.59375 29.984375 6.59375 
Q 38.421875 6.59375 43.015625 9.90625 
Q 47.609375 13.234375 47.609375 19.390625 
Q 47.609375 24.75 44.3125 27.78125 
Q 41.015625 30.8125 33.5 32.328125 
L 27.484375 33.5 
Q 16.453125 35.6875 11.515625 40.375 
Q 6.59375 45.0625 6.59375 53.421875 
Q 6.59375 63.09375 13.40625 68.65625 
Q 20.21875 74.21875 32.171875 74.21875 
Q 37.3125 74.21875 42.625 73.28125 
Q 47.953125 72.359375 53.515625 70.515625 
z
" id="DejaVuSans-53"/>
      <path d="M 54.890625 33.015625 
L 54.890625 0 
L 45.90625 0 
L 45.90625 32.71875 
Q 45.90625 40.484375 42.875 44.328125 
Q 39.84375 48.1875 33.796875 48.1875 
Q 26.515625 48.1875 22.3125 43.546875 
Q 18.109375 38.921875 18.109375 30.90625 
L 18.109375 0 
L 9.078125 0 
L 9.078125 54.6875 
L 18.109375 54.6875 
L 18.109375 46.1875 
Q 21.34375 51.125 25.703125 53.5625 
Q 30.078125 56 35.796875 56 
Q 45.21875 56 50.046875 50.171875 
Q 54.890625 44.34375 54.890625 33.015625 
z
" id="DejaVuSans-6e"/>
      <path d="M 45.40625 46.390625 
L 45.40625 75.984375 
L 54.390625 75.984375 
L 54.390625 0 
L 45.40625 0 
L 45.40625 8.203125 
Q 42.578125 3.328125 38.25 0.953125 
Q 33.9375 -1.421875 27.875 -1.421875 
Q 17.96875 -1.421875 11.734375 6.484375 
Q 5.515625 14.40625 5.515625 27.296875 
Q 5.515625 40.1875 11.734375 48.09375 
Q 17.96875 56 27.875 56 
Q 33.9375 56 38.25 53.625 
Q 42.578125 51.265625 45.40625 46.390625 
z
M 14.796875 27.296875 
Q 14.796875 17.390625 18.875 11.75 
Q 22.953125 6.109375 30.078125 6.109375 
Q 37.203125 6.109375 41.296875 11.75 
Q 45.40625 17.390625 45.40625 27.296875 
Q 45.40625 37.203125 41.296875 42.84375 
Q 37.203125 48.484375 30.078125 48.484375 
Q 22.953125 48.484375 18.875 42.84375 
Q 14.796875 37.203125 14.796875 27.296875 
z
" id="DejaVuSans-64"/>
      <path d="M 45.40625 27.984375 
Q 45.40625 37.75 41.375 43.109375 
Q 37.359375 48.484375 30.078125 48.484375 
Q 22.859375 48.484375 18.828125 43.109375 
Q 14.796875 37.75 14.796875 27.984375 
Q 14.796875 18.265625 18.828125 12.890625 
Q 22.859375 7.515625 30.078125 7.515625 
Q 37.359375 7.515625 41.375 12.890625 
Q 45.40625 18.265625 45.40625 27.984375 
z
M 54.390625 6.78125 
Q 54.390625 -7.171875 48.1875 -13.984375 
Q 42 -20.796875 29.203125 -20.796875 
Q 24.46875 -20.796875 20.265625 -20.09375 
Q 16.0625 -19.390625 12.109375 -17.921875 
L 12.109375 -9.1875 
Q 16.0625 -11.328125 19.921875 -12.34375 
Q 23.78125 -13.375 27.78125 -13.375 
Q 36.625 -13.375 41.015625 -8.765625 
Q 45.40625 -4.15625 45.40625 5.171875 
L 45.40625 9.625 
Q 42.625 4.78125 38.28125 2.390625 
Q 33.9375 0 27.875 0 
Q 17.828125 0 11.671875 7.65625 
Q 5.515625 15.328125 5.515625 27.984375 
Q 5.515625 40.671875 11.671875 48.328125 
Q 17.828125 56 27.875 56 
Q 33.9375 56 38.28125 53.609375 
Q 42.625 51.21875 45.40625 46.390625 
L 45.40625 54.6875 
L 54.390625 54.6875 
z
" id="DejaVuSans-67"/>
      <path d="M 44.390625 34.1875 
Q 47.5625 33.109375 50.5625 29.59375 
Q 53.5625 26.078125 56.59375 19.921875 
L 66.609375 0 
L 56 0 
L 46.6875 18.703125 
Q 43.0625 26.03125 39.671875 28.421875 
Q 36.28125 30.8125 30.421875 30.8125 
L 19.671875 30.8125 
L 19.671875 0 
L 9.8125 0 
L 9.8125 72.90625 
L 32.078125 72.90625 
Q 44.578125 72.90625 50.734375 67.671875 
Q 56.890625 62.453125 56.890625 51.90625 
Q 56.890625 45.015625 53.6875 40.46875 
Q 50.484375 35.9375 44.390625 34.1875 
z
M 19.671875 64.796875 
L 19.671875 38.921875 
L 32.078125 38.921875 
Q 39.203125 38.921875 42.84375 42.21875 
Q 46.484375 45.515625 46.484375 51.90625 
Q 46.484375 58.296875 42.84375 61.546875 
Q 39.203125 64.796875 32.078125 64.796875 
z
" id="DejaVuSans-52"/>
      <path d="M 34.28125 27.484375 
Q 23.390625 27.484375 19.1875 25 
Q 14.984375 22.515625 14.984375 16.5 
Q 14.984375 11.71875 18.140625 8.90625 
Q 21.296875 6.109375 26.703125 6.109375 
Q 34.1875 6.109375 38.703125 11.40625 
Q 43.21875 16.703125 43.21875 25.484375 
L 43.21875 27.484375 
z
M 52.203125 31.203125 
L 52.203125 0 
L 43.21875 0 
L 43.21875 8.296875 
Q 40.140625 3.328125 35.546875 0.953125 
Q 30.953125 -1.421875 24.3125 -1.421875 
Q 15.921875 -1.421875 10.953125 3.296875 
Q 6 8.015625 6 15.921875 
Q 6 25.140625 12.171875 29.828125 
Q 18.359375 34.515625 30.609375 34.515625 
L 43.21875 34.515625 
L 43.21875 35.40625 
Q 43.21875 41.609375 39.140625 45 
Q 35.0625 48.390625 27.6875 48.390625 
Q 23 48.390625 18.546875 47.265625 
Q 14.109375 46.140625 10.015625 43.890625 
L 10.015625 52.203125 
Q 14.9375 54.109375 19.578125 55.046875 
Q 24.21875 56 28.609375 56 
Q 40.484375 56 46.34375 49.84375 
Q 52.203125 43.703125 52.203125 31.203125 
z
" id="DejaVuSans-61"/>
      <path d="M 18.3125 70.21875 
L 18.3125 54.6875 
L 36.8125 54.6875 
L 36.8125 47.703125 
L 18.3125 47.703125 
L 18.3125 18.015625 
Q 18.3125 11.328125 20.140625 9.421875 
Q 21.96875 7.515625 27.59375 7.515625 
L 36.8125 7.515625 
L 36.8125 0 
L 27.59375 0 
Q 17.1875 0 13.234375 3.875 
Q 9.28125 7.765625 9.28125 18.015625 
L 9.28125 47.703125 
L 2.6875 47.703125 
L 2.6875 54.6875 
L 9.28125 54.6875 
L 9.28125 70.21875 
z
" id="DejaVuSans-74"/>
      <path d="M 9.8125 72.90625 
L 24.515625 72.90625 
L 43.109375 23.296875 
L 61.8125 72.90625 
L 76.515625 72.90625 
L 76.515625 0 
L 66.890625 0 
L 66.890625 64.015625 
L 48.09375 14.015625 
L 38.1875 14.015625 
L 19.390625 64.015625 
L 19.390625 0 
L 9.8125 0 
z
" id="DejaVuSans-4d"/>
      <path d="M 48.6875 27.296875 
Q 48.6875 37.203125 44.609375 42.84375 
Q 40.53125 48.484375 33.40625 48.484375 
Q 26.265625 48.484375 22.1875 42.84375 
Q 18.109375 37.203125 18.109375 27.296875 
Q 18.109375 17.390625 22.1875 11.75 
Q 26.265625 6.109375 33.40625 6.109375 
Q 40.53125 6.109375 44.609375 11.75 
Q 48.6875 17.390625 48.6875 27.296875 
z
M 18.109375 46.390625 
Q 20.953125 51.265625 25.265625 53.625 
Q 29.59375 56 35.59375 56 
Q 45.5625 56 51.78125 48.09375 
Q 58.015625 40.1875 58.015625 27.296875 
Q 58.015625 14.40625 51.78125 6.484375 
Q 45.5625 -1.421875 35.59375 -1.421875 
Q 29.59375 -1.421875 25.265625 0.953125 
Q 20.953125 3.328125 18.109375 8.203125 
L 18.109375 0 
L 9.078125 0 
L 9.078125 75.984375 
L 18.109375 75.984375 
z
" id="DejaVuSans-62"/>
      <path d="M 25.390625 72.90625 
L 33.6875 72.90625 
L 8.296875 -9.28125 
L 0 -9.28125 
z
" id="DejaVuSans-2f"/>
     </defs>
     <g transform="translate(21.998438 238.325469)rotate(-90)scale(0.1 -0.1)">
      <use xlink:href="#DejaVuSans-53"/>
      <use x="63.476562" xlink:href="#DejaVuSans-65"/>
      <use x="125" xlink:href="#DejaVuSans-6e"/>
      <use x="188.378906" xlink:href="#DejaVuSans-64"/>
      <use x="251.855469" xlink:href="#DejaVuSans-69"/>
      <use x="279.638672" xlink:href="#DejaVuSans-6e"/>
      <use x="343.017578" xlink:href="#DejaVuSans-67"/>
      <use x="406.494141" xlink:href="#DejaVuSans-20"/>
      <use x="438.28125" xlink:href="#DejaVuSans-52"/>
      <use x="507.732422" xlink:href="#DejaVuSans-61"/>
      <use x="569.011719" xlink:href="#DejaVuSans-74"/>
      <use x="608.220703" xlink:href="#DejaVuSans-65"/>
      <use x="669.744141" xlink:href="#DejaVuSans-20"/>
      <use x="701.53125" xlink:href="#DejaVuSans-28"/>
      <use x="740.544922" xlink:href="#DejaVuSans-4d"/>
      <use x="826.824219" xlink:href="#DejaVuSans-62"/>
      <use x="890.300781" xlink:href="#DejaVuSans-69"/>
      <use x="918.083984" xlink:href="#DejaVuSans-74"/>
      <use x="957.292969" xlink:href="#DejaVuSans-2f"/>
      <use x="990.984375" xlink:href="#DejaVuSans-73"/>
      <use x="1043.083984" xlink:href="#DejaVuSans-29"/>
     </g>
    </g>
   </g>
   <g id="line2d_31">
    <path clip-path="url(#p8a43952c93)" d="M 47.803125 350.329362 
L 50.991696 255.542128 
L 54.180268 194.246383 
L 57.368839 233.00383 
L 60.557411 232.582553 
L 63.745982 231.318723 
L 66.934554 222.261277 
L 70.123125 224.788936 
L 73.311696 237.848511 
L 76.500268 234.899574 
L 79.688839 234.899574 
L 82.877411 245.642128 
L 89.254554 245.642128 
L 92.443125 234.899574 
L 95.631696 234.899574 
L 98.820268 236.584681 
L 102.008839 225.842128 
L 105.197411 224.157021 
L 108.385982 229.422979 
L 111.574554 229.422979 
L 114.763125 245.642128 
L 117.951696 246.905957 
L 121.140268 247.327234 
L 124.328839 256.384681 
L 127.517411 258.069787 
L 130.705982 258.069787 
L 133.894554 254.06766 
L 137.083125 256.384681 
L 140.271696 261.650638 
L 143.460268 258.069787 
L 146.648839 255.752766 
L 149.837411 256.384681 
L 153.025982 258.069787 
L 156.214554 259.965532 
L 159.403125 255.752766 
L 162.591696 254.488936 
L 165.780268 258.069787 
L 168.968839 258.069787 
L 172.157411 257.437872 
L 175.345982 258.069787 
L 178.534554 256.384681 
L 181.723125 258.069787 
L 184.911696 252.382553 
L 188.100268 245.431489 
L 191.288839 249.222979 
L 194.477411 247.327234 
L 197.665982 250.908085 
L 200.854554 247.327234 
L 204.043125 248.591064 
L 207.231696 243.746383 
L 210.420268 250.908085 
L 213.608839 245.642128 
L 216.797411 250.908085 
L 219.985982 247.327234 
L 223.174554 254.06766 
L 226.363125 259.965532 
L 232.740268 259.965532 
L 235.928839 262.914468 
L 239.117411 270.708085 
L 242.305982 272.393191 
L 245.494554 277.237872 
L 248.683125 283.135745 
L 251.871696 282.50383 
L 255.060268 279.554894 
L 258.248839 277.869787 
L 261.437411 280.818723 
L 264.625982 281.450638 
L 267.814554 273.657021 
L 271.003125 270.708085 
L 274.191696 271.761277 
L 277.380268 270.708085 
L 280.568839 272.393191 
L 283.757411 282.50383 
L 286.945982 283.135745 
L 290.134554 282.50383 
L 293.323125 283.135745 
L 296.511696 284.399574 
L 299.700268 283.135745 
L 302.888839 284.399574 
L 306.077411 285.031489 
L 309.265982 286.716596 
L 312.454554 284.399574 
L 315.643125 277.869787 
L 318.831696 277.237872 
L 322.020268 279.554894 
L 325.208839 278.922979 
L 328.397411 285.031489 
L 331.585982 284.399574 
L 334.774554 286.716596 
L 337.963125 285.031489 
L 341.151696 280.818723 
L 344.340268 279.554894 
L 347.528839 277.237872 
L 350.717411 277.869787 
L 353.905982 278.922979 
L 357.094554 277.869787 
L 360.283125 277.869787 
L 363.471696 278.922979 
L 366.660268 283.135745 
L 369.848839 280.818723 
L 373.037411 281.450638 
L 376.225982 282.50383 
L 379.414554 285.031489 
L 382.603125 286.084681 
L 385.791696 285.031489 
L 388.980268 285.031489 
L 392.168839 284.399574 
L 395.357411 281.450638 
L 398.545982 280.818723 
L 401.734554 297.669787 
L 404.923125 300.408085 
L 408.111696 303.988936 
L 411.300268 302.935745 
L 414.488839 303.988936 
L 417.677411 302.935745 
L 420.865982 303.988936 
L 424.054554 302.30383 
L 427.243125 302.935745 
L 430.431696 302.30383 
L 433.620268 304.620851 
L 436.808839 302.30383 
L 439.997411 303.988936 
L 443.185982 302.935745 
L 446.374554 296.827234 
L 449.563125 285.031489 
L 452.751696 280.818723 
L 455.940268 281.24 
L 459.128839 278.922979 
L 462.317411 281.450638 
L 465.505982 279.554894 
L 468.694554 268.180426 
L 471.883125 270.708085 
L 475.071696 273.657021 
L 478.260268 268.81234 
L 481.448839 270.708085 
L 484.637411 261.650638 
L 487.825982 259.333617 
L 491.014554 261.650638 
L 494.203125 259.965532 
L 497.391696 261.018723 
L 500.580268 259.965532 
L 503.768839 265.231489 
L 506.957411 258.069787 
L 510.145982 262.914468 
L 513.334554 259.965532 
L 516.523125 261.650638 
L 519.711696 261.650638 
L 522.900268 261.018723 
L 526.088839 261.650638 
L 529.277411 256.384681 
L 532.465982 249.222979 
L 535.654554 250.486809 
L 538.843125 252.80383 
L 542.031696 242.061277 
L 548.408839 242.061277 
L 551.597411 231.318723 
L 554.785982 234.688936 
L 557.974554 229.422979 
L 561.163125 236.584681 
L 564.351696 233.00383 
L 567.540268 233.00383 
L 570.728839 248.591064 
L 573.917411 263.546383 
L 577.105982 267.127234 
L 580.294554 264.599574 
L 583.483125 274.288936 
L 586.671696 275.974043 
L 589.860268 275.342128 
L 593.048839 283.135745 
L 596.237411 295.142128 
L 599.425982 299.354894 
L 602.614554 298.722979 
L 605.803125 302.935745 
L 608.991696 303.988936 
L 612.180268 302.30383 
L 615.368839 302.935745 
L 618.557411 302.30383 
L 621.745982 305.884681 
L 624.934554 301.04 
L 628.123125 289.665532 
L 631.311696 292.193191 
L 634.500268 295.142128 
L 637.688839 292.193191 
L 640.877411 291.561277 
L 644.065982 293.878298 
L 647.254554 291.561277 
L 650.443125 292.193191 
L 653.631696 291.561277 
L 656.820268 292.193191 
L 660.008839 278.922979 
L 663.197411 283.135745 
L 666.385982 284.399574 
L 669.574554 292.193191 
L 672.763125 293.246383 
L 675.951696 293.878298 
L 679.140268 302.30383 
L 682.328839 302.30383 
L 685.517411 347.591064 
L 685.517411 347.591064 
" style="fill:none;stroke:#1f77b4;stroke-linecap:square;stroke-width:1.5;"/>
   </g>
   <g id="line2d_32">
    <path clip-path="url(#p8a43952c93)" d="M 47.803125 299.77617 
L 50.991696 229.21234 
L 54.180268 230.897447 
L 57.368839 217.416596 
L 60.557411 241.008085 
L 63.745982 266.284681 
L 66.934554 198.880426 
L 70.123125 178.659149 
L 73.311696 171.918723 
L 76.500268 168.548511 
L 79.688839 175.288936 
L 82.877411 239.322979 
L 86.065982 185.399574 
L 89.254554 144.957021 
L 92.443125 144.957021 
L 95.631696 188.769787 
L 98.820268 151.697447 
L 102.008839 182.029362 
L 108.385982 188.769787 
L 111.574554 215.731489 
L 114.763125 212.361277 
L 117.951696 141.586809 
L 121.140268 141.586809 
L 124.328839 182.029362 
L 127.517411 178.659149 
L 130.705982 178.659149 
L 133.894554 165.178298 
L 137.083125 158.437872 
L 140.271696 168.548511 
L 143.460268 158.437872 
L 146.648839 155.06766 
L 149.837411 205.620851 
L 153.025982 155.06766 
L 156.214554 195.510213 
L 159.403125 212.361277 
L 162.591696 215.731489 
L 165.780268 192.14 
L 168.968839 208.991064 
L 172.157411 235.952766 
L 175.345982 165.178298 
L 178.534554 246.063404 
L 181.723125 222.471915 
L 184.911696 222.471915 
L 188.100268 205.620851 
L 191.288839 262.914468 
L 194.477411 252.80383 
L 200.854554 192.14 
L 204.043125 192.14 
L 207.231696 262.914468 
L 210.420268 252.80383 
L 213.608839 269.654894 
L 216.797411 337.059149 
L 219.985982 283.135745 
L 223.174554 242.693191 
L 226.363125 266.284681 
L 229.551696 262.914468 
L 232.740268 205.620851 
L 235.928839 222.471915 
L 239.117411 259.544255 
L 242.305982 303.357021 
L 245.494554 271.34 
L 248.683125 332.00383 
L 251.871696 256.174043 
L 255.060268 222.471915 
L 258.248839 212.361277 
L 261.437411 320.208085 
L 264.625982 306.727234 
L 267.814554 205.620851 
L 271.003125 273.025106 
L 274.191696 310.097447 
L 277.380268 279.765532 
L 280.568839 286.505957 
L 283.757411 299.986809 
L 286.945982 296.616596 
L 290.134554 269.654894 
L 293.323125 293.246383 
L 296.511696 283.135745 
L 299.700268 306.727234 
L 302.888839 343.799574 
L 306.077411 215.731489 
L 309.265982 273.025106 
L 312.454554 273.025106 
L 315.643125 333.688936 
L 318.831696 269.654894 
L 322.020268 321.893191 
L 325.208839 286.505957 
L 328.397411 288.191064 
L 331.585982 350.54 
L 334.774554 279.765532 
L 337.963125 337.059149 
L 341.151696 286.505957 
L 344.340268 296.616596 
L 347.528839 310.097447 
L 350.717411 296.616596 
L 353.905982 296.616596 
L 357.094554 323.578298 
L 360.283125 326.948511 
L 363.471696 337.059149 
L 366.660268 345.484681 
L 369.848839 281.450638 
L 373.037411 286.505957 
L 376.225982 273.025106 
L 379.414554 276.395319 
L 382.603125 269.654894 
L 385.791696 259.544255 
L 388.980268 256.174043 
L 392.168839 246.063404 
L 395.357411 232.582553 
L 398.545982 225.842128 
L 401.734554 198.880426 
L 404.923125 188.769787 
L 408.111696 165.178298 
L 411.300268 144.957021 
L 414.488839 128.105957 
L 417.677411 150.01234 
L 420.865982 123.050638 
L 424.054554 104.514468 
L 427.243125 107.884681 
L 430.431696 97.774043 
L 433.620268 84.293191 
L 436.808839 57.331489 
L 439.997411 40.480426 
L 443.185982 97.774043 
L 446.374554 53.961277 
L 449.563125 33.74 
L 452.751696 80.922979 
L 455.940268 131.47617 
L 459.128839 94.40383 
L 462.317411 151.697447 
L 465.505982 128.105957 
L 468.694554 87.663404 
L 471.883125 107.884681 
L 475.071696 121.365532 
L 478.260268 192.14 
L 481.448839 333.688936 
L 484.637411 289.87617 
L 487.825982 77.552766 
L 491.014554 161.808085 
L 494.203125 158.437872 
L 497.391696 208.991064 
L 500.580268 124.735745 
L 503.768839 114.625106 
L 506.957411 121.365532 
L 510.145982 165.178298 
L 513.334554 158.437872 
L 516.523125 158.437872 
L 519.711696 128.105957 
L 522.900268 158.437872 
L 526.088839 198.880426 
L 529.277411 188.769787 
L 532.465982 222.471915 
L 535.654554 151.697447 
L 538.843125 219.101702 
L 542.031696 171.918723 
L 545.220268 178.659149 
L 548.408839 225.842128 
L 551.597411 203.935745 
L 554.785982 193.825106 
L 557.974554 171.918723 
L 561.163125 229.21234 
L 564.351696 165.178298 
L 567.540268 165.178298 
L 570.728839 138.216596 
L 573.917411 131.47617 
L 577.105982 148.327234 
L 580.294554 148.327234 
L 583.483125 131.47617 
L 586.671696 168.548511 
L 589.860268 131.47617 
L 593.048839 148.327234 
L 596.237411 138.216596 
L 599.425982 111.254894 
L 602.614554 165.178298 
L 605.803125 165.178298 
L 612.180268 185.399574 
L 615.368839 141.586809 
L 618.557411 148.327234 
L 621.745982 134.846383 
L 624.934554 151.697447 
L 628.123125 128.105957 
L 631.311696 114.625106 
L 634.500268 124.735745 
L 637.688839 97.774043 
L 640.877411 148.327234 
L 644.065982 232.582553 
L 647.254554 256.174043 
L 650.443125 235.952766 
L 653.631696 239.322979 
L 656.820268 202.250638 
L 660.008839 225.842128 
L 663.197411 229.21234 
L 666.385982 229.21234 
L 669.574554 246.063404 
L 672.763125 246.063404 
L 675.951696 269.654894 
L 679.140268 299.986809 
L 682.328839 313.46766 
L 682.328839 313.46766 
" style="fill:none;stroke:#ff7f0e;stroke-dasharray:6,2.25;stroke-dashoffset:0;stroke-width:1.5;"/>
   </g>
   <g id="line2d_33">
    <path clip-path="url(#p8a43952c93)" d="M 47.803125 345.484681 
L 54.180268 332.00383 
L 57.368839 332.00383 
L 60.557411 335.374043 
L 63.745982 340.429362 
L 66.934554 342.114468 
L 70.123125 342.114468 
L 73.311696 345.484681 
L 76.500268 347.169787 
L 95.631696 347.169787 
L 98.820268 348.854894 
L 102.008839 347.169787 
L 105.197411 348.854894 
L 108.385982 347.169787 
L 111.574554 348.854894 
L 114.763125 347.169787 
L 117.951696 347.169787 
L 121.140268 348.854894 
L 124.328839 347.169787 
L 127.517411 348.854894 
L 130.705982 348.854894 
L 133.894554 347.169787 
L 137.083125 348.854894 
L 140.271696 347.169787 
L 153.025982 347.169787 
L 156.214554 348.854894 
L 159.403125 347.169787 
L 162.591696 348.854894 
L 165.780268 345.484681 
L 168.968839 347.169787 
L 172.157411 347.169787 
L 175.345982 345.484681 
L 178.534554 347.169787 
L 181.723125 345.484681 
L 188.100268 345.484681 
L 191.288839 347.169787 
L 197.665982 347.169787 
L 200.854554 345.484681 
L 204.043125 348.854894 
L 207.231696 347.169787 
L 210.420268 348.854894 
L 213.608839 347.169787 
L 223.174554 347.169787 
L 226.363125 348.854894 
L 229.551696 348.854894 
L 232.740268 347.169787 
L 235.928839 348.854894 
L 239.117411 348.854894 
L 242.305982 347.169787 
L 245.494554 348.854894 
L 248.683125 347.169787 
L 251.871696 348.854894 
L 255.060268 347.169787 
L 261.437411 347.169787 
L 264.625982 348.854894 
L 267.814554 347.169787 
L 271.003125 348.854894 
L 274.191696 348.854894 
L 277.380268 347.169787 
L 280.568839 348.854894 
L 283.757411 347.169787 
L 286.945982 348.854894 
L 290.134554 347.169787 
L 293.323125 348.854894 
L 296.511696 348.854894 
L 299.700268 347.169787 
L 302.888839 348.854894 
L 306.077411 347.169787 
L 309.265982 348.854894 
L 315.643125 348.854894 
L 318.831696 347.169787 
L 322.020268 348.854894 
L 325.208839 348.854894 
L 328.397411 347.169787 
L 331.585982 348.854894 
L 334.774554 348.854894 
L 337.963125 347.169787 
L 341.151696 348.854894 
L 344.340268 347.169787 
L 350.717411 347.169787 
L 353.905982 348.854894 
L 357.094554 348.854894 
L 360.283125 347.169787 
L 363.471696 348.854894 
L 366.660268 347.169787 
L 369.848839 348.854894 
L 373.037411 348.854894 
L 376.225982 347.169787 
L 379.414554 348.854894 
L 382.603125 348.854894 
L 385.791696 347.169787 
L 388.980268 348.854894 
L 392.168839 347.169787 
L 395.357411 348.854894 
L 398.545982 348.854894 
L 401.734554 347.169787 
L 404.923125 348.854894 
L 408.111696 348.854894 
L 411.300268 347.169787 
L 414.488839 347.169787 
L 417.677411 342.114468 
L 420.865982 345.484681 
L 424.054554 345.484681 
L 427.243125 347.169787 
L 430.431696 347.169787 
L 433.620268 348.854894 
L 436.808839 345.484681 
L 443.185982 345.484681 
L 446.374554 347.169787 
L 452.751696 347.169787 
L 459.128839 340.429362 
L 462.317411 338.744255 
L 465.505982 340.429362 
L 468.694554 345.484681 
L 475.071696 345.484681 
L 478.260268 347.169787 
L 481.448839 345.484681 
L 491.014554 345.484681 
L 494.203125 347.169787 
L 497.391696 347.169787 
L 500.580268 348.854894 
L 503.768839 347.169787 
L 506.957411 348.854894 
L 510.145982 347.169787 
L 513.334554 348.854894 
L 516.523125 347.169787 
L 522.900268 347.169787 
L 526.088839 348.854894 
L 529.277411 343.799574 
L 532.465982 347.169787 
L 535.654554 347.169787 
L 538.843125 348.854894 
L 545.220268 345.484681 
L 548.408839 342.114468 
L 551.597411 342.114468 
L 554.785982 340.429362 
L 557.974554 340.429362 
L 561.163125 343.799574 
L 567.540268 340.429362 
L 573.917411 340.429362 
L 577.105982 338.744255 
L 580.294554 335.374043 
L 583.483125 342.114468 
L 586.671696 340.429362 
L 589.860268 343.799574 
L 593.048839 345.484681 
L 596.237411 343.799574 
L 602.614554 343.799574 
L 605.803125 347.169787 
L 608.991696 343.799574 
L 615.368839 333.688936 
L 621.745982 330.318723 
L 624.934554 330.318723 
L 628.123125 328.633617 
L 634.500268 335.374043 
L 637.688839 330.318723 
L 640.877411 330.318723 
L 647.254554 326.948511 
L 650.443125 337.059149 
L 653.631696 338.744255 
L 656.820268 342.114468 
L 663.197411 328.633617 
L 666.385982 335.374043 
L 669.574554 338.744255 
L 672.763125 338.744255 
L 675.951696 343.799574 
L 679.140268 345.484681 
L 682.328839 345.484681 
L 682.328839 345.484681 
" style="fill:none;stroke:#2ca02c;stroke-dasharray:1.5,1.5;stroke-dashoffset:0;stroke-width:1.5;"/>
   </g>
   <g id="line2d_34">
    <path clip-path="url(#p8a43952c93)" d="M 50.991696 350.329362 
L 54.180268 307.991064 
L 57.368839 269.444255 
L 60.557411 141.37617 
L 63.745982 106.620851 
L 66.934554 264.388936 
L 70.123125 264.178298 
L 73.311696 262.071915 
L 76.500268 264.388936 
L 79.688839 264.599574 
L 82.877411 264.599574 
L 86.065982 263.335745 
L 89.254554 264.388936 
L 92.443125 266.074043 
L 95.631696 265.020851 
L 98.820268 266.074043 
L 102.008839 264.388936 
L 105.197411 266.074043 
L 108.385982 263.335745 
L 111.574554 266.284681 
L 114.763125 266.284681 
L 117.951696 261.861277 
L 121.140268 261.018723 
L 124.328839 261.018723 
L 127.517411 259.333617 
L 130.705982 259.754894 
L 133.894554 262.70383 
L 137.083125 261.018723 
L 140.271696 261.229362 
L 143.460268 258.701702 
L 146.648839 259.333617 
L 149.837411 259.754894 
L 153.025982 260.597447 
L 156.214554 261.650638 
L 159.403125 261.018723 
L 162.591696 262.70383 
L 165.780268 266.074043 
L 168.968839 265.231489 
L 172.157411 267.759149 
L 175.345982 271.129362 
L 178.534554 271.971915 
L 181.723125 271.129362 
L 184.911696 267.969787 
L 188.100268 270.286809 
L 191.288839 267.759149 
L 194.477411 267.759149 
L 197.665982 266.916596 
L 200.854554 264.388936 
L 207.231696 267.759149 
L 210.420268 267.127234 
L 213.608839 267.759149 
L 216.797411 266.916596 
L 219.985982 266.495319 
L 223.174554 265.652766 
L 226.363125 266.074043 
L 229.551696 263.546383 
L 232.740268 266.074043 
L 235.928839 266.074043 
L 239.117411 264.599574 
L 242.305982 263.546383 
L 245.494554 266.705957 
L 248.683125 264.810213 
L 251.871696 265.020851 
L 255.060268 267.759149 
L 258.248839 264.388936 
L 261.437411 266.074043 
L 264.625982 265.020851 
L 267.814554 264.388936 
L 271.003125 265.020851 
L 274.191696 265.442128 
L 277.380268 262.70383 
L 280.568839 262.70383 
L 283.757411 264.388936 
L 286.945982 260.386809 
L 290.134554 262.70383 
L 296.511696 262.70383 
L 299.700268 268.81234 
L 302.888839 270.286809 
L 306.077411 266.916596 
L 309.265982 268.81234 
L 312.454554 269.654894 
L 315.643125 270.07617 
L 318.831696 266.284681 
L 322.020268 269.865532 
L 325.208839 269.444255 
L 328.397411 268.81234 
L 331.585982 268.81234 
L 334.774554 268.601702 
L 337.963125 260.17617 
L 341.151696 262.914468 
L 344.340268 262.70383 
L 347.528839 262.914468 
L 350.717411 260.17617 
L 353.905982 262.70383 
L 360.283125 263.125106 
L 363.471696 260.597447 
L 366.660268 263.546383 
L 369.848839 262.70383 
L 373.037411 261.018723 
L 376.225982 261.861277 
L 379.414554 262.493191 
L 382.603125 262.914468 
L 385.791696 261.861277 
L 388.980268 262.493191 
L 392.168839 262.70383 
L 395.357411 264.388936 
L 398.545982 261.650638 
L 401.734554 262.70383 
L 408.111696 262.70383 
L 411.300268 263.546383 
L 414.488839 262.70383 
L 417.677411 262.493191 
L 420.865982 262.071915 
L 424.054554 264.388936 
L 427.243125 262.70383 
L 430.431696 262.914468 
L 433.620268 261.861277 
L 436.808839 262.70383 
L 439.997411 257.648511 
L 443.185982 255.963404 
L 449.563125 257.648511 
L 452.751696 259.333617 
L 455.940268 257.648511 
L 459.128839 257.648511 
L 462.317411 253.435745 
L 465.505982 254.278298 
L 468.694554 255.963404 
L 475.071696 255.963404 
L 478.260268 255.331489 
L 481.448839 255.752766 
L 484.637411 257.437872 
L 487.825982 256.174043 
L 491.014554 255.120851 
L 494.203125 254.278298 
L 497.391696 254.488936 
L 500.580268 250.908085 
L 503.768839 252.593191 
L 506.957411 247.537872 
L 510.145982 243.114468 
L 513.334554 242.482553 
L 516.523125 244.16766 
L 519.711696 247.537872 
L 522.900268 244.16766 
L 526.088839 244.16766 
L 529.277411 240.797447 
L 532.465982 239.11234 
L 535.654554 242.482553 
L 538.843125 242.482553 
L 542.031696 243.325106 
L 545.220268 240.797447 
L 548.408839 240.797447 
L 551.597411 237.427234 
L 554.785982 235.742128 
L 557.974554 239.11234 
L 561.163125 238.901702 
L 564.351696 240.797447 
L 567.540268 240.797447 
L 570.728839 242.482553 
L 573.917411 247.537872 
L 577.105982 248.169787 
L 580.294554 245.852766 
L 583.483125 247.537872 
L 586.671696 245.852766 
L 589.860268 245.852766 
L 593.048839 244.16766 
L 596.237411 247.537872 
L 599.425982 244.16766 
L 605.803125 249.222979 
L 608.991696 250.908085 
L 612.180268 247.537872 
L 615.368839 247.537872 
L 618.557411 249.222979 
L 624.934554 250.908085 
L 628.123125 254.488936 
L 631.311696 250.697447 
L 634.500268 250.908085 
L 637.688839 252.593191 
L 640.877411 251.54 
L 644.065982 254.278298 
L 647.254554 257.859149 
L 650.443125 254.278298 
L 653.631696 254.488936 
L 656.820268 253.435745 
L 660.008839 255.963404 
L 669.574554 250.908085 
L 672.763125 249.854894 
L 675.951696 247.537872 
L 682.328839 250.908085 
L 685.517411 338.533617 
L 685.517411 338.533617 
" style="fill:none;stroke:#d62728;stroke-dasharray:4.5,1.5,2.25,1.5;stroke-dashoffset:0;stroke-width:1.5;"/>
   </g>
   <g id="line2d_35"/>
   <g id="line2d_36"/>
   <g id="line2d_37"/>
   <g id="line2d_38"/>
   <g id="line2d_39"/>
   <g id="patch_3">
    <path d="M 47.803125 350.54 
L 47.803125 17.9 
" style="fill:none;stroke:#000000;stroke-linecap:square;stroke-linejoin:miter;stroke-width:0.8;"/>
   </g>
   <g id="patch_4">
    <path d="M 717.403125 350.54 
L 717.403125 17.9 
" style="fill:none;stroke:#000000;stroke-linecap:square;stroke-linejoin:miter;stroke-width:0.8;"/>
   </g>
   <g id="patch_5">
    <path d="M 47.803125 350.54 
L 717.403125 350.54 
" style="fill:none;stroke:#000000;stroke-linecap:square;stroke-linejoin:miter;stroke-width:0.8;"/>
   </g>
   <g id="patch_6">
    <path d="M 47.803125 17.9 
L 717.403125 17.9 
" style="fill:none;stroke:#000000;stroke-linecap:square;stroke-linejoin:miter;stroke-width:0.8;"/>
   </g>
   <g id="legend_1">
    <g id="patch_7">
     <path d="M 726.499125 221.2475 
L 804.416625 221.2475 
Q 806.816625 221.2475 806.816625 218.8475 
L 806.816625 149.5925 
Q 806.816625 147.1925 804.416625 147.1925 
L 726.499125 147.1925 
Q 724.099125 147.1925 724.099125 149.5925 
L 724.099125 218.8475 
Q 724.099125 221.2475 726.499125 221.2475 
z
" style="fill:#ffffff;opacity:0.8;stroke:#cccccc;stroke-linejoin:miter;"/>
    </g>
    <g id="line2d_40">
     <path d="M 728.899125 156.910625 
L 752.899125 156.910625 
" style="fill:none;stroke:#1f77b4;stroke-linecap:square;stroke-width:1.5;"/>
    </g>
    <g id="line2d_41"/>
    <g id="text_18">
     <!-- bbr -->
     <defs>
      <path d="M 41.109375 46.296875 
Q 39.59375 47.171875 37.8125 47.578125 
Q 36.03125 48 33.890625 48 
Q 26.265625 48 22.1875 43.046875 
Q 18.109375 38.09375 18.109375 28.8125 
L 18.109375 0 
L 9.078125 0 
L 9.078125 54.6875 
L 18.109375 54.6875 
L 18.109375 46.1875 
Q 20.953125 51.171875 25.484375 53.578125 
Q 30.03125 56 36.53125 56 
Q 37.453125 56 38.578125 55.875 
Q 39.703125 55.765625 41.0625 55.515625 
z
" id="DejaVuSans-72"/>
     </defs>
     <g transform="translate(762.499125 161.110625)scale(0.12 -0.12)">
      <use xlink:href="#DejaVuSans-62"/>
      <use x="63.476562" xlink:href="#DejaVuSans-62"/>
      <use x="126.953125" xlink:href="#DejaVuSans-72"/>
     </g>
    </g>
    <g id="line2d_42">
     <path d="M 728.899125 174.524375 
L 752.899125 174.524375 
" style="fill:none;stroke:#ff7f0e;stroke-dasharray:6,2.25;stroke-dashoffset:0;stroke-width:1.5;"/>
    </g>
    <g id="line2d_43"/>
    <g id="text_19">
     <!-- aurora -->
     <defs>
      <path d="M 8.5 21.578125 
L 8.5 54.6875 
L 17.484375 54.6875 
L 17.484375 21.921875 
Q 17.484375 14.15625 20.5 10.265625 
Q 23.53125 6.390625 29.59375 6.390625 
Q 36.859375 6.390625 41.078125 11.03125 
Q 45.3125 15.671875 45.3125 23.6875 
L 45.3125 54.6875 
L 54.296875 54.6875 
L 54.296875 0 
L 45.3125 0 
L 45.3125 8.40625 
Q 42.046875 3.421875 37.71875 1 
Q 33.40625 -1.421875 27.6875 -1.421875 
Q 18.265625 -1.421875 13.375 4.4375 
Q 8.5 10.296875 8.5 21.578125 
z
M 31.109375 56 
z
" id="DejaVuSans-75"/>
      <path d="M 30.609375 48.390625 
Q 23.390625 48.390625 19.1875 42.75 
Q 14.984375 37.109375 14.984375 27.296875 
Q 14.984375 17.484375 19.15625 11.84375 
Q 23.34375 6.203125 30.609375 6.203125 
Q 37.796875 6.203125 41.984375 11.859375 
Q 46.1875 17.53125 46.1875 27.296875 
Q 46.1875 37.015625 41.984375 42.703125 
Q 37.796875 48.390625 30.609375 48.390625 
z
M 30.609375 56 
Q 42.328125 56 49.015625 48.375 
Q 55.71875 40.765625 55.71875 27.296875 
Q 55.71875 13.875 49.015625 6.21875 
Q 42.328125 -1.421875 30.609375 -1.421875 
Q 18.84375 -1.421875 12.171875 6.21875 
Q 5.515625 13.875 5.515625 27.296875 
Q 5.515625 40.765625 12.171875 48.375 
Q 18.84375 56 30.609375 56 
z
" id="DejaVuSans-6f"/>
     </defs>
     <g transform="translate(762.499125 178.724375)scale(0.12 -0.12)">
      <use xlink:href="#DejaVuSans-61"/>
      <use x="61.279297" xlink:href="#DejaVuSans-75"/>
      <use x="124.658203" xlink:href="#DejaVuSans-72"/>
      <use x="165.740234" xlink:href="#DejaVuSans-6f"/>
      <use x="226.921875" xlink:href="#DejaVuSans-72"/>
      <use x="268.035156" xlink:href="#DejaVuSans-61"/>
     </g>
    </g>
    <g id="line2d_44">
     <path d="M 728.899125 192.138125 
L 752.899125 192.138125 
" style="fill:none;stroke:#2ca02c;stroke-dasharray:1.5,1.5;stroke-dashoffset:0;stroke-width:1.5;"/>
    </g>
    <g id="line2d_45"/>
    <g id="text_20">
     <!-- pareto -->
     <defs>
      <path d="M 18.109375 8.203125 
L 18.109375 -20.796875 
L 9.078125 -20.796875 
L 9.078125 54.6875 
L 18.109375 54.6875 
L 18.109375 46.390625 
Q 20.953125 51.265625 25.265625 53.625 
Q 29.59375 56 35.59375 56 
Q 45.5625 56 51.78125 48.09375 
Q 58.015625 40.1875 58.015625 27.296875 
Q 58.015625 14.40625 51.78125 6.484375 
Q 45.5625 -1.421875 35.59375 -1.421875 
Q 29.59375 -1.421875 25.265625 0.953125 
Q 20.953125 3.328125 18.109375 8.203125 
z
M 48.6875 27.296875 
Q 48.6875 37.203125 44.609375 42.84375 
Q 40.53125 48.484375 33.40625 48.484375 
Q 26.265625 48.484375 22.1875 42.84375 
Q 18.109375 37.203125 18.109375 27.296875 
Q 18.109375 17.390625 22.1875 11.75 
Q 26.265625 6.109375 33.40625 6.109375 
Q 40.53125 6.109375 44.609375 11.75 
Q 48.6875 17.390625 48.6875 27.296875 
z
" id="DejaVuSans-70"/>
     </defs>
     <g transform="translate(762.499125 196.338125)scale(0.12 -0.12)">
      <use xlink:href="#DejaVuSans-70"/>
      <use x="63.476562" xlink:href="#DejaVuSans-61"/>
      <use x="124.755859" xlink:href="#DejaVuSans-72"/>
      <use x="165.837891" xlink:href="#DejaVuSans-65"/>
      <use x="227.361328" xlink:href="#DejaVuSans-74"/>
      <use x="266.570312" xlink:href="#DejaVuSans-6f"/>
     </g>
    </g>
    <g id="line2d_46">
     <path d="M 728.899125 209.751875 
L 752.899125 209.751875 
" style="fill:none;stroke:#d62728;stroke-dasharray:4.5,1.5,2.25,1.5;stroke-dashoffset:0;stroke-width:1.5;"/>
    </g>
    <g id="line2d_47"/>
    <g id="text_21">
     <!-- pcc -->
     <defs>
      <path d="M 48.78125 52.59375 
L 48.78125 44.1875 
Q 44.96875 46.296875 41.140625 47.34375 
Q 37.3125 48.390625 33.40625 48.390625 
Q 24.65625 48.390625 19.8125 42.84375 
Q 14.984375 37.3125 14.984375 27.296875 
Q 14.984375 17.28125 19.8125 11.734375 
Q 24.65625 6.203125 33.40625 6.203125 
Q 37.3125 6.203125 41.140625 7.25 
Q 44.96875 8.296875 48.78125 10.40625 
L 48.78125 2.09375 
Q 45.015625 0.34375 40.984375 -0.53125 
Q 36.96875 -1.421875 32.421875 -1.421875 
Q 20.0625 -1.421875 12.78125 6.34375 
Q 5.515625 14.109375 5.515625 27.296875 
Q 5.515625 40.671875 12.859375 48.328125 
Q 20.21875 56 33.015625 56 
Q 37.15625 56 41.109375 55.140625 
Q 45.0625 54.296875 48.78125 52.59375 
z
" id="DejaVuSans-63"/>
     </defs>
     <g transform="translate(762.499125 213.951875)scale(0.12 -0.12)">
      <use xlink:href="#DejaVuSans-70"/>
      <use x="63.476562" xlink:href="#DejaVuSans-63"/>
      <use x="118.457031" xlink:href="#DejaVuSans-63"/>
     </g>
    </g>
   </g>
  </g>
 </g>
 <defs>
  <clipPath id="p8a43952c93">
   <rect height="332.64" width="669.6" x="47.803125" y="17.9"/>
  </clipPath>
 </defs>
</svg>
