<?xml version="1.0" encoding="utf-8" standalone="no"?>
<!DOCTYPE svg PUBLIC "-//W3C//DTD SVG 1.1//EN"
  "http://www.w3.org/Graphics/SVG/1.1/DTD/svg11.dtd">
<!-- Created with matplotlib (http://matplotlib.org/) -->
<svg height="395.29625pt" version="1.1" viewBox="0 0 821.216625 395.29625" width="821.216625pt" xmlns="http://www.w3.org/2000/svg" xmlns:xlink="http://www.w3.org/1999/xlink">
 <defs>
  <style type="text/css">
*{stroke-linecap:butt;stroke-linejoin:round;}
  </style>
 </defs>
 <g id="figure_1">
  <g id="patch_1">
   <path d="M 0 395.29625 
L 821.216625 395.29625 
L 821.216625 0 
L 0 0 
z
" style="fill:#ffffff;"/>
  </g>
  <g id="axes_1">
   <g id="patch_2">
    <path d="M 47.803125 350.54 
L 717.403125 350.54 
L 717.403125 17.9 
L 47.803125 17.9 
z
" style="fill:#ffffff;"/>
   </g>
   <g id="PolyCollection_1">
    <path clip-path="url(#pe0a355a3df)" d="M 78.239489 258.211489 
L 78.239489 335.42 
L 81.283125 335.42 
L 84.326761 335.42 
L 87.370398 335.42 
L 90.414034 335.42 
L 93.45767 335.42 
L 96.501307 335.42 
L 99.544943 335.42 
L 102.58858 335.42 
L 105.632216 335.42 
L 108.675852 335.42 
L 111.719489 335.42 
L 114.763125 335.42 
L 117.806761 335.42 
L 120.850398 335.42 
L 123.894034 335.42 
L 126.93767 335.42 
L 129.981307 335.42 
L 133.024943 335.42 
L 136.06858 335.42 
L 139.112216 335.42 
L 142.155852 335.42 
L 145.199489 335.42 
L 148.243125 335.42 
L 151.286761 335.42 
L 154.330398 335.42 
L 157.374034 335.42 
L 160.41767 335.42 
L 163.461307 335.42 
L 166.504943 335.42 
L 169.54858 335.42 
L 172.592216 335.42 
L 175.635852 335.42 
L 178.679489 335.42 
L 181.723125 335.42 
L 184.766761 335.42 
L 187.810398 335.42 
L 190.854034 335.42 
L 193.89767 335.42 
L 196.941307 335.42 
L 199.984943 335.42 
L 203.02858 335.42 
L 206.072216 335.42 
L 209.115852 335.42 
L 212.159489 335.42 
L 215.203125 335.42 
L 218.246761 335.42 
L 221.290398 335.42 
L 224.334034 335.42 
L 227.37767 335.42 
L 230.421307 335.42 
L 233.464943 335.42 
L 236.50858 335.42 
L 239.552216 335.42 
L 242.595852 335.42 
L 245.639489 335.42 
L 248.683125 335.42 
L 251.726761 335.42 
L 254.770398 335.42 
L 257.814034 335.42 
L 260.85767 335.42 
L 263.901307 335.42 
L 266.944943 335.42 
L 269.98858 335.42 
L 273.032216 335.42 
L 276.075852 335.42 
L 279.119489 335.42 
L 282.163125 335.42 
L 285.206761 335.42 
L 288.250398 335.42 
L 291.294034 335.42 
L 294.33767 335.42 
L 297.381307 335.42 
L 300.424943 335.42 
L 303.46858 335.42 
L 306.512216 335.42 
L 309.555852 335.42 
L 312.599489 335.42 
L 315.643125 335.42 
L 318.686761 335.42 
L 321.730398 335.42 
L 324.774034 335.42 
L 327.81767 335.42 
L 330.861307 335.42 
L 333.904943 335.42 
L 336.94858 335.42 
L 339.992216 335.42 
L 343.035852 335.42 
L 346.079489 335.42 
L 349.123125 335.42 
L 352.166761 335.42 
L 355.210398 335.42 
L 358.254034 335.42 
L 361.29767 335.42 
L 364.341307 335.42 
L 367.384943 335.42 
L 370.42858 335.42 
L 373.472216 335.42 
L 376.515852 335.42 
L 379.559489 335.42 
L 382.603125 335.42 
L 385.646761 335.42 
L 388.690398 335.42 
L 391.734034 335.42 
L 394.77767 335.42 
L 397.821307 335.42 
L 400.864943 335.42 
L 403.90858 335.42 
L 406.952216 335.42 
L 409.995852 335.42 
L 413.039489 335.42 
L 416.083125 335.42 
L 419.126761 335.42 
L 422.170398 335.42 
L 425.214034 335.42 
L 428.25767 335.42 
L 431.301307 335.42 
L 434.344943 335.42 
L 437.38858 335.42 
L 440.432216 335.42 
L 443.475852 335.42 
L 446.519489 335.42 
L 449.563125 335.42 
L 452.606761 335.42 
L 455.650398 335.42 
L 458.694034 335.42 
L 461.73767 335.42 
L 464.781307 335.42 
L 467.824943 335.42 
L 470.86858 335.42 
L 473.912216 335.42 
L 476.955852 335.42 
L 479.999489 335.42 
L 483.043125 335.42 
L 486.086761 335.42 
L 489.130398 335.42 
L 492.174034 335.42 
L 495.21767 335.42 
L 498.261307 335.42 
L 501.304943 335.42 
L 504.34858 335.42 
L 507.392216 335.42 
L 510.435852 335.42 
L 513.479489 335.42 
L 516.523125 335.42 
L 519.566761 335.42 
L 522.610398 335.42 
L 525.654034 335.42 
L 528.69767 335.42 
L 531.741307 335.42 
L 534.784943 335.42 
L 537.82858 335.42 
L 540.872216 335.42 
L 543.915852 335.42 
L 546.959489 335.42 
L 550.003125 335.42 
L 553.046761 335.42 
L 556.090398 335.42 
L 559.134034 335.42 
L 562.17767 335.42 
L 565.221307 335.42 
L 568.264943 335.42 
L 571.30858 335.42 
L 574.352216 335.42 
L 577.395852 335.42 
L 580.439489 335.42 
L 583.483125 335.42 
L 586.526761 335.42 
L 589.570398 335.42 
L 592.614034 335.42 
L 595.65767 335.42 
L 598.701307 335.42 
L 601.744943 335.42 
L 604.78858 335.42 
L 607.832216 335.42 
L 610.875852 335.42 
L 613.919489 335.42 
L 616.963125 335.42 
L 620.006761 335.42 
L 623.050398 335.42 
L 626.094034 335.42 
L 629.13767 335.42 
L 632.181307 335.42 
L 635.224943 335.42 
L 638.26858 335.42 
L 641.312216 335.42 
L 644.355852 335.42 
L 647.399489 335.42 
L 650.443125 335.42 
L 653.486761 335.42 
L 656.530398 335.42 
L 659.574034 335.42 
L 662.61767 335.42 
L 665.661307 335.42 
L 668.704943 335.42 
L 671.74858 335.42 
L 674.792216 335.42 
L 677.835852 335.42 
L 680.879489 335.42 
L 683.923125 335.42 
L 686.966761 335.42 
L 686.966761 317.726383 
L 686.966761 317.726383 
L 683.923125 264.645532 
L 680.879489 259.82 
L 677.835852 267.862553 
L 674.792216 238.909362 
L 671.74858 234.08383 
L 668.704943 219.607234 
L 665.661307 240.517872 
L 662.61767 201.913617 
L 659.574034 197.088085 
L 656.530398 227.649787 
L 653.486761 219.607234 
L 650.443125 240.517872 
L 647.399489 235.69234 
L 644.355852 200.305106 
L 641.312216 137.573191 
L 638.26858 86.100851 
L 635.224943 73.232766 
L 632.181307 102.185957 
L 629.13767 119.879574 
L 626.094034 137.573191 
L 623.050398 118.271064 
L 620.006761 148.832766 
L 616.963125 163.309362 
L 613.919489 169.743404 
L 610.875852 160.09234 
L 607.832216 152.049787 
L 604.78858 137.573191 
L 601.744943 147.224255 
L 598.701307 118.271064 
L 595.65767 148.832766 
L 592.614034 124.705106 
L 589.570398 156.875319 
L 586.526761 127.922128 
L 583.483125 158.48383 
L 580.439489 158.48383 
L 577.395852 89.317872 
L 574.352216 142.398723 
L 571.30858 185.828511 
L 568.264943 155.266809 
L 565.221307 182.611489 
L 562.17767 153.658298 
L 559.134034 177.785957 
L 556.090398 221.215745 
L 553.046761 179.394468 
L 550.003125 150.441277 
L 546.959489 182.611489 
L 543.915852 213.173191 
L 540.872216 184.22 
L 537.82858 171.351915 
L 534.784943 182.611489 
L 531.741307 127.922128 
L 528.69767 156.875319 
L 525.654034 144.007234 
L 522.610398 148.832766 
L 519.566761 155.266809 
L 516.523125 164.917872 
L 513.479489 137.573191 
L 510.435852 115.054043 
L 507.392216 131.139149 
L 504.34858 166.526383 
L 501.304943 134.35617 
L 498.261307 161.700851 
L 495.21767 166.526383 
L 492.174034 121.488085 
L 489.130398 127.922128 
L 486.086761 84.49234 
L 483.043125 100.577447 
L 479.999489 107.011489 
L 476.955852 81.275319 
L 473.912216 152.049787 
L 470.86858 95.751915 
L 467.824943 111.837021 
L 464.781307 132.74766 
L 461.73767 84.49234 
L 458.694034 60.364681 
L 455.650398 34.628511 
L 452.606761 68.407234 
L 449.563125 87.709362 
L 446.519489 65.190213 
L 443.475852 100.577447 
L 440.432216 81.275319 
L 437.38858 98.968936 
L 434.344943 98.968936 
L 431.301307 118.271064 
L 428.25767 148.832766 
L 425.214034 145.615745 
L 422.170398 144.007234 
L 419.126761 90.926383 
L 416.083125 123.096596 
L 413.039489 94.143404 
L 409.995852 107.011489 
L 406.952216 82.88383 
L 403.90858 50.713617 
L 400.864943 70.015745 
L 397.821307 221.215745 
L 394.77767 33.02 
L 391.734034 58.75617 
L 388.690398 110.228511 
L 385.646761 137.573191 
L 382.603125 288.773191 
L 379.559489 320.943404 
L 376.515852 309.68383 
L 373.472216 320.943404 
L 370.42858 291.990213 
L 367.384943 279.122128 
L 364.341307 293.598723 
L 361.29767 283.94766 
L 358.254034 298.424255 
L 355.210398 308.075319 
L 352.166761 295.207234 
L 349.123125 291.990213 
L 346.079489 283.94766 
L 343.035852 266.254043 
L 339.992216 279.122128 
L 336.94858 271.079574 
L 333.904943 296.815745 
L 330.861307 272.688085 
L 327.81767 261.428511 
L 324.774034 264.645532 
L 321.730398 263.037021 
L 318.686761 291.990213 
L 315.643125 277.513617 
L 312.599489 277.513617 
L 309.555852 275.905106 
L 306.512216 267.862553 
L 303.46858 280.730638 
L 300.424943 279.122128 
L 297.381307 269.471064 
L 294.33767 282.339149 
L 291.294034 325.768936 
L 288.250398 90.926383 
L 285.206761 124.705106 
L 282.163125 181.002979 
L 279.119489 168.134894 
L 276.075852 172.960426 
L 273.032216 219.607234 
L 269.98858 296.815745 
L 266.944943 319.334894 
L 263.901307 226.041277 
L 260.85767 251.777447 
L 257.814034 242.126383 
L 254.770398 214.781702 
L 251.726761 213.173191 
L 248.683125 235.69234 
L 245.639489 271.079574 
L 242.595852 259.82 
L 239.552216 288.773191 
L 236.50858 290.381702 
L 233.464943 232.475319 
L 230.421307 242.126383 
L 227.37767 248.560426 
L 224.334034 177.785957 
L 221.290398 198.696596 
L 218.246761 208.34766 
L 215.203125 254.994468 
L 212.159489 248.560426 
L 209.115852 184.22 
L 206.072216 195.479574 
L 203.02858 226.041277 
L 199.984943 197.088085 
L 196.941307 185.828511 
L 193.89767 200.305106 
L 190.854034 189.045532 
L 187.810398 187.437021 
L 184.766761 214.781702 
L 181.723125 200.305106 
L 178.679489 192.262553 
L 175.635852 144.007234 
L 172.592216 174.568936 
L 169.54858 145.615745 
L 166.504943 156.875319 
L 163.461307 158.48383 
L 160.41767 158.48383 
L 157.374034 155.266809 
L 154.330398 171.351915 
L 151.286761 185.828511 
L 148.243125 140.790213 
L 145.199489 158.48383 
L 142.155852 158.48383 
L 139.112216 192.262553 
L 136.06858 197.088085 
L 133.024943 156.875319 
L 129.981307 201.913617 
L 126.93767 144.007234 
L 123.894034 156.875319 
L 120.850398 227.649787 
L 117.806761 152.049787 
L 114.763125 113.445532 
L 111.719489 177.785957 
L 108.675852 219.607234 
L 105.632216 190.654043 
L 102.58858 156.875319 
L 99.544943 181.002979 
L 96.501307 144.007234 
L 93.45767 181.002979 
L 90.414034 213.173191 
L 87.370398 208.34766 
L 84.326761 253.385957 
L 81.283125 246.951915 
L 78.239489 258.211489 
z
" style="fill:#faf0e6;"/>
   </g>
   <g id="matplotlib.axis_1">
    <g id="xtick_1">
     <g id="line2d_1">
      <path clip-path="url(#pe0a355a3df)" d="M 78.239489 350.54 
L 78.239489 17.9 
" style="fill:none;stroke:#b0b0b0;stroke-linecap:square;stroke-width:0.8;"/>
     </g>
     <g id="line2d_2">
      <defs>
       <path d="M 0 0 
L 0 3.5 
" id="maff7f71b72" style="stroke:#000000;stroke-width:0.8;"/>
      </defs>
      <g>
       <use style="stroke:#000000;stroke-width:0.8;" x="78.239489" xlink:href="#maff7f71b72" y="350.54"/>
      </g>
     </g>
     <g id="text_1">
      <!-- 0 -->
      <defs>
       <path d="M 31.78125 66.40625 
Q 24.171875 66.40625 20.328125 58.90625 
Q 16.5 51.421875 16.5 36.375 
Q 16.5 21.390625 20.328125 13.890625 
Q 24.171875 6.390625 31.78125 6.390625 
Q 39.453125 6.390625 43.28125 13.890625 
Q 47.125 21.390625 47.125 36.375 
Q 47.125 51.421875 43.28125 58.90625 
Q 39.453125 66.40625 31.78125 66.40625 
z
M 31.78125 74.21875 
Q 44.046875 74.21875 50.515625 64.515625 
Q 56.984375 54.828125 56.984375 36.375 
Q 56.984375 17.96875 50.515625 8.265625 
Q 44.046875 -1.421875 31.78125 -1.421875 
Q 19.53125 -1.421875 13.0625 8.265625 
Q 6.59375 17.96875 6.59375 36.375 
Q 6.59375 54.828125 13.0625 64.515625 
Q 19.53125 74.21875 31.78125 74.21875 
z
" id="DejaVuSans-30"/>
      </defs>
      <g transform="translate(75.058239 365.138438)scale(0.1 -0.1)">
       <use xlink:href="#DejaVuSans-30"/>
      </g>
     </g>
    </g>
    <g id="xtick_2">
     <g id="line2d_3">
      <path clip-path="url(#pe0a355a3df)" d="M 179.694034 350.54 
L 179.694034 17.9 
" style="fill:none;stroke:#b0b0b0;stroke-linecap:square;stroke-width:0.8;"/>
     </g>
     <g id="line2d_4">
      <g>
       <use style="stroke:#000000;stroke-width:0.8;" x="179.694034" xlink:href="#maff7f71b72" y="350.54"/>
      </g>
     </g>
     <g id="text_2">
      <!-- 5 -->
      <defs>
       <path d="M 10.796875 72.90625 
L 49.515625 72.90625 
L 49.515625 64.59375 
L 19.828125 64.59375 
L 19.828125 46.734375 
Q 21.96875 47.46875 24.109375 47.828125 
Q 26.265625 48.1875 28.421875 48.1875 
Q 40.625 48.1875 47.75 41.5 
Q 54.890625 34.8125 54.890625 23.390625 
Q 54.890625 11.625 47.5625 5.09375 
Q 40.234375 -1.421875 26.90625 -1.421875 
Q 22.3125 -1.421875 17.546875 -0.640625 
Q 12.796875 0.140625 7.71875 1.703125 
L 7.71875 11.625 
Q 12.109375 9.234375 16.796875 8.0625 
Q 21.484375 6.890625 26.703125 6.890625 
Q 35.15625 6.890625 40.078125 11.328125 
Q 45.015625 15.765625 45.015625 23.390625 
Q 45.015625 31 40.078125 35.4375 
Q 35.15625 39.890625 26.703125 39.890625 
Q 22.75 39.890625 18.8125 39.015625 
Q 14.890625 38.140625 10.796875 36.28125 
z
" id="DejaVuSans-35"/>
      </defs>
      <g transform="translate(176.512784 365.138438)scale(0.1 -0.1)">
       <use xlink:href="#DejaVuSans-35"/>
      </g>
     </g>
    </g>
    <g id="xtick_3">
     <g id="line2d_5">
      <path clip-path="url(#pe0a355a3df)" d="M 281.14858 350.54 
L 281.14858 17.9 
" style="fill:none;stroke:#b0b0b0;stroke-linecap:square;stroke-width:0.8;"/>
     </g>
     <g id="line2d_6">
      <g>
       <use style="stroke:#000000;stroke-width:0.8;" x="281.14858" xlink:href="#maff7f71b72" y="350.54"/>
      </g>
     </g>
     <g id="text_3">
      <!-- 10 -->
      <defs>
       <path d="M 12.40625 8.296875 
L 28.515625 8.296875 
L 28.515625 63.921875 
L 10.984375 60.40625 
L 10.984375 69.390625 
L 28.421875 72.90625 
L 38.28125 72.90625 
L 38.28125 8.296875 
L 54.390625 8.296875 
L 54.390625 0 
L 12.40625 0 
z
" id="DejaVuSans-31"/>
      </defs>
      <g transform="translate(274.78608 365.138438)scale(0.1 -0.1)">
       <use xlink:href="#DejaVuSans-31"/>
       <use x="63.623047" xlink:href="#DejaVuSans-30"/>
      </g>
     </g>
    </g>
    <g id="xtick_4">
     <g id="line2d_7">
      <path clip-path="url(#pe0a355a3df)" d="M 382.603125 350.54 
L 382.603125 17.9 
" style="fill:none;stroke:#b0b0b0;stroke-linecap:square;stroke-width:0.8;"/>
     </g>
     <g id="line2d_8">
      <g>
       <use style="stroke:#000000;stroke-width:0.8;" x="382.603125" xlink:href="#maff7f71b72" y="350.54"/>
      </g>
     </g>
     <g id="text_4">
      <!-- 15 -->
      <g transform="translate(376.240625 365.138438)scale(0.1 -0.1)">
       <use xlink:href="#DejaVuSans-31"/>
       <use x="63.623047" xlink:href="#DejaVuSans-35"/>
      </g>
     </g>
    </g>
    <g id="xtick_5">
     <g id="line2d_9">
      <path clip-path="url(#pe0a355a3df)" d="M 484.05767 350.54 
L 484.05767 17.9 
" style="fill:none;stroke:#b0b0b0;stroke-linecap:square;stroke-width:0.8;"/>
     </g>
     <g id="line2d_10">
      <g>
       <use style="stroke:#000000;stroke-width:0.8;" x="484.05767" xlink:href="#maff7f71b72" y="350.54"/>
      </g>
     </g>
     <g id="text_5">
      <!-- 20 -->
      <defs>
       <path d="M 19.1875 8.296875 
L 53.609375 8.296875 
L 53.609375 0 
L 7.328125 0 
L 7.328125 8.296875 
Q 12.9375 14.109375 22.625 23.890625 
Q 32.328125 33.6875 34.8125 36.53125 
Q 39.546875 41.84375 41.421875 45.53125 
Q 43.3125 49.21875 43.3125 52.78125 
Q 43.3125 58.59375 39.234375 62.25 
Q 35.15625 65.921875 28.609375 65.921875 
Q 23.96875 65.921875 18.8125 64.3125 
Q 13.671875 62.703125 7.8125 59.421875 
L 7.8125 69.390625 
Q 13.765625 71.78125 18.9375 73 
Q 24.125 74.21875 28.421875 74.21875 
Q 39.75 74.21875 46.484375 68.546875 
Q 53.21875 62.890625 53.21875 53.421875 
Q 53.21875 48.921875 51.53125 44.890625 
Q 49.859375 40.875 45.40625 35.40625 
Q 44.1875 33.984375 37.640625 27.21875 
Q 31.109375 20.453125 19.1875 8.296875 
z
" id="DejaVuSans-32"/>
      </defs>
      <g transform="translate(477.69517 365.138438)scale(0.1 -0.1)">
       <use xlink:href="#DejaVuSans-32"/>
       <use x="63.623047" xlink:href="#DejaVuSans-30"/>
      </g>
     </g>
    </g>
    <g id="xtick_6">
     <g id="line2d_11">
      <path clip-path="url(#pe0a355a3df)" d="M 585.512216 350.54 
L 585.512216 17.9 
" style="fill:none;stroke:#b0b0b0;stroke-linecap:square;stroke-width:0.8;"/>
     </g>
     <g id="line2d_12">
      <g>
       <use style="stroke:#000000;stroke-width:0.8;" x="585.512216" xlink:href="#maff7f71b72" y="350.54"/>
      </g>
     </g>
     <g id="text_6">
      <!-- 25 -->
      <g transform="translate(579.149716 365.138438)scale(0.1 -0.1)">
       <use xlink:href="#DejaVuSans-32"/>
       <use x="63.623047" xlink:href="#DejaVuSans-35"/>
      </g>
     </g>
    </g>
    <g id="xtick_7">
     <g id="line2d_13">
      <path clip-path="url(#pe0a355a3df)" d="M 686.966761 350.54 
L 686.966761 17.9 
" style="fill:none;stroke:#b0b0b0;stroke-linecap:square;stroke-width:0.8;"/>
     </g>
     <g id="line2d_14">
      <g>
       <use style="stroke:#000000;stroke-width:0.8;" x="686.966761" xlink:href="#maff7f71b72" y="350.54"/>
      </g>
     </g>
     <g id="text_7">
      <!-- 30 -->
      <defs>
       <path d="M 40.578125 39.3125 
Q 47.65625 37.796875 51.625 33 
Q 55.609375 28.21875 55.609375 21.1875 
Q 55.609375 10.40625 48.1875 4.484375 
Q 40.765625 -1.421875 27.09375 -1.421875 
Q 22.515625 -1.421875 17.65625 -0.515625 
Q 12.796875 0.390625 7.625 2.203125 
L 7.625 11.71875 
Q 11.71875 9.328125 16.59375 8.109375 
Q 21.484375 6.890625 26.8125 6.890625 
Q 36.078125 6.890625 40.9375 10.546875 
Q 45.796875 14.203125 45.796875 21.1875 
Q 45.796875 27.640625 41.28125 31.265625 
Q 36.765625 34.90625 28.71875 34.90625 
L 20.21875 34.90625 
L 20.21875 43.015625 
L 29.109375 43.015625 
Q 36.375 43.015625 40.234375 45.921875 
Q 44.09375 48.828125 44.09375 54.296875 
Q 44.09375 59.90625 40.109375 62.90625 
Q 36.140625 65.921875 28.71875 65.921875 
Q 24.65625 65.921875 20.015625 65.03125 
Q 15.375 64.15625 9.8125 62.3125 
L 9.8125 71.09375 
Q 15.4375 72.65625 20.34375 73.4375 
Q 25.25 74.21875 29.59375 74.21875 
Q 40.828125 74.21875 47.359375 69.109375 
Q 53.90625 64.015625 53.90625 55.328125 
Q 53.90625 49.265625 50.4375 45.09375 
Q 46.96875 40.921875 40.578125 39.3125 
z
" id="DejaVuSans-33"/>
      </defs>
      <g transform="translate(680.604261 365.138438)scale(0.1 -0.1)">
       <use xlink:href="#DejaVuSans-33"/>
       <use x="63.623047" xlink:href="#DejaVuSans-30"/>
      </g>
     </g>
    </g>
    <g id="text_8">
     <!-- Time (s) -->
     <defs>
      <path d="M -0.296875 72.90625 
L 61.375 72.90625 
L 61.375 64.59375 
L 35.5 64.59375 
L 35.5 0 
L 25.59375 0 
L 25.59375 64.59375 
L -0.296875 64.59375 
z
" id="DejaVuSans-54"/>
      <path d="M 9.421875 54.6875 
L 18.40625 54.6875 
L 18.40625 0 
L 9.421875 0 
z
M 9.421875 75.984375 
L 18.40625 75.984375 
L 18.40625 64.59375 
L 9.421875 64.59375 
z
" id="DejaVuSans-69"/>
      <path d="M 52 44.1875 
Q 55.375 50.25 60.0625 53.125 
Q 64.75 56 71.09375 56 
Q 79.640625 56 84.28125 50.015625 
Q 88.921875 44.046875 88.921875 33.015625 
L 88.921875 0 
L 79.890625 0 
L 79.890625 32.71875 
Q 79.890625 40.578125 77.09375 44.375 
Q 74.3125 48.1875 68.609375 48.1875 
Q 61.625 48.1875 57.5625 43.546875 
Q 53.515625 38.921875 53.515625 30.90625 
L 53.515625 0 
L 44.484375 0 
L 44.484375 32.71875 
Q 44.484375 40.625 41.703125 44.40625 
Q 38.921875 48.1875 33.109375 48.1875 
Q 26.21875 48.1875 22.15625 43.53125 
Q 18.109375 38.875 18.109375 30.90625 
L 18.109375 0 
L 9.078125 0 
L 9.078125 54.6875 
L 18.109375 54.6875 
L 18.109375 46.1875 
Q 21.1875 51.21875 25.484375 53.609375 
Q 29.78125 56 35.6875 56 
Q 41.65625 56 45.828125 52.96875 
Q 50 49.953125 52 44.1875 
z
" id="DejaVuSans-6d"/>
      <path d="M 56.203125 29.59375 
L 56.203125 25.203125 
L 14.890625 25.203125 
Q 15.484375 15.921875 20.484375 11.0625 
Q 25.484375 6.203125 34.421875 6.203125 
Q 39.59375 6.203125 44.453125 7.46875 
Q 49.3125 8.734375 54.109375 11.28125 
L 54.109375 2.78125 
Q 49.265625 0.734375 44.1875 -0.34375 
Q 39.109375 -1.421875 33.890625 -1.421875 
Q 20.796875 -1.421875 13.15625 6.1875 
Q 5.515625 13.8125 5.515625 26.8125 
Q 5.515625 40.234375 12.765625 48.109375 
Q 20.015625 56 32.328125 56 
Q 43.359375 56 49.78125 48.890625 
Q 56.203125 41.796875 56.203125 29.59375 
z
M 47.21875 32.234375 
Q 47.125 39.59375 43.09375 43.984375 
Q 39.0625 48.390625 32.421875 48.390625 
Q 24.90625 48.390625 20.390625 44.140625 
Q 15.875 39.890625 15.1875 32.171875 
z
" id="DejaVuSans-65"/>
      <path id="DejaVuSans-20"/>
      <path d="M 31 75.875 
Q 24.46875 64.65625 21.28125 53.65625 
Q 18.109375 42.671875 18.109375 31.390625 
Q 18.109375 20.125 21.3125 9.0625 
Q 24.515625 -2 31 -13.1875 
L 23.1875 -13.1875 
Q 15.875 -1.703125 12.234375 9.375 
Q 8.59375 20.453125 8.59375 31.390625 
Q 8.59375 42.28125 12.203125 53.3125 
Q 15.828125 64.359375 23.1875 75.875 
z
" id="DejaVuSans-28"/>
      <path d="M 44.28125 53.078125 
L 44.28125 44.578125 
Q 40.484375 46.53125 36.375 47.5 
Q 32.28125 48.484375 27.875 48.484375 
Q 21.1875 48.484375 17.84375 46.4375 
Q 14.5 44.390625 14.5 40.28125 
Q 14.5 37.15625 16.890625 35.375 
Q 19.28125 33.59375 26.515625 31.984375 
L 29.59375 31.296875 
Q 39.15625 29.25 43.1875 25.515625 
Q 47.21875 21.78125 47.21875 15.09375 
Q 47.21875 7.46875 41.1875 3.015625 
Q 35.15625 -1.421875 24.609375 -1.421875 
Q 20.21875 -1.421875 15.453125 -0.5625 
Q 10.6875 0.296875 5.421875 2 
L 5.421875 11.28125 
Q 10.40625 8.6875 15.234375 7.390625 
Q 20.0625 6.109375 24.8125 6.109375 
Q 31.15625 6.109375 34.5625 8.28125 
Q 37.984375 10.453125 37.984375 14.40625 
Q 37.984375 18.0625 35.515625 20.015625 
Q 33.0625 21.96875 24.703125 23.78125 
L 21.578125 24.515625 
Q 13.234375 26.265625 9.515625 29.90625 
Q 5.8125 33.546875 5.8125 39.890625 
Q 5.8125 47.609375 11.28125 51.796875 
Q 16.75 56 26.8125 56 
Q 31.78125 56 36.171875 55.265625 
Q 40.578125 54.546875 44.28125 53.078125 
z
" id="DejaVuSans-73"/>
      <path d="M 8.015625 75.875 
L 15.828125 75.875 
Q 23.140625 64.359375 26.78125 53.3125 
Q 30.421875 42.28125 30.421875 31.390625 
Q 30.421875 20.453125 26.78125 9.375 
Q 23.140625 -1.703125 15.828125 -13.1875 
L 8.015625 -13.1875 
Q 14.5 -2 17.703125 9.0625 
Q 20.90625 20.125 20.90625 31.390625 
Q 20.90625 42.671875 17.703125 53.65625 
Q 14.5 64.65625 8.015625 75.875 
z
" id="DejaVuSans-29"/>
     </defs>
     <g transform="translate(362.120313 378.816563)scale(0.1 -0.1)">
      <use xlink:href="#DejaVuSans-54"/>
      <use x="61.037109" xlink:href="#DejaVuSans-69"/>
      <use x="88.820312" xlink:href="#DejaVuSans-6d"/>
      <use x="186.232422" xlink:href="#DejaVuSans-65"/>
      <use x="247.755859" xlink:href="#DejaVuSans-20"/>
      <use x="279.542969" xlink:href="#DejaVuSans-28"/>
      <use x="318.556641" xlink:href="#DejaVuSans-73"/>
      <use x="370.65625" xlink:href="#DejaVuSans-29"/>
     </g>
    </g>
   </g>
   <g id="matplotlib.axis_2">
    <g id="ytick_1">
     <g id="line2d_15">
      <path clip-path="url(#pe0a355a3df)" d="M 47.803125 335.42 
L 717.403125 335.42 
" style="fill:none;stroke:#b0b0b0;stroke-linecap:square;stroke-width:0.8;"/>
     </g>
     <g id="line2d_16">
      <defs>
       <path d="M 0 0 
L -3.5 0 
" id="me85560b927" style="stroke:#000000;stroke-width:0.8;"/>
      </defs>
      <g>
       <use style="stroke:#000000;stroke-width:0.8;" x="47.803125" xlink:href="#me85560b927" y="335.42"/>
      </g>
     </g>
     <g id="text_9">
      <!-- 0 -->
      <g transform="translate(34.440625 339.219219)scale(0.1 -0.1)">
       <use xlink:href="#DejaVuSans-30"/>
      </g>
     </g>
    </g>
    <g id="ytick_2">
     <g id="line2d_17">
      <path clip-path="url(#pe0a355a3df)" d="M 47.803125 295.207234 
L 717.403125 295.207234 
" style="fill:none;stroke:#b0b0b0;stroke-linecap:square;stroke-width:0.8;"/>
     </g>
     <g id="line2d_18">
      <g>
       <use style="stroke:#000000;stroke-width:0.8;" x="47.803125" xlink:href="#me85560b927" y="295.207234"/>
      </g>
     </g>
     <g id="text_10">
      <!-- 2 -->
      <g transform="translate(34.440625 299.006453)scale(0.1 -0.1)">
       <use xlink:href="#DejaVuSans-32"/>
      </g>
     </g>
    </g>
    <g id="ytick_3">
     <g id="line2d_19">
      <path clip-path="url(#pe0a355a3df)" d="M 47.803125 254.994468 
L 717.403125 254.994468 
" style="fill:none;stroke:#b0b0b0;stroke-linecap:square;stroke-width:0.8;"/>
     </g>
     <g id="line2d_20">
      <g>
       <use style="stroke:#000000;stroke-width:0.8;" x="47.803125" xlink:href="#me85560b927" y="254.994468"/>
      </g>
     </g>
     <g id="text_11">
      <!-- 4 -->
      <defs>
       <path d="M 37.796875 64.3125 
L 12.890625 25.390625 
L 37.796875 25.390625 
z
M 35.203125 72.90625 
L 47.609375 72.90625 
L 47.609375 25.390625 
L 58.015625 25.390625 
L 58.015625 17.1875 
L 47.609375 17.1875 
L 47.609375 0 
L 37.796875 0 
L 37.796875 17.1875 
L 4.890625 17.1875 
L 4.890625 26.703125 
z
" id="DejaVuSans-34"/>
      </defs>
      <g transform="translate(34.440625 258.793687)scale(0.1 -0.1)">
       <use xlink:href="#DejaVuSans-34"/>
      </g>
     </g>
    </g>
    <g id="ytick_4">
     <g id="line2d_21">
      <path clip-path="url(#pe0a355a3df)" d="M 47.803125 214.781702 
L 717.403125 214.781702 
" style="fill:none;stroke:#b0b0b0;stroke-linecap:square;stroke-width:0.8;"/>
     </g>
     <g id="line2d_22">
      <g>
       <use style="stroke:#000000;stroke-width:0.8;" x="47.803125" xlink:href="#me85560b927" y="214.781702"/>
      </g>
     </g>
     <g id="text_12">
      <!-- 6 -->
      <defs>
       <path d="M 33.015625 40.375 
Q 26.375 40.375 22.484375 35.828125 
Q 18.609375 31.296875 18.609375 23.390625 
Q 18.609375 15.53125 22.484375 10.953125 
Q 26.375 6.390625 33.015625 6.390625 
Q 39.65625 6.390625 43.53125 10.953125 
Q 47.40625 15.53125 47.40625 23.390625 
Q 47.40625 31.296875 43.53125 35.828125 
Q 39.65625 40.375 33.015625 40.375 
z
M 52.59375 71.296875 
L 52.59375 62.3125 
Q 48.875 64.0625 45.09375 64.984375 
Q 41.3125 65.921875 37.59375 65.921875 
Q 27.828125 65.921875 22.671875 59.328125 
Q 17.53125 52.734375 16.796875 39.40625 
Q 19.671875 43.65625 24.015625 45.921875 
Q 28.375 48.1875 33.59375 48.1875 
Q 44.578125 48.1875 50.953125 41.515625 
Q 57.328125 34.859375 57.328125 23.390625 
Q 57.328125 12.15625 50.6875 5.359375 
Q 44.046875 -1.421875 33.015625 -1.421875 
Q 20.359375 -1.421875 13.671875 8.265625 
Q 6.984375 17.96875 6.984375 36.375 
Q 6.984375 53.65625 15.1875 63.9375 
Q 23.390625 74.21875 37.203125 74.21875 
Q 40.921875 74.21875 44.703125 73.484375 
Q 48.484375 72.75 52.59375 71.296875 
z
" id="DejaVuSans-36"/>
      </defs>
      <g transform="translate(34.440625 218.580921)scale(0.1 -0.1)">
       <use xlink:href="#DejaVuSans-36"/>
      </g>
     </g>
    </g>
    <g id="ytick_5">
     <g id="line2d_23">
      <path clip-path="url(#pe0a355a3df)" d="M 47.803125 174.568936 
L 717.403125 174.568936 
" style="fill:none;stroke:#b0b0b0;stroke-linecap:square;stroke-width:0.8;"/>
     </g>
     <g id="line2d_24">
      <g>
       <use style="stroke:#000000;stroke-width:0.8;" x="47.803125" xlink:href="#me85560b927" y="174.568936"/>
      </g>
     </g>
     <g id="text_13">
      <!-- 8 -->
      <defs>
       <path d="M 31.78125 34.625 
Q 24.75 34.625 20.71875 30.859375 
Q 16.703125 27.09375 16.703125 20.515625 
Q 16.703125 13.921875 20.71875 10.15625 
Q 24.75 6.390625 31.78125 6.390625 
Q 38.8125 6.390625 42.859375 10.171875 
Q 46.921875 13.96875 46.921875 20.515625 
Q 46.921875 27.09375 42.890625 30.859375 
Q 38.875 34.625 31.78125 34.625 
z
M 21.921875 38.8125 
Q 15.578125 40.375 12.03125 44.71875 
Q 8.5 49.078125 8.5 55.328125 
Q 8.5 64.0625 14.71875 69.140625 
Q 20.953125 74.21875 31.78125 74.21875 
Q 42.671875 74.21875 48.875 69.140625 
Q 55.078125 64.0625 55.078125 55.328125 
Q 55.078125 49.078125 51.53125 44.71875 
Q 48 40.375 41.703125 38.8125 
Q 48.828125 37.15625 52.796875 32.3125 
Q 56.78125 27.484375 56.78125 20.515625 
Q 56.78125 9.90625 50.3125 4.234375 
Q 43.84375 -1.421875 31.78125 -1.421875 
Q 19.734375 -1.421875 13.25 4.234375 
Q 6.78125 9.90625 6.78125 20.515625 
Q 6.78125 27.484375 10.78125 32.3125 
Q 14.796875 37.15625 21.921875 38.8125 
z
M 18.3125 54.390625 
Q 18.3125 48.734375 21.84375 45.5625 
Q 25.390625 42.390625 31.78125 42.390625 
Q 38.140625 42.390625 41.71875 45.5625 
Q 45.3125 48.734375 45.3125 54.390625 
Q 45.3125 60.0625 41.71875 63.234375 
Q 38.140625 66.40625 31.78125 66.40625 
Q 25.390625 66.40625 21.84375 63.234375 
Q 18.3125 60.0625 18.3125 54.390625 
z
" id="DejaVuSans-38"/>
      </defs>
      <g transform="translate(34.440625 178.368155)scale(0.1 -0.1)">
       <use xlink:href="#DejaVuSans-38"/>
      </g>
     </g>
    </g>
    <g id="ytick_6">
     <g id="line2d_25">
      <path clip-path="url(#pe0a355a3df)" d="M 47.803125 134.35617 
L 717.403125 134.35617 
" style="fill:none;stroke:#b0b0b0;stroke-linecap:square;stroke-width:0.8;"/>
     </g>
     <g id="line2d_26">
      <g>
       <use style="stroke:#000000;stroke-width:0.8;" x="47.803125" xlink:href="#me85560b927" y="134.35617"/>
      </g>
     </g>
     <g id="text_14">
      <!-- 10 -->
      <g transform="translate(28.078125 138.155389)scale(0.1 -0.1)">
       <use xlink:href="#DejaVuSans-31"/>
       <use x="63.623047" xlink:href="#DejaVuSans-30"/>
      </g>
     </g>
    </g>
    <g id="ytick_7">
     <g id="line2d_27">
      <path clip-path="url(#pe0a355a3df)" d="M 47.803125 94.143404 
L 717.403125 94.143404 
" style="fill:none;stroke:#b0b0b0;stroke-linecap:square;stroke-width:0.8;"/>
     </g>
     <g id="line2d_28">
      <g>
       <use style="stroke:#000000;stroke-width:0.8;" x="47.803125" xlink:href="#me85560b927" y="94.143404"/>
      </g>
     </g>
     <g id="text_15">
      <!-- 12 -->
      <g transform="translate(28.078125 97.942623)scale(0.1 -0.1)">
       <use xlink:href="#DejaVuSans-31"/>
       <use x="63.623047" xlink:href="#DejaVuSans-32"/>
      </g>
     </g>
    </g>
    <g id="ytick_8">
     <g id="line2d_29">
      <path clip-path="url(#pe0a355a3df)" d="M 47.803125 53.930638 
L 717.403125 53.930638 
" style="fill:none;stroke:#b0b0b0;stroke-linecap:square;stroke-width:0.8;"/>
     </g>
     <g id="line2d_30">
      <g>
       <use style="stroke:#000000;stroke-width:0.8;" x="47.803125" xlink:href="#me85560b927" y="53.930638"/>
      </g>
     </g>
     <g id="text_16">
      <!-- 14 -->
      <g transform="translate(28.078125 57.729857)scale(0.1 -0.1)">
       <use xlink:href="#DejaVuSans-31"/>
       <use x="63.623047" xlink:href="#DejaVuSans-34"/>
      </g>
     </g>
    </g>
    <g id="text_17">
     <!-- Sending Rate (Mbit/s) -->
     <defs>
      <path d="M 53.515625 70.515625 
L 53.515625 60.890625 
Q 47.90625 63.578125 42.921875 64.890625 
Q 37.9375 66.21875 33.296875 66.21875 
Q 25.25 66.21875 20.875 63.09375 
Q 16.5 59.96875 16.5 54.203125 
Q 16.5 49.359375 19.40625 46.890625 
Q 22.3125 44.4375 30.421875 42.921875 
L 36.375 41.703125 
Q 47.40625 39.59375 52.65625 34.296875 
Q 57.90625 29 57.90625 20.125 
Q 57.90625 9.515625 50.796875 4.046875 
Q 43.703125 -1.421875 29.984375 -1.421875 
Q 24.8125 -1.421875 18.96875 -0.25 
Q 13.140625 0.921875 6.890625 3.21875 
L 6.890625 13.375 
Q 12.890625 10.015625 18.65625 8.296875 
Q 24.421875 6.59375 29.984375 6.59375 
Q 38.421875 6.59375 43.015625 9.90625 
Q 47.609375 13.234375 47.609375 19.390625 
Q 47.609375 24.75 44.3125 27.78125 
Q 41.015625 30.8125 33.5 32.328125 
L 27.484375 33.5 
Q 16.453125 35.6875 11.515625 40.375 
Q 6.59375 45.0625 6.59375 53.421875 
Q 6.59375 63.09375 13.40625 68.65625 
Q 20.21875 74.21875 32.171875 74.21875 
Q 37.3125 74.21875 42.625 73.28125 
Q 47.953125 72.359375 53.515625 70.515625 
z
" id="DejaVuSans-53"/>
      <path d="M 54.890625 33.015625 
L 54.890625 0 
L 45.90625 0 
L 45.90625 32.71875 
Q 45.90625 40.484375 42.875 44.328125 
Q 39.84375 48.1875 33.796875 48.1875 
Q 26.515625 48.1875 22.3125 43.546875 
Q 18.109375 38.921875 18.109375 30.90625 
L 18.109375 0 
L 9.078125 0 
L 9.078125 54.6875 
L 18.109375 54.6875 
L 18.109375 46.1875 
Q 21.34375 51.125 25.703125 53.5625 
Q 30.078125 56 35.796875 56 
Q 45.21875 56 50.046875 50.171875 
Q 54.890625 44.34375 54.890625 33.015625 
z
" id="DejaVuSans-6e"/>
      <path d="M 45.40625 46.390625 
L 45.40625 75.984375 
L 54.390625 75.984375 
L 54.390625 0 
L 45.40625 0 
L 45.40625 8.203125 
Q 42.578125 3.328125 38.25 0.953125 
Q 33.9375 -1.421875 27.875 -1.421875 
Q 17.96875 -1.421875 11.734375 6.484375 
Q 5.515625 14.40625 5.515625 27.296875 
Q 5.515625 40.1875 11.734375 48.09375 
Q 17.96875 56 27.875 56 
Q 33.9375 56 38.25 53.625 
Q 42.578125 51.265625 45.40625 46.390625 
z
M 14.796875 27.296875 
Q 14.796875 17.390625 18.875 11.75 
Q 22.953125 6.109375 30.078125 6.109375 
Q 37.203125 6.109375 41.296875 11.75 
Q 45.40625 17.390625 45.40625 27.296875 
Q 45.40625 37.203125 41.296875 42.84375 
Q 37.203125 48.484375 30.078125 48.484375 
Q 22.953125 48.484375 18.875 42.84375 
Q 14.796875 37.203125 14.796875 27.296875 
z
" id="DejaVuSans-64"/>
      <path d="M 45.40625 27.984375 
Q 45.40625 37.75 41.375 43.109375 
Q 37.359375 48.484375 30.078125 48.484375 
Q 22.859375 48.484375 18.828125 43.109375 
Q 14.796875 37.75 14.796875 27.984375 
Q 14.796875 18.265625 18.828125 12.890625 
Q 22.859375 7.515625 30.078125 7.515625 
Q 37.359375 7.515625 41.375 12.890625 
Q 45.40625 18.265625 45.40625 27.984375 
z
M 54.390625 6.78125 
Q 54.390625 -7.171875 48.1875 -13.984375 
Q 42 -20.796875 29.203125 -20.796875 
Q 24.46875 -20.796875 20.265625 -20.09375 
Q 16.0625 -19.390625 12.109375 -17.921875 
L 12.109375 -9.1875 
Q 16.0625 -11.328125 19.921875 -12.34375 
Q 23.78125 -13.375 27.78125 -13.375 
Q 36.625 -13.375 41.015625 -8.765625 
Q 45.40625 -4.15625 45.40625 5.171875 
L 45.40625 9.625 
Q 42.625 4.78125 38.28125 2.390625 
Q 33.9375 0 27.875 0 
Q 17.828125 0 11.671875 7.65625 
Q 5.515625 15.328125 5.515625 27.984375 
Q 5.515625 40.671875 11.671875 48.328125 
Q 17.828125 56 27.875 56 
Q 33.9375 56 38.28125 53.609375 
Q 42.625 51.21875 45.40625 46.390625 
L 45.40625 54.6875 
L 54.390625 54.6875 
z
" id="DejaVuSans-67"/>
      <path d="M 44.390625 34.1875 
Q 47.5625 33.109375 50.5625 29.59375 
Q 53.5625 26.078125 56.59375 19.921875 
L 66.609375 0 
L 56 0 
L 46.6875 18.703125 
Q 43.0625 26.03125 39.671875 28.421875 
Q 36.28125 30.8125 30.421875 30.8125 
L 19.671875 30.8125 
L 19.671875 0 
L 9.8125 0 
L 9.8125 72.90625 
L 32.078125 72.90625 
Q 44.578125 72.90625 50.734375 67.671875 
Q 56.890625 62.453125 56.890625 51.90625 
Q 56.890625 45.015625 53.6875 40.46875 
Q 50.484375 35.9375 44.390625 34.1875 
z
M 19.671875 64.796875 
L 19.671875 38.921875 
L 32.078125 38.921875 
Q 39.203125 38.921875 42.84375 42.21875 
Q 46.484375 45.515625 46.484375 51.90625 
Q 46.484375 58.296875 42.84375 61.546875 
Q 39.203125 64.796875 32.078125 64.796875 
z
" id="DejaVuSans-52"/>
      <path d="M 34.28125 27.484375 
Q 23.390625 27.484375 19.1875 25 
Q 14.984375 22.515625 14.984375 16.5 
Q 14.984375 11.71875 18.140625 8.90625 
Q 21.296875 6.109375 26.703125 6.109375 
Q 34.1875 6.109375 38.703125 11.40625 
Q 43.21875 16.703125 43.21875 25.484375 
L 43.21875 27.484375 
z
M 52.203125 31.203125 
L 52.203125 0 
L 43.21875 0 
L 43.21875 8.296875 
Q 40.140625 3.328125 35.546875 0.953125 
Q 30.953125 -1.421875 24.3125 -1.421875 
Q 15.921875 -1.421875 10.953125 3.296875 
Q 6 8.015625 6 15.921875 
Q 6 25.140625 12.171875 29.828125 
Q 18.359375 34.515625 30.609375 34.515625 
L 43.21875 34.515625 
L 43.21875 35.40625 
Q 43.21875 41.609375 39.140625 45 
Q 35.0625 48.390625 27.6875 48.390625 
Q 23 48.390625 18.546875 47.265625 
Q 14.109375 46.140625 10.015625 43.890625 
L 10.015625 52.203125 
Q 14.9375 54.109375 19.578125 55.046875 
Q 24.21875 56 28.609375 56 
Q 40.484375 56 46.34375 49.84375 
Q 52.203125 43.703125 52.203125 31.203125 
z
" id="DejaVuSans-61"/>
      <path d="M 18.3125 70.21875 
L 18.3125 54.6875 
L 36.8125 54.6875 
L 36.8125 47.703125 
L 18.3125 47.703125 
L 18.3125 18.015625 
Q 18.3125 11.328125 20.140625 9.421875 
Q 21.96875 7.515625 27.59375 7.515625 
L 36.8125 7.515625 
L 36.8125 0 
L 27.59375 0 
Q 17.1875 0 13.234375 3.875 
Q 9.28125 7.765625 9.28125 18.015625 
L 9.28125 47.703125 
L 2.6875 47.703125 
L 2.6875 54.6875 
L 9.28125 54.6875 
L 9.28125 70.21875 
z
" id="DejaVuSans-74"/>
      <path d="M 9.8125 72.90625 
L 24.515625 72.90625 
L 43.109375 23.296875 
L 61.8125 72.90625 
L 76.515625 72.90625 
L 76.515625 0 
L 66.890625 0 
L 66.890625 64.015625 
L 48.09375 14.015625 
L 38.1875 14.015625 
L 19.390625 64.015625 
L 19.390625 0 
L 9.8125 0 
z
" id="DejaVuSans-4d"/>
      <path d="M 48.6875 27.296875 
Q 48.6875 37.203125 44.609375 42.84375 
Q 40.53125 48.484375 33.40625 48.484375 
Q 26.265625 48.484375 22.1875 42.84375 
Q 18.109375 37.203125 18.109375 27.296875 
Q 18.109375 17.390625 22.1875 11.75 
Q 26.265625 6.109375 33.40625 6.109375 
Q 40.53125 6.109375 44.609375 11.75 
Q 48.6875 17.390625 48.6875 27.296875 
z
M 18.109375 46.390625 
Q 20.953125 51.265625 25.265625 53.625 
Q 29.59375 56 35.59375 56 
Q 45.5625 56 51.78125 48.09375 
Q 58.015625 40.1875 58.015625 27.296875 
Q 58.015625 14.40625 51.78125 6.484375 
Q 45.5625 -1.421875 35.59375 -1.421875 
Q 29.59375 -1.421875 25.265625 0.953125 
Q 20.953125 3.328125 18.109375 8.203125 
L 18.109375 0 
L 9.078125 0 
L 9.078125 75.984375 
L 18.109375 75.984375 
z
" id="DejaVuSans-62"/>
      <path d="M 25.390625 72.90625 
L 33.6875 72.90625 
L 8.296875 -9.28125 
L 0 -9.28125 
z
" id="DejaVuSans-2f"/>
     </defs>
     <g transform="translate(21.998438 238.325469)rotate(-90)scale(0.1 -0.1)">
      <use xlink:href="#DejaVuSans-53"/>
      <use x="63.476562" xlink:href="#DejaVuSans-65"/>
      <use x="125" xlink:href="#DejaVuSans-6e"/>
      <use x="188.378906" xlink:href="#DejaVuSans-64"/>
      <use x="251.855469" xlink:href="#DejaVuSans-69"/>
      <use x="279.638672" xlink:href="#DejaVuSans-6e"/>
      <use x="343.017578" xlink:href="#DejaVuSans-67"/>
      <use x="406.494141" xlink:href="#DejaVuSans-20"/>
      <use x="438.28125" xlink:href="#DejaVuSans-52"/>
      <use x="507.732422" xlink:href="#DejaVuSans-61"/>
      <use x="569.011719" xlink:href="#DejaVuSans-74"/>
      <use x="608.220703" xlink:href="#DejaVuSans-65"/>
      <use x="669.744141" xlink:href="#DejaVuSans-20"/>
      <use x="701.53125" xlink:href="#DejaVuSans-28"/>
      <use x="740.544922" xlink:href="#DejaVuSans-4d"/>
      <use x="826.824219" xlink:href="#DejaVuSans-62"/>
      <use x="890.300781" xlink:href="#DejaVuSans-69"/>
      <use x="918.083984" xlink:href="#DejaVuSans-74"/>
      <use x="957.292969" xlink:href="#DejaVuSans-2f"/>
      <use x="990.984375" xlink:href="#DejaVuSans-73"/>
      <use x="1043.083984" xlink:href="#DejaVuSans-29"/>
     </g>
    </g>
   </g>
   <g id="line2d_31">
    <path clip-path="url(#pe0a355a3df)" d="M 78.239489 335.218936 
L 81.283125 335.218936 
L 84.326761 144.811489 
L 87.370398 218.199787 
L 90.414034 211.363617 
L 93.45767 209.554043 
L 96.501307 211.363617 
L 99.544943 221.617872 
L 102.58858 207.945532 
L 105.632216 207.945532 
L 108.675852 208.548723 
L 111.719489 214.781702 
L 114.763125 236.496596 
L 117.806761 221.416809 
L 120.850398 228.454043 
L 123.894034 226.644468 
L 126.93767 236.898723 
L 129.981307 242.126383 
L 133.024943 233.480638 
L 136.06858 238.708298 
L 139.112216 236.496596 
L 142.155852 228.454043 
L 145.199489 228.454043 
L 148.243125 226.644468 
L 151.286761 235.290213 
L 154.330398 238.708298 
L 157.374034 236.898723 
L 160.41767 239.914681 
L 163.461307 233.480638 
L 169.54858 247.152979 
L 172.592216 247.152979 
L 175.635852 246.750851 
L 178.679489 248.761489 
L 181.723125 247.152979 
L 184.766761 247.152979 
L 187.810398 243.332766 
L 190.854034 245.544468 
L 193.89767 233.480638 
L 196.941307 243.734894 
L 199.984943 235.290213 
L 203.02858 235.290213 
L 206.072216 239.914681 
L 209.115852 228.454043 
L 212.159489 228.454043 
L 215.203125 225.035957 
L 218.246761 233.480638 
L 221.290398 233.480638 
L 224.334034 243.734894 
L 227.37767 248.359362 
L 230.421307 248.962553 
L 233.464943 250.571064 
L 236.50858 260.825319 
L 239.552216 260.222128 
L 242.595852 253.989149 
L 245.639489 257.407234 
L 248.683125 262.031702 
L 251.726761 259.216809 
L 254.770398 255.195532 
L 257.814034 259.216809 
L 260.85767 259.216809 
L 263.901307 260.222128 
L 266.944943 257.407234 
L 269.98858 259.618936 
L 273.032216 268.867872 
L 276.075852 269.471064 
L 279.119489 275.704043 
L 282.163125 279.725319 
L 285.206761 280.730638 
L 288.250398 281.33383 
L 291.294034 277.312553 
L 294.33767 280.730638 
L 297.381307 283.143404 
L 300.424943 290.984894 
L 303.46858 291.588085 
L 306.512216 290.984894 
L 309.555852 290.984894 
L 312.599489 289.979574 
L 315.643125 289.376383 
L 318.686761 289.979574 
L 321.730398 289.376383 
L 324.774034 290.984894 
L 327.81767 293.39766 
L 330.861307 289.376383 
L 333.904943 290.984894 
L 336.94858 288.17 
L 339.992216 290.984894 
L 343.035852 291.588085 
L 346.079489 289.376383 
L 349.123125 290.984894 
L 352.166761 288.17 
L 355.210398 289.376383 
L 358.254034 290.984894 
L 361.29767 288.17 
L 364.341307 289.376383 
L 367.384943 293.39766 
L 370.42858 289.376383 
L 373.472216 290.984894 
L 376.515852 291.588085 
L 379.559489 290.984894 
L 382.603125 290.984894 
L 385.646761 289.979574 
L 388.690398 290.984894 
L 391.734034 291.588085 
L 394.77767 290.984894 
L 397.821307 290.984894 
L 400.864943 289.979574 
L 403.90858 289.376383 
L 406.952216 289.979574 
L 409.995852 290.984894 
L 413.039489 289.376383 
L 416.083125 291.588085 
L 419.126761 291.185957 
L 422.170398 287.566809 
L 425.214034 293.39766 
L 428.25767 289.376383 
L 431.301307 289.979574 
L 434.344943 287.566809 
L 437.38858 290.984894 
L 440.432216 289.979574 
L 443.475852 290.984894 
L 446.519489 289.979574 
L 449.563125 289.376383 
L 452.606761 289.376383 
L 455.650398 291.588085 
L 458.694034 285.958298 
L 461.73767 271.079574 
L 464.781307 268.867872 
L 467.824943 269.471064 
L 470.86858 262.031702 
L 473.912216 259.216809 
L 476.955852 259.216809 
L 479.999489 251.777447 
L 483.043125 235.290213 
L 486.086761 219.808298 
L 489.130398 221.617872 
L 492.174034 225.035957 
L 495.21767 225.035957 
L 498.261307 221.617872 
L 501.304943 223.226383 
L 504.34858 221.617872 
L 507.392216 214.781702 
L 510.435852 201.109362 
L 513.479489 201.109362 
L 516.523125 199.902979 
L 519.566761 202.918936 
L 522.610398 197.691277 
L 525.654034 199.500851 
L 528.69767 192.664681 
L 531.741307 192.664681 
L 534.784943 186.230638 
L 537.82858 187.437021 
L 540.872216 177.182766 
L 543.915852 188.040213 
L 546.959489 184.018936 
L 550.003125 190.855106 
L 553.046761 182.410426 
L 556.090398 193.066809 
L 559.134034 199.500851 
L 562.17767 185.828511 
L 565.221307 196.082766 
L 568.264943 192.664681 
L 571.30858 193.066809 
L 574.352216 194.273191 
L 580.439489 204.527447 
L 583.483125 197.691277 
L 586.526761 204.527447 
L 589.570398 198.294468 
L 592.614034 185.828511 
L 595.65767 170.346596 
L 598.701307 160.695532 
L 601.744943 168.738085 
L 604.78858 165.722128 
L 607.832216 165.32 
L 610.875852 162.304043 
L 613.919489 163.510426 
L 616.963125 164.113617 
L 620.006761 172.15617 
L 623.050398 177.182766 
L 626.094034 172.558298 
L 629.13767 168.738085 
L 632.181307 175.574255 
L 635.224943 170.949787 
L 638.26858 180.600851 
L 641.312216 180.600851 
L 644.355852 184.622128 
L 647.399489 180.600851 
L 650.443125 172.15617 
L 653.486761 188.040213 
L 656.530398 185.828511 
L 659.574034 180.600851 
L 662.61767 184.622128 
L 665.661307 192.664681 
L 668.704943 192.664681 
L 671.74858 190.855106 
L 674.792216 193.066809 
L 677.835852 190.855106 
L 680.879489 192.664681 
L 683.923125 192.664681 
L 686.966761 284.751915 
L 686.966761 284.751915 
" style="fill:none;stroke:#1f77b4;stroke-linecap:square;stroke-width:1.5;"/>
   </g>
   <g id="line2d_32">
    <path clip-path="url(#pe0a355a3df)" d="M 78.239489 286.963617 
L 81.283125 224.432766 
L 84.326761 224.432766 
L 87.370398 213.173191 
L 90.414034 193.871064 
L 93.45767 161.700851 
L 96.501307 119.879574 
L 99.544943 177.785957 
L 102.58858 161.700851 
L 105.632216 181.002979 
L 108.675852 258.211489 
L 111.719489 264.645532 
L 114.763125 115.054043 
L 117.806761 89.317872 
L 120.850398 184.22 
L 126.93767 164.917872 
L 129.981307 158.48383 
L 133.024943 168.134894 
L 136.06858 190.654043 
L 139.112216 209.95617 
L 142.155852 206.739149 
L 145.199489 161.700851 
L 148.243125 152.049787 
L 151.286761 152.049787 
L 154.330398 171.351915 
L 157.374034 168.134894 
L 163.461307 148.832766 
L 166.504943 158.48383 
L 169.54858 158.48383 
L 172.592216 148.832766 
L 175.635852 193.871064 
L 178.679489 164.917872 
L 181.723125 174.568936 
L 184.766761 203.522128 
L 187.810398 203.522128 
L 190.854034 184.22 
L 196.941307 222.824255 
L 199.984943 152.049787 
L 203.02858 248.560426 
L 206.072216 213.173191 
L 209.115852 209.95617 
L 212.159489 190.654043 
L 215.203125 254.994468 
L 218.246761 245.343404 
L 221.290398 203.522128 
L 224.334034 184.22 
L 227.37767 200.305106 
L 230.421307 245.343404 
L 233.464943 242.126383 
L 236.50858 261.428511 
L 239.552216 322.551915 
L 242.595852 271.079574 
L 245.639489 238.909362 
L 248.683125 248.560426 
L 251.726761 242.126383 
L 254.770398 197.088085 
L 257.814034 219.607234 
L 260.85767 254.994468 
L 263.901307 296.815745 
L 266.944943 242.126383 
L 269.98858 316.117872 
L 273.032216 245.343404 
L 276.075852 209.95617 
L 279.119489 193.871064 
L 282.163125 309.68383 
L 285.206761 290.381702 
L 288.250398 168.134894 
L 291.294034 245.343404 
L 294.33767 296.815745 
L 297.381307 267.862553 
L 300.424943 274.296596 
L 303.46858 287.164681 
L 306.512216 277.513617 
L 309.555852 264.645532 
L 312.599489 280.730638 
L 315.643125 271.079574 
L 318.686761 293.598723 
L 321.730398 328.985957 
L 324.774034 200.305106 
L 327.81767 267.862553 
L 330.861307 277.513617 
L 333.904943 303.249787 
L 336.94858 258.211489 
L 339.992216 274.296596 
L 343.035852 274.296596 
L 346.079489 325.768936 
L 349.123125 335.42 
L 352.166761 274.296596 
L 355.210398 319.334894 
L 358.254034 272.688085 
L 361.29767 285.55617 
L 364.341307 296.815745 
L 367.384943 283.94766 
L 370.42858 283.94766 
L 373.472216 309.68383 
L 379.559489 316.117872 
L 382.603125 327.377447 
L 385.646761 259.82 
L 388.690398 248.560426 
L 391.734034 242.126383 
L 394.77767 229.258298 
L 397.821307 213.173191 
L 400.864943 209.95617 
L 403.90858 177.785957 
L 409.995852 145.615745 
L 413.039489 113.445532 
L 416.083125 107.011489 
L 419.126761 97.360426 
L 422.170398 78.058298 
L 425.214034 126.313617 
L 428.25767 161.700851 
L 431.301307 152.049787 
L 437.38858 74.841277 
L 440.432216 78.058298 
L 446.519489 97.360426 
L 449.563125 84.49234 
L 452.606761 65.190213 
L 455.650398 78.058298 
L 461.73767 39.454043 
L 467.824943 123.096596 
L 470.86858 90.926383 
L 473.912216 142.398723 
L 476.955852 126.313617 
L 479.999489 87.709362 
L 483.043125 90.926383 
L 486.086761 119.879574 
L 489.130398 123.096596 
L 492.174034 324.160426 
L 495.21767 316.117872 
L 498.261307 102.185957 
L 501.304943 171.351915 
L 504.34858 148.832766 
L 507.392216 171.351915 
L 510.435852 124.705106 
L 513.479489 105.402979 
L 516.523125 126.313617 
L 519.566761 148.832766 
L 522.610398 155.266809 
L 525.654034 148.832766 
L 528.69767 123.096596 
L 531.741307 163.309362 
L 534.784943 166.526383 
L 537.82858 190.654043 
L 540.872216 213.173191 
L 543.915852 148.832766 
L 546.959489 206.739149 
L 550.003125 168.134894 
L 553.046761 174.568936 
L 556.090398 219.607234 
L 559.134034 197.088085 
L 562.17767 164.917872 
L 565.221307 155.266809 
L 568.264943 226.041277 
L 571.30858 158.48383 
L 577.395852 145.615745 
L 580.439489 123.096596 
L 586.526761 161.700851 
L 589.570398 116.662553 
L 592.614034 152.049787 
L 598.701307 119.879574 
L 601.744943 152.049787 
L 604.78858 119.879574 
L 610.875852 158.48383 
L 613.919489 168.134894 
L 616.963125 168.134894 
L 620.006761 139.181702 
L 623.050398 155.266809 
L 626.094034 119.879574 
L 629.13767 132.74766 
L 632.181307 126.313617 
L 635.224943 113.445532 
L 638.26858 107.011489 
L 641.312216 78.058298 
L 644.355852 158.48383 
L 647.399489 222.824255 
L 650.443125 248.560426 
L 653.486761 226.041277 
L 656.530398 226.041277 
L 659.574034 193.871064 
L 662.61767 216.390213 
L 665.661307 219.607234 
L 668.704943 219.607234 
L 671.74858 238.909362 
L 674.792216 269.471064 
L 677.835852 256.602979 
L 680.879489 258.211489 
L 683.923125 267.862553 
L 686.966761 328.985957 
L 686.966761 328.985957 
" style="fill:none;stroke:#ff7f0e;stroke-dasharray:6,2.25;stroke-dashoffset:0;stroke-width:1.5;"/>
   </g>
   <g id="line2d_33">
    <path clip-path="url(#pe0a355a3df)" d="M 78.239489 330.594468 
L 81.283125 317.726383 
L 84.326761 325.768936 
L 90.414034 322.551915 
L 93.45767 327.377447 
L 96.501307 327.377447 
L 99.544943 330.594468 
L 105.632216 330.594468 
L 108.675852 332.202979 
L 111.719489 327.377447 
L 117.806761 330.594468 
L 120.850398 328.985957 
L 123.894034 330.594468 
L 126.93767 328.985957 
L 129.981307 324.160426 
L 133.024943 320.943404 
L 136.06858 327.377447 
L 139.112216 330.594468 
L 145.199489 333.811489 
L 148.243125 332.202979 
L 157.374034 332.202979 
L 160.41767 333.811489 
L 163.461307 333.811489 
L 166.504943 332.202979 
L 169.54858 333.811489 
L 172.592216 332.202979 
L 178.679489 332.202979 
L 181.723125 333.811489 
L 184.766761 332.202979 
L 187.810398 333.811489 
L 190.854034 332.202979 
L 196.941307 332.202979 
L 199.984943 328.985957 
L 206.072216 332.202979 
L 209.115852 330.594468 
L 212.159489 333.811489 
L 215.203125 332.202979 
L 218.246761 332.202979 
L 221.290398 330.594468 
L 224.334034 332.202979 
L 227.37767 330.594468 
L 230.421307 333.811489 
L 233.464943 332.202979 
L 242.595852 332.202979 
L 245.639489 330.594468 
L 248.683125 332.202979 
L 251.726761 330.594468 
L 257.814034 333.811489 
L 260.85767 332.202979 
L 263.901307 333.811489 
L 266.944943 333.811489 
L 269.98858 332.202979 
L 273.032216 333.811489 
L 276.075852 333.811489 
L 279.119489 332.202979 
L 282.163125 332.202979 
L 285.206761 333.811489 
L 288.250398 333.811489 
L 291.294034 332.202979 
L 294.33767 333.811489 
L 297.381307 332.202979 
L 300.424943 333.811489 
L 303.46858 332.202979 
L 306.512216 332.202979 
L 309.555852 333.811489 
L 312.599489 333.811489 
L 315.643125 332.202979 
L 318.686761 333.811489 
L 321.730398 333.811489 
L 324.774034 332.202979 
L 327.81767 333.811489 
L 330.861307 333.811489 
L 333.904943 332.202979 
L 336.94858 333.811489 
L 339.992216 332.202979 
L 343.035852 333.811489 
L 346.079489 332.202979 
L 349.123125 333.811489 
L 352.166761 332.202979 
L 355.210398 333.811489 
L 358.254034 332.202979 
L 361.29767 333.811489 
L 364.341307 333.811489 
L 367.384943 332.202979 
L 370.42858 332.202979 
L 373.472216 333.811489 
L 376.515852 332.202979 
L 379.559489 333.811489 
L 382.603125 332.202979 
L 385.646761 333.811489 
L 388.690398 333.811489 
L 391.734034 332.202979 
L 394.77767 333.811489 
L 397.821307 333.811489 
L 400.864943 332.202979 
L 403.90858 333.811489 
L 406.952216 332.202979 
L 409.995852 333.811489 
L 413.039489 332.202979 
L 416.083125 332.202979 
L 419.126761 330.594468 
L 422.170398 330.594468 
L 425.214034 332.202979 
L 428.25767 330.594468 
L 431.301307 332.202979 
L 434.344943 330.594468 
L 437.38858 332.202979 
L 440.432216 330.594468 
L 443.475852 332.202979 
L 446.519489 330.594468 
L 449.563125 332.202979 
L 452.606761 332.202979 
L 455.650398 333.811489 
L 458.694034 332.202979 
L 461.73767 332.202979 
L 464.781307 328.985957 
L 467.824943 330.594468 
L 476.955852 330.594468 
L 479.999489 320.943404 
L 483.043125 317.726383 
L 486.086761 317.726383 
L 489.130398 316.117872 
L 492.174034 320.943404 
L 495.21767 320.943404 
L 507.392216 314.509362 
L 510.435852 314.509362 
L 513.479489 319.334894 
L 516.523125 320.943404 
L 519.566761 320.943404 
L 531.741307 314.509362 
L 534.784943 314.509362 
L 537.82858 311.29234 
L 540.872216 319.334894 
L 543.915852 317.726383 
L 546.959489 317.726383 
L 556.090398 312.900851 
L 559.134034 309.68383 
L 562.17767 319.334894 
L 568.264943 325.768936 
L 571.30858 324.160426 
L 574.352216 320.943404 
L 577.395852 319.334894 
L 580.439489 320.943404 
L 583.483125 324.160426 
L 586.526761 328.985957 
L 589.570398 328.985957 
L 592.614034 330.594468 
L 604.78858 330.594468 
L 607.832216 332.202979 
L 610.875852 332.202979 
L 613.919489 330.594468 
L 616.963125 332.202979 
L 620.006761 332.202979 
L 623.050398 333.811489 
L 626.094034 332.202979 
L 629.13767 333.811489 
L 632.181307 332.202979 
L 635.224943 332.202979 
L 638.26858 333.811489 
L 641.312216 332.202979 
L 644.355852 333.811489 
L 647.399489 332.202979 
L 650.443125 332.202979 
L 653.486761 333.811489 
L 656.530398 330.594468 
L 659.574034 324.160426 
L 662.61767 312.900851 
L 665.661307 322.551915 
L 668.704943 320.943404 
L 671.74858 325.768936 
L 674.792216 327.377447 
L 677.835852 330.594468 
L 680.879489 328.985957 
L 683.923125 328.985957 
L 683.923125 328.985957 
" style="fill:none;stroke:#2ca02c;stroke-dasharray:1.5,1.5;stroke-dashoffset:0;stroke-width:1.5;"/>
   </g>
   <g id="line2d_34">
    <path clip-path="url(#pe0a355a3df)" d="M 81.283125 335.218936 
L 84.326761 309.281702 
L 87.370398 271.682766 
L 90.414034 191.458298 
L 93.45767 96.355106 
L 96.501307 252.179574 
L 99.544943 253.184894 
L 102.58858 253.184894 
L 105.632216 251.576383 
L 108.675852 252.179574 
L 111.719489 253.184894 
L 114.763125 253.184894 
L 117.806761 252.380638 
L 120.850398 253.184894 
L 123.894034 254.793404 
L 126.93767 254.994468 
L 129.981307 255.59766 
L 133.024943 254.793404 
L 136.06858 253.184894 
L 139.112216 255.59766 
L 142.155852 254.793404 
L 145.199489 252.98383 
L 148.243125 255.59766 
L 151.286761 253.184894 
L 154.330398 251.777447 
L 157.374034 249.766809 
L 160.41767 247.555106 
L 163.461307 251.576383 
L 166.504943 251.576383 
L 169.54858 250.168936 
L 172.592216 250.571064 
L 175.635852 250.168936 
L 178.679489 247.957234 
L 181.723125 246.750851 
L 184.766761 245.946596 
L 187.810398 249.967872 
L 190.854034 248.359362 
L 193.89767 248.359362 
L 196.941307 245.946596 
L 199.984943 246.549787 
L 203.02858 248.359362 
L 206.072216 248.158298 
L 209.115852 248.560426 
L 212.159489 247.555106 
L 215.203125 248.359362 
L 218.246761 246.750851 
L 221.290398 248.359362 
L 224.334034 245.745532 
L 227.37767 251.576383 
L 230.421307 246.750851 
L 233.464943 248.560426 
L 236.50858 250.973191 
L 239.552216 252.380638 
L 242.595852 251.576383 
L 245.639489 249.565745 
L 248.683125 250.772128 
L 251.726761 251.576383 
L 254.770398 253.184894 
L 257.814034 250.772128 
L 260.85767 253.385957 
L 263.901307 251.576383 
L 266.944943 252.179574 
L 269.98858 249.565745 
L 273.032216 251.375319 
L 276.075852 251.375319 
L 279.119489 249.967872 
L 282.163125 250.571064 
L 285.206761 251.576383 
L 288.250398 248.359362 
L 291.294034 248.962553 
L 294.33767 249.364681 
L 297.381307 246.750851 
L 300.424943 248.359362 
L 303.46858 246.750851 
L 306.512216 246.14766 
L 309.555852 248.359362 
L 312.599489 249.967872 
L 315.643125 248.359362 
L 318.686761 247.75617 
L 321.730398 249.163617 
L 324.774034 247.555106 
L 327.81767 248.560426 
L 330.861307 247.555106 
L 333.904943 249.163617 
L 336.94858 249.565745 
L 339.992216 256.804043 
L 343.035852 242.729574 
L 346.079489 250.168936 
L 349.123125 250.973191 
L 352.166761 249.163617 
L 355.210398 249.163617 
L 358.254034 250.168936 
L 361.29767 248.359362 
L 364.341307 248.761489 
L 367.384943 248.359362 
L 370.42858 247.555106 
L 373.472216 248.560426 
L 376.515852 248.761489 
L 379.559489 248.761489 
L 382.603125 248.359362 
L 385.646761 248.158298 
L 388.690398 248.359362 
L 391.734034 248.359362 
L 394.77767 247.152979 
L 397.821307 247.152979 
L 400.864943 248.359362 
L 403.90858 249.967872 
L 406.952216 248.962553 
L 409.995852 249.967872 
L 413.039489 249.766809 
L 416.083125 249.967872 
L 419.126761 249.163617 
L 422.170398 249.967872 
L 428.25767 249.967872 
L 431.301307 250.571064 
L 434.344943 251.777447 
L 437.38858 248.158298 
L 440.432216 249.967872 
L 443.475852 249.163617 
L 446.519489 249.967872 
L 449.563125 246.750851 
L 452.606761 243.734894 
L 455.650398 240.92 
L 458.694034 235.491277 
L 461.73767 241.724255 
L 464.781307 241.925319 
L 467.824943 241.925319 
L 470.86858 240.316809 
L 473.912216 237.904043 
L 476.955852 237.099787 
L 483.043125 237.099787 
L 486.086761 240.316809 
L 489.130398 237.099787 
L 492.174034 236.898723 
L 495.21767 236.295532 
L 498.261307 238.708298 
L 501.304943 237.099787 
L 504.34858 237.099787 
L 507.392216 240.517872 
L 510.435852 240.316809 
L 513.479489 238.708298 
L 516.523125 237.904043 
L 519.566761 238.708298 
L 522.610398 238.708298 
L 528.69767 241.925319 
L 531.741307 240.316809 
L 534.784943 241.121064 
L 537.82858 240.316809 
L 540.872216 240.316809 
L 543.915852 242.327447 
L 546.959489 243.53383 
L 550.003125 244.137021 
L 553.046761 245.14234 
L 556.090398 243.53383 
L 559.134034 243.53383 
L 562.17767 245.14234 
L 565.221307 242.729574 
L 568.264943 243.332766 
L 571.30858 241.925319 
L 574.352216 243.332766 
L 577.395852 245.14234 
L 580.439489 244.137021 
L 583.483125 245.14234 
L 586.526761 241.925319 
L 589.570398 241.724255 
L 595.65767 245.745532 
L 598.701307 240.316809 
L 604.78858 237.099787 
L 607.832216 232.274255 
L 610.875852 229.057234 
L 613.919489 229.057234 
L 616.963125 232.274255 
L 620.006761 232.274255 
L 623.050398 231.268936 
L 626.094034 232.274255 
L 629.13767 232.274255 
L 632.181307 235.491277 
L 635.224943 235.290213 
L 638.26858 235.491277 
L 641.312216 235.491277 
L 644.355852 240.316809 
L 647.399489 226.845532 
L 650.443125 235.69234 
L 653.486761 238.507234 
L 656.530398 238.708298 
L 659.574034 241.925319 
L 662.61767 243.53383 
L 665.661307 241.121064 
L 668.704943 240.316809 
L 671.74858 241.925319 
L 674.792216 240.316809 
L 680.879489 240.316809 
L 683.923125 242.528511 
L 683.923125 242.528511 
" style="fill:none;stroke:#d62728;stroke-dasharray:4.5,1.5,2.25,1.5;stroke-dashoffset:0;stroke-width:1.5;"/>
   </g>
   <g id="line2d_35"/>
   <g id="line2d_36"/>
   <g id="line2d_37"/>
   <g id="line2d_38"/>
   <g id="line2d_39"/>
   <g id="patch_3">
    <path d="M 47.803125 350.54 
L 47.803125 17.9 
" style="fill:none;stroke:#000000;stroke-linecap:square;stroke-linejoin:miter;stroke-width:0.8;"/>
   </g>
   <g id="patch_4">
    <path d="M 717.403125 350.54 
L 717.403125 17.9 
" style="fill:none;stroke:#000000;stroke-linecap:square;stroke-linejoin:miter;stroke-width:0.8;"/>
   </g>
   <g id="patch_5">
    <path d="M 47.803125 350.54 
L 717.403125 350.54 
" style="fill:none;stroke:#000000;stroke-linecap:square;stroke-linejoin:miter;stroke-width:0.8;"/>
   </g>
   <g id="patch_6">
    <path d="M 47.803125 17.9 
L 717.403125 17.9 
" style="fill:none;stroke:#000000;stroke-linecap:square;stroke-linejoin:miter;stroke-width:0.8;"/>
   </g>
   <g id="legend_1">
    <g id="patch_7">
     <path d="M 726.499125 221.2475 
L 804.416625 221.2475 
Q 806.816625 221.2475 806.816625 218.8475 
L 806.816625 149.5925 
Q 806.816625 147.1925 804.416625 147.1925 
L 726.499125 147.1925 
Q 724.099125 147.1925 724.099125 149.5925 
L 724.099125 218.8475 
Q 724.099125 221.2475 726.499125 221.2475 
z
" style="fill:#ffffff;opacity:0.8;stroke:#cccccc;stroke-linejoin:miter;"/>
    </g>
    <g id="line2d_40">
     <path d="M 728.899125 156.910625 
L 752.899125 156.910625 
" style="fill:none;stroke:#1f77b4;stroke-linecap:square;stroke-width:1.5;"/>
    </g>
    <g id="line2d_41"/>
    <g id="text_18">
     <!-- bbr -->
     <defs>
      <path d="M 41.109375 46.296875 
Q 39.59375 47.171875 37.8125 47.578125 
Q 36.03125 48 33.890625 48 
Q 26.265625 48 22.1875 43.046875 
Q 18.109375 38.09375 18.109375 28.8125 
L 18.109375 0 
L 9.078125 0 
L 9.078125 54.6875 
L 18.109375 54.6875 
L 18.109375 46.1875 
Q 20.953125 51.171875 25.484375 53.578125 
Q 30.03125 56 36.53125 56 
Q 37.453125 56 38.578125 55.875 
Q 39.703125 55.765625 41.0625 55.515625 
z
" id="DejaVuSans-72"/>
     </defs>
     <g transform="translate(762.499125 161.110625)scale(0.12 -0.12)">
      <use xlink:href="#DejaVuSans-62"/>
      <use x="63.476562" xlink:href="#DejaVuSans-62"/>
      <use x="126.953125" xlink:href="#DejaVuSans-72"/>
     </g>
    </g>
    <g id="line2d_42">
     <path d="M 728.899125 174.524375 
L 752.899125 174.524375 
" style="fill:none;stroke:#ff7f0e;stroke-dasharray:6,2.25;stroke-dashoffset:0;stroke-width:1.5;"/>
    </g>
    <g id="line2d_43"/>
    <g id="text_19">
     <!-- aurora -->
     <defs>
      <path d="M 8.5 21.578125 
L 8.5 54.6875 
L 17.484375 54.6875 
L 17.484375 21.921875 
Q 17.484375 14.15625 20.5 10.265625 
Q 23.53125 6.390625 29.59375 6.390625 
Q 36.859375 6.390625 41.078125 11.03125 
Q 45.3125 15.671875 45.3125 23.6875 
L 45.3125 54.6875 
L 54.296875 54.6875 
L 54.296875 0 
L 45.3125 0 
L 45.3125 8.40625 
Q 42.046875 3.421875 37.71875 1 
Q 33.40625 -1.421875 27.6875 -1.421875 
Q 18.265625 -1.421875 13.375 4.4375 
Q 8.5 10.296875 8.5 21.578125 
z
M 31.109375 56 
z
" id="DejaVuSans-75"/>
      <path d="M 30.609375 48.390625 
Q 23.390625 48.390625 19.1875 42.75 
Q 14.984375 37.109375 14.984375 27.296875 
Q 14.984375 17.484375 19.15625 11.84375 
Q 23.34375 6.203125 30.609375 6.203125 
Q 37.796875 6.203125 41.984375 11.859375 
Q 46.1875 17.53125 46.1875 27.296875 
Q 46.1875 37.015625 41.984375 42.703125 
Q 37.796875 48.390625 30.609375 48.390625 
z
M 30.609375 56 
Q 42.328125 56 49.015625 48.375 
Q 55.71875 40.765625 55.71875 27.296875 
Q 55.71875 13.875 49.015625 6.21875 
Q 42.328125 -1.421875 30.609375 -1.421875 
Q 18.84375 -1.421875 12.171875 6.21875 
Q 5.515625 13.875 5.515625 27.296875 
Q 5.515625 40.765625 12.171875 48.375 
Q 18.84375 56 30.609375 56 
z
" id="DejaVuSans-6f"/>
     </defs>
     <g transform="translate(762.499125 178.724375)scale(0.12 -0.12)">
      <use xlink:href="#DejaVuSans-61"/>
      <use x="61.279297" xlink:href="#DejaVuSans-75"/>
      <use x="124.658203" xlink:href="#DejaVuSans-72"/>
      <use x="165.740234" xlink:href="#DejaVuSans-6f"/>
      <use x="226.921875" xlink:href="#DejaVuSans-72"/>
      <use x="268.035156" xlink:href="#DejaVuSans-61"/>
     </g>
    </g>
    <g id="line2d_44">
     <path d="M 728.899125 192.138125 
L 752.899125 192.138125 
" style="fill:none;stroke:#2ca02c;stroke-dasharray:1.5,1.5;stroke-dashoffset:0;stroke-width:1.5;"/>
    </g>
    <g id="line2d_45"/>
    <g id="text_20">
     <!-- pareto -->
     <defs>
      <path d="M 18.109375 8.203125 
L 18.109375 -20.796875 
L 9.078125 -20.796875 
L 9.078125 54.6875 
L 18.109375 54.6875 
L 18.109375 46.390625 
Q 20.953125 51.265625 25.265625 53.625 
Q 29.59375 56 35.59375 56 
Q 45.5625 56 51.78125 48.09375 
Q 58.015625 40.1875 58.015625 27.296875 
Q 58.015625 14.40625 51.78125 6.484375 
Q 45.5625 -1.421875 35.59375 -1.421875 
Q 29.59375 -1.421875 25.265625 0.953125 
Q 20.953125 3.328125 18.109375 8.203125 
z
M 48.6875 27.296875 
Q 48.6875 37.203125 44.609375 42.84375 
Q 40.53125 48.484375 33.40625 48.484375 
Q 26.265625 48.484375 22.1875 42.84375 
Q 18.109375 37.203125 18.109375 27.296875 
Q 18.109375 17.390625 22.1875 11.75 
Q 26.265625 6.109375 33.40625 6.109375 
Q 40.53125 6.109375 44.609375 11.75 
Q 48.6875 17.390625 48.6875 27.296875 
z
" id="DejaVuSans-70"/>
     </defs>
     <g transform="translate(762.499125 196.338125)scale(0.12 -0.12)">
      <use xlink:href="#DejaVuSans-70"/>
      <use x="63.476562" xlink:href="#DejaVuSans-61"/>
      <use x="124.755859" xlink:href="#DejaVuSans-72"/>
      <use x="165.837891" xlink:href="#DejaVuSans-65"/>
      <use x="227.361328" xlink:href="#DejaVuSans-74"/>
      <use x="266.570312" xlink:href="#DejaVuSans-6f"/>
     </g>
    </g>
    <g id="line2d_46">
     <path d="M 728.899125 209.751875 
L 752.899125 209.751875 
" style="fill:none;stroke:#d62728;stroke-dasharray:4.5,1.5,2.25,1.5;stroke-dashoffset:0;stroke-width:1.5;"/>
    </g>
    <g id="line2d_47"/>
    <g id="text_21">
     <!-- pcc -->
     <defs>
      <path d="M 48.78125 52.59375 
L 48.78125 44.1875 
Q 44.96875 46.296875 41.140625 47.34375 
Q 37.3125 48.390625 33.40625 48.390625 
Q 24.65625 48.390625 19.8125 42.84375 
Q 14.984375 37.3125 14.984375 27.296875 
Q 14.984375 17.28125 19.8125 11.734375 
Q 24.65625 6.203125 33.40625 6.203125 
Q 37.3125 6.203125 41.140625 7.25 
Q 44.96875 8.296875 48.78125 10.40625 
L 48.78125 2.09375 
Q 45.015625 0.34375 40.984375 -0.53125 
Q 36.96875 -1.421875 32.421875 -1.421875 
Q 20.0625 -1.421875 12.78125 6.34375 
Q 5.515625 14.109375 5.515625 27.296875 
Q 5.515625 40.671875 12.859375 48.328125 
Q 20.21875 56 33.015625 56 
Q 37.15625 56 41.109375 55.140625 
Q 45.0625 54.296875 48.78125 52.59375 
z
" id="DejaVuSans-63"/>
     </defs>
     <g transform="translate(762.499125 213.951875)scale(0.12 -0.12)">
      <use xlink:href="#DejaVuSans-70"/>
      <use x="63.476562" xlink:href="#DejaVuSans-63"/>
      <use x="118.457031" xlink:href="#DejaVuSans-63"/>
     </g>
    </g>
   </g>
  </g>
 </g>
 <defs>
  <clipPath id="pe0a355a3df">
   <rect height="332.64" width="669.6" x="47.803125" y="17.9"/>
  </clipPath>
 </defs>
</svg>
