<?xml version="1.0" encoding="utf-8" standalone="no"?>
<!DOCTYPE svg PUBLIC "-//W3C//DTD SVG 1.1//EN"
  "http://www.w3.org/Graphics/SVG/1.1/DTD/svg11.dtd">
<!-- Created with matplotlib (http://matplotlib.org/) -->
<svg height="395.29625pt" version="1.1" viewBox="0 0 821.216625 395.29625" width="821.216625pt" xmlns="http://www.w3.org/2000/svg" xmlns:xlink="http://www.w3.org/1999/xlink">
 <defs>
  <style type="text/css">
*{stroke-linecap:butt;stroke-linejoin:round;}
  </style>
 </defs>
 <g id="figure_1">
  <g id="patch_1">
   <path d="M 0 395.29625 
L 821.216625 395.29625 
L 821.216625 0 
L 0 0 
z
" style="fill:#ffffff;"/>
  </g>
  <g id="axes_1">
   <g id="patch_2">
    <path d="M 47.803125 350.54 
L 717.403125 350.54 
L 717.403125 17.9 
L 47.803125 17.9 
z
" style="fill:#ffffff;"/>
   </g>
   <g id="PolyCollection_1">
    <path clip-path="url(#pccd7bc1ff3)" d="M 78.239489 259.024211 
L 78.239489 335.42 
L 81.283125 335.42 
L 84.326761 335.42 
L 87.370398 335.42 
L 90.414034 335.42 
L 93.45767 335.42 
L 96.501307 335.42 
L 99.544943 335.42 
L 102.58858 335.42 
L 105.632216 335.42 
L 108.675852 335.42 
L 111.719489 335.42 
L 114.763125 335.42 
L 117.806761 335.42 
L 120.850398 335.42 
L 123.894034 335.42 
L 126.93767 335.42 
L 129.981307 335.42 
L 133.024943 335.42 
L 136.06858 335.42 
L 139.112216 335.42 
L 142.155852 335.42 
L 145.199489 335.42 
L 148.243125 335.42 
L 151.286761 335.42 
L 154.330398 335.42 
L 157.374034 335.42 
L 160.41767 335.42 
L 163.461307 335.42 
L 166.504943 335.42 
L 169.54858 335.42 
L 172.592216 335.42 
L 175.635852 335.42 
L 178.679489 335.42 
L 181.723125 335.42 
L 184.766761 335.42 
L 187.810398 335.42 
L 190.854034 335.42 
L 193.89767 335.42 
L 196.941307 335.42 
L 199.984943 335.42 
L 203.02858 335.42 
L 206.072216 335.42 
L 209.115852 335.42 
L 212.159489 335.42 
L 215.203125 335.42 
L 218.246761 335.42 
L 221.290398 335.42 
L 224.334034 335.42 
L 227.37767 335.42 
L 230.421307 335.42 
L 233.464943 335.42 
L 236.50858 335.42 
L 239.552216 335.42 
L 242.595852 335.42 
L 245.639489 335.42 
L 248.683125 335.42 
L 251.726761 335.42 
L 254.770398 335.42 
L 257.814034 335.42 
L 260.85767 335.42 
L 263.901307 335.42 
L 266.944943 335.42 
L 269.98858 335.42 
L 273.032216 335.42 
L 276.075852 335.42 
L 279.119489 335.42 
L 282.163125 335.42 
L 285.206761 335.42 
L 288.250398 335.42 
L 291.294034 335.42 
L 294.33767 335.42 
L 297.381307 335.42 
L 300.424943 335.42 
L 303.46858 335.42 
L 306.512216 335.42 
L 309.555852 335.42 
L 312.599489 335.42 
L 315.643125 335.42 
L 318.686761 335.42 
L 321.730398 335.42 
L 324.774034 335.42 
L 327.81767 335.42 
L 330.861307 335.42 
L 333.904943 335.42 
L 336.94858 335.42 
L 339.992216 335.42 
L 343.035852 335.42 
L 346.079489 335.42 
L 349.123125 335.42 
L 352.166761 335.42 
L 355.210398 335.42 
L 358.254034 335.42 
L 361.29767 335.42 
L 364.341307 335.42 
L 367.384943 335.42 
L 370.42858 335.42 
L 373.472216 335.42 
L 376.515852 335.42 
L 379.559489 335.42 
L 382.603125 335.42 
L 385.646761 335.42 
L 388.690398 335.42 
L 391.734034 335.42 
L 394.77767 335.42 
L 397.821307 335.42 
L 400.864943 335.42 
L 403.90858 335.42 
L 406.952216 335.42 
L 409.995852 335.42 
L 413.039489 335.42 
L 416.083125 335.42 
L 419.126761 335.42 
L 422.170398 335.42 
L 425.214034 335.42 
L 428.25767 335.42 
L 431.301307 335.42 
L 434.344943 335.42 
L 437.38858 335.42 
L 440.432216 335.42 
L 443.475852 335.42 
L 446.519489 335.42 
L 449.563125 335.42 
L 452.606761 335.42 
L 455.650398 335.42 
L 458.694034 335.42 
L 461.73767 335.42 
L 464.781307 335.42 
L 467.824943 335.42 
L 470.86858 335.42 
L 473.912216 335.42 
L 476.955852 335.42 
L 479.999489 335.42 
L 483.043125 335.42 
L 486.086761 335.42 
L 489.130398 335.42 
L 492.174034 335.42 
L 495.21767 335.42 
L 498.261307 335.42 
L 501.304943 335.42 
L 504.34858 335.42 
L 507.392216 335.42 
L 510.435852 335.42 
L 513.479489 335.42 
L 516.523125 335.42 
L 519.566761 335.42 
L 522.610398 335.42 
L 525.654034 335.42 
L 528.69767 335.42 
L 531.741307 335.42 
L 534.784943 335.42 
L 537.82858 335.42 
L 540.872216 335.42 
L 543.915852 335.42 
L 546.959489 335.42 
L 550.003125 335.42 
L 553.046761 335.42 
L 556.090398 335.42 
L 559.134034 335.42 
L 562.17767 335.42 
L 565.221307 335.42 
L 568.264943 335.42 
L 571.30858 335.42 
L 574.352216 335.42 
L 577.395852 335.42 
L 580.439489 335.42 
L 583.483125 335.42 
L 586.526761 335.42 
L 589.570398 335.42 
L 592.614034 335.42 
L 595.65767 335.42 
L 598.701307 335.42 
L 601.744943 335.42 
L 604.78858 335.42 
L 607.832216 335.42 
L 610.875852 335.42 
L 613.919489 335.42 
L 616.963125 335.42 
L 620.006761 335.42 
L 623.050398 335.42 
L 626.094034 335.42 
L 629.13767 335.42 
L 632.181307 335.42 
L 635.224943 335.42 
L 638.26858 335.42 
L 641.312216 335.42 
L 644.355852 335.42 
L 647.399489 335.42 
L 650.443125 335.42 
L 653.486761 335.42 
L 656.530398 335.42 
L 659.574034 335.42 
L 662.61767 335.42 
L 665.661307 335.42 
L 668.704943 335.42 
L 671.74858 335.42 
L 674.792216 335.42 
L 677.835852 335.42 
L 680.879489 335.42 
L 683.923125 335.42 
L 686.966761 335.42 
L 686.966761 314.729474 
L 686.966761 314.729474 
L 683.923125 265.390526 
L 680.879489 260.615789 
L 677.835852 268.573684 
L 674.792216 239.925263 
L 671.74858 235.150526 
L 668.704943 220.826316 
L 665.661307 241.516842 
L 662.61767 203.318947 
L 659.574034 198.544211 
L 656.530398 228.784211 
L 653.486761 220.826316 
L 650.443125 241.516842 
L 647.399489 236.742105 
L 644.355852 201.727368 
L 641.312216 139.655789 
L 638.26858 88.725263 
L 635.224943 75.992632 
L 632.181307 104.641053 
L 629.13767 122.148421 
L 626.094034 139.655789 
L 623.050398 120.556842 
L 620.006761 150.796842 
L 616.963125 165.121053 
L 613.919489 171.487368 
L 610.875852 161.937895 
L 607.832216 153.98 
L 604.78858 139.655789 
L 601.744943 149.205263 
L 598.701307 120.556842 
L 595.65767 150.796842 
L 592.614034 126.923158 
L 589.570398 158.754737 
L 586.526761 130.106316 
L 583.483125 160.346316 
L 580.439489 160.346316 
L 577.395852 91.908421 
L 574.352216 144.430526 
L 571.30858 187.403158 
L 568.264943 157.163158 
L 565.221307 184.22 
L 562.17767 155.571579 
L 559.134034 179.445263 
L 556.090398 222.417895 
L 553.046761 181.036842 
L 550.003125 152.388421 
L 546.959489 184.22 
L 543.915852 214.46 
L 540.872216 185.811579 
L 537.82858 173.078947 
L 534.784943 184.22 
L 531.741307 130.106316 
L 528.69767 158.754737 
L 525.654034 146.022105 
L 522.610398 150.796842 
L 519.566761 157.163158 
L 516.523125 166.712632 
L 513.479489 139.655789 
L 510.435852 117.373684 
L 507.392216 133.289474 
L 504.34858 168.304211 
L 501.304943 136.472632 
L 498.261307 163.529474 
L 495.21767 168.304211 
L 492.174034 123.74 
L 489.130398 130.106316 
L 486.086761 87.133684 
L 483.043125 103.049474 
L 479.999489 109.415789 
L 476.955852 83.950526 
L 473.912216 153.98 
L 470.86858 98.274737 
L 467.824943 114.190526 
L 464.781307 134.881053 
L 461.73767 87.133684 
L 458.694034 63.26 
L 455.650398 37.794737 
L 452.606761 71.217895 
L 449.563125 90.316842 
L 446.519489 68.034737 
L 443.475852 103.049474 
L 440.432216 83.950526 
L 437.38858 101.457895 
L 434.344943 101.457895 
L 431.301307 120.556842 
L 428.25767 150.796842 
L 425.214034 147.613684 
L 422.170398 146.022105 
L 419.126761 93.5 
L 416.083125 125.331579 
L 413.039489 96.683158 
L 409.995852 109.415789 
L 406.952216 85.542105 
L 403.90858 53.710526 
L 400.864943 72.809474 
L 397.821307 222.417895 
L 394.77767 36.203158 
L 391.734034 61.668421 
L 388.690398 112.598947 
L 385.646761 139.655789 
L 382.603125 289.264211 
L 379.559489 321.095789 
L 376.515852 309.954737 
L 373.472216 321.095789 
L 370.42858 292.447368 
L 367.384943 279.714737 
L 364.341307 294.038947 
L 361.29767 284.489474 
L 358.254034 298.813684 
L 355.210398 308.363158 
L 352.166761 295.630526 
L 349.123125 292.447368 
L 346.079489 284.489474 
L 343.035852 266.982105 
L 339.992216 279.714737 
L 336.94858 271.756842 
L 333.904943 297.222105 
L 330.861307 273.348421 
L 327.81767 262.207368 
L 324.774034 265.390526 
L 321.730398 263.798947 
L 318.686761 292.447368 
L 315.643125 278.123158 
L 312.599489 278.123158 
L 309.555852 276.531579 
L 306.512216 268.573684 
L 303.46858 281.306316 
L 300.424943 279.714737 
L 297.381307 270.165263 
L 294.33767 282.897895 
L 291.294034 325.870526 
L 288.250398 93.5 
L 285.206761 126.923158 
L 282.163125 182.628421 
L 279.119489 169.895789 
L 276.075852 174.670526 
L 273.032216 220.826316 
L 269.98858 297.222105 
L 266.944943 319.504211 
L 263.901307 227.192632 
L 260.85767 252.657895 
L 257.814034 243.108421 
L 254.770398 216.051579 
L 251.726761 214.46 
L 248.683125 236.742105 
L 245.639489 271.756842 
L 242.595852 260.615789 
L 239.552216 289.264211 
L 236.50858 290.855789 
L 233.464943 233.558947 
L 230.421307 243.108421 
L 227.37767 249.474737 
L 224.334034 179.445263 
L 221.290398 200.135789 
L 218.246761 209.685263 
L 215.203125 255.841053 
L 212.159489 249.474737 
L 209.115852 185.811579 
L 206.072216 196.952632 
L 203.02858 227.192632 
L 199.984943 198.544211 
L 196.941307 187.403158 
L 193.89767 201.727368 
L 190.854034 190.586316 
L 187.810398 188.994737 
L 184.766761 216.051579 
L 181.723125 201.727368 
L 178.679489 193.769474 
L 175.635852 146.022105 
L 172.592216 176.262105 
L 169.54858 147.613684 
L 166.504943 158.754737 
L 163.461307 160.346316 
L 160.41767 160.346316 
L 157.374034 157.163158 
L 154.330398 173.078947 
L 151.286761 187.403158 
L 148.243125 142.838947 
L 145.199489 160.346316 
L 142.155852 160.346316 
L 139.112216 193.769474 
L 136.06858 198.544211 
L 133.024943 158.754737 
L 129.981307 203.318947 
L 126.93767 146.022105 
L 123.894034 158.754737 
L 120.850398 228.784211 
L 117.806761 153.98 
L 114.763125 115.782105 
L 111.719489 179.445263 
L 108.675852 220.826316 
L 105.632216 192.177895 
L 102.58858 158.754737 
L 99.544943 182.628421 
L 96.501307 146.022105 
L 93.45767 182.628421 
L 90.414034 214.46 
L 87.370398 209.685263 
L 84.326761 254.249474 
L 81.283125 247.883158 
L 78.239489 259.024211 
z
" style="fill:#faf0e6;"/>
   </g>
   <g id="matplotlib.axis_1">
    <g id="xtick_1">
     <g id="line2d_1">
      <path clip-path="url(#pccd7bc1ff3)" d="M 78.239489 350.54 
L 78.239489 17.9 
" style="fill:none;stroke:#b0b0b0;stroke-linecap:square;stroke-width:0.8;"/>
     </g>
     <g id="line2d_2">
      <defs>
       <path d="M 0 0 
L 0 3.5 
" id="m5a2051440b" style="stroke:#000000;stroke-width:0.8;"/>
      </defs>
      <g>
       <use style="stroke:#000000;stroke-width:0.8;" x="78.239489" xlink:href="#m5a2051440b" y="350.54"/>
      </g>
     </g>
     <g id="text_1">
      <!-- 0 -->
      <defs>
       <path d="M 31.78125 66.40625 
Q 24.171875 66.40625 20.328125 58.90625 
Q 16.5 51.421875 16.5 36.375 
Q 16.5 21.390625 20.328125 13.890625 
Q 24.171875 6.390625 31.78125 6.390625 
Q 39.453125 6.390625 43.28125 13.890625 
Q 47.125 21.390625 47.125 36.375 
Q 47.125 51.421875 43.28125 58.90625 
Q 39.453125 66.40625 31.78125 66.40625 
z
M 31.78125 74.21875 
Q 44.046875 74.21875 50.515625 64.515625 
Q 56.984375 54.828125 56.984375 36.375 
Q 56.984375 17.96875 50.515625 8.265625 
Q 44.046875 -1.421875 31.78125 -1.421875 
Q 19.53125 -1.421875 13.0625 8.265625 
Q 6.59375 17.96875 6.59375 36.375 
Q 6.59375 54.828125 13.0625 64.515625 
Q 19.53125 74.21875 31.78125 74.21875 
z
" id="DejaVuSans-30"/>
      </defs>
      <g transform="translate(75.058239 365.138438)scale(0.1 -0.1)">
       <use xlink:href="#DejaVuSans-30"/>
      </g>
     </g>
    </g>
    <g id="xtick_2">
     <g id="line2d_3">
      <path clip-path="url(#pccd7bc1ff3)" d="M 179.694034 350.54 
L 179.694034 17.9 
" style="fill:none;stroke:#b0b0b0;stroke-linecap:square;stroke-width:0.8;"/>
     </g>
     <g id="line2d_4">
      <g>
       <use style="stroke:#000000;stroke-width:0.8;" x="179.694034" xlink:href="#m5a2051440b" y="350.54"/>
      </g>
     </g>
     <g id="text_2">
      <!-- 5 -->
      <defs>
       <path d="M 10.796875 72.90625 
L 49.515625 72.90625 
L 49.515625 64.59375 
L 19.828125 64.59375 
L 19.828125 46.734375 
Q 21.96875 47.46875 24.109375 47.828125 
Q 26.265625 48.1875 28.421875 48.1875 
Q 40.625 48.1875 47.75 41.5 
Q 54.890625 34.8125 54.890625 23.390625 
Q 54.890625 11.625 47.5625 5.09375 
Q 40.234375 -1.421875 26.90625 -1.421875 
Q 22.3125 -1.421875 17.546875 -0.640625 
Q 12.796875 0.140625 7.71875 1.703125 
L 7.71875 11.625 
Q 12.109375 9.234375 16.796875 8.0625 
Q 21.484375 6.890625 26.703125 6.890625 
Q 35.15625 6.890625 40.078125 11.328125 
Q 45.015625 15.765625 45.015625 23.390625 
Q 45.015625 31 40.078125 35.4375 
Q 35.15625 39.890625 26.703125 39.890625 
Q 22.75 39.890625 18.8125 39.015625 
Q 14.890625 38.140625 10.796875 36.28125 
z
" id="DejaVuSans-35"/>
      </defs>
      <g transform="translate(176.512784 365.138438)scale(0.1 -0.1)">
       <use xlink:href="#DejaVuSans-35"/>
      </g>
     </g>
    </g>
    <g id="xtick_3">
     <g id="line2d_5">
      <path clip-path="url(#pccd7bc1ff3)" d="M 281.14858 350.54 
L 281.14858 17.9 
" style="fill:none;stroke:#b0b0b0;stroke-linecap:square;stroke-width:0.8;"/>
     </g>
     <g id="line2d_6">
      <g>
       <use style="stroke:#000000;stroke-width:0.8;" x="281.14858" xlink:href="#m5a2051440b" y="350.54"/>
      </g>
     </g>
     <g id="text_3">
      <!-- 10 -->
      <defs>
       <path d="M 12.40625 8.296875 
L 28.515625 8.296875 
L 28.515625 63.921875 
L 10.984375 60.40625 
L 10.984375 69.390625 
L 28.421875 72.90625 
L 38.28125 72.90625 
L 38.28125 8.296875 
L 54.390625 8.296875 
L 54.390625 0 
L 12.40625 0 
z
" id="DejaVuSans-31"/>
      </defs>
      <g transform="translate(274.78608 365.138438)scale(0.1 -0.1)">
       <use xlink:href="#DejaVuSans-31"/>
       <use x="63.623047" xlink:href="#DejaVuSans-30"/>
      </g>
     </g>
    </g>
    <g id="xtick_4">
     <g id="line2d_7">
      <path clip-path="url(#pccd7bc1ff3)" d="M 382.603125 350.54 
L 382.603125 17.9 
" style="fill:none;stroke:#b0b0b0;stroke-linecap:square;stroke-width:0.8;"/>
     </g>
     <g id="line2d_8">
      <g>
       <use style="stroke:#000000;stroke-width:0.8;" x="382.603125" xlink:href="#m5a2051440b" y="350.54"/>
      </g>
     </g>
     <g id="text_4">
      <!-- 15 -->
      <g transform="translate(376.240625 365.138438)scale(0.1 -0.1)">
       <use xlink:href="#DejaVuSans-31"/>
       <use x="63.623047" xlink:href="#DejaVuSans-35"/>
      </g>
     </g>
    </g>
    <g id="xtick_5">
     <g id="line2d_9">
      <path clip-path="url(#pccd7bc1ff3)" d="M 484.05767 350.54 
L 484.05767 17.9 
" style="fill:none;stroke:#b0b0b0;stroke-linecap:square;stroke-width:0.8;"/>
     </g>
     <g id="line2d_10">
      <g>
       <use style="stroke:#000000;stroke-width:0.8;" x="484.05767" xlink:href="#m5a2051440b" y="350.54"/>
      </g>
     </g>
     <g id="text_5">
      <!-- 20 -->
      <defs>
       <path d="M 19.1875 8.296875 
L 53.609375 8.296875 
L 53.609375 0 
L 7.328125 0 
L 7.328125 8.296875 
Q 12.9375 14.109375 22.625 23.890625 
Q 32.328125 33.6875 34.8125 36.53125 
Q 39.546875 41.84375 41.421875 45.53125 
Q 43.3125 49.21875 43.3125 52.78125 
Q 43.3125 58.59375 39.234375 62.25 
Q 35.15625 65.921875 28.609375 65.921875 
Q 23.96875 65.921875 18.8125 64.3125 
Q 13.671875 62.703125 7.8125 59.421875 
L 7.8125 69.390625 
Q 13.765625 71.78125 18.9375 73 
Q 24.125 74.21875 28.421875 74.21875 
Q 39.75 74.21875 46.484375 68.546875 
Q 53.21875 62.890625 53.21875 53.421875 
Q 53.21875 48.921875 51.53125 44.890625 
Q 49.859375 40.875 45.40625 35.40625 
Q 44.1875 33.984375 37.640625 27.21875 
Q 31.109375 20.453125 19.1875 8.296875 
z
" id="DejaVuSans-32"/>
      </defs>
      <g transform="translate(477.69517 365.138438)scale(0.1 -0.1)">
       <use xlink:href="#DejaVuSans-32"/>
       <use x="63.623047" xlink:href="#DejaVuSans-30"/>
      </g>
     </g>
    </g>
    <g id="xtick_6">
     <g id="line2d_11">
      <path clip-path="url(#pccd7bc1ff3)" d="M 585.512216 350.54 
L 585.512216 17.9 
" style="fill:none;stroke:#b0b0b0;stroke-linecap:square;stroke-width:0.8;"/>
     </g>
     <g id="line2d_12">
      <g>
       <use style="stroke:#000000;stroke-width:0.8;" x="585.512216" xlink:href="#m5a2051440b" y="350.54"/>
      </g>
     </g>
     <g id="text_6">
      <!-- 25 -->
      <g transform="translate(579.149716 365.138438)scale(0.1 -0.1)">
       <use xlink:href="#DejaVuSans-32"/>
       <use x="63.623047" xlink:href="#DejaVuSans-35"/>
      </g>
     </g>
    </g>
    <g id="xtick_7">
     <g id="line2d_13">
      <path clip-path="url(#pccd7bc1ff3)" d="M 686.966761 350.54 
L 686.966761 17.9 
" style="fill:none;stroke:#b0b0b0;stroke-linecap:square;stroke-width:0.8;"/>
     </g>
     <g id="line2d_14">
      <g>
       <use style="stroke:#000000;stroke-width:0.8;" x="686.966761" xlink:href="#m5a2051440b" y="350.54"/>
      </g>
     </g>
     <g id="text_7">
      <!-- 30 -->
      <defs>
       <path d="M 40.578125 39.3125 
Q 47.65625 37.796875 51.625 33 
Q 55.609375 28.21875 55.609375 21.1875 
Q 55.609375 10.40625 48.1875 4.484375 
Q 40.765625 -1.421875 27.09375 -1.421875 
Q 22.515625 -1.421875 17.65625 -0.515625 
Q 12.796875 0.390625 7.625 2.203125 
L 7.625 11.71875 
Q 11.71875 9.328125 16.59375 8.109375 
Q 21.484375 6.890625 26.8125 6.890625 
Q 36.078125 6.890625 40.9375 10.546875 
Q 45.796875 14.203125 45.796875 21.1875 
Q 45.796875 27.640625 41.28125 31.265625 
Q 36.765625 34.90625 28.71875 34.90625 
L 20.21875 34.90625 
L 20.21875 43.015625 
L 29.109375 43.015625 
Q 36.375 43.015625 40.234375 45.921875 
Q 44.09375 48.828125 44.09375 54.296875 
Q 44.09375 59.90625 40.109375 62.90625 
Q 36.140625 65.921875 28.71875 65.921875 
Q 24.65625 65.921875 20.015625 65.03125 
Q 15.375 64.15625 9.8125 62.3125 
L 9.8125 71.09375 
Q 15.4375 72.65625 20.34375 73.4375 
Q 25.25 74.21875 29.59375 74.21875 
Q 40.828125 74.21875 47.359375 69.109375 
Q 53.90625 64.015625 53.90625 55.328125 
Q 53.90625 49.265625 50.4375 45.09375 
Q 46.96875 40.921875 40.578125 39.3125 
z
" id="DejaVuSans-33"/>
      </defs>
      <g transform="translate(680.604261 365.138438)scale(0.1 -0.1)">
       <use xlink:href="#DejaVuSans-33"/>
       <use x="63.623047" xlink:href="#DejaVuSans-30"/>
      </g>
     </g>
    </g>
    <g id="text_8">
     <!-- Time (s) -->
     <defs>
      <path d="M -0.296875 72.90625 
L 61.375 72.90625 
L 61.375 64.59375 
L 35.5 64.59375 
L 35.5 0 
L 25.59375 0 
L 25.59375 64.59375 
L -0.296875 64.59375 
z
" id="DejaVuSans-54"/>
      <path d="M 9.421875 54.6875 
L 18.40625 54.6875 
L 18.40625 0 
L 9.421875 0 
z
M 9.421875 75.984375 
L 18.40625 75.984375 
L 18.40625 64.59375 
L 9.421875 64.59375 
z
" id="DejaVuSans-69"/>
      <path d="M 52 44.1875 
Q 55.375 50.25 60.0625 53.125 
Q 64.75 56 71.09375 56 
Q 79.640625 56 84.28125 50.015625 
Q 88.921875 44.046875 88.921875 33.015625 
L 88.921875 0 
L 79.890625 0 
L 79.890625 32.71875 
Q 79.890625 40.578125 77.09375 44.375 
Q 74.3125 48.1875 68.609375 48.1875 
Q 61.625 48.1875 57.5625 43.546875 
Q 53.515625 38.921875 53.515625 30.90625 
L 53.515625 0 
L 44.484375 0 
L 44.484375 32.71875 
Q 44.484375 40.625 41.703125 44.40625 
Q 38.921875 48.1875 33.109375 48.1875 
Q 26.21875 48.1875 22.15625 43.53125 
Q 18.109375 38.875 18.109375 30.90625 
L 18.109375 0 
L 9.078125 0 
L 9.078125 54.6875 
L 18.109375 54.6875 
L 18.109375 46.1875 
Q 21.1875 51.21875 25.484375 53.609375 
Q 29.78125 56 35.6875 56 
Q 41.65625 56 45.828125 52.96875 
Q 50 49.953125 52 44.1875 
z
" id="DejaVuSans-6d"/>
      <path d="M 56.203125 29.59375 
L 56.203125 25.203125 
L 14.890625 25.203125 
Q 15.484375 15.921875 20.484375 11.0625 
Q 25.484375 6.203125 34.421875 6.203125 
Q 39.59375 6.203125 44.453125 7.46875 
Q 49.3125 8.734375 54.109375 11.28125 
L 54.109375 2.78125 
Q 49.265625 0.734375 44.1875 -0.34375 
Q 39.109375 -1.421875 33.890625 -1.421875 
Q 20.796875 -1.421875 13.15625 6.1875 
Q 5.515625 13.8125 5.515625 26.8125 
Q 5.515625 40.234375 12.765625 48.109375 
Q 20.015625 56 32.328125 56 
Q 43.359375 56 49.78125 48.890625 
Q 56.203125 41.796875 56.203125 29.59375 
z
M 47.21875 32.234375 
Q 47.125 39.59375 43.09375 43.984375 
Q 39.0625 48.390625 32.421875 48.390625 
Q 24.90625 48.390625 20.390625 44.140625 
Q 15.875 39.890625 15.1875 32.171875 
z
" id="DejaVuSans-65"/>
      <path id="DejaVuSans-20"/>
      <path d="M 31 75.875 
Q 24.46875 64.65625 21.28125 53.65625 
Q 18.109375 42.671875 18.109375 31.390625 
Q 18.109375 20.125 21.3125 9.0625 
Q 24.515625 -2 31 -13.1875 
L 23.1875 -13.1875 
Q 15.875 -1.703125 12.234375 9.375 
Q 8.59375 20.453125 8.59375 31.390625 
Q 8.59375 42.28125 12.203125 53.3125 
Q 15.828125 64.359375 23.1875 75.875 
z
" id="DejaVuSans-28"/>
      <path d="M 44.28125 53.078125 
L 44.28125 44.578125 
Q 40.484375 46.53125 36.375 47.5 
Q 32.28125 48.484375 27.875 48.484375 
Q 21.1875 48.484375 17.84375 46.4375 
Q 14.5 44.390625 14.5 40.28125 
Q 14.5 37.15625 16.890625 35.375 
Q 19.28125 33.59375 26.515625 31.984375 
L 29.59375 31.296875 
Q 39.15625 29.25 43.1875 25.515625 
Q 47.21875 21.78125 47.21875 15.09375 
Q 47.21875 7.46875 41.1875 3.015625 
Q 35.15625 -1.421875 24.609375 -1.421875 
Q 20.21875 -1.421875 15.453125 -0.5625 
Q 10.6875 0.296875 5.421875 2 
L 5.421875 11.28125 
Q 10.40625 8.6875 15.234375 7.390625 
Q 20.0625 6.109375 24.8125 6.109375 
Q 31.15625 6.109375 34.5625 8.28125 
Q 37.984375 10.453125 37.984375 14.40625 
Q 37.984375 18.0625 35.515625 20.015625 
Q 33.0625 21.96875 24.703125 23.78125 
L 21.578125 24.515625 
Q 13.234375 26.265625 9.515625 29.90625 
Q 5.8125 33.546875 5.8125 39.890625 
Q 5.8125 47.609375 11.28125 51.796875 
Q 16.75 56 26.8125 56 
Q 31.78125 56 36.171875 55.265625 
Q 40.578125 54.546875 44.28125 53.078125 
z
" id="DejaVuSans-73"/>
      <path d="M 8.015625 75.875 
L 15.828125 75.875 
Q 23.140625 64.359375 26.78125 53.3125 
Q 30.421875 42.28125 30.421875 31.390625 
Q 30.421875 20.453125 26.78125 9.375 
Q 23.140625 -1.703125 15.828125 -13.1875 
L 8.015625 -13.1875 
Q 14.5 -2 17.703125 9.0625 
Q 20.90625 20.125 20.90625 31.390625 
Q 20.90625 42.671875 17.703125 53.65625 
Q 14.5 64.65625 8.015625 75.875 
z
" id="DejaVuSans-29"/>
     </defs>
     <g transform="translate(362.120313 378.816563)scale(0.1 -0.1)">
      <use xlink:href="#DejaVuSans-54"/>
      <use x="61.037109" xlink:href="#DejaVuSans-69"/>
      <use x="88.820312" xlink:href="#DejaVuSans-6d"/>
      <use x="186.232422" xlink:href="#DejaVuSans-65"/>
      <use x="247.755859" xlink:href="#DejaVuSans-20"/>
      <use x="279.542969" xlink:href="#DejaVuSans-28"/>
      <use x="318.556641" xlink:href="#DejaVuSans-73"/>
      <use x="370.65625" xlink:href="#DejaVuSans-29"/>
     </g>
    </g>
   </g>
   <g id="matplotlib.axis_2">
    <g id="ytick_1">
     <g id="line2d_15">
      <path clip-path="url(#pccd7bc1ff3)" d="M 47.803125 335.42 
L 717.403125 335.42 
" style="fill:none;stroke:#b0b0b0;stroke-linecap:square;stroke-width:0.8;"/>
     </g>
     <g id="line2d_16">
      <defs>
       <path d="M 0 0 
L -3.5 0 
" id="m63697631a4" style="stroke:#000000;stroke-width:0.8;"/>
      </defs>
      <g>
       <use style="stroke:#000000;stroke-width:0.8;" x="47.803125" xlink:href="#m63697631a4" y="335.42"/>
      </g>
     </g>
     <g id="text_9">
      <!-- 0 -->
      <g transform="translate(34.440625 339.219219)scale(0.1 -0.1)">
       <use xlink:href="#DejaVuSans-30"/>
      </g>
     </g>
    </g>
    <g id="ytick_2">
     <g id="line2d_17">
      <path clip-path="url(#pccd7bc1ff3)" d="M 47.803125 295.630526 
L 717.403125 295.630526 
" style="fill:none;stroke:#b0b0b0;stroke-linecap:square;stroke-width:0.8;"/>
     </g>
     <g id="line2d_18">
      <g>
       <use style="stroke:#000000;stroke-width:0.8;" x="47.803125" xlink:href="#m63697631a4" y="295.630526"/>
      </g>
     </g>
     <g id="text_10">
      <!-- 2 -->
      <g transform="translate(34.440625 299.429745)scale(0.1 -0.1)">
       <use xlink:href="#DejaVuSans-32"/>
      </g>
     </g>
    </g>
    <g id="ytick_3">
     <g id="line2d_19">
      <path clip-path="url(#pccd7bc1ff3)" d="M 47.803125 255.841053 
L 717.403125 255.841053 
" style="fill:none;stroke:#b0b0b0;stroke-linecap:square;stroke-width:0.8;"/>
     </g>
     <g id="line2d_20">
      <g>
       <use style="stroke:#000000;stroke-width:0.8;" x="47.803125" xlink:href="#m63697631a4" y="255.841053"/>
      </g>
     </g>
     <g id="text_11">
      <!-- 4 -->
      <defs>
       <path d="M 37.796875 64.3125 
L 12.890625 25.390625 
L 37.796875 25.390625 
z
M 35.203125 72.90625 
L 47.609375 72.90625 
L 47.609375 25.390625 
L 58.015625 25.390625 
L 58.015625 17.1875 
L 47.609375 17.1875 
L 47.609375 0 
L 37.796875 0 
L 37.796875 17.1875 
L 4.890625 17.1875 
L 4.890625 26.703125 
z
" id="DejaVuSans-34"/>
      </defs>
      <g transform="translate(34.440625 259.640271)scale(0.1 -0.1)">
       <use xlink:href="#DejaVuSans-34"/>
      </g>
     </g>
    </g>
    <g id="ytick_4">
     <g id="line2d_21">
      <path clip-path="url(#pccd7bc1ff3)" d="M 47.803125 216.051579 
L 717.403125 216.051579 
" style="fill:none;stroke:#b0b0b0;stroke-linecap:square;stroke-width:0.8;"/>
     </g>
     <g id="line2d_22">
      <g>
       <use style="stroke:#000000;stroke-width:0.8;" x="47.803125" xlink:href="#m63697631a4" y="216.051579"/>
      </g>
     </g>
     <g id="text_12">
      <!-- 6 -->
      <defs>
       <path d="M 33.015625 40.375 
Q 26.375 40.375 22.484375 35.828125 
Q 18.609375 31.296875 18.609375 23.390625 
Q 18.609375 15.53125 22.484375 10.953125 
Q 26.375 6.390625 33.015625 6.390625 
Q 39.65625 6.390625 43.53125 10.953125 
Q 47.40625 15.53125 47.40625 23.390625 
Q 47.40625 31.296875 43.53125 35.828125 
Q 39.65625 40.375 33.015625 40.375 
z
M 52.59375 71.296875 
L 52.59375 62.3125 
Q 48.875 64.0625 45.09375 64.984375 
Q 41.3125 65.921875 37.59375 65.921875 
Q 27.828125 65.921875 22.671875 59.328125 
Q 17.53125 52.734375 16.796875 39.40625 
Q 19.671875 43.65625 24.015625 45.921875 
Q 28.375 48.1875 33.59375 48.1875 
Q 44.578125 48.1875 50.953125 41.515625 
Q 57.328125 34.859375 57.328125 23.390625 
Q 57.328125 12.15625 50.6875 5.359375 
Q 44.046875 -1.421875 33.015625 -1.421875 
Q 20.359375 -1.421875 13.671875 8.265625 
Q 6.984375 17.96875 6.984375 36.375 
Q 6.984375 53.65625 15.1875 63.9375 
Q 23.390625 74.21875 37.203125 74.21875 
Q 40.921875 74.21875 44.703125 73.484375 
Q 48.484375 72.75 52.59375 71.296875 
z
" id="DejaVuSans-36"/>
      </defs>
      <g transform="translate(34.440625 219.850798)scale(0.1 -0.1)">
       <use xlink:href="#DejaVuSans-36"/>
      </g>
     </g>
    </g>
    <g id="ytick_5">
     <g id="line2d_23">
      <path clip-path="url(#pccd7bc1ff3)" d="M 47.803125 176.262105 
L 717.403125 176.262105 
" style="fill:none;stroke:#b0b0b0;stroke-linecap:square;stroke-width:0.8;"/>
     </g>
     <g id="line2d_24">
      <g>
       <use style="stroke:#000000;stroke-width:0.8;" x="47.803125" xlink:href="#m63697631a4" y="176.262105"/>
      </g>
     </g>
     <g id="text_13">
      <!-- 8 -->
      <defs>
       <path d="M 31.78125 34.625 
Q 24.75 34.625 20.71875 30.859375 
Q 16.703125 27.09375 16.703125 20.515625 
Q 16.703125 13.921875 20.71875 10.15625 
Q 24.75 6.390625 31.78125 6.390625 
Q 38.8125 6.390625 42.859375 10.171875 
Q 46.921875 13.96875 46.921875 20.515625 
Q 46.921875 27.09375 42.890625 30.859375 
Q 38.875 34.625 31.78125 34.625 
z
M 21.921875 38.8125 
Q 15.578125 40.375 12.03125 44.71875 
Q 8.5 49.078125 8.5 55.328125 
Q 8.5 64.0625 14.71875 69.140625 
Q 20.953125 74.21875 31.78125 74.21875 
Q 42.671875 74.21875 48.875 69.140625 
Q 55.078125 64.0625 55.078125 55.328125 
Q 55.078125 49.078125 51.53125 44.71875 
Q 48 40.375 41.703125 38.8125 
Q 48.828125 37.15625 52.796875 32.3125 
Q 56.78125 27.484375 56.78125 20.515625 
Q 56.78125 9.90625 50.3125 4.234375 
Q 43.84375 -1.421875 31.78125 -1.421875 
Q 19.734375 -1.421875 13.25 4.234375 
Q 6.78125 9.90625 6.78125 20.515625 
Q 6.78125 27.484375 10.78125 32.3125 
Q 14.796875 37.15625 21.921875 38.8125 
z
M 18.3125 54.390625 
Q 18.3125 48.734375 21.84375 45.5625 
Q 25.390625 42.390625 31.78125 42.390625 
Q 38.140625 42.390625 41.71875 45.5625 
Q 45.3125 48.734375 45.3125 54.390625 
Q 45.3125 60.0625 41.71875 63.234375 
Q 38.140625 66.40625 31.78125 66.40625 
Q 25.390625 66.40625 21.84375 63.234375 
Q 18.3125 60.0625 18.3125 54.390625 
z
" id="DejaVuSans-38"/>
      </defs>
      <g transform="translate(34.440625 180.061324)scale(0.1 -0.1)">
       <use xlink:href="#DejaVuSans-38"/>
      </g>
     </g>
    </g>
    <g id="ytick_6">
     <g id="line2d_25">
      <path clip-path="url(#pccd7bc1ff3)" d="M 47.803125 136.472632 
L 717.403125 136.472632 
" style="fill:none;stroke:#b0b0b0;stroke-linecap:square;stroke-width:0.8;"/>
     </g>
     <g id="line2d_26">
      <g>
       <use style="stroke:#000000;stroke-width:0.8;" x="47.803125" xlink:href="#m63697631a4" y="136.472632"/>
      </g>
     </g>
     <g id="text_14">
      <!-- 10 -->
      <g transform="translate(28.078125 140.27185)scale(0.1 -0.1)">
       <use xlink:href="#DejaVuSans-31"/>
       <use x="63.623047" xlink:href="#DejaVuSans-30"/>
      </g>
     </g>
    </g>
    <g id="ytick_7">
     <g id="line2d_27">
      <path clip-path="url(#pccd7bc1ff3)" d="M 47.803125 96.683158 
L 717.403125 96.683158 
" style="fill:none;stroke:#b0b0b0;stroke-linecap:square;stroke-width:0.8;"/>
     </g>
     <g id="line2d_28">
      <g>
       <use style="stroke:#000000;stroke-width:0.8;" x="47.803125" xlink:href="#m63697631a4" y="96.683158"/>
      </g>
     </g>
     <g id="text_15">
      <!-- 12 -->
      <g transform="translate(28.078125 100.482377)scale(0.1 -0.1)">
       <use xlink:href="#DejaVuSans-31"/>
       <use x="63.623047" xlink:href="#DejaVuSans-32"/>
      </g>
     </g>
    </g>
    <g id="ytick_8">
     <g id="line2d_29">
      <path clip-path="url(#pccd7bc1ff3)" d="M 47.803125 56.893684 
L 717.403125 56.893684 
" style="fill:none;stroke:#b0b0b0;stroke-linecap:square;stroke-width:0.8;"/>
     </g>
     <g id="line2d_30">
      <g>
       <use style="stroke:#000000;stroke-width:0.8;" x="47.803125" xlink:href="#m63697631a4" y="56.893684"/>
      </g>
     </g>
     <g id="text_16">
      <!-- 14 -->
      <g transform="translate(28.078125 60.692903)scale(0.1 -0.1)">
       <use xlink:href="#DejaVuSans-31"/>
       <use x="63.623047" xlink:href="#DejaVuSans-34"/>
      </g>
     </g>
    </g>
    <g id="text_17">
     <!-- Sending Rate (Mbit/s) -->
     <defs>
      <path d="M 53.515625 70.515625 
L 53.515625 60.890625 
Q 47.90625 63.578125 42.921875 64.890625 
Q 37.9375 66.21875 33.296875 66.21875 
Q 25.25 66.21875 20.875 63.09375 
Q 16.5 59.96875 16.5 54.203125 
Q 16.5 49.359375 19.40625 46.890625 
Q 22.3125 44.4375 30.421875 42.921875 
L 36.375 41.703125 
Q 47.40625 39.59375 52.65625 34.296875 
Q 57.90625 29 57.90625 20.125 
Q 57.90625 9.515625 50.796875 4.046875 
Q 43.703125 -1.421875 29.984375 -1.421875 
Q 24.8125 -1.421875 18.96875 -0.25 
Q 13.140625 0.921875 6.890625 3.21875 
L 6.890625 13.375 
Q 12.890625 10.015625 18.65625 8.296875 
Q 24.421875 6.59375 29.984375 6.59375 
Q 38.421875 6.59375 43.015625 9.90625 
Q 47.609375 13.234375 47.609375 19.390625 
Q 47.609375 24.75 44.3125 27.78125 
Q 41.015625 30.8125 33.5 32.328125 
L 27.484375 33.5 
Q 16.453125 35.6875 11.515625 40.375 
Q 6.59375 45.0625 6.59375 53.421875 
Q 6.59375 63.09375 13.40625 68.65625 
Q 20.21875 74.21875 32.171875 74.21875 
Q 37.3125 74.21875 42.625 73.28125 
Q 47.953125 72.359375 53.515625 70.515625 
z
" id="DejaVuSans-53"/>
      <path d="M 54.890625 33.015625 
L 54.890625 0 
L 45.90625 0 
L 45.90625 32.71875 
Q 45.90625 40.484375 42.875 44.328125 
Q 39.84375 48.1875 33.796875 48.1875 
Q 26.515625 48.1875 22.3125 43.546875 
Q 18.109375 38.921875 18.109375 30.90625 
L 18.109375 0 
L 9.078125 0 
L 9.078125 54.6875 
L 18.109375 54.6875 
L 18.109375 46.1875 
Q 21.34375 51.125 25.703125 53.5625 
Q 30.078125 56 35.796875 56 
Q 45.21875 56 50.046875 50.171875 
Q 54.890625 44.34375 54.890625 33.015625 
z
" id="DejaVuSans-6e"/>
      <path d="M 45.40625 46.390625 
L 45.40625 75.984375 
L 54.390625 75.984375 
L 54.390625 0 
L 45.40625 0 
L 45.40625 8.203125 
Q 42.578125 3.328125 38.25 0.953125 
Q 33.9375 -1.421875 27.875 -1.421875 
Q 17.96875 -1.421875 11.734375 6.484375 
Q 5.515625 14.40625 5.515625 27.296875 
Q 5.515625 40.1875 11.734375 48.09375 
Q 17.96875 56 27.875 56 
Q 33.9375 56 38.25 53.625 
Q 42.578125 51.265625 45.40625 46.390625 
z
M 14.796875 27.296875 
Q 14.796875 17.390625 18.875 11.75 
Q 22.953125 6.109375 30.078125 6.109375 
Q 37.203125 6.109375 41.296875 11.75 
Q 45.40625 17.390625 45.40625 27.296875 
Q 45.40625 37.203125 41.296875 42.84375 
Q 37.203125 48.484375 30.078125 48.484375 
Q 22.953125 48.484375 18.875 42.84375 
Q 14.796875 37.203125 14.796875 27.296875 
z
" id="DejaVuSans-64"/>
      <path d="M 45.40625 27.984375 
Q 45.40625 37.75 41.375 43.109375 
Q 37.359375 48.484375 30.078125 48.484375 
Q 22.859375 48.484375 18.828125 43.109375 
Q 14.796875 37.75 14.796875 27.984375 
Q 14.796875 18.265625 18.828125 12.890625 
Q 22.859375 7.515625 30.078125 7.515625 
Q 37.359375 7.515625 41.375 12.890625 
Q 45.40625 18.265625 45.40625 27.984375 
z
M 54.390625 6.78125 
Q 54.390625 -7.171875 48.1875 -13.984375 
Q 42 -20.796875 29.203125 -20.796875 
Q 24.46875 -20.796875 20.265625 -20.09375 
Q 16.0625 -19.390625 12.109375 -17.921875 
L 12.109375 -9.1875 
Q 16.0625 -11.328125 19.921875 -12.34375 
Q 23.78125 -13.375 27.78125 -13.375 
Q 36.625 -13.375 41.015625 -8.765625 
Q 45.40625 -4.15625 45.40625 5.171875 
L 45.40625 9.625 
Q 42.625 4.78125 38.28125 2.390625 
Q 33.9375 0 27.875 0 
Q 17.828125 0 11.671875 7.65625 
Q 5.515625 15.328125 5.515625 27.984375 
Q 5.515625 40.671875 11.671875 48.328125 
Q 17.828125 56 27.875 56 
Q 33.9375 56 38.28125 53.609375 
Q 42.625 51.21875 45.40625 46.390625 
L 45.40625 54.6875 
L 54.390625 54.6875 
z
" id="DejaVuSans-67"/>
      <path d="M 44.390625 34.1875 
Q 47.5625 33.109375 50.5625 29.59375 
Q 53.5625 26.078125 56.59375 19.921875 
L 66.609375 0 
L 56 0 
L 46.6875 18.703125 
Q 43.0625 26.03125 39.671875 28.421875 
Q 36.28125 30.8125 30.421875 30.8125 
L 19.671875 30.8125 
L 19.671875 0 
L 9.8125 0 
L 9.8125 72.90625 
L 32.078125 72.90625 
Q 44.578125 72.90625 50.734375 67.671875 
Q 56.890625 62.453125 56.890625 51.90625 
Q 56.890625 45.015625 53.6875 40.46875 
Q 50.484375 35.9375 44.390625 34.1875 
z
M 19.671875 64.796875 
L 19.671875 38.921875 
L 32.078125 38.921875 
Q 39.203125 38.921875 42.84375 42.21875 
Q 46.484375 45.515625 46.484375 51.90625 
Q 46.484375 58.296875 42.84375 61.546875 
Q 39.203125 64.796875 32.078125 64.796875 
z
" id="DejaVuSans-52"/>
      <path d="M 34.28125 27.484375 
Q 23.390625 27.484375 19.1875 25 
Q 14.984375 22.515625 14.984375 16.5 
Q 14.984375 11.71875 18.140625 8.90625 
Q 21.296875 6.109375 26.703125 6.109375 
Q 34.1875 6.109375 38.703125 11.40625 
Q 43.21875 16.703125 43.21875 25.484375 
L 43.21875 27.484375 
z
M 52.203125 31.203125 
L 52.203125 0 
L 43.21875 0 
L 43.21875 8.296875 
Q 40.140625 3.328125 35.546875 0.953125 
Q 30.953125 -1.421875 24.3125 -1.421875 
Q 15.921875 -1.421875 10.953125 3.296875 
Q 6 8.015625 6 15.921875 
Q 6 25.140625 12.171875 29.828125 
Q 18.359375 34.515625 30.609375 34.515625 
L 43.21875 34.515625 
L 43.21875 35.40625 
Q 43.21875 41.609375 39.140625 45 
Q 35.0625 48.390625 27.6875 48.390625 
Q 23 48.390625 18.546875 47.265625 
Q 14.109375 46.140625 10.015625 43.890625 
L 10.015625 52.203125 
Q 14.9375 54.109375 19.578125 55.046875 
Q 24.21875 56 28.609375 56 
Q 40.484375 56 46.34375 49.84375 
Q 52.203125 43.703125 52.203125 31.203125 
z
" id="DejaVuSans-61"/>
      <path d="M 18.3125 70.21875 
L 18.3125 54.6875 
L 36.8125 54.6875 
L 36.8125 47.703125 
L 18.3125 47.703125 
L 18.3125 18.015625 
Q 18.3125 11.328125 20.140625 9.421875 
Q 21.96875 7.515625 27.59375 7.515625 
L 36.8125 7.515625 
L 36.8125 0 
L 27.59375 0 
Q 17.1875 0 13.234375 3.875 
Q 9.28125 7.765625 9.28125 18.015625 
L 9.28125 47.703125 
L 2.6875 47.703125 
L 2.6875 54.6875 
L 9.28125 54.6875 
L 9.28125 70.21875 
z
" id="DejaVuSans-74"/>
      <path d="M 9.8125 72.90625 
L 24.515625 72.90625 
L 43.109375 23.296875 
L 61.8125 72.90625 
L 76.515625 72.90625 
L 76.515625 0 
L 66.890625 0 
L 66.890625 64.015625 
L 48.09375 14.015625 
L 38.1875 14.015625 
L 19.390625 64.015625 
L 19.390625 0 
L 9.8125 0 
z
" id="DejaVuSans-4d"/>
      <path d="M 48.6875 27.296875 
Q 48.6875 37.203125 44.609375 42.84375 
Q 40.53125 48.484375 33.40625 48.484375 
Q 26.265625 48.484375 22.1875 42.84375 
Q 18.109375 37.203125 18.109375 27.296875 
Q 18.109375 17.390625 22.1875 11.75 
Q 26.265625 6.109375 33.40625 6.109375 
Q 40.53125 6.109375 44.609375 11.75 
Q 48.6875 17.390625 48.6875 27.296875 
z
M 18.109375 46.390625 
Q 20.953125 51.265625 25.265625 53.625 
Q 29.59375 56 35.59375 56 
Q 45.5625 56 51.78125 48.09375 
Q 58.015625 40.1875 58.015625 27.296875 
Q 58.015625 14.40625 51.78125 6.484375 
Q 45.5625 -1.421875 35.59375 -1.421875 
Q 29.59375 -1.421875 25.265625 0.953125 
Q 20.953125 3.328125 18.109375 8.203125 
L 18.109375 0 
L 9.078125 0 
L 9.078125 75.984375 
L 18.109375 75.984375 
z
" id="DejaVuSans-62"/>
      <path d="M 25.390625 72.90625 
L 33.6875 72.90625 
L 8.296875 -9.28125 
L 0 -9.28125 
z
" id="DejaVuSans-2f"/>
     </defs>
     <g transform="translate(21.998438 238.325469)rotate(-90)scale(0.1 -0.1)">
      <use xlink:href="#DejaVuSans-53"/>
      <use x="63.476562" xlink:href="#DejaVuSans-65"/>
      <use x="125" xlink:href="#DejaVuSans-6e"/>
      <use x="188.378906" xlink:href="#DejaVuSans-64"/>
      <use x="251.855469" xlink:href="#DejaVuSans-69"/>
      <use x="279.638672" xlink:href="#DejaVuSans-6e"/>
      <use x="343.017578" xlink:href="#DejaVuSans-67"/>
      <use x="406.494141" xlink:href="#DejaVuSans-20"/>
      <use x="438.28125" xlink:href="#DejaVuSans-52"/>
      <use x="507.732422" xlink:href="#DejaVuSans-61"/>
      <use x="569.011719" xlink:href="#DejaVuSans-74"/>
      <use x="608.220703" xlink:href="#DejaVuSans-65"/>
      <use x="669.744141" xlink:href="#DejaVuSans-20"/>
      <use x="701.53125" xlink:href="#DejaVuSans-28"/>
      <use x="740.544922" xlink:href="#DejaVuSans-4d"/>
      <use x="826.824219" xlink:href="#DejaVuSans-62"/>
      <use x="890.300781" xlink:href="#DejaVuSans-69"/>
      <use x="918.083984" xlink:href="#DejaVuSans-74"/>
      <use x="957.292969" xlink:href="#DejaVuSans-2f"/>
      <use x="990.984375" xlink:href="#DejaVuSans-73"/>
      <use x="1043.083984" xlink:href="#DejaVuSans-29"/>
     </g>
    </g>
   </g>
   <g id="line2d_31">
    <path clip-path="url(#pccd7bc1ff3)" d="M 78.239489 287.473684 
L 81.283125 225.601053 
L 84.326761 224.009474 
L 87.370398 211.276842 
L 90.414034 239.925263 
L 93.45767 246.291579 
L 96.501307 195.361053 
L 99.544943 165.121053 
L 102.58858 155.571579 
L 105.632216 160.346316 
L 108.675852 179.445263 
L 111.719489 236.742105 
L 114.763125 153.98 
L 117.806761 131.697895 
L 123.894034 182.628421 
L 126.93767 141.247368 
L 129.981307 185.811579 
L 133.024943 166.712632 
L 136.06858 192.177895 
L 139.112216 211.276842 
L 142.155852 208.093684 
L 145.199489 150.796842 
L 148.243125 138.064211 
L 151.286761 157.163158 
L 157.374034 176.262105 
L 163.461307 150.796842 
L 169.54858 163.529474 
L 172.592216 150.796842 
L 175.635852 198.544211 
L 178.679489 150.796842 
L 181.723125 192.177895 
L 187.810398 211.276842 
L 190.854034 182.628421 
L 193.89767 198.544211 
L 196.941307 233.558947 
L 199.984943 153.98 
L 203.02858 238.333684 
L 206.072216 225.601053 
L 209.115852 214.46 
L 212.159489 185.811579 
L 215.203125 255.841053 
L 218.246761 243.108421 
L 221.290398 208.093684 
L 224.334034 179.445263 
L 227.37767 214.46 
L 230.421307 246.291579 
L 233.464943 246.291579 
L 236.50858 255.841053 
L 239.552216 322.687368 
L 242.595852 271.756842 
L 245.639489 239.925263 
L 248.683125 249.474737 
L 251.726761 252.657895 
L 254.770398 201.727368 
L 257.814034 208.093684 
L 260.85767 259.024211 
L 263.901307 271.756842 
L 266.944943 259.024211 
L 269.98858 316.321053 
L 273.032216 239.925263 
L 276.075852 208.093684 
L 279.119489 195.361053 
L 282.163125 309.954737 
L 285.206761 316.321053 
L 288.250398 195.361053 
L 291.294034 255.841053 
L 294.33767 297.222105 
L 297.381307 271.756842 
L 300.424943 271.756842 
L 303.46858 287.672632 
L 306.512216 278.123158 
L 309.555852 265.390526 
L 312.599489 281.306316 
L 315.643125 271.756842 
L 318.686761 294.038947 
L 321.730398 329.053684 
L 324.774034 208.093684 
L 327.81767 262.207368 
L 330.861307 262.207368 
L 333.904943 319.504211 
L 336.94858 259.024211 
L 339.992216 273.348421 
L 343.035852 295.630526 
L 346.079489 295.630526 
L 349.123125 335.42 
L 352.166761 270.165263 
L 355.210398 322.687368 
L 358.254034 273.348421 
L 361.29767 286.081053 
L 364.341307 297.222105 
L 367.384943 281.306316 
L 370.42858 284.489474 
L 373.472216 309.954737 
L 376.515852 316.321053 
L 379.559489 316.321053 
L 382.603125 325.870526 
L 385.646761 249.474737 
L 388.690398 230.375789 
L 391.734034 214.46 
L 394.77767 204.910526 
L 397.821307 198.544211 
L 400.864943 182.628421 
L 403.90858 157.163158 
L 409.995852 125.331579 
L 413.039489 96.683158 
L 416.083125 99.866316 
L 419.126761 83.950526 
L 422.170398 99.866316 
L 425.214034 147.613684 
L 428.25767 163.529474 
L 431.301307 157.163158 
L 434.344943 112.598947 
L 437.38858 77.584211 
L 440.432216 93.5 
L 443.475852 74.401053 
L 446.519489 96.683158 
L 449.563125 90.316842 
L 452.606761 71.217895 
L 455.650398 93.5 
L 458.694034 58.485263 
L 461.73767 33.02 
L 464.781307 87.133684 
L 467.824943 128.514737 
L 470.86858 103.049474 
L 473.912216 138.064211 
L 476.955852 112.598947 
L 479.999489 99.866316 
L 483.043125 112.598947 
L 486.086761 118.965263 
L 489.130398 147.613684 
L 492.174034 327.462105 
L 495.21767 316.321053 
L 498.261307 104.641053 
L 501.304943 128.514737 
L 504.34858 179.445263 
L 507.392216 166.712632 
L 510.435852 122.148421 
L 513.479489 115.782105 
L 516.523125 131.697895 
L 519.566761 160.346316 
L 522.610398 157.163158 
L 525.654034 147.613684 
L 528.69767 150.796842 
L 531.741307 138.064211 
L 534.784943 173.078947 
L 537.82858 185.811579 
L 540.872216 224.009474 
L 543.915852 138.064211 
L 546.959489 211.276842 
L 550.003125 166.712632 
L 553.046761 179.445263 
L 556.090398 220.826316 
L 559.134034 179.445263 
L 562.17767 188.994737 
L 565.221307 163.529474 
L 568.264943 227.192632 
L 571.30858 163.529474 
L 574.352216 157.163158 
L 577.395852 141.247368 
L 580.439489 134.881053 
L 583.483125 141.247368 
L 586.526761 150.796842 
L 589.570398 115.782105 
L 592.614034 163.529474 
L 595.65767 131.697895 
L 598.701307 128.514737 
L 601.744943 150.796842 
L 604.78858 112.598947 
L 607.832216 153.98 
L 613.919489 166.712632 
L 616.963125 176.262105 
L 620.006761 138.064211 
L 623.050398 157.163158 
L 626.094034 128.514737 
L 629.13767 115.782105 
L 632.181307 141.247368 
L 635.224943 109.415789 
L 638.26858 93.5 
L 641.312216 71.217895 
L 644.355852 157.163158 
L 647.399489 224.009474 
L 650.443125 249.474737 
L 653.486761 227.192632 
L 656.530398 230.375789 
L 659.574034 195.361053 
L 662.61767 217.643158 
L 665.661307 217.643158 
L 668.704943 224.009474 
L 671.74858 236.742105 
L 674.792216 236.742105 
L 677.835852 298.813684 
L 680.879489 260.615789 
L 683.923125 271.756842 
L 683.923125 271.756842 
" style="fill:none;stroke:#1f77b4;stroke-linecap:square;stroke-width:1.5;"/>
   </g>
   <g id="line2d_32">
    <path clip-path="url(#pccd7bc1ff3)" d="M 78.239489 335.221053 
L 81.283125 255.841053 
L 84.326761 188.994737 
L 87.370398 222.815789 
L 90.414034 224.407368 
L 93.45767 222.815789 
L 96.501307 212.669474 
L 99.544943 217.643158 
L 102.58858 217.643158 
L 105.632216 216.051579 
L 108.675852 209.884211 
L 111.719489 209.287368 
L 114.763125 209.287368 
L 117.806761 214.261053 
L 120.850398 217.643158 
L 123.894034 216.051579 
L 126.93767 224.407368 
L 129.981307 226.197895 
L 133.024943 229.58 
L 136.06858 222.815789 
L 139.112216 214.261053 
L 142.155852 217.643158 
L 145.199489 217.643158 
L 148.243125 210.878947 
L 151.286761 209.287368 
L 154.330398 207.496842 
L 157.374034 192.376842 
L 160.41767 182.230526 
L 163.461307 194.565263 
L 166.504943 182.230526 
L 169.54858 178.848421 
L 172.592216 177.654737 
L 175.635852 175.466316 
L 178.679489 188.994737 
L 181.723125 186.209474 
L 184.766761 184.021053 
L 187.810398 192.376842 
L 190.854034 194.167368 
L 193.89767 197.947368 
L 196.941307 200.931579 
L 199.984943 190.785263 
L 203.02858 199.141053 
L 206.072216 188.994737 
L 209.115852 192.973684 
L 212.159489 188.994737 
L 215.203125 194.167368 
L 218.246761 202.523158 
L 221.290398 200.931579 
L 224.334034 203.12 
L 227.37767 202.523158 
L 230.421307 192.376842 
L 233.464943 187.403158 
L 236.50858 188 
L 239.552216 192.376842 
L 242.595852 195.758947 
L 245.639489 194.167368 
L 248.683125 194.167368 
L 251.726761 196.355789 
L 254.770398 194.167368 
L 257.814034 188.994737 
L 260.85767 187.403158 
L 263.901307 189.591579 
L 266.944943 187.403158 
L 269.98858 187.403158 
L 273.032216 188.994737 
L 276.075852 187.801053 
L 279.119489 187.403158 
L 285.206761 200.931579 
L 288.250398 202.523158 
L 291.294034 201.329474 
L 294.33767 202.523158 
L 297.381307 202.523158 
L 300.424943 200.931579 
L 303.46858 202.523158 
L 306.512216 202.523158 
L 309.555852 201.329474 
L 312.599489 202.523158 
L 315.643125 200.931579 
L 318.686761 202.523158 
L 321.730398 187.403158 
L 324.774034 187.801053 
L 327.81767 188.994737 
L 330.861307 187.403158 
L 333.904943 187.403158 
L 336.94858 187.801053 
L 339.992216 188.994737 
L 343.035852 187.403158 
L 346.079489 187.403158 
L 349.123125 188 
L 352.166761 188.994737 
L 355.210398 187.403158 
L 358.254034 187.801053 
L 361.29767 188.994737 
L 364.341307 187.403158 
L 367.384943 187.403158 
L 370.42858 187.801053 
L 373.472216 188.994737 
L 376.515852 187.403158 
L 379.559489 192.376842 
L 382.603125 201.329474 
L 385.646761 202.523158 
L 388.690398 202.523158 
L 391.734034 200.931579 
L 394.77767 202.523158 
L 397.821307 200.931579 
L 400.864943 202.523158 
L 403.90858 203.12 
L 406.952216 200.931579 
L 409.995852 202.523158 
L 413.039489 202.523158 
L 416.083125 200.931579 
L 419.126761 202.523158 
L 422.170398 202.523158 
L 425.214034 201.329474 
L 428.25767 202.523158 
L 431.301307 200.931579 
L 434.344943 202.523158 
L 437.38858 202.523158 
L 440.432216 200.931579 
L 443.475852 203.12 
L 446.519489 202.523158 
L 449.563125 200.931579 
L 452.606761 202.523158 
L 455.650398 200.931579 
L 458.694034 202.523158 
L 461.73767 202.523158 
L 464.781307 201.329474 
L 467.824943 202.523158 
L 470.86858 202.523158 
L 473.912216 200.931579 
L 476.955852 202.523158 
L 479.999489 202.523158 
L 483.043125 201.329474 
L 486.086761 202.523158 
L 489.130398 200.931579 
L 492.174034 202.523158 
L 495.21767 202.523158 
L 498.261307 197.549474 
L 501.304943 194.565263 
L 504.34858 202.523158 
L 507.392216 205.905263 
L 510.435852 206.104211 
L 513.479489 202.324211 
L 516.523125 202.523158 
L 519.566761 207.496842 
L 522.610398 200.931579 
L 525.654034 204.711579 
L 528.69767 204.313684 
L 531.741307 202.523158 
L 534.784943 205.905263 
L 537.82858 202.523158 
L 540.872216 200.931579 
L 543.915852 204.313684 
L 546.959489 203.12 
L 550.003125 204.313684 
L 553.046761 204.313684 
L 556.090398 202.523158 
L 559.134034 216.051579 
L 562.17767 226.197895 
L 565.221307 224.407368 
L 568.264943 227.789474 
L 571.30858 216.051579 
L 574.352216 217.643158 
L 577.395852 216.051579 
L 580.439489 216.051579 
L 583.483125 217.643158 
L 586.526761 214.261053 
L 589.570398 219.433684 
L 592.614034 222.815789 
L 595.65767 224.407368 
L 598.701307 226.197895 
L 601.744943 231.171579 
L 604.78858 245.893684 
L 607.832216 246.490526 
L 610.875852 244.7 
L 613.919489 237.935789 
L 616.963125 236.344211 
L 620.006761 237.935789 
L 623.050398 237.537895 
L 626.094034 236.344211 
L 629.13767 229.58 
L 632.181307 227.789474 
L 635.224943 227.789474 
L 638.26858 226.197895 
L 641.312216 227.789474 
L 647.399489 227.789474 
L 650.443125 229.58 
L 653.486761 236.344211 
L 656.530398 244.302105 
L 659.574034 249.872632 
L 662.61767 246.490526 
L 665.661307 253.254737 
L 668.704943 259.422105 
L 671.74858 258.228421 
L 674.792216 253.254737 
L 677.835852 247.485263 
L 680.879489 248.082105 
L 683.923125 243.108421 
L 686.966761 327.064211 
L 686.966761 327.064211 
" style="fill:none;stroke:#ff7f0e;stroke-dasharray:6,2.25;stroke-dashoffset:0;stroke-width:1.5;"/>
   </g>
   <g id="line2d_33">
    <path clip-path="url(#pccd7bc1ff3)" d="M 78.239489 330.645263 
L 81.283125 317.912632 
L 84.326761 325.870526 
L 90.414034 322.687368 
L 93.45767 329.053684 
L 96.501307 329.053684 
L 102.58858 332.236842 
L 105.632216 332.236842 
L 108.675852 330.645263 
L 114.763125 330.645263 
L 117.806761 333.828421 
L 120.850398 333.828421 
L 123.894034 332.236842 
L 126.93767 333.828421 
L 129.981307 332.236842 
L 136.06858 332.236842 
L 139.112216 330.645263 
L 142.155852 330.645263 
L 145.199489 332.236842 
L 151.286761 332.236842 
L 154.330398 324.278947 
L 157.374034 305.18 
L 160.41767 298.813684 
L 163.461307 309.954737 
L 166.504943 313.137895 
L 169.54858 319.504211 
L 172.592216 327.462105 
L 175.635852 329.053684 
L 178.679489 327.462105 
L 181.723125 327.462105 
L 184.766761 325.870526 
L 187.810398 325.870526 
L 193.89767 322.687368 
L 196.941307 322.687368 
L 203.02858 319.504211 
L 206.072216 314.729474 
L 209.115852 313.137895 
L 212.159489 319.504211 
L 215.203125 324.278947 
L 218.246761 325.870526 
L 224.334034 332.236842 
L 227.37767 330.645263 
L 230.421307 332.236842 
L 233.464943 329.053684 
L 236.50858 330.645263 
L 239.552216 329.053684 
L 242.595852 330.645263 
L 245.639489 321.095789 
L 248.683125 317.912632 
L 251.726761 317.912632 
L 254.770398 324.278947 
L 257.814034 322.687368 
L 260.85767 300.405263 
L 263.901307 298.813684 
L 266.944943 309.954737 
L 269.98858 309.954737 
L 273.032216 314.729474 
L 276.075852 327.462105 
L 279.119489 329.053684 
L 282.163125 332.236842 
L 288.250398 332.236842 
L 291.294034 333.828421 
L 294.33767 332.236842 
L 297.381307 333.828421 
L 300.424943 333.828421 
L 303.46858 332.236842 
L 306.512216 333.828421 
L 309.555852 332.236842 
L 312.599489 333.828421 
L 315.643125 332.236842 
L 318.686761 333.828421 
L 321.730398 332.236842 
L 324.774034 333.828421 
L 327.81767 333.828421 
L 330.861307 332.236842 
L 333.904943 333.828421 
L 336.94858 333.828421 
L 339.992216 332.236842 
L 343.035852 333.828421 
L 346.079489 332.236842 
L 349.123125 332.236842 
L 352.166761 333.828421 
L 355.210398 332.236842 
L 358.254034 333.828421 
L 361.29767 332.236842 
L 364.341307 333.828421 
L 367.384943 333.828421 
L 370.42858 332.236842 
L 373.472216 333.828421 
L 376.515852 332.236842 
L 388.690398 332.236842 
L 391.734034 333.828421 
L 394.77767 333.828421 
L 397.821307 332.236842 
L 400.864943 333.828421 
L 403.90858 332.236842 
L 406.952216 333.828421 
L 409.995852 332.236842 
L 413.039489 333.828421 
L 416.083125 332.236842 
L 419.126761 333.828421 
L 428.25767 324.278947 
L 431.301307 329.053684 
L 434.344943 330.645263 
L 449.563125 330.645263 
L 452.606761 332.236842 
L 455.650398 330.645263 
L 458.694034 332.236842 
L 461.73767 332.236842 
L 464.781307 333.828421 
L 467.824943 332.236842 
L 470.86858 333.828421 
L 473.912216 332.236842 
L 476.955852 333.828421 
L 479.999489 333.828421 
L 483.043125 332.236842 
L 486.086761 333.828421 
L 489.130398 332.236842 
L 492.174034 332.236842 
L 495.21767 333.828421 
L 498.261307 332.236842 
L 501.304943 333.828421 
L 504.34858 332.236842 
L 507.392216 333.828421 
L 510.435852 333.828421 
L 513.479489 332.236842 
L 528.69767 332.236842 
L 531.741307 330.645263 
L 534.784943 332.236842 
L 537.82858 330.645263 
L 540.872216 332.236842 
L 553.046761 332.236842 
L 556.090398 330.645263 
L 559.134034 332.236842 
L 574.352216 332.236842 
L 577.395852 329.053684 
L 580.439489 322.687368 
L 583.483125 321.095789 
L 586.526761 317.912632 
L 589.570398 317.912632 
L 592.614034 314.729474 
L 595.65767 314.729474 
L 601.744943 321.095789 
L 604.78858 319.504211 
L 607.832216 325.870526 
L 610.875852 325.870526 
L 613.919489 327.462105 
L 616.963125 332.236842 
L 626.094034 332.236842 
L 629.13767 333.828421 
L 632.181307 333.828421 
L 635.224943 332.236842 
L 638.26858 332.236842 
L 641.312216 333.828421 
L 644.355852 332.236842 
L 647.399489 333.828421 
L 650.443125 332.236842 
L 653.486761 333.828421 
L 656.530398 333.828421 
L 659.574034 332.236842 
L 671.74858 332.236842 
L 674.792216 333.828421 
L 677.835852 332.236842 
L 683.923125 332.236842 
L 683.923125 332.236842 
" style="fill:none;stroke:#2ca02c;stroke-dasharray:1.5,1.5;stroke-dashoffset:0;stroke-width:1.5;"/>
   </g>
   <g id="line2d_34">
    <path clip-path="url(#pccd7bc1ff3)" d="M 81.283125 335.221053 
L 84.326761 295.232632 
L 87.370398 247.684211 
L 90.414034 241.914737 
L 93.45767 293.84 
L 96.501307 294.834737 
L 99.544943 293.84 
L 102.58858 294.635789 
L 105.632216 294.834737 
L 108.675852 295.630526 
L 111.719489 293.044211 
L 114.763125 294.635789 
L 117.806761 295.630526 
L 120.850398 294.834737 
L 123.894034 294.635789 
L 126.93767 297.222105 
L 129.981307 296.227368 
L 133.024943 294.834737 
L 136.06858 297.023158 
L 139.112216 294.834737 
L 142.155852 294.635789 
L 145.199489 293.84 
L 148.243125 296.227368 
L 151.286761 294.635789 
L 154.330398 295.630526 
L 157.374034 296.028421 
L 160.41767 297.222105 
L 163.461307 296.426316 
L 166.504943 294.834737 
L 169.54858 297.222105 
L 172.592216 294.635789 
L 175.635852 296.426316 
L 178.679489 296.824211 
L 181.723125 297.818947 
L 184.766761 298.017895 
L 187.810398 298.813684 
L 190.854034 299.410526 
L 193.89767 297.818947 
L 196.941307 298.813684 
L 199.984943 297.818947 
L 203.02858 296.227368 
L 206.072216 297.818947 
L 209.115852 295.630526 
L 212.159489 296.227368 
L 215.203125 297.222105 
L 218.246761 297.818947 
L 221.290398 296.227368 
L 224.334034 298.614737 
L 227.37767 298.017895 
L 230.421307 297.818947 
L 233.464943 298.017895 
L 236.50858 298.614737 
L 239.552216 298.415789 
L 242.595852 297.62 
L 245.639489 298.415789 
L 248.683125 299.609474 
L 251.726761 298.017895 
L 254.770398 300.206316 
L 257.814034 298.017895 
L 260.85767 298.017895 
L 263.901307 298.614737 
L 269.98858 298.216842 
L 273.032216 298.415789 
L 276.075852 297.818947 
L 279.119489 296.426316 
L 282.163125 297.023158 
L 285.206761 296.227368 
L 288.250398 298.017895 
L 291.294034 297.62 
L 297.381307 298.017895 
L 300.424943 298.614737 
L 303.46858 297.818947 
L 306.512216 298.017895 
L 309.555852 298.813684 
L 312.599489 299.410526 
L 315.643125 301.002105 
L 318.686761 300.604211 
L 321.730398 301.996842 
L 324.774034 300.206316 
L 327.81767 299.609474 
L 330.861307 298.813684 
L 333.904943 301.598947 
L 336.94858 297.421053 
L 339.992216 300.604211 
L 343.035852 299.609474 
L 346.079489 298.017895 
L 349.123125 301.201053 
L 352.166761 297.023158 
L 355.210398 299.410526 
L 358.254034 298.813684 
L 361.29767 299.410526 
L 364.341307 299.609474 
L 367.384943 300.405263 
L 370.42858 299.410526 
L 373.472216 299.609474 
L 376.515852 299.609474 
L 379.559489 299.012632 
L 382.603125 298.614737 
L 385.646761 297.818947 
L 388.690398 298.614737 
L 391.734034 299.609474 
L 394.77767 299.410526 
L 397.821307 299.012632 
L 400.864943 298.017895 
L 403.90858 297.818947 
L 406.952216 297.023158 
L 409.995852 296.426316 
L 413.039489 296.227368 
L 416.083125 298.614737 
L 419.126761 298.017895 
L 422.170398 296.426316 
L 425.214034 298.813684 
L 428.25767 296.426316 
L 431.301307 299.410526 
L 434.344943 298.614737 
L 437.38858 298.017895 
L 440.432216 301.002105 
L 443.475852 300.405263 
L 446.519489 299.609474 
L 449.563125 298.017895 
L 452.606761 299.609474 
L 455.650398 298.614737 
L 458.694034 299.609474 
L 461.73767 299.410526 
L 464.781307 298.614737 
L 467.824943 299.609474 
L 470.86858 299.609474 
L 473.912216 300.206316 
L 476.955852 298.017895 
L 479.999489 299.410526 
L 483.043125 301.797895 
L 486.086761 301.201053 
L 489.130398 301.201053 
L 492.174034 301.996842 
L 495.21767 301.002105 
L 498.261307 301.201053 
L 501.304943 301.201053 
L 504.34858 300.206316 
L 507.392216 301.201053 
L 510.435852 302.792632 
L 516.523125 301.201053 
L 522.610398 301.201053 
L 525.654034 301.996842 
L 528.69767 301.002105 
L 531.741307 302.792632 
L 534.784943 301.996842 
L 537.82858 302.792632 
L 540.872216 301.201053 
L 543.915852 301.996842 
L 546.959489 301.201053 
L 550.003125 302.593684 
L 553.046761 302.792632 
L 556.090398 301.797895 
L 559.134034 302.593684 
L 562.17767 301.201053 
L 565.221307 301.797895 
L 568.264943 302.593684 
L 571.30858 301.201053 
L 574.352216 302.593684 
L 577.395852 303.588421 
L 580.439489 302.792632 
L 583.483125 302.593684 
L 586.526761 303.588421 
L 589.570398 302.792632 
L 595.65767 302.792632 
L 598.701307 301.797895 
L 601.744943 302.792632 
L 604.78858 302.593684 
L 607.832216 303.588421 
L 610.875852 302.792632 
L 616.963125 302.792632 
L 620.006761 301.996842 
L 623.050398 301.002105 
L 626.094034 301.201053 
L 629.13767 303.389474 
L 632.181307 301.201053 
L 635.224943 301.002105 
L 638.26858 302.792632 
L 641.312216 303.588421 
L 644.355852 302.792632 
L 647.399489 302.792632 
L 650.443125 302.195789 
L 653.486761 302.792632 
L 659.574034 302.792632 
L 662.61767 303.588421 
L 665.661307 302.593684 
L 668.704943 304.185263 
L 671.74858 304.384211 
L 677.835852 302.792632 
L 680.879489 304.185263 
L 683.923125 303.389474 
L 686.966761 333.828421 
L 686.966761 333.828421 
" style="fill:none;stroke:#d62728;stroke-dasharray:4.5,1.5,2.25,1.5;stroke-dashoffset:0;stroke-width:1.5;"/>
   </g>
   <g id="line2d_35"/>
   <g id="line2d_36"/>
   <g id="line2d_37"/>
   <g id="line2d_38"/>
   <g id="line2d_39"/>
   <g id="patch_3">
    <path d="M 47.803125 350.54 
L 47.803125 17.9 
" style="fill:none;stroke:#000000;stroke-linecap:square;stroke-linejoin:miter;stroke-width:0.8;"/>
   </g>
   <g id="patch_4">
    <path d="M 717.403125 350.54 
L 717.403125 17.9 
" style="fill:none;stroke:#000000;stroke-linecap:square;stroke-linejoin:miter;stroke-width:0.8;"/>
   </g>
   <g id="patch_5">
    <path d="M 47.803125 350.54 
L 717.403125 350.54 
" style="fill:none;stroke:#000000;stroke-linecap:square;stroke-linejoin:miter;stroke-width:0.8;"/>
   </g>
   <g id="patch_6">
    <path d="M 47.803125 17.9 
L 717.403125 17.9 
" style="fill:none;stroke:#000000;stroke-linecap:square;stroke-linejoin:miter;stroke-width:0.8;"/>
   </g>
   <g id="legend_1">
    <g id="patch_7">
     <path d="M 726.499125 221.2475 
L 804.416625 221.2475 
Q 806.816625 221.2475 806.816625 218.8475 
L 806.816625 149.5925 
Q 806.816625 147.1925 804.416625 147.1925 
L 726.499125 147.1925 
Q 724.099125 147.1925 724.099125 149.5925 
L 724.099125 218.8475 
Q 724.099125 221.2475 726.499125 221.2475 
z
" style="fill:#ffffff;opacity:0.8;stroke:#cccccc;stroke-linejoin:miter;"/>
    </g>
    <g id="line2d_40">
     <path d="M 728.899125 156.910625 
L 752.899125 156.910625 
" style="fill:none;stroke:#1f77b4;stroke-linecap:square;stroke-width:1.5;"/>
    </g>
    <g id="line2d_41"/>
    <g id="text_18">
     <!-- bbr -->
     <defs>
      <path d="M 41.109375 46.296875 
Q 39.59375 47.171875 37.8125 47.578125 
Q 36.03125 48 33.890625 48 
Q 26.265625 48 22.1875 43.046875 
Q 18.109375 38.09375 18.109375 28.8125 
L 18.109375 0 
L 9.078125 0 
L 9.078125 54.6875 
L 18.109375 54.6875 
L 18.109375 46.1875 
Q 20.953125 51.171875 25.484375 53.578125 
Q 30.03125 56 36.53125 56 
Q 37.453125 56 38.578125 55.875 
Q 39.703125 55.765625 41.0625 55.515625 
z
" id="DejaVuSans-72"/>
     </defs>
     <g transform="translate(762.499125 161.110625)scale(0.12 -0.12)">
      <use xlink:href="#DejaVuSans-62"/>
      <use x="63.476562" xlink:href="#DejaVuSans-62"/>
      <use x="126.953125" xlink:href="#DejaVuSans-72"/>
     </g>
    </g>
    <g id="line2d_42">
     <path d="M 728.899125 174.524375 
L 752.899125 174.524375 
" style="fill:none;stroke:#ff7f0e;stroke-dasharray:6,2.25;stroke-dashoffset:0;stroke-width:1.5;"/>
    </g>
    <g id="line2d_43"/>
    <g id="text_19">
     <!-- aurora -->
     <defs>
      <path d="M 8.5 21.578125 
L 8.5 54.6875 
L 17.484375 54.6875 
L 17.484375 21.921875 
Q 17.484375 14.15625 20.5 10.265625 
Q 23.53125 6.390625 29.59375 6.390625 
Q 36.859375 6.390625 41.078125 11.03125 
Q 45.3125 15.671875 45.3125 23.6875 
L 45.3125 54.6875 
L 54.296875 54.6875 
L 54.296875 0 
L 45.3125 0 
L 45.3125 8.40625 
Q 42.046875 3.421875 37.71875 1 
Q 33.40625 -1.421875 27.6875 -1.421875 
Q 18.265625 -1.421875 13.375 4.4375 
Q 8.5 10.296875 8.5 21.578125 
z
M 31.109375 56 
z
" id="DejaVuSans-75"/>
      <path d="M 30.609375 48.390625 
Q 23.390625 48.390625 19.1875 42.75 
Q 14.984375 37.109375 14.984375 27.296875 
Q 14.984375 17.484375 19.15625 11.84375 
Q 23.34375 6.203125 30.609375 6.203125 
Q 37.796875 6.203125 41.984375 11.859375 
Q 46.1875 17.53125 46.1875 27.296875 
Q 46.1875 37.015625 41.984375 42.703125 
Q 37.796875 48.390625 30.609375 48.390625 
z
M 30.609375 56 
Q 42.328125 56 49.015625 48.375 
Q 55.71875 40.765625 55.71875 27.296875 
Q 55.71875 13.875 49.015625 6.21875 
Q 42.328125 -1.421875 30.609375 -1.421875 
Q 18.84375 -1.421875 12.171875 6.21875 
Q 5.515625 13.875 5.515625 27.296875 
Q 5.515625 40.765625 12.171875 48.375 
Q 18.84375 56 30.609375 56 
z
" id="DejaVuSans-6f"/>
     </defs>
     <g transform="translate(762.499125 178.724375)scale(0.12 -0.12)">
      <use xlink:href="#DejaVuSans-61"/>
      <use x="61.279297" xlink:href="#DejaVuSans-75"/>
      <use x="124.658203" xlink:href="#DejaVuSans-72"/>
      <use x="165.740234" xlink:href="#DejaVuSans-6f"/>
      <use x="226.921875" xlink:href="#DejaVuSans-72"/>
      <use x="268.035156" xlink:href="#DejaVuSans-61"/>
     </g>
    </g>
    <g id="line2d_44">
     <path d="M 728.899125 192.138125 
L 752.899125 192.138125 
" style="fill:none;stroke:#2ca02c;stroke-dasharray:1.5,1.5;stroke-dashoffset:0;stroke-width:1.5;"/>
    </g>
    <g id="line2d_45"/>
    <g id="text_20">
     <!-- pareto -->
     <defs>
      <path d="M 18.109375 8.203125 
L 18.109375 -20.796875 
L 9.078125 -20.796875 
L 9.078125 54.6875 
L 18.109375 54.6875 
L 18.109375 46.390625 
Q 20.953125 51.265625 25.265625 53.625 
Q 29.59375 56 35.59375 56 
Q 45.5625 56 51.78125 48.09375 
Q 58.015625 40.1875 58.015625 27.296875 
Q 58.015625 14.40625 51.78125 6.484375 
Q 45.5625 -1.421875 35.59375 -1.421875 
Q 29.59375 -1.421875 25.265625 0.953125 
Q 20.953125 3.328125 18.109375 8.203125 
z
M 48.6875 27.296875 
Q 48.6875 37.203125 44.609375 42.84375 
Q 40.53125 48.484375 33.40625 48.484375 
Q 26.265625 48.484375 22.1875 42.84375 
Q 18.109375 37.203125 18.109375 27.296875 
Q 18.109375 17.390625 22.1875 11.75 
Q 26.265625 6.109375 33.40625 6.109375 
Q 40.53125 6.109375 44.609375 11.75 
Q 48.6875 17.390625 48.6875 27.296875 
z
" id="DejaVuSans-70"/>
     </defs>
     <g transform="translate(762.499125 196.338125)scale(0.12 -0.12)">
      <use xlink:href="#DejaVuSans-70"/>
      <use x="63.476562" xlink:href="#DejaVuSans-61"/>
      <use x="124.755859" xlink:href="#DejaVuSans-72"/>
      <use x="165.837891" xlink:href="#DejaVuSans-65"/>
      <use x="227.361328" xlink:href="#DejaVuSans-74"/>
      <use x="266.570312" xlink:href="#DejaVuSans-6f"/>
     </g>
    </g>
    <g id="line2d_46">
     <path d="M 728.899125 209.751875 
L 752.899125 209.751875 
" style="fill:none;stroke:#d62728;stroke-dasharray:4.5,1.5,2.25,1.5;stroke-dashoffset:0;stroke-width:1.5;"/>
    </g>
    <g id="line2d_47"/>
    <g id="text_21">
     <!-- pcc -->
     <defs>
      <path d="M 48.78125 52.59375 
L 48.78125 44.1875 
Q 44.96875 46.296875 41.140625 47.34375 
Q 37.3125 48.390625 33.40625 48.390625 
Q 24.65625 48.390625 19.8125 42.84375 
Q 14.984375 37.3125 14.984375 27.296875 
Q 14.984375 17.28125 19.8125 11.734375 
Q 24.65625 6.203125 33.40625 6.203125 
Q 37.3125 6.203125 41.140625 7.25 
Q 44.96875 8.296875 48.78125 10.40625 
L 48.78125 2.09375 
Q 45.015625 0.34375 40.984375 -0.53125 
Q 36.96875 -1.421875 32.421875 -1.421875 
Q 20.0625 -1.421875 12.78125 6.34375 
Q 5.515625 14.109375 5.515625 27.296875 
Q 5.515625 40.671875 12.859375 48.328125 
Q 20.21875 56 33.015625 56 
Q 37.15625 56 41.109375 55.140625 
Q 45.0625 54.296875 48.78125 52.59375 
z
" id="DejaVuSans-63"/>
     </defs>
     <g transform="translate(762.499125 213.951875)scale(0.12 -0.12)">
      <use xlink:href="#DejaVuSans-70"/>
      <use x="63.476562" xlink:href="#DejaVuSans-63"/>
      <use x="118.457031" xlink:href="#DejaVuSans-63"/>
     </g>
    </g>
   </g>
  </g>
 </g>
 <defs>
  <clipPath id="pccd7bc1ff3">
   <rect height="332.64" width="669.6" x="47.803125" y="17.9"/>
  </clipPath>
 </defs>
</svg>
