<?xml version="1.0" encoding="utf-8" standalone="no"?>
<!DOCTYPE svg PUBLIC "-//W3C//DTD SVG 1.1//EN"
  "http://www.w3.org/Graphics/SVG/1.1/DTD/svg11.dtd">
<!-- Created with matplotlib (http://matplotlib.org/) -->
<svg height="388.799688pt" version="1.1" viewBox="0 0 827.356375 388.799688" width="827.356375pt" xmlns="http://www.w3.org/2000/svg" xmlns:xlink="http://www.w3.org/1999/xlink">
 <defs>
  <style type="text/css">
*{stroke-linecap:butt;stroke-linejoin:round;}
  </style>
 </defs>
 <g id="figure_1">
  <g id="patch_1">
   <path d="M 0 388.799688 
L 827.356375 388.799688 
L 827.356375 0 
L 0 0 
z
" style="fill:#ffffff;"/>
  </g>
  <g id="axes_1">
   <g id="patch_2">
    <path d="M 53.31 345.84 
L 722.91 345.84 
L 722.91 13.2 
L 53.31 13.2 
z
" style="fill:#eaeaf2;"/>
   </g>
   <g id="matplotlib.axis_1">
    <g id="xtick_1">
     <g id="line2d_1">
      <path clip-path="url(#p9179bf72dd)" d="M 121.284545 345.84 
L 121.284545 13.2 
" style="fill:none;stroke:#ffffff;stroke-linecap:round;"/>
     </g>
     <g id="text_1">
      <!-- 5 -->
      <defs>
       <path d="M 10.796875 72.90625 
L 49.515625 72.90625 
L 49.515625 64.59375 
L 19.828125 64.59375 
L 19.828125 46.734375 
Q 21.96875 47.46875 24.109375 47.828125 
Q 26.265625 48.1875 28.421875 48.1875 
Q 40.625 48.1875 47.75 41.5 
Q 54.890625 34.8125 54.890625 23.390625 
Q 54.890625 11.625 47.5625 5.09375 
Q 40.234375 -1.421875 26.90625 -1.421875 
Q 22.3125 -1.421875 17.546875 -0.640625 
Q 12.796875 0.140625 7.71875 1.703125 
L 7.71875 11.625 
Q 12.109375 9.234375 16.796875 8.0625 
Q 21.484375 6.890625 26.703125 6.890625 
Q 35.15625 6.890625 40.078125 11.328125 
Q 45.015625 15.765625 45.015625 23.390625 
Q 45.015625 31 40.078125 35.4375 
Q 35.15625 39.890625 26.703125 39.890625 
Q 22.75 39.890625 18.8125 39.015625 
Q 14.890625 38.140625 10.796875 36.28125 
z
" id="DejaVuSans-35"/>
      </defs>
      <g style="fill:#262626;" transform="translate(117.78517 363.698281)scale(0.11 -0.11)">
       <use xlink:href="#DejaVuSans-35"/>
      </g>
     </g>
    </g>
    <g id="xtick_2">
     <g id="line2d_2">
      <path clip-path="url(#p9179bf72dd)" d="M 222.739091 345.84 
L 222.739091 13.2 
" style="fill:none;stroke:#ffffff;stroke-linecap:round;"/>
     </g>
     <g id="text_2">
      <!-- 10 -->
      <defs>
       <path d="M 12.40625 8.296875 
L 28.515625 8.296875 
L 28.515625 63.921875 
L 10.984375 60.40625 
L 10.984375 69.390625 
L 28.421875 72.90625 
L 38.28125 72.90625 
L 38.28125 8.296875 
L 54.390625 8.296875 
L 54.390625 0 
L 12.40625 0 
z
" id="DejaVuSans-31"/>
       <path d="M 31.78125 66.40625 
Q 24.171875 66.40625 20.328125 58.90625 
Q 16.5 51.421875 16.5 36.375 
Q 16.5 21.390625 20.328125 13.890625 
Q 24.171875 6.390625 31.78125 6.390625 
Q 39.453125 6.390625 43.28125 13.890625 
Q 47.125 21.390625 47.125 36.375 
Q 47.125 51.421875 43.28125 58.90625 
Q 39.453125 66.40625 31.78125 66.40625 
z
M 31.78125 74.21875 
Q 44.046875 74.21875 50.515625 64.515625 
Q 56.984375 54.828125 56.984375 36.375 
Q 56.984375 17.96875 50.515625 8.265625 
Q 44.046875 -1.421875 31.78125 -1.421875 
Q 19.53125 -1.421875 13.0625 8.265625 
Q 6.59375 17.96875 6.59375 36.375 
Q 6.59375 54.828125 13.0625 64.515625 
Q 19.53125 74.21875 31.78125 74.21875 
z
" id="DejaVuSans-30"/>
      </defs>
      <g style="fill:#262626;" transform="translate(215.740341 363.698281)scale(0.11 -0.11)">
       <use xlink:href="#DejaVuSans-31"/>
       <use x="63.623047" xlink:href="#DejaVuSans-30"/>
      </g>
     </g>
    </g>
    <g id="xtick_3">
     <g id="line2d_3">
      <path clip-path="url(#p9179bf72dd)" d="M 324.193636 345.84 
L 324.193636 13.2 
" style="fill:none;stroke:#ffffff;stroke-linecap:round;"/>
     </g>
     <g id="text_3">
      <!-- 15 -->
      <g style="fill:#262626;" transform="translate(317.194886 363.698281)scale(0.11 -0.11)">
       <use xlink:href="#DejaVuSans-31"/>
       <use x="63.623047" xlink:href="#DejaVuSans-35"/>
      </g>
     </g>
    </g>
    <g id="xtick_4">
     <g id="line2d_4">
      <path clip-path="url(#p9179bf72dd)" d="M 425.648182 345.84 
L 425.648182 13.2 
" style="fill:none;stroke:#ffffff;stroke-linecap:round;"/>
     </g>
     <g id="text_4">
      <!-- 20 -->
      <defs>
       <path d="M 19.1875 8.296875 
L 53.609375 8.296875 
L 53.609375 0 
L 7.328125 0 
L 7.328125 8.296875 
Q 12.9375 14.109375 22.625 23.890625 
Q 32.328125 33.6875 34.8125 36.53125 
Q 39.546875 41.84375 41.421875 45.53125 
Q 43.3125 49.21875 43.3125 52.78125 
Q 43.3125 58.59375 39.234375 62.25 
Q 35.15625 65.921875 28.609375 65.921875 
Q 23.96875 65.921875 18.8125 64.3125 
Q 13.671875 62.703125 7.8125 59.421875 
L 7.8125 69.390625 
Q 13.765625 71.78125 18.9375 73 
Q 24.125 74.21875 28.421875 74.21875 
Q 39.75 74.21875 46.484375 68.546875 
Q 53.21875 62.890625 53.21875 53.421875 
Q 53.21875 48.921875 51.53125 44.890625 
Q 49.859375 40.875 45.40625 35.40625 
Q 44.1875 33.984375 37.640625 27.21875 
Q 31.109375 20.453125 19.1875 8.296875 
z
" id="DejaVuSans-32"/>
      </defs>
      <g style="fill:#262626;" transform="translate(418.649432 363.698281)scale(0.11 -0.11)">
       <use xlink:href="#DejaVuSans-32"/>
       <use x="63.623047" xlink:href="#DejaVuSans-30"/>
      </g>
     </g>
    </g>
    <g id="xtick_5">
     <g id="line2d_5">
      <path clip-path="url(#p9179bf72dd)" d="M 527.102727 345.84 
L 527.102727 13.2 
" style="fill:none;stroke:#ffffff;stroke-linecap:round;"/>
     </g>
     <g id="text_5">
      <!-- 25 -->
      <g style="fill:#262626;" transform="translate(520.103977 363.698281)scale(0.11 -0.11)">
       <use xlink:href="#DejaVuSans-32"/>
       <use x="63.623047" xlink:href="#DejaVuSans-35"/>
      </g>
     </g>
    </g>
    <g id="xtick_6">
     <g id="line2d_6">
      <path clip-path="url(#p9179bf72dd)" d="M 628.557273 345.84 
L 628.557273 13.2 
" style="fill:none;stroke:#ffffff;stroke-linecap:round;"/>
     </g>
     <g id="text_6">
      <!-- 30 -->
      <defs>
       <path d="M 40.578125 39.3125 
Q 47.65625 37.796875 51.625 33 
Q 55.609375 28.21875 55.609375 21.1875 
Q 55.609375 10.40625 48.1875 4.484375 
Q 40.765625 -1.421875 27.09375 -1.421875 
Q 22.515625 -1.421875 17.65625 -0.515625 
Q 12.796875 0.390625 7.625 2.203125 
L 7.625 11.71875 
Q 11.71875 9.328125 16.59375 8.109375 
Q 21.484375 6.890625 26.8125 6.890625 
Q 36.078125 6.890625 40.9375 10.546875 
Q 45.796875 14.203125 45.796875 21.1875 
Q 45.796875 27.640625 41.28125 31.265625 
Q 36.765625 34.90625 28.71875 34.90625 
L 20.21875 34.90625 
L 20.21875 43.015625 
L 29.109375 43.015625 
Q 36.375 43.015625 40.234375 45.921875 
Q 44.09375 48.828125 44.09375 54.296875 
Q 44.09375 59.90625 40.109375 62.90625 
Q 36.140625 65.921875 28.71875 65.921875 
Q 24.65625 65.921875 20.015625 65.03125 
Q 15.375 64.15625 9.8125 62.3125 
L 9.8125 71.09375 
Q 15.4375 72.65625 20.34375 73.4375 
Q 25.25 74.21875 29.59375 74.21875 
Q 40.828125 74.21875 47.359375 69.109375 
Q 53.90625 64.015625 53.90625 55.328125 
Q 53.90625 49.265625 50.4375 45.09375 
Q 46.96875 40.921875 40.578125 39.3125 
z
" id="DejaVuSans-33"/>
      </defs>
      <g style="fill:#262626;" transform="translate(621.558523 363.698281)scale(0.11 -0.11)">
       <use xlink:href="#DejaVuSans-33"/>
       <use x="63.623047" xlink:href="#DejaVuSans-30"/>
      </g>
     </g>
    </g>
    <g id="text_7">
     <!-- Time (s) -->
     <defs>
      <path d="M -0.296875 72.90625 
L 61.375 72.90625 
L 61.375 64.59375 
L 35.5 64.59375 
L 35.5 0 
L 25.59375 0 
L 25.59375 64.59375 
L -0.296875 64.59375 
z
" id="DejaVuSans-54"/>
      <path d="M 9.421875 54.6875 
L 18.40625 54.6875 
L 18.40625 0 
L 9.421875 0 
z
M 9.421875 75.984375 
L 18.40625 75.984375 
L 18.40625 64.59375 
L 9.421875 64.59375 
z
" id="DejaVuSans-69"/>
      <path d="M 52 44.1875 
Q 55.375 50.25 60.0625 53.125 
Q 64.75 56 71.09375 56 
Q 79.640625 56 84.28125 50.015625 
Q 88.921875 44.046875 88.921875 33.015625 
L 88.921875 0 
L 79.890625 0 
L 79.890625 32.71875 
Q 79.890625 40.578125 77.09375 44.375 
Q 74.3125 48.1875 68.609375 48.1875 
Q 61.625 48.1875 57.5625 43.546875 
Q 53.515625 38.921875 53.515625 30.90625 
L 53.515625 0 
L 44.484375 0 
L 44.484375 32.71875 
Q 44.484375 40.625 41.703125 44.40625 
Q 38.921875 48.1875 33.109375 48.1875 
Q 26.21875 48.1875 22.15625 43.53125 
Q 18.109375 38.875 18.109375 30.90625 
L 18.109375 0 
L 9.078125 0 
L 9.078125 54.6875 
L 18.109375 54.6875 
L 18.109375 46.1875 
Q 21.1875 51.21875 25.484375 53.609375 
Q 29.78125 56 35.6875 56 
Q 41.65625 56 45.828125 52.96875 
Q 50 49.953125 52 44.1875 
z
" id="DejaVuSans-6d"/>
      <path d="M 56.203125 29.59375 
L 56.203125 25.203125 
L 14.890625 25.203125 
Q 15.484375 15.921875 20.484375 11.0625 
Q 25.484375 6.203125 34.421875 6.203125 
Q 39.59375 6.203125 44.453125 7.46875 
Q 49.3125 8.734375 54.109375 11.28125 
L 54.109375 2.78125 
Q 49.265625 0.734375 44.1875 -0.34375 
Q 39.109375 -1.421875 33.890625 -1.421875 
Q 20.796875 -1.421875 13.15625 6.1875 
Q 5.515625 13.8125 5.515625 26.8125 
Q 5.515625 40.234375 12.765625 48.109375 
Q 20.015625 56 32.328125 56 
Q 43.359375 56 49.78125 48.890625 
Q 56.203125 41.796875 56.203125 29.59375 
z
M 47.21875 32.234375 
Q 47.125 39.59375 43.09375 43.984375 
Q 39.0625 48.390625 32.421875 48.390625 
Q 24.90625 48.390625 20.390625 44.140625 
Q 15.875 39.890625 15.1875 32.171875 
z
" id="DejaVuSans-65"/>
      <path id="DejaVuSans-20"/>
      <path d="M 31 75.875 
Q 24.46875 64.65625 21.28125 53.65625 
Q 18.109375 42.671875 18.109375 31.390625 
Q 18.109375 20.125 21.3125 9.0625 
Q 24.515625 -2 31 -13.1875 
L 23.1875 -13.1875 
Q 15.875 -1.703125 12.234375 9.375 
Q 8.59375 20.453125 8.59375 31.390625 
Q 8.59375 42.28125 12.203125 53.3125 
Q 15.828125 64.359375 23.1875 75.875 
z
" id="DejaVuSans-28"/>
      <path d="M 44.28125 53.078125 
L 44.28125 44.578125 
Q 40.484375 46.53125 36.375 47.5 
Q 32.28125 48.484375 27.875 48.484375 
Q 21.1875 48.484375 17.84375 46.4375 
Q 14.5 44.390625 14.5 40.28125 
Q 14.5 37.15625 16.890625 35.375 
Q 19.28125 33.59375 26.515625 31.984375 
L 29.59375 31.296875 
Q 39.15625 29.25 43.1875 25.515625 
Q 47.21875 21.78125 47.21875 15.09375 
Q 47.21875 7.46875 41.1875 3.015625 
Q 35.15625 -1.421875 24.609375 -1.421875 
Q 20.21875 -1.421875 15.453125 -0.5625 
Q 10.6875 0.296875 5.421875 2 
L 5.421875 11.28125 
Q 10.40625 8.6875 15.234375 7.390625 
Q 20.0625 6.109375 24.8125 6.109375 
Q 31.15625 6.109375 34.5625 8.28125 
Q 37.984375 10.453125 37.984375 14.40625 
Q 37.984375 18.0625 35.515625 20.015625 
Q 33.0625 21.96875 24.703125 23.78125 
L 21.578125 24.515625 
Q 13.234375 26.265625 9.515625 29.90625 
Q 5.8125 33.546875 5.8125 39.890625 
Q 5.8125 47.609375 11.28125 51.796875 
Q 16.75 56 26.8125 56 
Q 31.78125 56 36.171875 55.265625 
Q 40.578125 54.546875 44.28125 53.078125 
z
" id="DejaVuSans-73"/>
      <path d="M 8.015625 75.875 
L 15.828125 75.875 
Q 23.140625 64.359375 26.78125 53.3125 
Q 30.421875 42.28125 30.421875 31.390625 
Q 30.421875 20.453125 26.78125 9.375 
Q 23.140625 -1.703125 15.828125 -13.1875 
L 8.015625 -13.1875 
Q 14.5 -2 17.703125 9.0625 
Q 20.90625 20.125 20.90625 31.390625 
Q 20.90625 42.671875 17.703125 53.65625 
Q 14.5 64.65625 8.015625 75.875 
z
" id="DejaVuSans-29"/>
     </defs>
     <g style="fill:#262626;" transform="translate(363.530625 379.104062)scale(0.12 -0.12)">
      <use xlink:href="#DejaVuSans-54"/>
      <use x="61.037109" xlink:href="#DejaVuSans-69"/>
      <use x="88.820312" xlink:href="#DejaVuSans-6d"/>
      <use x="186.232422" xlink:href="#DejaVuSans-65"/>
      <use x="247.755859" xlink:href="#DejaVuSans-20"/>
      <use x="279.542969" xlink:href="#DejaVuSans-28"/>
      <use x="318.556641" xlink:href="#DejaVuSans-73"/>
      <use x="370.65625" xlink:href="#DejaVuSans-29"/>
     </g>
    </g>
   </g>
   <g id="matplotlib.axis_2">
    <g id="ytick_1">
     <g id="line2d_7">
      <path clip-path="url(#p9179bf72dd)" d="M 53.31 330.745534 
L 722.91 330.745534 
" style="fill:none;stroke:#ffffff;stroke-linecap:round;"/>
     </g>
     <g id="text_8">
      <!-- 0 -->
      <g style="fill:#262626;" transform="translate(36.81125 334.924675)scale(0.11 -0.11)">
       <use xlink:href="#DejaVuSans-30"/>
      </g>
     </g>
    </g>
    <g id="ytick_2">
     <g id="line2d_8">
      <path clip-path="url(#p9179bf72dd)" d="M 53.31 279.677393 
L 722.91 279.677393 
" style="fill:none;stroke:#ffffff;stroke-linecap:round;"/>
     </g>
     <g id="text_9">
      <!-- 20 -->
      <g style="fill:#262626;" transform="translate(29.8125 283.856533)scale(0.11 -0.11)">
       <use xlink:href="#DejaVuSans-32"/>
       <use x="63.623047" xlink:href="#DejaVuSans-30"/>
      </g>
     </g>
    </g>
    <g id="ytick_3">
     <g id="line2d_9">
      <path clip-path="url(#p9179bf72dd)" d="M 53.31 228.609251 
L 722.91 228.609251 
" style="fill:none;stroke:#ffffff;stroke-linecap:round;"/>
     </g>
     <g id="text_10">
      <!-- 40 -->
      <defs>
       <path d="M 37.796875 64.3125 
L 12.890625 25.390625 
L 37.796875 25.390625 
z
M 35.203125 72.90625 
L 47.609375 72.90625 
L 47.609375 25.390625 
L 58.015625 25.390625 
L 58.015625 17.1875 
L 47.609375 17.1875 
L 47.609375 0 
L 37.796875 0 
L 37.796875 17.1875 
L 4.890625 17.1875 
L 4.890625 26.703125 
z
" id="DejaVuSans-34"/>
      </defs>
      <g style="fill:#262626;" transform="translate(29.8125 232.788392)scale(0.11 -0.11)">
       <use xlink:href="#DejaVuSans-34"/>
       <use x="63.623047" xlink:href="#DejaVuSans-30"/>
      </g>
     </g>
    </g>
    <g id="ytick_4">
     <g id="line2d_10">
      <path clip-path="url(#p9179bf72dd)" d="M 53.31 177.54111 
L 722.91 177.54111 
" style="fill:none;stroke:#ffffff;stroke-linecap:round;"/>
     </g>
     <g id="text_11">
      <!-- 60 -->
      <defs>
       <path d="M 33.015625 40.375 
Q 26.375 40.375 22.484375 35.828125 
Q 18.609375 31.296875 18.609375 23.390625 
Q 18.609375 15.53125 22.484375 10.953125 
Q 26.375 6.390625 33.015625 6.390625 
Q 39.65625 6.390625 43.53125 10.953125 
Q 47.40625 15.53125 47.40625 23.390625 
Q 47.40625 31.296875 43.53125 35.828125 
Q 39.65625 40.375 33.015625 40.375 
z
M 52.59375 71.296875 
L 52.59375 62.3125 
Q 48.875 64.0625 45.09375 64.984375 
Q 41.3125 65.921875 37.59375 65.921875 
Q 27.828125 65.921875 22.671875 59.328125 
Q 17.53125 52.734375 16.796875 39.40625 
Q 19.671875 43.65625 24.015625 45.921875 
Q 28.375 48.1875 33.59375 48.1875 
Q 44.578125 48.1875 50.953125 41.515625 
Q 57.328125 34.859375 57.328125 23.390625 
Q 57.328125 12.15625 50.6875 5.359375 
Q 44.046875 -1.421875 33.015625 -1.421875 
Q 20.359375 -1.421875 13.671875 8.265625 
Q 6.984375 17.96875 6.984375 36.375 
Q 6.984375 53.65625 15.1875 63.9375 
Q 23.390625 74.21875 37.203125 74.21875 
Q 40.921875 74.21875 44.703125 73.484375 
Q 48.484375 72.75 52.59375 71.296875 
z
" id="DejaVuSans-36"/>
      </defs>
      <g style="fill:#262626;" transform="translate(29.8125 181.72025)scale(0.11 -0.11)">
       <use xlink:href="#DejaVuSans-36"/>
       <use x="63.623047" xlink:href="#DejaVuSans-30"/>
      </g>
     </g>
    </g>
    <g id="ytick_5">
     <g id="line2d_11">
      <path clip-path="url(#p9179bf72dd)" d="M 53.31 126.472968 
L 722.91 126.472968 
" style="fill:none;stroke:#ffffff;stroke-linecap:round;"/>
     </g>
     <g id="text_12">
      <!-- 80 -->
      <defs>
       <path d="M 31.78125 34.625 
Q 24.75 34.625 20.71875 30.859375 
Q 16.703125 27.09375 16.703125 20.515625 
Q 16.703125 13.921875 20.71875 10.15625 
Q 24.75 6.390625 31.78125 6.390625 
Q 38.8125 6.390625 42.859375 10.171875 
Q 46.921875 13.96875 46.921875 20.515625 
Q 46.921875 27.09375 42.890625 30.859375 
Q 38.875 34.625 31.78125 34.625 
z
M 21.921875 38.8125 
Q 15.578125 40.375 12.03125 44.71875 
Q 8.5 49.078125 8.5 55.328125 
Q 8.5 64.0625 14.71875 69.140625 
Q 20.953125 74.21875 31.78125 74.21875 
Q 42.671875 74.21875 48.875 69.140625 
Q 55.078125 64.0625 55.078125 55.328125 
Q 55.078125 49.078125 51.53125 44.71875 
Q 48 40.375 41.703125 38.8125 
Q 48.828125 37.15625 52.796875 32.3125 
Q 56.78125 27.484375 56.78125 20.515625 
Q 56.78125 9.90625 50.3125 4.234375 
Q 43.84375 -1.421875 31.78125 -1.421875 
Q 19.734375 -1.421875 13.25 4.234375 
Q 6.78125 9.90625 6.78125 20.515625 
Q 6.78125 27.484375 10.78125 32.3125 
Q 14.796875 37.15625 21.921875 38.8125 
z
M 18.3125 54.390625 
Q 18.3125 48.734375 21.84375 45.5625 
Q 25.390625 42.390625 31.78125 42.390625 
Q 38.140625 42.390625 41.71875 45.5625 
Q 45.3125 48.734375 45.3125 54.390625 
Q 45.3125 60.0625 41.71875 63.234375 
Q 38.140625 66.40625 31.78125 66.40625 
Q 25.390625 66.40625 21.84375 63.234375 
Q 18.3125 60.0625 18.3125 54.390625 
z
" id="DejaVuSans-38"/>
      </defs>
      <g style="fill:#262626;" transform="translate(29.8125 130.652109)scale(0.11 -0.11)">
       <use xlink:href="#DejaVuSans-38"/>
       <use x="63.623047" xlink:href="#DejaVuSans-30"/>
      </g>
     </g>
    </g>
    <g id="ytick_6">
     <g id="line2d_12">
      <path clip-path="url(#p9179bf72dd)" d="M 53.31 75.404826 
L 722.91 75.404826 
" style="fill:none;stroke:#ffffff;stroke-linecap:round;"/>
     </g>
     <g id="text_13">
      <!-- 100 -->
      <g style="fill:#262626;" transform="translate(22.81375 79.583967)scale(0.11 -0.11)">
       <use xlink:href="#DejaVuSans-31"/>
       <use x="63.623047" xlink:href="#DejaVuSans-30"/>
       <use x="127.246094" xlink:href="#DejaVuSans-30"/>
      </g>
     </g>
    </g>
    <g id="ytick_7">
     <g id="line2d_13">
      <path clip-path="url(#p9179bf72dd)" d="M 53.31 24.336685 
L 722.91 24.336685 
" style="fill:none;stroke:#ffffff;stroke-linecap:round;"/>
     </g>
     <g id="text_14">
      <!-- 120 -->
      <g style="fill:#262626;" transform="translate(22.81375 28.515826)scale(0.11 -0.11)">
       <use xlink:href="#DejaVuSans-31"/>
       <use x="63.623047" xlink:href="#DejaVuSans-32"/>
       <use x="127.246094" xlink:href="#DejaVuSans-30"/>
      </g>
     </g>
    </g>
    <g id="text_15">
     <!-- Sending Rate (Mbit/s) -->
     <defs>
      <path d="M 53.515625 70.515625 
L 53.515625 60.890625 
Q 47.90625 63.578125 42.921875 64.890625 
Q 37.9375 66.21875 33.296875 66.21875 
Q 25.25 66.21875 20.875 63.09375 
Q 16.5 59.96875 16.5 54.203125 
Q 16.5 49.359375 19.40625 46.890625 
Q 22.3125 44.4375 30.421875 42.921875 
L 36.375 41.703125 
Q 47.40625 39.59375 52.65625 34.296875 
Q 57.90625 29 57.90625 20.125 
Q 57.90625 9.515625 50.796875 4.046875 
Q 43.703125 -1.421875 29.984375 -1.421875 
Q 24.8125 -1.421875 18.96875 -0.25 
Q 13.140625 0.921875 6.890625 3.21875 
L 6.890625 13.375 
Q 12.890625 10.015625 18.65625 8.296875 
Q 24.421875 6.59375 29.984375 6.59375 
Q 38.421875 6.59375 43.015625 9.90625 
Q 47.609375 13.234375 47.609375 19.390625 
Q 47.609375 24.75 44.3125 27.78125 
Q 41.015625 30.8125 33.5 32.328125 
L 27.484375 33.5 
Q 16.453125 35.6875 11.515625 40.375 
Q 6.59375 45.0625 6.59375 53.421875 
Q 6.59375 63.09375 13.40625 68.65625 
Q 20.21875 74.21875 32.171875 74.21875 
Q 37.3125 74.21875 42.625 73.28125 
Q 47.953125 72.359375 53.515625 70.515625 
z
" id="DejaVuSans-53"/>
      <path d="M 54.890625 33.015625 
L 54.890625 0 
L 45.90625 0 
L 45.90625 32.71875 
Q 45.90625 40.484375 42.875 44.328125 
Q 39.84375 48.1875 33.796875 48.1875 
Q 26.515625 48.1875 22.3125 43.546875 
Q 18.109375 38.921875 18.109375 30.90625 
L 18.109375 0 
L 9.078125 0 
L 9.078125 54.6875 
L 18.109375 54.6875 
L 18.109375 46.1875 
Q 21.34375 51.125 25.703125 53.5625 
Q 30.078125 56 35.796875 56 
Q 45.21875 56 50.046875 50.171875 
Q 54.890625 44.34375 54.890625 33.015625 
z
" id="DejaVuSans-6e"/>
      <path d="M 45.40625 46.390625 
L 45.40625 75.984375 
L 54.390625 75.984375 
L 54.390625 0 
L 45.40625 0 
L 45.40625 8.203125 
Q 42.578125 3.328125 38.25 0.953125 
Q 33.9375 -1.421875 27.875 -1.421875 
Q 17.96875 -1.421875 11.734375 6.484375 
Q 5.515625 14.40625 5.515625 27.296875 
Q 5.515625 40.1875 11.734375 48.09375 
Q 17.96875 56 27.875 56 
Q 33.9375 56 38.25 53.625 
Q 42.578125 51.265625 45.40625 46.390625 
z
M 14.796875 27.296875 
Q 14.796875 17.390625 18.875 11.75 
Q 22.953125 6.109375 30.078125 6.109375 
Q 37.203125 6.109375 41.296875 11.75 
Q 45.40625 17.390625 45.40625 27.296875 
Q 45.40625 37.203125 41.296875 42.84375 
Q 37.203125 48.484375 30.078125 48.484375 
Q 22.953125 48.484375 18.875 42.84375 
Q 14.796875 37.203125 14.796875 27.296875 
z
" id="DejaVuSans-64"/>
      <path d="M 45.40625 27.984375 
Q 45.40625 37.75 41.375 43.109375 
Q 37.359375 48.484375 30.078125 48.484375 
Q 22.859375 48.484375 18.828125 43.109375 
Q 14.796875 37.75 14.796875 27.984375 
Q 14.796875 18.265625 18.828125 12.890625 
Q 22.859375 7.515625 30.078125 7.515625 
Q 37.359375 7.515625 41.375 12.890625 
Q 45.40625 18.265625 45.40625 27.984375 
z
M 54.390625 6.78125 
Q 54.390625 -7.171875 48.1875 -13.984375 
Q 42 -20.796875 29.203125 -20.796875 
Q 24.46875 -20.796875 20.265625 -20.09375 
Q 16.0625 -19.390625 12.109375 -17.921875 
L 12.109375 -9.1875 
Q 16.0625 -11.328125 19.921875 -12.34375 
Q 23.78125 -13.375 27.78125 -13.375 
Q 36.625 -13.375 41.015625 -8.765625 
Q 45.40625 -4.15625 45.40625 5.171875 
L 45.40625 9.625 
Q 42.625 4.78125 38.28125 2.390625 
Q 33.9375 0 27.875 0 
Q 17.828125 0 11.671875 7.65625 
Q 5.515625 15.328125 5.515625 27.984375 
Q 5.515625 40.671875 11.671875 48.328125 
Q 17.828125 56 27.875 56 
Q 33.9375 56 38.28125 53.609375 
Q 42.625 51.21875 45.40625 46.390625 
L 45.40625 54.6875 
L 54.390625 54.6875 
z
" id="DejaVuSans-67"/>
      <path d="M 44.390625 34.1875 
Q 47.5625 33.109375 50.5625 29.59375 
Q 53.5625 26.078125 56.59375 19.921875 
L 66.609375 0 
L 56 0 
L 46.6875 18.703125 
Q 43.0625 26.03125 39.671875 28.421875 
Q 36.28125 30.8125 30.421875 30.8125 
L 19.671875 30.8125 
L 19.671875 0 
L 9.8125 0 
L 9.8125 72.90625 
L 32.078125 72.90625 
Q 44.578125 72.90625 50.734375 67.671875 
Q 56.890625 62.453125 56.890625 51.90625 
Q 56.890625 45.015625 53.6875 40.46875 
Q 50.484375 35.9375 44.390625 34.1875 
z
M 19.671875 64.796875 
L 19.671875 38.921875 
L 32.078125 38.921875 
Q 39.203125 38.921875 42.84375 42.21875 
Q 46.484375 45.515625 46.484375 51.90625 
Q 46.484375 58.296875 42.84375 61.546875 
Q 39.203125 64.796875 32.078125 64.796875 
z
" id="DejaVuSans-52"/>
      <path d="M 34.28125 27.484375 
Q 23.390625 27.484375 19.1875 25 
Q 14.984375 22.515625 14.984375 16.5 
Q 14.984375 11.71875 18.140625 8.90625 
Q 21.296875 6.109375 26.703125 6.109375 
Q 34.1875 6.109375 38.703125 11.40625 
Q 43.21875 16.703125 43.21875 25.484375 
L 43.21875 27.484375 
z
M 52.203125 31.203125 
L 52.203125 0 
L 43.21875 0 
L 43.21875 8.296875 
Q 40.140625 3.328125 35.546875 0.953125 
Q 30.953125 -1.421875 24.3125 -1.421875 
Q 15.921875 -1.421875 10.953125 3.296875 
Q 6 8.015625 6 15.921875 
Q 6 25.140625 12.171875 29.828125 
Q 18.359375 34.515625 30.609375 34.515625 
L 43.21875 34.515625 
L 43.21875 35.40625 
Q 43.21875 41.609375 39.140625 45 
Q 35.0625 48.390625 27.6875 48.390625 
Q 23 48.390625 18.546875 47.265625 
Q 14.109375 46.140625 10.015625 43.890625 
L 10.015625 52.203125 
Q 14.9375 54.109375 19.578125 55.046875 
Q 24.21875 56 28.609375 56 
Q 40.484375 56 46.34375 49.84375 
Q 52.203125 43.703125 52.203125 31.203125 
z
" id="DejaVuSans-61"/>
      <path d="M 18.3125 70.21875 
L 18.3125 54.6875 
L 36.8125 54.6875 
L 36.8125 47.703125 
L 18.3125 47.703125 
L 18.3125 18.015625 
Q 18.3125 11.328125 20.140625 9.421875 
Q 21.96875 7.515625 27.59375 7.515625 
L 36.8125 7.515625 
L 36.8125 0 
L 27.59375 0 
Q 17.1875 0 13.234375 3.875 
Q 9.28125 7.765625 9.28125 18.015625 
L 9.28125 47.703125 
L 2.6875 47.703125 
L 2.6875 54.6875 
L 9.28125 54.6875 
L 9.28125 70.21875 
z
" id="DejaVuSans-74"/>
      <path d="M 9.8125 72.90625 
L 24.515625 72.90625 
L 43.109375 23.296875 
L 61.8125 72.90625 
L 76.515625 72.90625 
L 76.515625 0 
L 66.890625 0 
L 66.890625 64.015625 
L 48.09375 14.015625 
L 38.1875 14.015625 
L 19.390625 64.015625 
L 19.390625 0 
L 9.8125 0 
z
" id="DejaVuSans-4d"/>
      <path d="M 48.6875 27.296875 
Q 48.6875 37.203125 44.609375 42.84375 
Q 40.53125 48.484375 33.40625 48.484375 
Q 26.265625 48.484375 22.1875 42.84375 
Q 18.109375 37.203125 18.109375 27.296875 
Q 18.109375 17.390625 22.1875 11.75 
Q 26.265625 6.109375 33.40625 6.109375 
Q 40.53125 6.109375 44.609375 11.75 
Q 48.6875 17.390625 48.6875 27.296875 
z
M 18.109375 46.390625 
Q 20.953125 51.265625 25.265625 53.625 
Q 29.59375 56 35.59375 56 
Q 45.5625 56 51.78125 48.09375 
Q 58.015625 40.1875 58.015625 27.296875 
Q 58.015625 14.40625 51.78125 6.484375 
Q 45.5625 -1.421875 35.59375 -1.421875 
Q 29.59375 -1.421875 25.265625 0.953125 
Q 20.953125 3.328125 18.109375 8.203125 
L 18.109375 0 
L 9.078125 0 
L 9.078125 75.984375 
L 18.109375 75.984375 
z
" id="DejaVuSans-62"/>
      <path d="M 25.390625 72.90625 
L 33.6875 72.90625 
L 8.296875 -9.28125 
L 0 -9.28125 
z
" id="DejaVuSans-2f"/>
     </defs>
     <g style="fill:#262626;" transform="translate(16.318125 244.446563)rotate(-90)scale(0.12 -0.12)">
      <use xlink:href="#DejaVuSans-53"/>
      <use x="63.476562" xlink:href="#DejaVuSans-65"/>
      <use x="125" xlink:href="#DejaVuSans-6e"/>
      <use x="188.378906" xlink:href="#DejaVuSans-64"/>
      <use x="251.855469" xlink:href="#DejaVuSans-69"/>
      <use x="279.638672" xlink:href="#DejaVuSans-6e"/>
      <use x="343.017578" xlink:href="#DejaVuSans-67"/>
      <use x="406.494141" xlink:href="#DejaVuSans-20"/>
      <use x="438.28125" xlink:href="#DejaVuSans-52"/>
      <use x="507.732422" xlink:href="#DejaVuSans-61"/>
      <use x="569.011719" xlink:href="#DejaVuSans-74"/>
      <use x="608.220703" xlink:href="#DejaVuSans-65"/>
      <use x="669.744141" xlink:href="#DejaVuSans-20"/>
      <use x="701.53125" xlink:href="#DejaVuSans-28"/>
      <use x="740.544922" xlink:href="#DejaVuSans-4d"/>
      <use x="826.824219" xlink:href="#DejaVuSans-62"/>
      <use x="890.300781" xlink:href="#DejaVuSans-69"/>
      <use x="918.083984" xlink:href="#DejaVuSans-74"/>
      <use x="957.292969" xlink:href="#DejaVuSans-2f"/>
      <use x="990.984375" xlink:href="#DejaVuSans-73"/>
      <use x="1043.083984" xlink:href="#DejaVuSans-29"/>
     </g>
    </g>
   </g>
   <g id="line2d_14">
    <path clip-path="url(#p9179bf72dd)" d="M 83.746364 328.677274 
L 86.79 325.842992 
L 89.833636 307.867007 
L 92.877273 243.316876 
L 95.920909 128.311421 
L 98.964545 205.934996 
L 102.008182 227.792161 
L 105.051818 220.029803 
L 108.095455 202.462363 
L 111.139091 201.441 
L 114.182727 202.462363 
L 117.226364 201.645272 
L 120.27 202.053817 
L 132.444545 202.053817 
L 135.488182 202.462363 
L 138.531818 203.279453 
L 141.575455 201.849545 
L 144.619091 201.849545 
L 147.662727 203.279453 
L 150.706364 201.645272 
L 153.75 203.07518 
L 156.793636 202.666635 
L 159.837273 201.645272 
L 162.880909 203.687998 
L 165.924545 204.096543 
L 168.968182 200.828182 
L 172.011818 204.096543 
L 175.055455 201.645272 
L 178.099091 202.870908 
L 181.142727 203.892271 
L 184.186364 201.441 
L 187.23 203.892271 
L 190.273636 203.892271 
L 193.317273 202.053817 
L 196.360909 202.053817 
L 199.404545 203.687998 
L 202.448182 202.462363 
L 205.491818 226.15798 
L 208.535455 213.084536 
L 211.579091 203.483725 
L 214.622727 202.870908 
L 217.666364 202.053817 
L 220.71 201.032455 
L 223.753636 202.462363 
L 226.797273 201.032455 
L 229.840909 201.441 
L 232.884545 201.236727 
L 235.928182 202.462363 
L 238.971818 202.870908 
L 242.015455 200.828182 
L 245.059091 202.462363 
L 248.102727 202.870908 
L 251.146364 202.870908 
L 254.19 200.419637 
L 257.233636 202.25809 
L 260.277273 202.25809 
L 263.320909 202.462363 
L 266.364545 201.645272 
L 269.408182 203.279453 
L 272.451818 202.870908 
L 275.495455 202.053817 
L 278.539091 202.462363 
L 281.582727 202.462363 
L 284.626364 203.483725 
L 287.67 202.666635 
L 290.713636 203.07518 
L 293.757273 201.849545 
L 296.800909 202.870908 
L 299.844545 203.687998 
L 302.888182 201.645272 
L 305.931818 210.22472 
L 308.975455 195.92564 
L 312.019091 202.666635 
L 315.062727 202.870908 
L 318.106364 203.279453 
L 324.193636 202.870908 
L 327.237273 203.687998 
L 330.280909 202.462363 
L 333.324545 203.687998 
L 336.368182 202.462363 
L 339.411818 203.483725 
L 342.455455 203.07518 
L 345.499091 203.279453 
L 348.542727 202.25809 
L 351.586364 203.687998 
L 354.63 203.279453 
L 357.673636 203.07518 
L 360.717273 203.483725 
L 363.760909 202.666635 
L 366.804545 202.25809 
L 369.848182 203.279453 
L 372.891818 203.892271 
L 375.935455 202.25809 
L 378.979091 203.892271 
L 382.022727 202.870908 
L 385.066364 202.053817 
L 388.11 203.483725 
L 391.153636 202.666635 
L 394.197273 203.07518 
L 397.240909 202.25809 
L 400.284545 202.870908 
L 403.328182 203.279453 
L 406.371818 217.169987 
L 409.415455 187.550465 
L 412.459091 203.483725 
L 415.502727 202.666635 
L 418.546364 203.07518 
L 421.59 202.25809 
L 424.633636 202.462363 
L 427.677273 203.07518 
L 430.720909 202.25809 
L 433.764545 203.892271 
L 436.808182 201.645272 
L 439.851818 201.236727 
L 442.895455 203.687998 
L 445.939091 201.645272 
L 448.982727 205.730724 
L 452.026364 198.581184 
L 455.07 202.25809 
L 458.113636 202.462363 
L 461.157273 201.645272 
L 464.200909 202.870908 
L 467.244545 201.645272 
L 470.288182 201.645272 
L 473.331818 201.441 
L 476.375455 201.849545 
L 479.419091 201.849545 
L 482.462727 202.462363 
L 485.506364 200.828182 
L 488.55 201.645272 
L 491.593636 201.032455 
L 494.637273 202.462363 
L 497.680909 200.011092 
L 500.724545 201.645272 
L 503.768182 200.828182 
L 506.811818 213.288809 
L 509.855455 246.176692 
L 512.899091 212.880263 
L 515.942727 213.901626 
L 518.986364 211.450355 
L 522.03 209.40763 
L 525.073636 208.181994 
L 528.117273 207.773449 
L 531.160909 204.913633 
L 534.204545 206.547814 
L 537.248182 202.053817 
L 540.291818 202.462363 
L 543.335455 203.279453 
L 546.379091 201.236727 
L 549.422727 202.870908 
L 552.466364 203.07518 
L 555.51 201.441 
L 558.553636 204.505088 
L 561.597273 201.441 
L 564.640909 203.483725 
L 567.684545 203.687998 
L 570.728182 201.645272 
L 573.771818 202.462363 
L 576.815455 203.483725 
L 579.859091 202.25809 
L 585.946364 203.07518 
L 588.99 203.687998 
L 592.033636 202.462363 
L 595.077273 203.687998 
L 598.120909 201.645272 
L 601.164545 204.505088 
L 604.208182 201.236727 
L 607.251818 204.300816 
L 610.295455 214.922989 
L 613.339091 198.989729 
L 616.382727 201.032455 
L 619.426364 203.687998 
L 622.47 202.462363 
L 625.513636 203.483725 
L 628.557273 203.07518 
L 631.600909 204.709361 
L 634.644545 201.849545 
L 637.688182 202.870908 
L 640.731818 204.096543 
L 643.775455 202.870908 
L 646.819091 203.279453 
L 649.862727 202.870908 
L 652.906364 202.053817 
L 655.95 202.870908 
L 658.993636 203.279453 
L 662.037273 202.870908 
L 665.080909 203.279453 
L 668.124545 202.462363 
L 671.168182 203.07518 
L 674.211818 203.07518 
L 677.255455 203.687998 
L 680.299091 202.25809 
L 683.342727 201.849545 
L 686.386364 203.07518 
L 689.43 203.07518 
L 692.473636 287.031205 
L 692.473636 287.031205 
" style="fill:none;stroke:#4c72b0;stroke-linecap:round;stroke-width:1.5;"/>
   </g>
   <g id="line2d_15">
    <path clip-path="url(#p9179bf72dd)" d="M 83.746364 328.677274 
L 86.79 326.251538 
L 89.833636 313.178093 
L 92.877273 274.162033 
L 95.920909 139.34214 
L 98.964545 129.332784 
L 102.008182 201.236727 
L 105.051818 123.204607 
L 108.095455 201.441 
L 111.139091 259.454409 
L 114.182727 200.419637 
L 117.226364 201.441 
L 120.27 201.032455 
L 123.313636 196.538458 
L 126.357273 205.934996 
L 129.400909 200.828182 
L 132.444545 201.236727 
L 135.488182 184.077832 
L 138.531818 218.395623 
L 141.575455 200.828182 
L 144.619091 201.236727 
L 147.662727 197.355548 
L 150.706364 205.322179 
L 153.75 201.441 
L 156.793636 201.236727 
L 159.837273 200.828182 
L 162.880909 187.550465 
L 165.924545 215.740079 
L 168.968182 200.828182 
L 172.011818 201.236727 
L 175.055455 194.087187 
L 178.099091 210.020448 
L 181.142727 204.709361 
L 184.186364 201.849545 
L 187.23 201.849545 
L 190.273636 191.023099 
L 193.317273 212.267446 
L 196.360909 202.870908 
L 199.404545 201.645272 
L 202.448182 189.593191 
L 205.491818 214.105899 
L 208.535455 202.666635 
L 214.622727 201.032455 
L 217.666364 195.721368 
L 220.71 207.569177 
L 223.753636 202.870908 
L 226.797273 201.236727 
L 229.840909 184.282104 
L 232.884545 217.169987 
L 235.928182 216.352897 
L 238.971818 200.419637 
L 242.015455 198.785456 
L 245.059091 202.462363 
L 248.102727 201.236727 
L 251.146364 200.828182 
L 254.19 201.645272 
L 257.233636 186.733375 
L 260.277273 215.944352 
L 263.320909 201.849545 
L 266.364545 201.645272 
L 269.408182 194.495733 
L 272.451818 208.794812 
L 275.495455 203.892271 
L 278.539091 202.053817 
L 281.582727 201.645272 
L 284.626364 191.840189 
L 287.67 211.654628 
L 290.713636 203.279453 
L 293.757273 201.645272 
L 296.800909 189.184646 
L 299.844545 291.116656 
L 302.888182 329.111354 
L 305.931818 321.757541 
L 308.975455 201.645272 
L 312.019091 200.828182 
L 315.062727 200.828182 
L 318.106364 189.388918 
L 321.15 211.858901 
L 324.193636 200.828182 
L 327.237273 200.828182 
L 330.280909 188.776101 
L 333.324545 212.063173 
L 336.368182 200.828182 
L 339.411818 200.419637 
L 342.455455 200.828182 
L 345.499091 195.721368 
L 348.542727 205.117906 
L 351.586364 200.828182 
L 354.63 200.011092 
L 357.673636 182.239379 
L 360.717273 218.19135 
L 363.760909 200.828182 
L 366.804545 200.828182 
L 369.848182 196.742731 
L 372.891818 205.730724 
L 375.935455 202.462363 
L 378.979091 202.666635 
L 382.022727 200.828182 
L 385.066364 189.388918 
L 388.11 214.922989 
L 391.153636 200.828182 
L 394.197273 201.645272 
L 397.240909 190.410281 
L 400.284545 212.880263 
L 403.328182 204.709361 
L 406.371818 201.236727 
L 409.415455 201.645272 
L 412.459091 196.334186 
L 415.502727 205.934996 
L 418.546364 203.892271 
L 421.59 201.236727 
L 424.633636 185.303467 
L 427.677273 220.029803 
L 430.720909 202.053817 
L 433.764545 202.462363 
L 436.808182 197.151276 
L 439.851818 205.322179 
L 442.895455 202.666635 
L 445.939091 201.849545 
L 448.982727 200.828182 
L 452.026364 189.184646 
L 455.07 213.288809 
L 458.113636 203.483725 
L 461.157273 200.828182 
L 464.200909 190.614554 
L 467.244545 211.04181 
L 470.288182 203.687998 
L 473.331818 202.053817 
L 476.375455 201.645272 
L 479.419091 194.700005 
L 482.462727 208.794812 
L 485.506364 200.419637 
L 488.55 201.236727 
L 491.593636 185.303467 
L 494.637273 217.987078 
L 497.680909 204.505088 
L 500.724545 202.053817 
L 503.768182 198.172639 
L 506.811818 205.322179 
L 509.855455 200.419637 
L 512.899091 308.071279 
L 515.942727 329.111354 
L 518.986364 295.40638 
L 522.03 188.980373 
L 525.073636 213.901626 
L 528.117273 201.645272 
L 531.160909 201.645272 
L 534.204545 191.431644 
L 537.248182 209.816175 
L 540.291818 221.051166 
L 543.335455 200.215364 
L 546.379091 201.236727 
L 549.422727 192.453007 
L 552.466364 210.020448 
L 555.51 200.828182 
L 558.553636 201.645272 
L 561.597273 187.754738 
L 564.640909 215.127262 
L 567.684545 201.236727 
L 570.728182 201.236727 
L 573.771818 200.419637 
L 576.815455 198.172639 
L 579.859091 205.117906 
L 582.902727 200.828182 
L 585.946364 200.828182 
L 588.99 185.50774 
L 592.033636 217.37426 
L 595.077273 201.645272 
L 598.120909 200.828182 
L 601.164545 194.700005 
L 604.208182 208.181994 
L 607.251818 200.828182 
L 610.295455 200.828182 
L 613.339091 201.645272 
L 616.382727 192.044462 
L 619.426364 211.246083 
L 622.47 203.892271 
L 625.513636 201.645272 
L 628.557273 189.593191 
L 631.600909 213.288809 
L 634.644545 204.300816 
L 637.688182 201.441 
L 640.731818 201.645272 
L 643.775455 196.334186 
L 646.819091 207.773449 
L 649.862727 201.441 
L 652.906364 201.645272 
L 655.95 184.282104 
L 658.993636 218.804168 
L 662.037273 202.462363 
L 665.080909 202.053817 
L 668.124545 198.376911 
L 671.168182 204.913633 
L 674.211818 202.666635 
L 677.255455 202.870908 
L 680.299091 201.645272 
L 683.342727 188.367556 
L 686.386364 214.922989 
L 689.43 203.279453 
L 692.473636 283.762844 
L 692.473636 283.762844 
" style="fill:none;stroke:#dd8452;stroke-dasharray:6,2.25;stroke-dashoffset:0;stroke-width:1.5;"/>
   </g>
   <g id="line2d_16">
    <path clip-path="url(#p9179bf72dd)" d="M 86.79 330.72 
L 89.833636 328.089991 
L 92.877273 322.651234 
L 95.920909 315.195285 
L 98.964545 296.810754 
L 102.008182 261.165191 
L 105.051818 178.3582 
L 108.095455 28.32 
L 111.139091 247.402327 
L 114.182727 247.989611 
L 117.226364 248.704565 
L 120.27 248.270486 
L 123.313636 246.968248 
L 126.357273 247.04485 
L 129.400909 246.866112 
L 132.444545 245.614942 
L 135.488182 245.206397 
L 138.531818 242.550854 
L 141.575455 241.529491 
L 144.619091 239.384629 
L 147.662727 236.014132 
L 150.706364 234.482087 
L 153.75 229.60508 
L 156.793636 227.945365 
L 159.837273 221.63845 
L 162.880909 218.702032 
L 165.924545 213.186672 
L 168.968182 206.547814 
L 172.011818 202.462363 
L 175.055455 212.369582 
L 178.099091 213.773956 
L 181.142727 214.208035 
L 187.23 212.880263 
L 190.273636 215.842216 
L 193.317273 211.756764 
L 196.360909 212.956866 
L 199.404545 216.046488 
L 202.448182 212.369582 
L 205.491818 211.552492 
L 208.535455 209.203357 
L 211.579091 210.301322 
L 214.622727 212.573855 
L 217.666364 211.450355 
L 220.71 211.552492 
L 223.753636 210.301322 
L 226.797273 210.428993 
L 229.840909 209.484232 
L 232.884545 208.181994 
L 235.928182 205.807326 
L 238.971818 204.096543 
L 242.015455 200.215364 
L 245.059091 201.006921 
L 248.102727 203.662464 
L 251.146364 205.909462 
L 254.19 203.7646 
L 257.233636 206.139269 
L 260.277273 205.730724 
L 263.320909 205.603053 
L 266.364545 208.386267 
L 269.408182 208.054324 
L 272.451818 206.752086 
L 275.495455 205.322179 
L 278.539091 206.624416 
L 281.582727 204.913633 
L 284.626364 204.709361 
L 287.67 205.092372 
L 290.713636 202.334692 
L 293.757273 202.870908 
L 296.800909 205.909462 
L 299.844545 203.483725 
L 302.888182 204.275282 
L 305.931818 206.011598 
L 308.975455 206.547814 
L 312.019091 204.505088 
L 315.062727 202.232556 
L 318.106364 206.215871 
L 321.15 207.160632 
L 324.193636 206.828689 
L 327.237273 203.279453 
L 330.280909 205.526451 
L 333.324545 201.211193 
L 336.368182 207.237234 
L 339.411818 208.181994 
L 342.455455 209.484232 
L 345.499091 207.977722 
L 348.542727 207.237234 
L 351.586364 208.360733 
L 354.63 206.547814 
L 357.673636 206.828689 
L 360.717273 208.386267 
L 366.804545 210.91414 
L 369.848182 208.794812 
L 372.891818 208.462869 
L 375.935455 207.977722 
L 378.979091 209.484232 
L 385.066364 209.688505 
L 388.11 210.91414 
L 391.153636 212.471718 
L 394.197273 211.118413 
L 397.240909 210.301322 
L 400.284545 209.816175 
L 403.328182 209.484232 
L 406.371818 208.667142 
L 409.415455 208.794812 
L 412.459091 207.850052 
L 415.502727 206.139269 
L 418.546364 203.892271 
L 421.59 202.641101 
L 424.633636 204.785963 
L 427.677273 206.752086 
L 430.720909 207.569177 
L 433.764545 205.398781 
L 436.808182 205.092372 
L 439.851818 205.322179 
L 442.895455 203.253919 
L 445.939091 202.538965 
L 448.982727 199.296138 
L 452.026364 198.55565 
L 455.07 201.645272 
L 458.113636 202.641101 
L 461.157273 202.845374 
L 464.200909 202.13042 
L 467.244545 203.892271 
L 470.288182 202.436829 
L 473.331818 201.824011 
L 476.375455 204.096543 
L 479.419091 201.441 
L 482.462727 205.500917 
L 485.506364 204.990236 
L 488.55 205.296644 
L 491.593636 206.343541 
L 494.637273 207.645779 
L 497.680909 209.586368 
L 500.724545 211.73123 
L 503.768182 209.279959 
L 506.811818 208.181994 
L 509.855455 209.484232 
L 512.899091 207.569177 
L 515.942727 206.828689 
L 518.986364 205.934996 
L 522.03 210.09705 
L 525.073636 205.934996 
L 528.117273 210.09705 
L 531.160909 208.794812 
L 534.204545 207.237234 
L 537.248182 208.386267 
L 540.291818 208.871414 
L 543.335455 211.450355 
L 546.379091 210.505595 
L 549.422727 211.322685 
L 555.51 214.61658 
L 558.553636 216.633772 
L 561.597273 214.591046 
L 564.640909 212.880263 
L 567.684545 211.935503 
L 570.728182 213.595217 
L 576.815455 213.978228 
L 579.859091 215.025125 
L 582.902727 216.429499 
L 585.946364 218.88077 
L 588.99 219.723394 
L 592.033636 216.761442 
L 595.077273 216.455033 
L 598.120909 217.476396 
L 601.164545 215.433671 
L 604.208182 215.637943 
L 607.251818 217.450862 
L 610.295455 214.208035 
L 613.339091 215.842216 
L 616.382727 218.676498 
L 619.426364 214.999591 
L 622.47 218.676498 
L 625.513636 219.621258 
L 628.557273 213.084536 
L 631.600909 215.612409 
L 634.644545 217.169987 
L 637.688182 211.858901 
L 640.731818 218.497759 
L 643.775455 221.025632 
L 646.819091 211.552492 
L 649.862727 222.378938 
L 652.906364 220.540485 
L 655.95 210.531129 
L 658.993636 212.139775 
L 662.037273 216.455033 
L 665.080909 216.659306 
L 668.124545 216.659306 
L 671.168182 216.863578 
L 674.211818 215.203864 
L 677.255455 213.79949 
L 680.299091 212.752593 
L 686.386364 215.203864 
L 689.43 216.225227 
L 692.473636 290.146362 
L 692.473636 290.146362 
" style="fill:none;stroke:#55a868;stroke-dasharray:1.5,1.5;stroke-dashoffset:0;stroke-width:1.5;"/>
   </g>
   <g id="line2d_17"/>
   <g id="line2d_18"/>
   <g id="line2d_19"/>
   <g id="line2d_20"/>
   <g id="patch_3">
    <path d="M 53.31 345.84 
L 53.31 13.2 
" style="fill:none;stroke:#ffffff;stroke-linecap:square;stroke-linejoin:miter;stroke-width:1.25;"/>
   </g>
   <g id="patch_4">
    <path d="M 722.91 345.84 
L 722.91 13.2 
" style="fill:none;stroke:#ffffff;stroke-linecap:square;stroke-linejoin:miter;stroke-width:1.25;"/>
   </g>
   <g id="patch_5">
    <path d="M 53.31 345.84 
L 722.91 345.84 
" style="fill:none;stroke:#ffffff;stroke-linecap:square;stroke-linejoin:miter;stroke-width:1.25;"/>
   </g>
   <g id="patch_6">
    <path d="M 53.31 13.2 
L 722.91 13.2 
" style="fill:none;stroke:#ffffff;stroke-linecap:square;stroke-linejoin:miter;stroke-width:1.25;"/>
   </g>
   <g id="legend_1">
    <g id="patch_7">
     <path d="M 738.502 345.84 
L 817.956375 345.84 
Q 820.156375 345.84 820.156375 343.64 
L 820.156375 280.15625 
Q 820.156375 277.95625 817.956375 277.95625 
L 738.502 277.95625 
Q 736.302 277.95625 736.302 280.15625 
L 736.302 343.64 
Q 736.302 345.84 738.502 345.84 
z
" style="fill:#eaeaf2;opacity:0.8;stroke:#cccccc;stroke-linejoin:miter;"/>
    </g>
    <g id="line2d_21">
     <path d="M 740.702 286.864531 
L 762.702 286.864531 
" style="fill:none;"/>
    </g>
    <g id="line2d_22"/>
    <g id="text_16">
     <!-- Scheme -->
     <defs>
      <path d="M 48.78125 52.59375 
L 48.78125 44.1875 
Q 44.96875 46.296875 41.140625 47.34375 
Q 37.3125 48.390625 33.40625 48.390625 
Q 24.65625 48.390625 19.8125 42.84375 
Q 14.984375 37.3125 14.984375 27.296875 
Q 14.984375 17.28125 19.8125 11.734375 
Q 24.65625 6.203125 33.40625 6.203125 
Q 37.3125 6.203125 41.140625 7.25 
Q 44.96875 8.296875 48.78125 10.40625 
L 48.78125 2.09375 
Q 45.015625 0.34375 40.984375 -0.53125 
Q 36.96875 -1.421875 32.421875 -1.421875 
Q 20.0625 -1.421875 12.78125 6.34375 
Q 5.515625 14.109375 5.515625 27.296875 
Q 5.515625 40.671875 12.859375 48.328125 
Q 20.21875 56 33.015625 56 
Q 37.15625 56 41.109375 55.140625 
Q 45.0625 54.296875 48.78125 52.59375 
z
" id="DejaVuSans-63"/>
      <path d="M 54.890625 33.015625 
L 54.890625 0 
L 45.90625 0 
L 45.90625 32.71875 
Q 45.90625 40.484375 42.875 44.328125 
Q 39.84375 48.1875 33.796875 48.1875 
Q 26.515625 48.1875 22.3125 43.546875 
Q 18.109375 38.921875 18.109375 30.90625 
L 18.109375 0 
L 9.078125 0 
L 9.078125 75.984375 
L 18.109375 75.984375 
L 18.109375 46.1875 
Q 21.34375 51.125 25.703125 53.5625 
Q 30.078125 56 35.796875 56 
Q 45.21875 56 50.046875 50.171875 
Q 54.890625 44.34375 54.890625 33.015625 
z
" id="DejaVuSans-68"/>
     </defs>
     <g style="fill:#262626;" transform="translate(771.502 290.714531)scale(0.11 -0.11)">
      <use xlink:href="#DejaVuSans-53"/>
      <use x="63.476562" xlink:href="#DejaVuSans-63"/>
      <use x="118.457031" xlink:href="#DejaVuSans-68"/>
      <use x="181.835938" xlink:href="#DejaVuSans-65"/>
      <use x="243.359375" xlink:href="#DejaVuSans-6d"/>
      <use x="340.771484" xlink:href="#DejaVuSans-65"/>
     </g>
    </g>
    <g id="line2d_23">
     <path d="M 740.702 303.010469 
L 762.702 303.010469 
" style="fill:none;stroke:#4c72b0;stroke-linecap:round;stroke-width:1.5;"/>
    </g>
    <g id="line2d_24"/>
    <g id="text_17">
     <!-- cubic -->
     <defs>
      <path d="M 8.5 21.578125 
L 8.5 54.6875 
L 17.484375 54.6875 
L 17.484375 21.921875 
Q 17.484375 14.15625 20.5 10.265625 
Q 23.53125 6.390625 29.59375 6.390625 
Q 36.859375 6.390625 41.078125 11.03125 
Q 45.3125 15.671875 45.3125 23.6875 
L 45.3125 54.6875 
L 54.296875 54.6875 
L 54.296875 0 
L 45.3125 0 
L 45.3125 8.40625 
Q 42.046875 3.421875 37.71875 1 
Q 33.40625 -1.421875 27.6875 -1.421875 
Q 18.265625 -1.421875 13.375 4.4375 
Q 8.5 10.296875 8.5 21.578125 
z
M 31.109375 56 
z
" id="DejaVuSans-75"/>
     </defs>
     <g style="fill:#262626;" transform="translate(771.502 306.860469)scale(0.11 -0.11)">
      <use xlink:href="#DejaVuSans-63"/>
      <use x="54.980469" xlink:href="#DejaVuSans-75"/>
      <use x="118.359375" xlink:href="#DejaVuSans-62"/>
      <use x="181.835938" xlink:href="#DejaVuSans-69"/>
      <use x="209.619141" xlink:href="#DejaVuSans-63"/>
     </g>
    </g>
    <g id="line2d_25">
     <path d="M 740.702 319.156406 
L 762.702 319.156406 
" style="fill:none;stroke:#dd8452;stroke-dasharray:6,2.25;stroke-dashoffset:0;stroke-width:1.5;"/>
    </g>
    <g id="line2d_26"/>
    <g id="text_18">
     <!-- bbr -->
     <defs>
      <path d="M 41.109375 46.296875 
Q 39.59375 47.171875 37.8125 47.578125 
Q 36.03125 48 33.890625 48 
Q 26.265625 48 22.1875 43.046875 
Q 18.109375 38.09375 18.109375 28.8125 
L 18.109375 0 
L 9.078125 0 
L 9.078125 54.6875 
L 18.109375 54.6875 
L 18.109375 46.1875 
Q 20.953125 51.171875 25.484375 53.578125 
Q 30.03125 56 36.53125 56 
Q 37.453125 56 38.578125 55.875 
Q 39.703125 55.765625 41.0625 55.515625 
z
" id="DejaVuSans-72"/>
     </defs>
     <g style="fill:#262626;" transform="translate(771.502 323.006406)scale(0.11 -0.11)">
      <use xlink:href="#DejaVuSans-62"/>
      <use x="63.476562" xlink:href="#DejaVuSans-62"/>
      <use x="126.953125" xlink:href="#DejaVuSans-72"/>
     </g>
    </g>
    <g id="line2d_27">
     <path d="M 740.702 335.302344 
L 762.702 335.302344 
" style="fill:none;stroke:#55a868;stroke-dasharray:1.5,1.5;stroke-dashoffset:0;stroke-width:1.5;"/>
    </g>
    <g id="line2d_28"/>
    <g id="text_19">
     <!-- pcc -->
     <defs>
      <path d="M 18.109375 8.203125 
L 18.109375 -20.796875 
L 9.078125 -20.796875 
L 9.078125 54.6875 
L 18.109375 54.6875 
L 18.109375 46.390625 
Q 20.953125 51.265625 25.265625 53.625 
Q 29.59375 56 35.59375 56 
Q 45.5625 56 51.78125 48.09375 
Q 58.015625 40.1875 58.015625 27.296875 
Q 58.015625 14.40625 51.78125 6.484375 
Q 45.5625 -1.421875 35.59375 -1.421875 
Q 29.59375 -1.421875 25.265625 0.953125 
Q 20.953125 3.328125 18.109375 8.203125 
z
M 48.6875 27.296875 
Q 48.6875 37.203125 44.609375 42.84375 
Q 40.53125 48.484375 33.40625 48.484375 
Q 26.265625 48.484375 22.1875 42.84375 
Q 18.109375 37.203125 18.109375 27.296875 
Q 18.109375 17.390625 22.1875 11.75 
Q 26.265625 6.109375 33.40625 6.109375 
Q 40.53125 6.109375 44.609375 11.75 
Q 48.6875 17.390625 48.6875 27.296875 
z
" id="DejaVuSans-70"/>
     </defs>
     <g style="fill:#262626;" transform="translate(771.502 339.152344)scale(0.11 -0.11)">
      <use xlink:href="#DejaVuSans-70"/>
      <use x="63.476562" xlink:href="#DejaVuSans-63"/>
      <use x="118.457031" xlink:href="#DejaVuSans-63"/>
     </g>
    </g>
   </g>
  </g>
 </g>
 <defs>
  <clipPath id="p9179bf72dd">
   <rect height="332.64" width="669.6" x="53.31" y="13.2"/>
  </clipPath>
 </defs>
</svg>
