<?xml version="1.0" encoding="utf-8" standalone="no"?>
<!DOCTYPE svg PUBLIC "-//W3C//DTD SVG 1.1//EN"
  "http://www.w3.org/Graphics/SVG/1.1/DTD/svg11.dtd">
<!-- Created with matplotlib (http://matplotlib.org/) -->
<svg height="388.799688pt" version="1.1" viewBox="0 0 827.356375 388.799688" width="827.356375pt" xmlns="http://www.w3.org/2000/svg" xmlns:xlink="http://www.w3.org/1999/xlink">
 <defs>
  <style type="text/css">
*{stroke-linecap:butt;stroke-linejoin:round;}
  </style>
 </defs>
 <g id="figure_1">
  <g id="patch_1">
   <path d="M 0 388.799688 
L 827.356375 388.799688 
L 827.356375 0 
L 0 0 
z
" style="fill:#ffffff;"/>
  </g>
  <g id="axes_1">
   <g id="patch_2">
    <path d="M 53.31 345.84 
L 722.91 345.84 
L 722.91 13.2 
L 53.31 13.2 
z
" style="fill:#eaeaf2;"/>
   </g>
   <g id="matplotlib.axis_1">
    <g id="xtick_1">
     <g id="line2d_1">
      <path clip-path="url(#p75cd3ef7a4)" d="M 121.284545 345.84 
L 121.284545 13.2 
" style="fill:none;stroke:#ffffff;stroke-linecap:round;"/>
     </g>
     <g id="text_1">
      <!-- 5 -->
      <defs>
       <path d="M 10.796875 72.90625 
L 49.515625 72.90625 
L 49.515625 64.59375 
L 19.828125 64.59375 
L 19.828125 46.734375 
Q 21.96875 47.46875 24.109375 47.828125 
Q 26.265625 48.1875 28.421875 48.1875 
Q 40.625 48.1875 47.75 41.5 
Q 54.890625 34.8125 54.890625 23.390625 
Q 54.890625 11.625 47.5625 5.09375 
Q 40.234375 -1.421875 26.90625 -1.421875 
Q 22.3125 -1.421875 17.546875 -0.640625 
Q 12.796875 0.140625 7.71875 1.703125 
L 7.71875 11.625 
Q 12.109375 9.234375 16.796875 8.0625 
Q 21.484375 6.890625 26.703125 6.890625 
Q 35.15625 6.890625 40.078125 11.328125 
Q 45.015625 15.765625 45.015625 23.390625 
Q 45.015625 31 40.078125 35.4375 
Q 35.15625 39.890625 26.703125 39.890625 
Q 22.75 39.890625 18.8125 39.015625 
Q 14.890625 38.140625 10.796875 36.28125 
z
" id="DejaVuSans-35"/>
      </defs>
      <g style="fill:#262626;" transform="translate(117.78517 363.698281)scale(0.11 -0.11)">
       <use xlink:href="#DejaVuSans-35"/>
      </g>
     </g>
    </g>
    <g id="xtick_2">
     <g id="line2d_2">
      <path clip-path="url(#p75cd3ef7a4)" d="M 222.739091 345.84 
L 222.739091 13.2 
" style="fill:none;stroke:#ffffff;stroke-linecap:round;"/>
     </g>
     <g id="text_2">
      <!-- 10 -->
      <defs>
       <path d="M 12.40625 8.296875 
L 28.515625 8.296875 
L 28.515625 63.921875 
L 10.984375 60.40625 
L 10.984375 69.390625 
L 28.421875 72.90625 
L 38.28125 72.90625 
L 38.28125 8.296875 
L 54.390625 8.296875 
L 54.390625 0 
L 12.40625 0 
z
" id="DejaVuSans-31"/>
       <path d="M 31.78125 66.40625 
Q 24.171875 66.40625 20.328125 58.90625 
Q 16.5 51.421875 16.5 36.375 
Q 16.5 21.390625 20.328125 13.890625 
Q 24.171875 6.390625 31.78125 6.390625 
Q 39.453125 6.390625 43.28125 13.890625 
Q 47.125 21.390625 47.125 36.375 
Q 47.125 51.421875 43.28125 58.90625 
Q 39.453125 66.40625 31.78125 66.40625 
z
M 31.78125 74.21875 
Q 44.046875 74.21875 50.515625 64.515625 
Q 56.984375 54.828125 56.984375 36.375 
Q 56.984375 17.96875 50.515625 8.265625 
Q 44.046875 -1.421875 31.78125 -1.421875 
Q 19.53125 -1.421875 13.0625 8.265625 
Q 6.59375 17.96875 6.59375 36.375 
Q 6.59375 54.828125 13.0625 64.515625 
Q 19.53125 74.21875 31.78125 74.21875 
z
" id="DejaVuSans-30"/>
      </defs>
      <g style="fill:#262626;" transform="translate(215.740341 363.698281)scale(0.11 -0.11)">
       <use xlink:href="#DejaVuSans-31"/>
       <use x="63.623047" xlink:href="#DejaVuSans-30"/>
      </g>
     </g>
    </g>
    <g id="xtick_3">
     <g id="line2d_3">
      <path clip-path="url(#p75cd3ef7a4)" d="M 324.193636 345.84 
L 324.193636 13.2 
" style="fill:none;stroke:#ffffff;stroke-linecap:round;"/>
     </g>
     <g id="text_3">
      <!-- 15 -->
      <g style="fill:#262626;" transform="translate(317.194886 363.698281)scale(0.11 -0.11)">
       <use xlink:href="#DejaVuSans-31"/>
       <use x="63.623047" xlink:href="#DejaVuSans-35"/>
      </g>
     </g>
    </g>
    <g id="xtick_4">
     <g id="line2d_4">
      <path clip-path="url(#p75cd3ef7a4)" d="M 425.648182 345.84 
L 425.648182 13.2 
" style="fill:none;stroke:#ffffff;stroke-linecap:round;"/>
     </g>
     <g id="text_4">
      <!-- 20 -->
      <defs>
       <path d="M 19.1875 8.296875 
L 53.609375 8.296875 
L 53.609375 0 
L 7.328125 0 
L 7.328125 8.296875 
Q 12.9375 14.109375 22.625 23.890625 
Q 32.328125 33.6875 34.8125 36.53125 
Q 39.546875 41.84375 41.421875 45.53125 
Q 43.3125 49.21875 43.3125 52.78125 
Q 43.3125 58.59375 39.234375 62.25 
Q 35.15625 65.921875 28.609375 65.921875 
Q 23.96875 65.921875 18.8125 64.3125 
Q 13.671875 62.703125 7.8125 59.421875 
L 7.8125 69.390625 
Q 13.765625 71.78125 18.9375 73 
Q 24.125 74.21875 28.421875 74.21875 
Q 39.75 74.21875 46.484375 68.546875 
Q 53.21875 62.890625 53.21875 53.421875 
Q 53.21875 48.921875 51.53125 44.890625 
Q 49.859375 40.875 45.40625 35.40625 
Q 44.1875 33.984375 37.640625 27.21875 
Q 31.109375 20.453125 19.1875 8.296875 
z
" id="DejaVuSans-32"/>
      </defs>
      <g style="fill:#262626;" transform="translate(418.649432 363.698281)scale(0.11 -0.11)">
       <use xlink:href="#DejaVuSans-32"/>
       <use x="63.623047" xlink:href="#DejaVuSans-30"/>
      </g>
     </g>
    </g>
    <g id="xtick_5">
     <g id="line2d_5">
      <path clip-path="url(#p75cd3ef7a4)" d="M 527.102727 345.84 
L 527.102727 13.2 
" style="fill:none;stroke:#ffffff;stroke-linecap:round;"/>
     </g>
     <g id="text_5">
      <!-- 25 -->
      <g style="fill:#262626;" transform="translate(520.103977 363.698281)scale(0.11 -0.11)">
       <use xlink:href="#DejaVuSans-32"/>
       <use x="63.623047" xlink:href="#DejaVuSans-35"/>
      </g>
     </g>
    </g>
    <g id="xtick_6">
     <g id="line2d_6">
      <path clip-path="url(#p75cd3ef7a4)" d="M 628.557273 345.84 
L 628.557273 13.2 
" style="fill:none;stroke:#ffffff;stroke-linecap:round;"/>
     </g>
     <g id="text_6">
      <!-- 30 -->
      <defs>
       <path d="M 40.578125 39.3125 
Q 47.65625 37.796875 51.625 33 
Q 55.609375 28.21875 55.609375 21.1875 
Q 55.609375 10.40625 48.1875 4.484375 
Q 40.765625 -1.421875 27.09375 -1.421875 
Q 22.515625 -1.421875 17.65625 -0.515625 
Q 12.796875 0.390625 7.625 2.203125 
L 7.625 11.71875 
Q 11.71875 9.328125 16.59375 8.109375 
Q 21.484375 6.890625 26.8125 6.890625 
Q 36.078125 6.890625 40.9375 10.546875 
Q 45.796875 14.203125 45.796875 21.1875 
Q 45.796875 27.640625 41.28125 31.265625 
Q 36.765625 34.90625 28.71875 34.90625 
L 20.21875 34.90625 
L 20.21875 43.015625 
L 29.109375 43.015625 
Q 36.375 43.015625 40.234375 45.921875 
Q 44.09375 48.828125 44.09375 54.296875 
Q 44.09375 59.90625 40.109375 62.90625 
Q 36.140625 65.921875 28.71875 65.921875 
Q 24.65625 65.921875 20.015625 65.03125 
Q 15.375 64.15625 9.8125 62.3125 
L 9.8125 71.09375 
Q 15.4375 72.65625 20.34375 73.4375 
Q 25.25 74.21875 29.59375 74.21875 
Q 40.828125 74.21875 47.359375 69.109375 
Q 53.90625 64.015625 53.90625 55.328125 
Q 53.90625 49.265625 50.4375 45.09375 
Q 46.96875 40.921875 40.578125 39.3125 
z
" id="DejaVuSans-33"/>
      </defs>
      <g style="fill:#262626;" transform="translate(621.558523 363.698281)scale(0.11 -0.11)">
       <use xlink:href="#DejaVuSans-33"/>
       <use x="63.623047" xlink:href="#DejaVuSans-30"/>
      </g>
     </g>
    </g>
    <g id="text_7">
     <!-- Time (s) -->
     <defs>
      <path d="M -0.296875 72.90625 
L 61.375 72.90625 
L 61.375 64.59375 
L 35.5 64.59375 
L 35.5 0 
L 25.59375 0 
L 25.59375 64.59375 
L -0.296875 64.59375 
z
" id="DejaVuSans-54"/>
      <path d="M 9.421875 54.6875 
L 18.40625 54.6875 
L 18.40625 0 
L 9.421875 0 
z
M 9.421875 75.984375 
L 18.40625 75.984375 
L 18.40625 64.59375 
L 9.421875 64.59375 
z
" id="DejaVuSans-69"/>
      <path d="M 52 44.1875 
Q 55.375 50.25 60.0625 53.125 
Q 64.75 56 71.09375 56 
Q 79.640625 56 84.28125 50.015625 
Q 88.921875 44.046875 88.921875 33.015625 
L 88.921875 0 
L 79.890625 0 
L 79.890625 32.71875 
Q 79.890625 40.578125 77.09375 44.375 
Q 74.3125 48.1875 68.609375 48.1875 
Q 61.625 48.1875 57.5625 43.546875 
Q 53.515625 38.921875 53.515625 30.90625 
L 53.515625 0 
L 44.484375 0 
L 44.484375 32.71875 
Q 44.484375 40.625 41.703125 44.40625 
Q 38.921875 48.1875 33.109375 48.1875 
Q 26.21875 48.1875 22.15625 43.53125 
Q 18.109375 38.875 18.109375 30.90625 
L 18.109375 0 
L 9.078125 0 
L 9.078125 54.6875 
L 18.109375 54.6875 
L 18.109375 46.1875 
Q 21.1875 51.21875 25.484375 53.609375 
Q 29.78125 56 35.6875 56 
Q 41.65625 56 45.828125 52.96875 
Q 50 49.953125 52 44.1875 
z
" id="DejaVuSans-6d"/>
      <path d="M 56.203125 29.59375 
L 56.203125 25.203125 
L 14.890625 25.203125 
Q 15.484375 15.921875 20.484375 11.0625 
Q 25.484375 6.203125 34.421875 6.203125 
Q 39.59375 6.203125 44.453125 7.46875 
Q 49.3125 8.734375 54.109375 11.28125 
L 54.109375 2.78125 
Q 49.265625 0.734375 44.1875 -0.34375 
Q 39.109375 -1.421875 33.890625 -1.421875 
Q 20.796875 -1.421875 13.15625 6.1875 
Q 5.515625 13.8125 5.515625 26.8125 
Q 5.515625 40.234375 12.765625 48.109375 
Q 20.015625 56 32.328125 56 
Q 43.359375 56 49.78125 48.890625 
Q 56.203125 41.796875 56.203125 29.59375 
z
M 47.21875 32.234375 
Q 47.125 39.59375 43.09375 43.984375 
Q 39.0625 48.390625 32.421875 48.390625 
Q 24.90625 48.390625 20.390625 44.140625 
Q 15.875 39.890625 15.1875 32.171875 
z
" id="DejaVuSans-65"/>
      <path id="DejaVuSans-20"/>
      <path d="M 31 75.875 
Q 24.46875 64.65625 21.28125 53.65625 
Q 18.109375 42.671875 18.109375 31.390625 
Q 18.109375 20.125 21.3125 9.0625 
Q 24.515625 -2 31 -13.1875 
L 23.1875 -13.1875 
Q 15.875 -1.703125 12.234375 9.375 
Q 8.59375 20.453125 8.59375 31.390625 
Q 8.59375 42.28125 12.203125 53.3125 
Q 15.828125 64.359375 23.1875 75.875 
z
" id="DejaVuSans-28"/>
      <path d="M 44.28125 53.078125 
L 44.28125 44.578125 
Q 40.484375 46.53125 36.375 47.5 
Q 32.28125 48.484375 27.875 48.484375 
Q 21.1875 48.484375 17.84375 46.4375 
Q 14.5 44.390625 14.5 40.28125 
Q 14.5 37.15625 16.890625 35.375 
Q 19.28125 33.59375 26.515625 31.984375 
L 29.59375 31.296875 
Q 39.15625 29.25 43.1875 25.515625 
Q 47.21875 21.78125 47.21875 15.09375 
Q 47.21875 7.46875 41.1875 3.015625 
Q 35.15625 -1.421875 24.609375 -1.421875 
Q 20.21875 -1.421875 15.453125 -0.5625 
Q 10.6875 0.296875 5.421875 2 
L 5.421875 11.28125 
Q 10.40625 8.6875 15.234375 7.390625 
Q 20.0625 6.109375 24.8125 6.109375 
Q 31.15625 6.109375 34.5625 8.28125 
Q 37.984375 10.453125 37.984375 14.40625 
Q 37.984375 18.0625 35.515625 20.015625 
Q 33.0625 21.96875 24.703125 23.78125 
L 21.578125 24.515625 
Q 13.234375 26.265625 9.515625 29.90625 
Q 5.8125 33.546875 5.8125 39.890625 
Q 5.8125 47.609375 11.28125 51.796875 
Q 16.75 56 26.8125 56 
Q 31.78125 56 36.171875 55.265625 
Q 40.578125 54.546875 44.28125 53.078125 
z
" id="DejaVuSans-73"/>
      <path d="M 8.015625 75.875 
L 15.828125 75.875 
Q 23.140625 64.359375 26.78125 53.3125 
Q 30.421875 42.28125 30.421875 31.390625 
Q 30.421875 20.453125 26.78125 9.375 
Q 23.140625 -1.703125 15.828125 -13.1875 
L 8.015625 -13.1875 
Q 14.5 -2 17.703125 9.0625 
Q 20.90625 20.125 20.90625 31.390625 
Q 20.90625 42.671875 17.703125 53.65625 
Q 14.5 64.65625 8.015625 75.875 
z
" id="DejaVuSans-29"/>
     </defs>
     <g style="fill:#262626;" transform="translate(363.530625 379.104062)scale(0.12 -0.12)">
      <use xlink:href="#DejaVuSans-54"/>
      <use x="61.037109" xlink:href="#DejaVuSans-69"/>
      <use x="88.820312" xlink:href="#DejaVuSans-6d"/>
      <use x="186.232422" xlink:href="#DejaVuSans-65"/>
      <use x="247.755859" xlink:href="#DejaVuSans-20"/>
      <use x="279.542969" xlink:href="#DejaVuSans-28"/>
      <use x="318.556641" xlink:href="#DejaVuSans-73"/>
      <use x="370.65625" xlink:href="#DejaVuSans-29"/>
     </g>
    </g>
   </g>
   <g id="matplotlib.axis_2">
    <g id="ytick_1">
     <g id="line2d_7">
      <path clip-path="url(#p75cd3ef7a4)" d="M 53.31 330.746397 
L 722.91 330.746397 
" style="fill:none;stroke:#ffffff;stroke-linecap:round;"/>
     </g>
     <g id="text_8">
      <!-- 0 -->
      <g style="fill:#262626;" transform="translate(36.81125 334.925537)scale(0.11 -0.11)">
       <use xlink:href="#DejaVuSans-30"/>
      </g>
     </g>
    </g>
    <g id="ytick_2">
     <g id="line2d_8">
      <path clip-path="url(#p75cd3ef7a4)" d="M 53.31 277.953101 
L 722.91 277.953101 
" style="fill:none;stroke:#ffffff;stroke-linecap:round;"/>
     </g>
     <g id="text_9">
      <!-- 20 -->
      <g style="fill:#262626;" transform="translate(29.8125 282.132241)scale(0.11 -0.11)">
       <use xlink:href="#DejaVuSans-32"/>
       <use x="63.623047" xlink:href="#DejaVuSans-30"/>
      </g>
     </g>
    </g>
    <g id="ytick_3">
     <g id="line2d_9">
      <path clip-path="url(#p75cd3ef7a4)" d="M 53.31 225.159804 
L 722.91 225.159804 
" style="fill:none;stroke:#ffffff;stroke-linecap:round;"/>
     </g>
     <g id="text_10">
      <!-- 40 -->
      <defs>
       <path d="M 37.796875 64.3125 
L 12.890625 25.390625 
L 37.796875 25.390625 
z
M 35.203125 72.90625 
L 47.609375 72.90625 
L 47.609375 25.390625 
L 58.015625 25.390625 
L 58.015625 17.1875 
L 47.609375 17.1875 
L 47.609375 0 
L 37.796875 0 
L 37.796875 17.1875 
L 4.890625 17.1875 
L 4.890625 26.703125 
z
" id="DejaVuSans-34"/>
      </defs>
      <g style="fill:#262626;" transform="translate(29.8125 229.338945)scale(0.11 -0.11)">
       <use xlink:href="#DejaVuSans-34"/>
       <use x="63.623047" xlink:href="#DejaVuSans-30"/>
      </g>
     </g>
    </g>
    <g id="ytick_4">
     <g id="line2d_10">
      <path clip-path="url(#p75cd3ef7a4)" d="M 53.31 172.366508 
L 722.91 172.366508 
" style="fill:none;stroke:#ffffff;stroke-linecap:round;"/>
     </g>
     <g id="text_11">
      <!-- 60 -->
      <defs>
       <path d="M 33.015625 40.375 
Q 26.375 40.375 22.484375 35.828125 
Q 18.609375 31.296875 18.609375 23.390625 
Q 18.609375 15.53125 22.484375 10.953125 
Q 26.375 6.390625 33.015625 6.390625 
Q 39.65625 6.390625 43.53125 10.953125 
Q 47.40625 15.53125 47.40625 23.390625 
Q 47.40625 31.296875 43.53125 35.828125 
Q 39.65625 40.375 33.015625 40.375 
z
M 52.59375 71.296875 
L 52.59375 62.3125 
Q 48.875 64.0625 45.09375 64.984375 
Q 41.3125 65.921875 37.59375 65.921875 
Q 27.828125 65.921875 22.671875 59.328125 
Q 17.53125 52.734375 16.796875 39.40625 
Q 19.671875 43.65625 24.015625 45.921875 
Q 28.375 48.1875 33.59375 48.1875 
Q 44.578125 48.1875 50.953125 41.515625 
Q 57.328125 34.859375 57.328125 23.390625 
Q 57.328125 12.15625 50.6875 5.359375 
Q 44.046875 -1.421875 33.015625 -1.421875 
Q 20.359375 -1.421875 13.671875 8.265625 
Q 6.984375 17.96875 6.984375 36.375 
Q 6.984375 53.65625 15.1875 63.9375 
Q 23.390625 74.21875 37.203125 74.21875 
Q 40.921875 74.21875 44.703125 73.484375 
Q 48.484375 72.75 52.59375 71.296875 
z
" id="DejaVuSans-36"/>
      </defs>
      <g style="fill:#262626;" transform="translate(29.8125 176.545649)scale(0.11 -0.11)">
       <use xlink:href="#DejaVuSans-36"/>
       <use x="63.623047" xlink:href="#DejaVuSans-30"/>
      </g>
     </g>
    </g>
    <g id="ytick_5">
     <g id="line2d_11">
      <path clip-path="url(#p75cd3ef7a4)" d="M 53.31 119.573212 
L 722.91 119.573212 
" style="fill:none;stroke:#ffffff;stroke-linecap:round;"/>
     </g>
     <g id="text_12">
      <!-- 80 -->
      <defs>
       <path d="M 31.78125 34.625 
Q 24.75 34.625 20.71875 30.859375 
Q 16.703125 27.09375 16.703125 20.515625 
Q 16.703125 13.921875 20.71875 10.15625 
Q 24.75 6.390625 31.78125 6.390625 
Q 38.8125 6.390625 42.859375 10.171875 
Q 46.921875 13.96875 46.921875 20.515625 
Q 46.921875 27.09375 42.890625 30.859375 
Q 38.875 34.625 31.78125 34.625 
z
M 21.921875 38.8125 
Q 15.578125 40.375 12.03125 44.71875 
Q 8.5 49.078125 8.5 55.328125 
Q 8.5 64.0625 14.71875 69.140625 
Q 20.953125 74.21875 31.78125 74.21875 
Q 42.671875 74.21875 48.875 69.140625 
Q 55.078125 64.0625 55.078125 55.328125 
Q 55.078125 49.078125 51.53125 44.71875 
Q 48 40.375 41.703125 38.8125 
Q 48.828125 37.15625 52.796875 32.3125 
Q 56.78125 27.484375 56.78125 20.515625 
Q 56.78125 9.90625 50.3125 4.234375 
Q 43.84375 -1.421875 31.78125 -1.421875 
Q 19.734375 -1.421875 13.25 4.234375 
Q 6.78125 9.90625 6.78125 20.515625 
Q 6.78125 27.484375 10.78125 32.3125 
Q 14.796875 37.15625 21.921875 38.8125 
z
M 18.3125 54.390625 
Q 18.3125 48.734375 21.84375 45.5625 
Q 25.390625 42.390625 31.78125 42.390625 
Q 38.140625 42.390625 41.71875 45.5625 
Q 45.3125 48.734375 45.3125 54.390625 
Q 45.3125 60.0625 41.71875 63.234375 
Q 38.140625 66.40625 31.78125 66.40625 
Q 25.390625 66.40625 21.84375 63.234375 
Q 18.3125 60.0625 18.3125 54.390625 
z
" id="DejaVuSans-38"/>
      </defs>
      <g style="fill:#262626;" transform="translate(29.8125 123.752353)scale(0.11 -0.11)">
       <use xlink:href="#DejaVuSans-38"/>
       <use x="63.623047" xlink:href="#DejaVuSans-30"/>
      </g>
     </g>
    </g>
    <g id="ytick_6">
     <g id="line2d_12">
      <path clip-path="url(#p75cd3ef7a4)" d="M 53.31 66.779916 
L 722.91 66.779916 
" style="fill:none;stroke:#ffffff;stroke-linecap:round;"/>
     </g>
     <g id="text_13">
      <!-- 100 -->
      <g style="fill:#262626;" transform="translate(22.81375 70.959057)scale(0.11 -0.11)">
       <use xlink:href="#DejaVuSans-31"/>
       <use x="63.623047" xlink:href="#DejaVuSans-30"/>
       <use x="127.246094" xlink:href="#DejaVuSans-30"/>
      </g>
     </g>
    </g>
    <g id="ytick_7">
     <g id="line2d_13">
      <path clip-path="url(#p75cd3ef7a4)" d="M 53.31 13.98662 
L 722.91 13.98662 
" style="fill:none;stroke:#ffffff;stroke-linecap:round;"/>
     </g>
     <g id="text_14">
      <!-- 120 -->
      <g style="fill:#262626;" transform="translate(22.81375 18.165761)scale(0.11 -0.11)">
       <use xlink:href="#DejaVuSans-31"/>
       <use x="63.623047" xlink:href="#DejaVuSans-32"/>
       <use x="127.246094" xlink:href="#DejaVuSans-30"/>
      </g>
     </g>
    </g>
    <g id="text_15">
     <!-- Sending Rate (Mbit/s) -->
     <defs>
      <path d="M 53.515625 70.515625 
L 53.515625 60.890625 
Q 47.90625 63.578125 42.921875 64.890625 
Q 37.9375 66.21875 33.296875 66.21875 
Q 25.25 66.21875 20.875 63.09375 
Q 16.5 59.96875 16.5 54.203125 
Q 16.5 49.359375 19.40625 46.890625 
Q 22.3125 44.4375 30.421875 42.921875 
L 36.375 41.703125 
Q 47.40625 39.59375 52.65625 34.296875 
Q 57.90625 29 57.90625 20.125 
Q 57.90625 9.515625 50.796875 4.046875 
Q 43.703125 -1.421875 29.984375 -1.421875 
Q 24.8125 -1.421875 18.96875 -0.25 
Q 13.140625 0.921875 6.890625 3.21875 
L 6.890625 13.375 
Q 12.890625 10.015625 18.65625 8.296875 
Q 24.421875 6.59375 29.984375 6.59375 
Q 38.421875 6.59375 43.015625 9.90625 
Q 47.609375 13.234375 47.609375 19.390625 
Q 47.609375 24.75 44.3125 27.78125 
Q 41.015625 30.8125 33.5 32.328125 
L 27.484375 33.5 
Q 16.453125 35.6875 11.515625 40.375 
Q 6.59375 45.0625 6.59375 53.421875 
Q 6.59375 63.09375 13.40625 68.65625 
Q 20.21875 74.21875 32.171875 74.21875 
Q 37.3125 74.21875 42.625 73.28125 
Q 47.953125 72.359375 53.515625 70.515625 
z
" id="DejaVuSans-53"/>
      <path d="M 54.890625 33.015625 
L 54.890625 0 
L 45.90625 0 
L 45.90625 32.71875 
Q 45.90625 40.484375 42.875 44.328125 
Q 39.84375 48.1875 33.796875 48.1875 
Q 26.515625 48.1875 22.3125 43.546875 
Q 18.109375 38.921875 18.109375 30.90625 
L 18.109375 0 
L 9.078125 0 
L 9.078125 54.6875 
L 18.109375 54.6875 
L 18.109375 46.1875 
Q 21.34375 51.125 25.703125 53.5625 
Q 30.078125 56 35.796875 56 
Q 45.21875 56 50.046875 50.171875 
Q 54.890625 44.34375 54.890625 33.015625 
z
" id="DejaVuSans-6e"/>
      <path d="M 45.40625 46.390625 
L 45.40625 75.984375 
L 54.390625 75.984375 
L 54.390625 0 
L 45.40625 0 
L 45.40625 8.203125 
Q 42.578125 3.328125 38.25 0.953125 
Q 33.9375 -1.421875 27.875 -1.421875 
Q 17.96875 -1.421875 11.734375 6.484375 
Q 5.515625 14.40625 5.515625 27.296875 
Q 5.515625 40.1875 11.734375 48.09375 
Q 17.96875 56 27.875 56 
Q 33.9375 56 38.25 53.625 
Q 42.578125 51.265625 45.40625 46.390625 
z
M 14.796875 27.296875 
Q 14.796875 17.390625 18.875 11.75 
Q 22.953125 6.109375 30.078125 6.109375 
Q 37.203125 6.109375 41.296875 11.75 
Q 45.40625 17.390625 45.40625 27.296875 
Q 45.40625 37.203125 41.296875 42.84375 
Q 37.203125 48.484375 30.078125 48.484375 
Q 22.953125 48.484375 18.875 42.84375 
Q 14.796875 37.203125 14.796875 27.296875 
z
" id="DejaVuSans-64"/>
      <path d="M 45.40625 27.984375 
Q 45.40625 37.75 41.375 43.109375 
Q 37.359375 48.484375 30.078125 48.484375 
Q 22.859375 48.484375 18.828125 43.109375 
Q 14.796875 37.75 14.796875 27.984375 
Q 14.796875 18.265625 18.828125 12.890625 
Q 22.859375 7.515625 30.078125 7.515625 
Q 37.359375 7.515625 41.375 12.890625 
Q 45.40625 18.265625 45.40625 27.984375 
z
M 54.390625 6.78125 
Q 54.390625 -7.171875 48.1875 -13.984375 
Q 42 -20.796875 29.203125 -20.796875 
Q 24.46875 -20.796875 20.265625 -20.09375 
Q 16.0625 -19.390625 12.109375 -17.921875 
L 12.109375 -9.1875 
Q 16.0625 -11.328125 19.921875 -12.34375 
Q 23.78125 -13.375 27.78125 -13.375 
Q 36.625 -13.375 41.015625 -8.765625 
Q 45.40625 -4.15625 45.40625 5.171875 
L 45.40625 9.625 
Q 42.625 4.78125 38.28125 2.390625 
Q 33.9375 0 27.875 0 
Q 17.828125 0 11.671875 7.65625 
Q 5.515625 15.328125 5.515625 27.984375 
Q 5.515625 40.671875 11.671875 48.328125 
Q 17.828125 56 27.875 56 
Q 33.9375 56 38.28125 53.609375 
Q 42.625 51.21875 45.40625 46.390625 
L 45.40625 54.6875 
L 54.390625 54.6875 
z
" id="DejaVuSans-67"/>
      <path d="M 44.390625 34.1875 
Q 47.5625 33.109375 50.5625 29.59375 
Q 53.5625 26.078125 56.59375 19.921875 
L 66.609375 0 
L 56 0 
L 46.6875 18.703125 
Q 43.0625 26.03125 39.671875 28.421875 
Q 36.28125 30.8125 30.421875 30.8125 
L 19.671875 30.8125 
L 19.671875 0 
L 9.8125 0 
L 9.8125 72.90625 
L 32.078125 72.90625 
Q 44.578125 72.90625 50.734375 67.671875 
Q 56.890625 62.453125 56.890625 51.90625 
Q 56.890625 45.015625 53.6875 40.46875 
Q 50.484375 35.9375 44.390625 34.1875 
z
M 19.671875 64.796875 
L 19.671875 38.921875 
L 32.078125 38.921875 
Q 39.203125 38.921875 42.84375 42.21875 
Q 46.484375 45.515625 46.484375 51.90625 
Q 46.484375 58.296875 42.84375 61.546875 
Q 39.203125 64.796875 32.078125 64.796875 
z
" id="DejaVuSans-52"/>
      <path d="M 34.28125 27.484375 
Q 23.390625 27.484375 19.1875 25 
Q 14.984375 22.515625 14.984375 16.5 
Q 14.984375 11.71875 18.140625 8.90625 
Q 21.296875 6.109375 26.703125 6.109375 
Q 34.1875 6.109375 38.703125 11.40625 
Q 43.21875 16.703125 43.21875 25.484375 
L 43.21875 27.484375 
z
M 52.203125 31.203125 
L 52.203125 0 
L 43.21875 0 
L 43.21875 8.296875 
Q 40.140625 3.328125 35.546875 0.953125 
Q 30.953125 -1.421875 24.3125 -1.421875 
Q 15.921875 -1.421875 10.953125 3.296875 
Q 6 8.015625 6 15.921875 
Q 6 25.140625 12.171875 29.828125 
Q 18.359375 34.515625 30.609375 34.515625 
L 43.21875 34.515625 
L 43.21875 35.40625 
Q 43.21875 41.609375 39.140625 45 
Q 35.0625 48.390625 27.6875 48.390625 
Q 23 48.390625 18.546875 47.265625 
Q 14.109375 46.140625 10.015625 43.890625 
L 10.015625 52.203125 
Q 14.9375 54.109375 19.578125 55.046875 
Q 24.21875 56 28.609375 56 
Q 40.484375 56 46.34375 49.84375 
Q 52.203125 43.703125 52.203125 31.203125 
z
" id="DejaVuSans-61"/>
      <path d="M 18.3125 70.21875 
L 18.3125 54.6875 
L 36.8125 54.6875 
L 36.8125 47.703125 
L 18.3125 47.703125 
L 18.3125 18.015625 
Q 18.3125 11.328125 20.140625 9.421875 
Q 21.96875 7.515625 27.59375 7.515625 
L 36.8125 7.515625 
L 36.8125 0 
L 27.59375 0 
Q 17.1875 0 13.234375 3.875 
Q 9.28125 7.765625 9.28125 18.015625 
L 9.28125 47.703125 
L 2.6875 47.703125 
L 2.6875 54.6875 
L 9.28125 54.6875 
L 9.28125 70.21875 
z
" id="DejaVuSans-74"/>
      <path d="M 9.8125 72.90625 
L 24.515625 72.90625 
L 43.109375 23.296875 
L 61.8125 72.90625 
L 76.515625 72.90625 
L 76.515625 0 
L 66.890625 0 
L 66.890625 64.015625 
L 48.09375 14.015625 
L 38.1875 14.015625 
L 19.390625 64.015625 
L 19.390625 0 
L 9.8125 0 
z
" id="DejaVuSans-4d"/>
      <path d="M 48.6875 27.296875 
Q 48.6875 37.203125 44.609375 42.84375 
Q 40.53125 48.484375 33.40625 48.484375 
Q 26.265625 48.484375 22.1875 42.84375 
Q 18.109375 37.203125 18.109375 27.296875 
Q 18.109375 17.390625 22.1875 11.75 
Q 26.265625 6.109375 33.40625 6.109375 
Q 40.53125 6.109375 44.609375 11.75 
Q 48.6875 17.390625 48.6875 27.296875 
z
M 18.109375 46.390625 
Q 20.953125 51.265625 25.265625 53.625 
Q 29.59375 56 35.59375 56 
Q 45.5625 56 51.78125 48.09375 
Q 58.015625 40.1875 58.015625 27.296875 
Q 58.015625 14.40625 51.78125 6.484375 
Q 45.5625 -1.421875 35.59375 -1.421875 
Q 29.59375 -1.421875 25.265625 0.953125 
Q 20.953125 3.328125 18.109375 8.203125 
L 18.109375 0 
L 9.078125 0 
L 9.078125 75.984375 
L 18.109375 75.984375 
z
" id="DejaVuSans-62"/>
      <path d="M 25.390625 72.90625 
L 33.6875 72.90625 
L 8.296875 -9.28125 
L 0 -9.28125 
z
" id="DejaVuSans-2f"/>
     </defs>
     <g style="fill:#262626;" transform="translate(16.318125 244.446563)rotate(-90)scale(0.12 -0.12)">
      <use xlink:href="#DejaVuSans-53"/>
      <use x="63.476562" xlink:href="#DejaVuSans-65"/>
      <use x="125" xlink:href="#DejaVuSans-6e"/>
      <use x="188.378906" xlink:href="#DejaVuSans-64"/>
      <use x="251.855469" xlink:href="#DejaVuSans-69"/>
      <use x="279.638672" xlink:href="#DejaVuSans-6e"/>
      <use x="343.017578" xlink:href="#DejaVuSans-67"/>
      <use x="406.494141" xlink:href="#DejaVuSans-20"/>
      <use x="438.28125" xlink:href="#DejaVuSans-52"/>
      <use x="507.732422" xlink:href="#DejaVuSans-61"/>
      <use x="569.011719" xlink:href="#DejaVuSans-74"/>
      <use x="608.220703" xlink:href="#DejaVuSans-65"/>
      <use x="669.744141" xlink:href="#DejaVuSans-20"/>
      <use x="701.53125" xlink:href="#DejaVuSans-28"/>
      <use x="740.544922" xlink:href="#DejaVuSans-4d"/>
      <use x="826.824219" xlink:href="#DejaVuSans-62"/>
      <use x="890.300781" xlink:href="#DejaVuSans-69"/>
      <use x="918.083984" xlink:href="#DejaVuSans-74"/>
      <use x="957.292969" xlink:href="#DejaVuSans-2f"/>
      <use x="990.984375" xlink:href="#DejaVuSans-73"/>
      <use x="1043.083984" xlink:href="#DejaVuSans-29"/>
     </g>
    </g>
   </g>
   <g id="line2d_14">
    <path clip-path="url(#p75cd3ef7a4)" d="M 86.79 330.72 
L 89.833636 328.001145 
L 92.877273 323.223352 
L 95.920909 315.515531 
L 98.964545 297.645 
L 102.008182 262.748631 
L 105.051818 184.297793 
L 108.095455 28.32 
L 111.139091 225.766927 
L 114.182727 245.27405 
L 117.226364 244.007011 
L 120.27 244.429358 
L 123.313636 245.722793 
L 126.357273 246.329916 
L 129.400909 244.350168 
L 132.444545 246.118743 
L 135.488182 243.611061 
L 138.531818 243.373492 
L 141.575455 246.673073 
L 144.619091 243.373492 
L 147.662727 245.722793 
L 150.706364 242.528799 
L 153.75 245.485223 
L 156.793636 243.505475 
L 159.837273 247.121816 
L 162.880909 242.344022 
L 165.924545 242.739972 
L 168.968182 247.491369 
L 172.011818 248.045698 
L 175.055455 248.995978 
L 178.099091 250.368603 
L 181.142727 251.530056 
L 184.186364 249.418324 
L 187.23 249.312737 
L 190.273636 248.758408 
L 193.317273 249.735084 
L 196.360909 249.84067 
L 199.404545 248.256872 
L 202.448182 250.896536 
L 205.491818 249.523911 
L 208.535455 247.517765 
L 211.579091 250.658966 
L 214.622727 247.834525 
L 217.666364 250.685363 
L 220.71 246.989832 
L 223.753636 247.412179 
L 226.797273 247.517765 
L 229.840909 246.14514 
L 232.884545 245.089274 
L 235.928182 243.056732 
L 238.971818 241.26176 
L 242.015455 239.915531 
L 245.059091 235.771257 
L 248.102727 235.137737 
L 251.146364 229.990391 
L 254.19 231.442207 
L 257.233636 234.900168 
L 260.277273 236.29919 
L 263.320909 235.771257 
L 269.408182 237.460642 
L 272.451818 234.636201 
L 275.495455 234.266648 
L 278.539091 237.777402 
L 281.582727 238.305335 
L 284.626364 235.560084 
L 287.67 233.131592 
L 290.713636 237.223073 
L 293.757273 237.249469 
L 296.800909 233.553939 
L 299.844545 232.392486 
L 302.888182 231.65338 
L 305.931818 234.372235 
L 308.975455 233.237179 
L 312.019091 234.688994 
L 315.062727 232.709246 
L 318.106364 232.709246 
L 321.15 233.421955 
L 324.193636 233.765112 
L 327.237273 234.266648 
L 330.280909 235.876844 
L 333.324545 231.547793 
L 336.368182 236.800726 
L 339.411818 235.480894 
L 342.455455 230.808687 
L 345.499091 231.521397 
L 348.542727 231.65338 
L 351.586364 230.175168 
L 354.63 230.465531 
L 357.673636 231.468603 
L 360.717273 233.131592 
L 363.760909 231.943743 
L 366.804545 231.01986 
L 372.891818 230.676704 
L 375.935455 228.908128 
L 378.979091 230.175168 
L 382.022727 231.310223 
L 385.066364 230.148771 
L 391.153636 232.286899 
L 394.197273 229.620838 
L 397.240909 232.286899 
L 400.284545 230.175168 
L 403.328182 232.999609 
L 406.371818 229.752821 
L 409.415455 228.696955 
L 412.459091 227.00757 
L 415.502727 227.667486 
L 418.546364 229.436061 
L 421.59 228.485782 
L 424.633636 229.356872 
L 427.677273 227.825866 
L 430.720909 227.24514 
L 433.764545 230.175168 
L 436.808182 230.887877 
L 439.851818 226.981173 
L 445.939091 227.00757 
L 448.982727 225.529358 
L 452.026364 224.895838 
L 455.07 227.641089 
L 458.113636 226.400447 
L 461.157273 227.878659 
L 464.200909 226.083687 
L 470.288182 225.951704 
L 473.331818 224.262318 
L 476.375455 224.183128 
L 479.419091 225.318184 
L 482.462727 226.796397 
L 485.506364 225.318184 
L 488.55 227.24514 
L 491.593636 225.951704 
L 494.637273 225.107011 
L 497.680909 223.444022 
L 500.724545 222.810503 
L 503.768182 219.986061 
L 506.811818 219.035782 
L 509.855455 215.340251 
L 512.899091 217.24081 
L 515.942727 219.458128 
L 518.986364 220.725168 
L 525.073636 218.824609 
L 528.117273 218.085503 
L 531.160909 221.543464 
L 534.204545 221.88662 
L 537.248182 217.742346 
L 540.291818 219.352542 
L 543.335455 220.513994 
L 546.379091 216.607291 
L 552.466364 222.810503 
L 555.51 217.663156 
L 558.553636 216.818464 
L 561.597273 215.419441 
L 564.640909 213.439693 
L 567.684545 211.96148 
L 570.728182 208.133966 
L 573.771818 206.787737 
L 576.815455 200.927682 
L 579.859091 198.97433 
L 582.902727 193.035084 
L 585.946364 197.918464 
L 588.99 201.904358 
L 592.033636 201.482011 
L 595.077273 201.376425 
L 598.120909 200.452542 
L 601.164545 202.564274 
L 604.208182 203.69933 
L 607.251818 205.309525 
L 610.295455 203.276983 
L 613.339091 202.353101 
L 616.382727 202.643464 
L 619.426364 203.197793 
L 622.47 204.042486 
L 625.513636 203.69933 
L 628.557273 205.177542 
L 631.600909 206.787737 
L 634.644545 209.189832 
L 637.688182 210.483268 
L 640.731818 207.738017 
L 643.775455 206.365391 
L 646.819091 207.289274 
L 649.862727 205.811061 
L 652.906364 205.520698 
L 655.95 204.755196 
L 658.993636 208.556313 
L 662.037273 205.731872 
L 665.080909 209.269022 
L 668.124545 206.470978 
L 671.168182 204.121676 
L 674.211818 201.930754 
L 677.255455 201.798771 
L 680.299091 198.525587 
L 683.342727 197.918464 
L 686.386364 200.848492 
L 689.43 202.221117 
L 692.473636 292.392067 
L 692.473636 292.392067 
" style="fill:none;stroke:#4c72b0;stroke-linecap:round;stroke-width:1.5;"/>
   </g>
   <g id="line2d_15">
    <path clip-path="url(#p75cd3ef7a4)" d="M 83.746364 328.608268 
L 86.79 325.889413 
L 89.833636 311.951983 
L 92.877273 269.717346 
L 95.920909 128.442486 
L 98.964545 124.430196 
L 102.008182 192.639134 
L 105.051818 118.517346 
L 108.095455 198.763156 
L 111.139091 246.910642 
L 114.182727 206.787737 
L 117.226364 196.862598 
L 120.27 195.595559 
L 123.313636 196.440251 
L 126.357273 188.626844 
L 129.400909 205.098352 
L 132.444545 196.862598 
L 135.488182 197.284944 
L 138.531818 182.291648 
L 141.575455 211.433547 
L 144.619091 197.284944 
L 147.662727 196.017905 
L 150.706364 196.229078 
L 153.75 194.750866 
L 156.793636 200.030196 
L 159.837273 197.073771 
L 162.880909 197.073771 
L 165.924545 180.179916 
L 168.968182 213.545279 
L 172.011818 197.707291 
L 175.055455 196.440251 
L 178.099091 191.583268 
L 181.142727 202.98662 
L 184.186364 199.185503 
L 187.23 196.229078 
L 190.273636 197.284944 
L 193.317273 184.825726 
L 196.360909 208.477123 
L 199.404545 197.496117 
L 202.448182 197.284944 
L 205.491818 185.670419 
L 208.535455 208.054777 
L 211.579091 199.185503 
L 214.622727 196.229078 
L 217.666364 197.284944 
L 220.71 189.471536 
L 223.753636 204.253659 
L 226.797273 197.496117 
L 229.840909 197.707291 
L 232.884545 180.813436 
L 235.928182 211.644721 
L 238.971818 199.819022 
L 242.015455 197.707291 
L 245.059091 194.32852 
L 248.102727 196.862598 
L 251.146364 200.874888 
L 254.19 196.440251 
L 257.233636 196.440251 
L 260.277273 181.024609 
L 263.320909 212.91176 
L 266.364545 198.551983 
L 269.408182 196.651425 
L 272.451818 189.471536 
L 275.495455 204.253659 
L 278.539091 197.707291 
L 281.582727 196.440251 
L 284.626364 197.284944 
L 287.67 187.148631 
L 290.713636 206.576564 
L 293.757273 303.505056 
L 296.800909 329.057011 
L 299.844545 261.270419 
L 302.888182 197.284944 
L 305.931818 188.41567 
L 308.975455 204.887179 
L 312.019091 197.284944 
L 315.062727 196.440251 
L 318.106364 181.869302 
L 321.15 211.011201 
L 324.193636 196.862598 
L 327.237273 197.284944 
L 330.280909 195.173212 
L 333.324545 195.806732 
L 336.368182 199.185503 
L 339.411818 196.862598 
L 342.455455 196.440251 
L 345.499091 180.602263 
L 348.542727 213.122933 
L 351.586364 196.862598 
L 354.63 197.284944 
L 357.673636 189.682709 
L 360.717273 203.197793 
L 363.760909 196.440251 
L 369.848182 197.284944 
L 372.891818 187.359804 
L 375.935455 207.843603 
L 378.979091 197.496117 
L 382.022727 197.284944 
L 385.066364 184.614553 
L 388.11 210.377682 
L 391.153636 198.34081 
L 394.197273 198.129637 
L 397.240909 196.440251 
L 400.284545 193.06148 
L 403.328182 201.086061 
L 406.371818 197.918464 
L 409.415455 197.284944 
L 412.459091 178.279358 
L 415.502727 215.234665 
L 418.546364 196.862598 
L 421.59 197.707291 
L 424.633636 192.427961 
L 427.677273 201.719581 
L 430.720909 198.763156 
L 433.764545 197.073771 
L 436.808182 196.862598 
L 439.851818 183.76986 
L 442.895455 209.532989 
L 445.939091 197.073771 
L 448.982727 197.284944 
L 452.026364 186.937458 
L 455.07 207.210084 
L 458.113636 199.819022 
L 461.157273 197.073771 
L 464.200909 196.229078 
L 467.244545 190.527402 
L 470.288182 205.520698 
L 473.331818 196.229078 
L 476.375455 197.284944 
L 479.419091 180.813436 
L 482.462727 212.91176 
L 485.506364 198.551983 
L 488.55 196.862598 
L 491.593636 194.117346 
L 494.637273 198.763156 
L 497.680909 197.707291 
L 500.724545 196.017905 
L 503.768182 231.917346 
L 506.811818 329.901704 
L 509.855455 329.057011 
L 512.899091 240.78662 
L 515.942727 196.440251 
L 518.986364 182.291648 
L 522.03 211.433547 
L 525.073636 196.440251 
L 528.117273 196.862598 
L 531.160909 194.750866 
L 534.204545 194.962039 
L 537.248182 198.763156 
L 540.291818 196.440251 
L 543.335455 196.440251 
L 546.379091 180.179916 
L 549.422727 212.27824 
L 552.466364 196.651425 
L 555.51 197.073771 
L 558.553636 189.682709 
L 561.597273 204.464832 
L 564.640909 196.440251 
L 567.684545 197.284944 
L 570.728182 197.284944 
L 573.771818 187.570978 
L 576.815455 207.421257 
L 579.859091 197.284944 
L 582.902727 197.284944 
L 585.946364 183.76986 
L 588.99 210.166508 
L 592.033636 197.496117 
L 595.077273 197.496117 
L 598.120909 197.284944 
L 601.164545 190.949749 
L 604.208182 202.98662 
L 607.251818 199.396676 
L 610.295455 196.440251 
L 613.339091 179.75757 
L 616.382727 214.389972 
L 619.426364 198.97433 
L 622.47 197.284944 
L 625.513636 194.117346 
L 628.557273 200.241369 
L 631.600909 197.707291 
L 634.644545 196.651425 
L 637.688182 197.707291 
L 640.731818 183.136341 
L 643.775455 213.122933 
L 646.819091 197.918464 
L 649.862727 196.862598 
L 652.906364 189.04919 
L 655.95 204.676006 
L 658.993636 197.284944 
L 662.037273 197.918464 
L 665.080909 196.862598 
L 668.124545 187.782151 
L 671.168182 205.731872 
L 674.211818 198.551983 
L 677.255455 197.284944 
L 680.299091 183.347514 
L 683.342727 210.377682 
L 686.386364 202.141927 
L 689.43 196.440251 
L 692.473636 288.300587 
L 692.473636 288.300587 
" style="fill:none;stroke:#dd8452;stroke-dasharray:6,2.25;stroke-dashoffset:0;stroke-width:1.5;"/>
   </g>
   <g id="line2d_16">
    <path clip-path="url(#p75cd3ef7a4)" d="M 83.746364 328.608268 
L 86.79 325.67824 
L 89.833636 306.46148 
L 92.877273 238.041369 
L 95.920909 182.925168 
L 98.964545 192.639134 
L 102.008182 192.639134 
L 105.051818 191.794441 
L 108.095455 192.427961 
L 114.182727 192.005615 
L 117.226364 232.12852 
L 120.27 199.396676 
L 123.313636 198.129637 
L 126.357273 196.017905 
L 129.400909 197.496117 
L 132.444545 196.651425 
L 135.488182 196.017905 
L 138.531818 196.440251 
L 141.575455 197.284944 
L 144.619091 196.651425 
L 147.662727 196.862598 
L 150.706364 198.34081 
L 153.75 196.862598 
L 156.793636 196.651425 
L 159.837273 197.496117 
L 162.880909 197.496117 
L 165.924545 197.918464 
L 168.968182 196.862598 
L 175.055455 198.551983 
L 178.099091 197.073771 
L 181.142727 197.918464 
L 184.186364 198.129637 
L 187.23 197.284944 
L 190.273636 197.284944 
L 193.317273 198.551983 
L 196.360909 210.377682 
L 199.404545 231.917346 
L 202.448182 192.216788 
L 205.491818 197.496117 
L 208.535455 198.551983 
L 211.579091 196.440251 
L 214.622727 198.763156 
L 217.666364 197.496117 
L 220.71 196.862598 
L 223.753636 198.129637 
L 226.797273 197.918464 
L 229.840909 197.284944 
L 232.884545 198.763156 
L 235.928182 197.073771 
L 238.971818 198.97433 
L 242.015455 198.763156 
L 245.059091 197.496117 
L 248.102727 197.496117 
L 251.146364 198.97433 
L 254.19 197.707291 
L 257.233636 198.34081 
L 260.277273 197.918464 
L 263.320909 198.763156 
L 266.364545 197.918464 
L 269.408182 197.707291 
L 272.451818 199.396676 
L 275.495455 198.551983 
L 278.539091 198.551983 
L 281.582727 199.819022 
L 284.626364 196.440251 
L 287.67 200.241369 
L 290.713636 198.129637 
L 293.757273 198.551983 
L 296.800909 198.34081 
L 299.844545 198.551983 
L 302.888182 198.97433 
L 305.931818 198.763156 
L 308.975455 198.763156 
L 312.019091 199.607849 
L 315.062727 197.918464 
L 318.106364 198.763156 
L 321.15 198.551983 
L 324.193636 198.129637 
L 327.237273 200.663715 
L 330.280909 198.551983 
L 333.324545 197.707291 
L 336.368182 198.97433 
L 339.411818 198.551983 
L 342.455455 198.551983 
L 348.542727 199.396676 
L 351.586364 198.129637 
L 357.673636 198.97433 
L 360.717273 198.97433 
L 363.760909 198.551983 
L 366.804545 198.97433 
L 369.848182 197.707291 
L 372.891818 198.34081 
L 375.935455 199.607849 
L 378.979091 197.707291 
L 382.022727 199.396676 
L 388.11 198.551983 
L 391.153636 196.862598 
L 394.197273 198.551983 
L 397.240909 198.34081 
L 400.284545 198.763156 
L 403.328182 198.551983 
L 406.371818 197.073771 
L 409.415455 199.185503 
L 412.459091 198.129637 
L 415.502727 196.862598 
L 418.546364 198.551983 
L 421.59 198.97433 
L 424.633636 197.707291 
L 427.677273 202.353101 
L 430.720909 192.850307 
L 433.764545 197.284944 
L 436.808182 198.129637 
L 439.851818 198.763156 
L 442.895455 196.651425 
L 445.939091 197.918464 
L 448.982727 196.862598 
L 452.026364 197.073771 
L 455.07 197.073771 
L 458.113636 232.550866 
L 461.157273 203.831313 
L 464.200909 196.440251 
L 467.244545 197.707291 
L 470.288182 196.651425 
L 473.331818 196.017905 
L 476.375455 197.073771 
L 479.419091 196.651425 
L 482.462727 197.918464 
L 485.506364 196.440251 
L 488.55 197.073771 
L 491.593636 197.073771 
L 494.637273 197.284944 
L 497.680909 196.651425 
L 500.724545 198.763156 
L 503.768182 196.862598 
L 506.811818 197.496117 
L 509.855455 197.918464 
L 512.899091 198.129637 
L 515.942727 196.862598 
L 518.986364 198.129637 
L 522.03 196.862598 
L 525.073636 198.34081 
L 528.117273 198.129637 
L 531.160909 198.763156 
L 534.204545 198.551983 
L 537.248182 197.284944 
L 540.291818 198.551983 
L 543.335455 198.129637 
L 546.379091 197.284944 
L 549.422727 199.396676 
L 552.466364 198.129637 
L 555.51 197.284944 
L 558.553636 198.97433 
L 561.597273 197.918464 
L 564.640909 197.918464 
L 567.684545 218.613436 
L 570.728182 226.426844 
L 573.771818 190.527402 
L 576.815455 197.284944 
L 579.859091 198.129637 
L 582.902727 196.651425 
L 585.946364 198.551983 
L 588.99 196.229078 
L 592.033636 198.551983 
L 595.077273 198.34081 
L 598.120909 196.651425 
L 601.164545 199.185503 
L 604.208182 197.073771 
L 607.251818 199.819022 
L 610.295455 196.440251 
L 613.339091 198.129637 
L 616.382727 198.551983 
L 619.426364 197.707291 
L 622.47 198.129637 
L 625.513636 198.129637 
L 628.557273 199.185503 
L 631.600909 197.707291 
L 634.644545 198.763156 
L 637.688182 198.97433 
L 640.731818 197.707291 
L 643.775455 199.396676 
L 646.819091 197.284944 
L 649.862727 199.185503 
L 652.906364 197.918464 
L 655.95 199.396676 
L 658.993636 198.763156 
L 662.037273 198.763156 
L 665.080909 197.707291 
L 668.124545 198.97433 
L 671.168182 198.129637 
L 674.211818 198.97433 
L 677.255455 198.763156 
L 680.299091 199.396676 
L 683.342727 198.129637 
L 686.386364 199.607849 
L 689.43 197.918464 
L 692.473636 287.033547 
L 692.473636 287.033547 
" style="fill:none;stroke:#55a868;stroke-dasharray:1.5,1.5;stroke-dashoffset:0;stroke-width:1.5;"/>
   </g>
   <g id="line2d_17"/>
   <g id="line2d_18"/>
   <g id="line2d_19"/>
   <g id="line2d_20"/>
   <g id="patch_3">
    <path d="M 53.31 345.84 
L 53.31 13.2 
" style="fill:none;stroke:#ffffff;stroke-linecap:square;stroke-linejoin:miter;stroke-width:1.25;"/>
   </g>
   <g id="patch_4">
    <path d="M 722.91 345.84 
L 722.91 13.2 
" style="fill:none;stroke:#ffffff;stroke-linecap:square;stroke-linejoin:miter;stroke-width:1.25;"/>
   </g>
   <g id="patch_5">
    <path d="M 53.31 345.84 
L 722.91 345.84 
" style="fill:none;stroke:#ffffff;stroke-linecap:square;stroke-linejoin:miter;stroke-width:1.25;"/>
   </g>
   <g id="patch_6">
    <path d="M 53.31 13.2 
L 722.91 13.2 
" style="fill:none;stroke:#ffffff;stroke-linecap:square;stroke-linejoin:miter;stroke-width:1.25;"/>
   </g>
   <g id="legend_1">
    <g id="patch_7">
     <path d="M 738.502 345.84 
L 817.956375 345.84 
Q 820.156375 345.84 820.156375 343.64 
L 820.156375 280.15625 
Q 820.156375 277.95625 817.956375 277.95625 
L 738.502 277.95625 
Q 736.302 277.95625 736.302 280.15625 
L 736.302 343.64 
Q 736.302 345.84 738.502 345.84 
z
" style="fill:#eaeaf2;opacity:0.8;stroke:#cccccc;stroke-linejoin:miter;"/>
    </g>
    <g id="line2d_21">
     <path d="M 740.702 286.864531 
L 762.702 286.864531 
" style="fill:none;"/>
    </g>
    <g id="line2d_22"/>
    <g id="text_16">
     <!-- Scheme -->
     <defs>
      <path d="M 48.78125 52.59375 
L 48.78125 44.1875 
Q 44.96875 46.296875 41.140625 47.34375 
Q 37.3125 48.390625 33.40625 48.390625 
Q 24.65625 48.390625 19.8125 42.84375 
Q 14.984375 37.3125 14.984375 27.296875 
Q 14.984375 17.28125 19.8125 11.734375 
Q 24.65625 6.203125 33.40625 6.203125 
Q 37.3125 6.203125 41.140625 7.25 
Q 44.96875 8.296875 48.78125 10.40625 
L 48.78125 2.09375 
Q 45.015625 0.34375 40.984375 -0.53125 
Q 36.96875 -1.421875 32.421875 -1.421875 
Q 20.0625 -1.421875 12.78125 6.34375 
Q 5.515625 14.109375 5.515625 27.296875 
Q 5.515625 40.671875 12.859375 48.328125 
Q 20.21875 56 33.015625 56 
Q 37.15625 56 41.109375 55.140625 
Q 45.0625 54.296875 48.78125 52.59375 
z
" id="DejaVuSans-63"/>
      <path d="M 54.890625 33.015625 
L 54.890625 0 
L 45.90625 0 
L 45.90625 32.71875 
Q 45.90625 40.484375 42.875 44.328125 
Q 39.84375 48.1875 33.796875 48.1875 
Q 26.515625 48.1875 22.3125 43.546875 
Q 18.109375 38.921875 18.109375 30.90625 
L 18.109375 0 
L 9.078125 0 
L 9.078125 75.984375 
L 18.109375 75.984375 
L 18.109375 46.1875 
Q 21.34375 51.125 25.703125 53.5625 
Q 30.078125 56 35.796875 56 
Q 45.21875 56 50.046875 50.171875 
Q 54.890625 44.34375 54.890625 33.015625 
z
" id="DejaVuSans-68"/>
     </defs>
     <g style="fill:#262626;" transform="translate(771.502 290.714531)scale(0.11 -0.11)">
      <use xlink:href="#DejaVuSans-53"/>
      <use x="63.476562" xlink:href="#DejaVuSans-63"/>
      <use x="118.457031" xlink:href="#DejaVuSans-68"/>
      <use x="181.835938" xlink:href="#DejaVuSans-65"/>
      <use x="243.359375" xlink:href="#DejaVuSans-6d"/>
      <use x="340.771484" xlink:href="#DejaVuSans-65"/>
     </g>
    </g>
    <g id="line2d_23">
     <path d="M 740.702 303.010469 
L 762.702 303.010469 
" style="fill:none;stroke:#4c72b0;stroke-linecap:round;stroke-width:1.5;"/>
    </g>
    <g id="line2d_24"/>
    <g id="text_17">
     <!-- pcc -->
     <defs>
      <path d="M 18.109375 8.203125 
L 18.109375 -20.796875 
L 9.078125 -20.796875 
L 9.078125 54.6875 
L 18.109375 54.6875 
L 18.109375 46.390625 
Q 20.953125 51.265625 25.265625 53.625 
Q 29.59375 56 35.59375 56 
Q 45.5625 56 51.78125 48.09375 
Q 58.015625 40.1875 58.015625 27.296875 
Q 58.015625 14.40625 51.78125 6.484375 
Q 45.5625 -1.421875 35.59375 -1.421875 
Q 29.59375 -1.421875 25.265625 0.953125 
Q 20.953125 3.328125 18.109375 8.203125 
z
M 48.6875 27.296875 
Q 48.6875 37.203125 44.609375 42.84375 
Q 40.53125 48.484375 33.40625 48.484375 
Q 26.265625 48.484375 22.1875 42.84375 
Q 18.109375 37.203125 18.109375 27.296875 
Q 18.109375 17.390625 22.1875 11.75 
Q 26.265625 6.109375 33.40625 6.109375 
Q 40.53125 6.109375 44.609375 11.75 
Q 48.6875 17.390625 48.6875 27.296875 
z
" id="DejaVuSans-70"/>
     </defs>
     <g style="fill:#262626;" transform="translate(771.502 306.860469)scale(0.11 -0.11)">
      <use xlink:href="#DejaVuSans-70"/>
      <use x="63.476562" xlink:href="#DejaVuSans-63"/>
      <use x="118.457031" xlink:href="#DejaVuSans-63"/>
     </g>
    </g>
    <g id="line2d_25">
     <path d="M 740.702 319.156406 
L 762.702 319.156406 
" style="fill:none;stroke:#dd8452;stroke-dasharray:6,2.25;stroke-dashoffset:0;stroke-width:1.5;"/>
    </g>
    <g id="line2d_26"/>
    <g id="text_18">
     <!-- bbr -->
     <defs>
      <path d="M 41.109375 46.296875 
Q 39.59375 47.171875 37.8125 47.578125 
Q 36.03125 48 33.890625 48 
Q 26.265625 48 22.1875 43.046875 
Q 18.109375 38.09375 18.109375 28.8125 
L 18.109375 0 
L 9.078125 0 
L 9.078125 54.6875 
L 18.109375 54.6875 
L 18.109375 46.1875 
Q 20.953125 51.171875 25.484375 53.578125 
Q 30.03125 56 36.53125 56 
Q 37.453125 56 38.578125 55.875 
Q 39.703125 55.765625 41.0625 55.515625 
z
" id="DejaVuSans-72"/>
     </defs>
     <g style="fill:#262626;" transform="translate(771.502 323.006406)scale(0.11 -0.11)">
      <use xlink:href="#DejaVuSans-62"/>
      <use x="63.476562" xlink:href="#DejaVuSans-62"/>
      <use x="126.953125" xlink:href="#DejaVuSans-72"/>
     </g>
    </g>
    <g id="line2d_27">
     <path d="M 740.702 335.302344 
L 762.702 335.302344 
" style="fill:none;stroke:#55a868;stroke-dasharray:1.5,1.5;stroke-dashoffset:0;stroke-width:1.5;"/>
    </g>
    <g id="line2d_28"/>
    <g id="text_19">
     <!-- cubic -->
     <defs>
      <path d="M 8.5 21.578125 
L 8.5 54.6875 
L 17.484375 54.6875 
L 17.484375 21.921875 
Q 17.484375 14.15625 20.5 10.265625 
Q 23.53125 6.390625 29.59375 6.390625 
Q 36.859375 6.390625 41.078125 11.03125 
Q 45.3125 15.671875 45.3125 23.6875 
L 45.3125 54.6875 
L 54.296875 54.6875 
L 54.296875 0 
L 45.3125 0 
L 45.3125 8.40625 
Q 42.046875 3.421875 37.71875 1 
Q 33.40625 -1.421875 27.6875 -1.421875 
Q 18.265625 -1.421875 13.375 4.4375 
Q 8.5 10.296875 8.5 21.578125 
z
M 31.109375 56 
z
" id="DejaVuSans-75"/>
     </defs>
     <g style="fill:#262626;" transform="translate(771.502 339.152344)scale(0.11 -0.11)">
      <use xlink:href="#DejaVuSans-63"/>
      <use x="54.980469" xlink:href="#DejaVuSans-75"/>
      <use x="118.359375" xlink:href="#DejaVuSans-62"/>
      <use x="181.835938" xlink:href="#DejaVuSans-69"/>
      <use x="209.619141" xlink:href="#DejaVuSans-63"/>
     </g>
    </g>
   </g>
  </g>
 </g>
 <defs>
  <clipPath id="p75cd3ef7a4">
   <rect height="332.64" width="669.6" x="53.31" y="13.2"/>
  </clipPath>
 </defs>
</svg>
