<?xml version="1.0" encoding="utf-8" standalone="no"?>
<!DOCTYPE svg PUBLIC "-//W3C//DTD SVG 1.1//EN"
  "http://www.w3.org/Graphics/SVG/1.1/DTD/svg11.dtd">
<!-- Created with matplotlib (http://matplotlib.org/) -->
<svg height="402pt" version="1.1" viewBox="0 0 594 402" width="594pt" xmlns="http://www.w3.org/2000/svg" xmlns:xlink="http://www.w3.org/1999/xlink">
 <defs>
  <style type="text/css">
*{stroke-linecap:butt;stroke-linejoin:round;stroke-miterlimit:100000;}
  </style>
 </defs>
 <g id="figure_1">
  <g id="patch_1">
   <path d="M 0 402.582656 
L 594.193625 402.582656 
L 594.193625 0 
L 0 0 
z
" style="fill:#ffffff;"/>
  </g>
  <g id="axes_1">
   <g id="patch_2">
    <path d="M 47.81125 358.122969 
L 494.21125 358.122969 
L 494.21125 12.522969 
L 47.81125 12.522969 
z
" style="fill:#ffffff;"/>
   </g>
   <g id="matplotlib.axis_1">
    <g id="xtick_1">
     <g id="line2d_1">
      <defs>
       <path d="M 0 0 
L 0 6 
" id="m15fcd2d1fe" style="stroke:#262626;stroke-width:1.25;"/>
      </defs>
      <g>
       <use style="fill:#262626;stroke:#262626;stroke-width:1.25;" x="47.81125" xlink:href="#m15fcd2d1fe" y="358.1229687499998"/>
      </g>
     </g>
     <g id="line2d_2">
      <defs>
       <path d="M 0 0 
L 0 -6 
" id="m9a161f6f53" style="stroke:#262626;stroke-width:1.25;"/>
      </defs>
      <g>
       <use style="fill:#262626;stroke:#262626;stroke-width:1.25;" x="47.81125" xlink:href="#m9a161f6f53" y="12.52296874999979"/>
      </g>
     </g>
     <g id="text_1">
      <!-- 0 -->
      <defs>
       <path d="M 31.78125 66.40625 
Q 24.171875 66.40625 20.328125 58.90625 
Q 16.5 51.421875 16.5 36.375 
Q 16.5 21.390625 20.328125 13.890625 
Q 24.171875 6.390625 31.78125 6.390625 
Q 39.453125 6.390625 43.28125 13.890625 
Q 47.125 21.390625 47.125 36.375 
Q 47.125 51.421875 43.28125 58.90625 
Q 39.453125 66.40625 31.78125 66.40625 
M 31.78125 74.21875 
Q 44.046875 74.21875 50.515625 64.515625 
Q 56.984375 54.828125 56.984375 36.375 
Q 56.984375 17.96875 50.515625 8.265625 
Q 44.046875 -1.421875 31.78125 -1.421875 
Q 19.53125 -1.421875 13.0625 8.265625 
Q 6.59375 17.96875 6.59375 36.375 
Q 6.59375 54.828125 13.0625 64.515625 
Q 19.53125 74.21875 31.78125 74.21875 
" id="DejaVuSans-30"/>
      </defs>
      <g style="fill:#262626;" transform="translate(44.311875 376.4812499999998)scale(0.11 -0.11)">
       <use xlink:href="#DejaVuSans-30"/>
      </g>
     </g>
    </g>
    <g id="xtick_2">
     <g id="line2d_3">
      <g>
       <use style="fill:#262626;stroke:#262626;stroke-width:1.25;" x="111.58267857142857" xlink:href="#m15fcd2d1fe" y="358.1229687499998"/>
      </g>
     </g>
     <g id="line2d_4">
      <g>
       <use style="fill:#262626;stroke:#262626;stroke-width:1.25;" x="111.58267857142857" xlink:href="#m9a161f6f53" y="12.52296874999979"/>
      </g>
     </g>
     <g id="text_2">
      <!-- 5 -->
      <defs>
       <path d="M 10.796875 72.90625 
L 49.515625 72.90625 
L 49.515625 64.59375 
L 19.828125 64.59375 
L 19.828125 46.734375 
Q 21.96875 47.46875 24.109375 47.828125 
Q 26.265625 48.1875 28.421875 48.1875 
Q 40.625 48.1875 47.75 41.5 
Q 54.890625 34.8125 54.890625 23.390625 
Q 54.890625 11.625 47.5625 5.09375 
Q 40.234375 -1.421875 26.90625 -1.421875 
Q 22.3125 -1.421875 17.546875 -0.640625 
Q 12.796875 0.140625 7.71875 1.703125 
L 7.71875 11.625 
Q 12.109375 9.234375 16.796875 8.0625 
Q 21.484375 6.890625 26.703125 6.890625 
Q 35.15625 6.890625 40.078125 11.328125 
Q 45.015625 15.765625 45.015625 23.390625 
Q 45.015625 31 40.078125 35.4375 
Q 35.15625 39.890625 26.703125 39.890625 
Q 22.75 39.890625 18.8125 39.015625 
Q 14.890625 38.140625 10.796875 36.28125 
z
" id="DejaVuSans-35"/>
      </defs>
      <g style="fill:#262626;" transform="translate(108.08330357142857 376.4812499999998)scale(0.11 -0.11)">
       <use xlink:href="#DejaVuSans-35"/>
      </g>
     </g>
    </g>
    <g id="xtick_3">
     <g id="line2d_5">
      <g>
       <use style="fill:#262626;stroke:#262626;stroke-width:1.25;" x="175.35410714285712" xlink:href="#m15fcd2d1fe" y="358.1229687499998"/>
      </g>
     </g>
     <g id="line2d_6">
      <g>
       <use style="fill:#262626;stroke:#262626;stroke-width:1.25;" x="175.35410714285712" xlink:href="#m9a161f6f53" y="12.52296874999979"/>
      </g>
     </g>
     <g id="text_3">
      <!-- 10 -->
      <defs>
       <path d="M 12.40625 8.296875 
L 28.515625 8.296875 
L 28.515625 63.921875 
L 10.984375 60.40625 
L 10.984375 69.390625 
L 28.421875 72.90625 
L 38.28125 72.90625 
L 38.28125 8.296875 
L 54.390625 8.296875 
L 54.390625 0 
L 12.40625 0 
z
" id="DejaVuSans-31"/>
      </defs>
      <g style="fill:#262626;" transform="translate(168.35535714285712 376.4812499999998)scale(0.11 -0.11)">
       <use xlink:href="#DejaVuSans-31"/>
       <use x="63.623046875" xlink:href="#DejaVuSans-30"/>
      </g>
     </g>
    </g>
    <g id="xtick_4">
     <g id="line2d_7">
      <g>
       <use style="fill:#262626;stroke:#262626;stroke-width:1.25;" x="239.1255357142857" xlink:href="#m15fcd2d1fe" y="358.1229687499998"/>
      </g>
     </g>
     <g id="line2d_8">
      <g>
       <use style="fill:#262626;stroke:#262626;stroke-width:1.25;" x="239.1255357142857" xlink:href="#m9a161f6f53" y="12.52296874999979"/>
      </g>
     </g>
     <g id="text_4">
      <!-- 15 -->
      <g style="fill:#262626;" transform="translate(232.1267857142857 376.4812499999998)scale(0.11 -0.11)">
       <use xlink:href="#DejaVuSans-31"/>
       <use x="63.623046875" xlink:href="#DejaVuSans-35"/>
      </g>
     </g>
    </g>
    <g id="xtick_5">
     <g id="line2d_9">
      <g>
       <use style="fill:#262626;stroke:#262626;stroke-width:1.25;" x="302.89696428571426" xlink:href="#m15fcd2d1fe" y="358.1229687499998"/>
      </g>
     </g>
     <g id="line2d_10">
      <g>
       <use style="fill:#262626;stroke:#262626;stroke-width:1.25;" x="302.89696428571426" xlink:href="#m9a161f6f53" y="12.52296874999979"/>
      </g>
     </g>
     <g id="text_5">
      <!-- 20 -->
      <defs>
       <path d="M 19.1875 8.296875 
L 53.609375 8.296875 
L 53.609375 0 
L 7.328125 0 
L 7.328125 8.296875 
Q 12.9375 14.109375 22.625 23.890625 
Q 32.328125 33.6875 34.8125 36.53125 
Q 39.546875 41.84375 41.421875 45.53125 
Q 43.3125 49.21875 43.3125 52.78125 
Q 43.3125 58.59375 39.234375 62.25 
Q 35.15625 65.921875 28.609375 65.921875 
Q 23.96875 65.921875 18.8125 64.3125 
Q 13.671875 62.703125 7.8125 59.421875 
L 7.8125 69.390625 
Q 13.765625 71.78125 18.9375 73 
Q 24.125 74.21875 28.421875 74.21875 
Q 39.75 74.21875 46.484375 68.546875 
Q 53.21875 62.890625 53.21875 53.421875 
Q 53.21875 48.921875 51.53125 44.890625 
Q 49.859375 40.875 45.40625 35.40625 
Q 44.1875 33.984375 37.640625 27.21875 
Q 31.109375 20.453125 19.1875 8.296875 
" id="DejaVuSans-32"/>
      </defs>
      <g style="fill:#262626;" transform="translate(295.8982142857143 376.4812499999998)scale(0.11 -0.11)">
       <use xlink:href="#DejaVuSans-32"/>
       <use x="63.623046875" xlink:href="#DejaVuSans-30"/>
      </g>
     </g>
    </g>
    <g id="xtick_6">
     <g id="line2d_11">
      <g>
       <use style="fill:#262626;stroke:#262626;stroke-width:1.25;" x="366.66839285714286" xlink:href="#m15fcd2d1fe" y="358.1229687499998"/>
      </g>
     </g>
     <g id="line2d_12">
      <g>
       <use style="fill:#262626;stroke:#262626;stroke-width:1.25;" x="366.66839285714286" xlink:href="#m9a161f6f53" y="12.52296874999979"/>
      </g>
     </g>
     <g id="text_6">
      <!-- 25 -->
      <g style="fill:#262626;" transform="translate(359.6696428571429 376.4812499999998)scale(0.11 -0.11)">
       <use xlink:href="#DejaVuSans-32"/>
       <use x="63.623046875" xlink:href="#DejaVuSans-35"/>
      </g>
     </g>
    </g>
    <g id="xtick_7">
     <g id="line2d_13">
      <g>
       <use style="fill:#262626;stroke:#262626;stroke-width:1.25;" x="430.43982142857135" xlink:href="#m15fcd2d1fe" y="358.1229687499998"/>
      </g>
     </g>
     <g id="line2d_14">
      <g>
       <use style="fill:#262626;stroke:#262626;stroke-width:1.25;" x="430.43982142857135" xlink:href="#m9a161f6f53" y="12.52296874999979"/>
      </g>
     </g>
     <g id="text_7">
      <!-- 30 -->
      <defs>
       <path d="M 40.578125 39.3125 
Q 47.65625 37.796875 51.625 33 
Q 55.609375 28.21875 55.609375 21.1875 
Q 55.609375 10.40625 48.1875 4.484375 
Q 40.765625 -1.421875 27.09375 -1.421875 
Q 22.515625 -1.421875 17.65625 -0.515625 
Q 12.796875 0.390625 7.625 2.203125 
L 7.625 11.71875 
Q 11.71875 9.328125 16.59375 8.109375 
Q 21.484375 6.890625 26.8125 6.890625 
Q 36.078125 6.890625 40.9375 10.546875 
Q 45.796875 14.203125 45.796875 21.1875 
Q 45.796875 27.640625 41.28125 31.265625 
Q 36.765625 34.90625 28.71875 34.90625 
L 20.21875 34.90625 
L 20.21875 43.015625 
L 29.109375 43.015625 
Q 36.375 43.015625 40.234375 45.921875 
Q 44.09375 48.828125 44.09375 54.296875 
Q 44.09375 59.90625 40.109375 62.90625 
Q 36.140625 65.921875 28.71875 65.921875 
Q 24.65625 65.921875 20.015625 65.03125 
Q 15.375 64.15625 9.8125 62.3125 
L 9.8125 71.09375 
Q 15.4375 72.65625 20.34375 73.4375 
Q 25.25 74.21875 29.59375 74.21875 
Q 40.828125 74.21875 47.359375 69.109375 
Q 53.90625 64.015625 53.90625 55.328125 
Q 53.90625 49.265625 50.4375 45.09375 
Q 46.96875 40.921875 40.578125 39.3125 
" id="DejaVuSans-33"/>
      </defs>
      <g style="fill:#262626;" transform="translate(423.4410714285714 376.4812499999998)scale(0.11 -0.11)">
       <use xlink:href="#DejaVuSans-33"/>
       <use x="63.623046875" xlink:href="#DejaVuSans-30"/>
      </g>
     </g>
    </g>
    <g id="xtick_8">
     <g id="line2d_15">
      <g>
       <use style="fill:#262626;stroke:#262626;stroke-width:1.25;" x="494.21124999999995" xlink:href="#m15fcd2d1fe" y="358.1229687499998"/>
      </g>
     </g>
     <g id="line2d_16">
      <g>
       <use style="fill:#262626;stroke:#262626;stroke-width:1.25;" x="494.21124999999995" xlink:href="#m9a161f6f53" y="12.52296874999979"/>
      </g>
     </g>
     <g id="text_8">
      <!-- 35 -->
      <g style="fill:#262626;" transform="translate(487.2125 376.4812499999998)scale(0.11 -0.11)">
       <use xlink:href="#DejaVuSans-33"/>
       <use x="63.623046875" xlink:href="#DejaVuSans-35"/>
      </g>
     </g>
    </g>
    <g id="text_9">
     <!-- Time (s) -->
     <defs>
      <path d="M 8.015625 75.875 
L 15.828125 75.875 
Q 23.140625 64.359375 26.78125 53.3125 
Q 30.421875 42.28125 30.421875 31.390625 
Q 30.421875 20.453125 26.78125 9.375 
Q 23.140625 -1.703125 15.828125 -13.1875 
L 8.015625 -13.1875 
Q 14.5 -2 17.703125 9.0625 
Q 20.90625 20.125 20.90625 31.390625 
Q 20.90625 42.671875 17.703125 53.65625 
Q 14.5 64.65625 8.015625 75.875 
" id="DejaVuSans-29"/>
      <path d="M 52 44.1875 
Q 55.375 50.25 60.0625 53.125 
Q 64.75 56 71.09375 56 
Q 79.640625 56 84.28125 50.015625 
Q 88.921875 44.046875 88.921875 33.015625 
L 88.921875 0 
L 79.890625 0 
L 79.890625 32.71875 
Q 79.890625 40.578125 77.09375 44.375 
Q 74.3125 48.1875 68.609375 48.1875 
Q 61.625 48.1875 57.5625 43.546875 
Q 53.515625 38.921875 53.515625 30.90625 
L 53.515625 0 
L 44.484375 0 
L 44.484375 32.71875 
Q 44.484375 40.625 41.703125 44.40625 
Q 38.921875 48.1875 33.109375 48.1875 
Q 26.21875 48.1875 22.15625 43.53125 
Q 18.109375 38.875 18.109375 30.90625 
L 18.109375 0 
L 9.078125 0 
L 9.078125 54.6875 
L 18.109375 54.6875 
L 18.109375 46.1875 
Q 21.1875 51.21875 25.484375 53.609375 
Q 29.78125 56 35.6875 56 
Q 41.65625 56 45.828125 52.96875 
Q 50 49.953125 52 44.1875 
" id="DejaVuSans-6d"/>
      <path id="DejaVuSans-20"/>
      <path d="M 9.421875 54.6875 
L 18.40625 54.6875 
L 18.40625 0 
L 9.421875 0 
z
M 9.421875 75.984375 
L 18.40625 75.984375 
L 18.40625 64.59375 
L 9.421875 64.59375 
z
" id="DejaVuSans-69"/>
      <path d="M 31 75.875 
Q 24.46875 64.65625 21.28125 53.65625 
Q 18.109375 42.671875 18.109375 31.390625 
Q 18.109375 20.125 21.3125 9.0625 
Q 24.515625 -2 31 -13.1875 
L 23.1875 -13.1875 
Q 15.875 -1.703125 12.234375 9.375 
Q 8.59375 20.453125 8.59375 31.390625 
Q 8.59375 42.28125 12.203125 53.3125 
Q 15.828125 64.359375 23.1875 75.875 
z
" id="DejaVuSans-28"/>
      <path d="M 56.203125 29.59375 
L 56.203125 25.203125 
L 14.890625 25.203125 
Q 15.484375 15.921875 20.484375 11.0625 
Q 25.484375 6.203125 34.421875 6.203125 
Q 39.59375 6.203125 44.453125 7.46875 
Q 49.3125 8.734375 54.109375 11.28125 
L 54.109375 2.78125 
Q 49.265625 0.734375 44.1875 -0.34375 
Q 39.109375 -1.421875 33.890625 -1.421875 
Q 20.796875 -1.421875 13.15625 6.1875 
Q 5.515625 13.8125 5.515625 26.8125 
Q 5.515625 40.234375 12.765625 48.109375 
Q 20.015625 56 32.328125 56 
Q 43.359375 56 49.78125 48.890625 
Q 56.203125 41.796875 56.203125 29.59375 
M 47.21875 32.234375 
Q 47.125 39.59375 43.09375 43.984375 
Q 39.0625 48.390625 32.421875 48.390625 
Q 24.90625 48.390625 20.390625 44.140625 
Q 15.875 39.890625 15.1875 32.171875 
z
" id="DejaVuSans-65"/>
      <path d="M 44.28125 53.078125 
L 44.28125 44.578125 
Q 40.484375 46.53125 36.375 47.5 
Q 32.28125 48.484375 27.875 48.484375 
Q 21.1875 48.484375 17.84375 46.4375 
Q 14.5 44.390625 14.5 40.28125 
Q 14.5 37.15625 16.890625 35.375 
Q 19.28125 33.59375 26.515625 31.984375 
L 29.59375 31.296875 
Q 39.15625 29.25 43.1875 25.515625 
Q 47.21875 21.78125 47.21875 15.09375 
Q 47.21875 7.46875 41.1875 3.015625 
Q 35.15625 -1.421875 24.609375 -1.421875 
Q 20.21875 -1.421875 15.453125 -0.5625 
Q 10.6875 0.296875 5.421875 2 
L 5.421875 11.28125 
Q 10.40625 8.6875 15.234375 7.390625 
Q 20.0625 6.109375 24.8125 6.109375 
Q 31.15625 6.109375 34.5625 8.28125 
Q 37.984375 10.453125 37.984375 14.40625 
Q 37.984375 18.0625 35.515625 20.015625 
Q 33.0625 21.96875 24.703125 23.78125 
L 21.578125 24.515625 
Q 13.234375 26.265625 9.515625 29.90625 
Q 5.8125 33.546875 5.8125 39.890625 
Q 5.8125 47.609375 11.28125 51.796875 
Q 16.75 56 26.8125 56 
Q 31.78125 56 36.171875 55.265625 
Q 40.578125 54.546875 44.28125 53.078125 
" id="DejaVuSans-73"/>
      <path d="M -0.296875 72.90625 
L 61.375 72.90625 
L 61.375 64.59375 
L 35.5 64.59375 
L 35.5 0 
L 25.59375 0 
L 25.59375 64.59375 
L -0.296875 64.59375 
z
" id="DejaVuSans-54"/>
     </defs>
     <g style="fill:#262626;" transform="translate(246.43187500000002 392.88703124999984)scale(0.12 -0.12)">
      <use xlink:href="#DejaVuSans-54"/>
      <use x="61.037109375" xlink:href="#DejaVuSans-69"/>
      <use x="88.8203125" xlink:href="#DejaVuSans-6d"/>
      <use x="186.232421875" xlink:href="#DejaVuSans-65"/>
      <use x="247.755859375" xlink:href="#DejaVuSans-20"/>
      <use x="279.54296875" xlink:href="#DejaVuSans-28"/>
      <use x="318.556640625" xlink:href="#DejaVuSans-73"/>
      <use x="370.65625" xlink:href="#DejaVuSans-29"/>
     </g>
    </g>
   </g>
   <g id="matplotlib.axis_2">
    <g id="ytick_1">
     <g id="line2d_17">
      <defs>
       <path d="M 0 0 
L -6 0 
" id="m4dcbf6046e" style="stroke:#262626;stroke-width:1.25;"/>
      </defs>
      <g>
       <use style="fill:#262626;stroke:#262626;stroke-width:1.25;" x="47.81125" xlink:href="#m4dcbf6046e" y="358.1229687499998"/>
      </g>
     </g>
     <g id="line2d_18">
      <defs>
       <path d="M 0 0 
L 6 0 
" id="m4f000efa69" style="stroke:#262626;stroke-width:1.25;"/>
      </defs>
      <g>
       <use style="fill:#262626;stroke:#262626;stroke-width:1.25;" x="494.21124999999995" xlink:href="#m4f000efa69" y="358.1229687499998"/>
      </g>
     </g>
     <g id="text_10">
      <!-- 0 -->
      <g style="fill:#262626;" transform="translate(30.8125 361.15828124999985)scale(0.11 -0.11)">
       <use xlink:href="#DejaVuSans-30"/>
      </g>
     </g>
    </g>
    <g id="ytick_2">
     <g id="line2d_19">
      <g>
       <use style="fill:#262626;stroke:#262626;stroke-width:1.25;" x="47.81125" xlink:href="#m4dcbf6046e" y="319.72296874999984"/>
      </g>
     </g>
     <g id="line2d_20">
      <g>
       <use style="fill:#262626;stroke:#262626;stroke-width:1.25;" x="494.21124999999995" xlink:href="#m4f000efa69" y="319.72296874999984"/>
      </g>
     </g>
     <g id="text_11">
      <!-- 2 -->
      <g style="fill:#262626;" transform="translate(30.8125 322.75828124999987)scale(0.11 -0.11)">
       <use xlink:href="#DejaVuSans-32"/>
      </g>
     </g>
    </g>
    <g id="ytick_3">
     <g id="line2d_21">
      <g>
       <use style="fill:#262626;stroke:#262626;stroke-width:1.25;" x="47.81125" xlink:href="#m4dcbf6046e" y="281.3229687499998"/>
      </g>
     </g>
     <g id="line2d_22">
      <g>
       <use style="fill:#262626;stroke:#262626;stroke-width:1.25;" x="494.21124999999995" xlink:href="#m4f000efa69" y="281.3229687499998"/>
      </g>
     </g>
     <g id="text_12">
      <!-- 4 -->
      <defs>
       <path d="M 37.796875 64.3125 
L 12.890625 25.390625 
L 37.796875 25.390625 
z
M 35.203125 72.90625 
L 47.609375 72.90625 
L 47.609375 25.390625 
L 58.015625 25.390625 
L 58.015625 17.1875 
L 47.609375 17.1875 
L 47.609375 0 
L 37.796875 0 
L 37.796875 17.1875 
L 4.890625 17.1875 
L 4.890625 26.703125 
z
" id="DejaVuSans-34"/>
      </defs>
      <g style="fill:#262626;" transform="translate(30.8125 284.35828124999983)scale(0.11 -0.11)">
       <use xlink:href="#DejaVuSans-34"/>
      </g>
     </g>
    </g>
    <g id="ytick_4">
     <g id="line2d_23">
      <g>
       <use style="fill:#262626;stroke:#262626;stroke-width:1.25;" x="47.81125" xlink:href="#m4dcbf6046e" y="242.92296874999982"/>
      </g>
     </g>
     <g id="line2d_24">
      <g>
       <use style="fill:#262626;stroke:#262626;stroke-width:1.25;" x="494.21124999999995" xlink:href="#m4f000efa69" y="242.92296874999982"/>
      </g>
     </g>
     <g id="text_13">
      <!-- 6 -->
      <defs>
       <path d="M 33.015625 40.375 
Q 26.375 40.375 22.484375 35.828125 
Q 18.609375 31.296875 18.609375 23.390625 
Q 18.609375 15.53125 22.484375 10.953125 
Q 26.375 6.390625 33.015625 6.390625 
Q 39.65625 6.390625 43.53125 10.953125 
Q 47.40625 15.53125 47.40625 23.390625 
Q 47.40625 31.296875 43.53125 35.828125 
Q 39.65625 40.375 33.015625 40.375 
M 52.59375 71.296875 
L 52.59375 62.3125 
Q 48.875 64.0625 45.09375 64.984375 
Q 41.3125 65.921875 37.59375 65.921875 
Q 27.828125 65.921875 22.671875 59.328125 
Q 17.53125 52.734375 16.796875 39.40625 
Q 19.671875 43.65625 24.015625 45.921875 
Q 28.375 48.1875 33.59375 48.1875 
Q 44.578125 48.1875 50.953125 41.515625 
Q 57.328125 34.859375 57.328125 23.390625 
Q 57.328125 12.15625 50.6875 5.359375 
Q 44.046875 -1.421875 33.015625 -1.421875 
Q 20.359375 -1.421875 13.671875 8.265625 
Q 6.984375 17.96875 6.984375 36.375 
Q 6.984375 53.65625 15.1875 63.9375 
Q 23.390625 74.21875 37.203125 74.21875 
Q 40.921875 74.21875 44.703125 73.484375 
Q 48.484375 72.75 52.59375 71.296875 
" id="DejaVuSans-36"/>
      </defs>
      <g style="fill:#262626;" transform="translate(30.8125 245.95828124999986)scale(0.11 -0.11)">
       <use xlink:href="#DejaVuSans-36"/>
      </g>
     </g>
    </g>
    <g id="ytick_5">
     <g id="line2d_25">
      <g>
       <use style="fill:#262626;stroke:#262626;stroke-width:1.25;" x="47.81125" xlink:href="#m4dcbf6046e" y="204.52296874999982"/>
      </g>
     </g>
     <g id="line2d_26">
      <g>
       <use style="fill:#262626;stroke:#262626;stroke-width:1.25;" x="494.21124999999995" xlink:href="#m4f000efa69" y="204.52296874999982"/>
      </g>
     </g>
     <g id="text_14">
      <!-- 8 -->
      <defs>
       <path d="M 31.78125 34.625 
Q 24.75 34.625 20.71875 30.859375 
Q 16.703125 27.09375 16.703125 20.515625 
Q 16.703125 13.921875 20.71875 10.15625 
Q 24.75 6.390625 31.78125 6.390625 
Q 38.8125 6.390625 42.859375 10.171875 
Q 46.921875 13.96875 46.921875 20.515625 
Q 46.921875 27.09375 42.890625 30.859375 
Q 38.875 34.625 31.78125 34.625 
M 21.921875 38.8125 
Q 15.578125 40.375 12.03125 44.71875 
Q 8.5 49.078125 8.5 55.328125 
Q 8.5 64.0625 14.71875 69.140625 
Q 20.953125 74.21875 31.78125 74.21875 
Q 42.671875 74.21875 48.875 69.140625 
Q 55.078125 64.0625 55.078125 55.328125 
Q 55.078125 49.078125 51.53125 44.71875 
Q 48 40.375 41.703125 38.8125 
Q 48.828125 37.15625 52.796875 32.3125 
Q 56.78125 27.484375 56.78125 20.515625 
Q 56.78125 9.90625 50.3125 4.234375 
Q 43.84375 -1.421875 31.78125 -1.421875 
Q 19.734375 -1.421875 13.25 4.234375 
Q 6.78125 9.90625 6.78125 20.515625 
Q 6.78125 27.484375 10.78125 32.3125 
Q 14.796875 37.15625 21.921875 38.8125 
M 18.3125 54.390625 
Q 18.3125 48.734375 21.84375 45.5625 
Q 25.390625 42.390625 31.78125 42.390625 
Q 38.140625 42.390625 41.71875 45.5625 
Q 45.3125 48.734375 45.3125 54.390625 
Q 45.3125 60.0625 41.71875 63.234375 
Q 38.140625 66.40625 31.78125 66.40625 
Q 25.390625 66.40625 21.84375 63.234375 
Q 18.3125 60.0625 18.3125 54.390625 
" id="DejaVuSans-38"/>
      </defs>
      <g style="fill:#262626;" transform="translate(30.8125 207.55828124999985)scale(0.11 -0.11)">
       <use xlink:href="#DejaVuSans-38"/>
      </g>
     </g>
    </g>
    <g id="ytick_6">
     <g id="line2d_27">
      <g>
       <use style="fill:#262626;stroke:#262626;stroke-width:1.25;" x="47.81125" xlink:href="#m4dcbf6046e" y="166.1229687499998"/>
      </g>
     </g>
     <g id="line2d_28">
      <g>
       <use style="fill:#262626;stroke:#262626;stroke-width:1.25;" x="494.21124999999995" xlink:href="#m4f000efa69" y="166.1229687499998"/>
      </g>
     </g>
     <g id="text_15">
      <!-- 10 -->
      <g style="fill:#262626;" transform="translate(23.81375 169.15828124999985)scale(0.11 -0.11)">
       <use xlink:href="#DejaVuSans-31"/>
       <use x="63.623046875" xlink:href="#DejaVuSans-30"/>
      </g>
     </g>
    </g>
    <g id="ytick_7">
     <g id="line2d_29">
      <g>
       <use style="fill:#262626;stroke:#262626;stroke-width:1.25;" x="47.81125" xlink:href="#m4dcbf6046e" y="127.72296874999984"/>
      </g>
     </g>
     <g id="line2d_30">
      <g>
       <use style="fill:#262626;stroke:#262626;stroke-width:1.25;" x="494.21124999999995" xlink:href="#m4f000efa69" y="127.72296874999984"/>
      </g>
     </g>
     <g id="text_16">
      <!-- 12 -->
      <g style="fill:#262626;" transform="translate(23.81375 130.75828124999987)scale(0.11 -0.11)">
       <use xlink:href="#DejaVuSans-31"/>
       <use x="63.623046875" xlink:href="#DejaVuSans-32"/>
      </g>
     </g>
    </g>
    <g id="ytick_8">
     <g id="line2d_31">
      <g>
       <use style="fill:#262626;stroke:#262626;stroke-width:1.25;" x="47.81125" xlink:href="#m4dcbf6046e" y="89.3229687499998"/>
      </g>
     </g>
     <g id="line2d_32">
      <g>
       <use style="fill:#262626;stroke:#262626;stroke-width:1.25;" x="494.21124999999995" xlink:href="#m4f000efa69" y="89.3229687499998"/>
      </g>
     </g>
     <g id="text_17">
      <!-- 14 -->
      <g style="fill:#262626;" transform="translate(23.81375 92.35828124999978)scale(0.11 -0.11)">
       <use xlink:href="#DejaVuSans-31"/>
       <use x="63.623046875" xlink:href="#DejaVuSans-34"/>
      </g>
     </g>
    </g>
    <g id="ytick_9">
     <g id="line2d_33">
      <g>
       <use style="fill:#262626;stroke:#262626;stroke-width:1.25;" x="47.81125" xlink:href="#m4dcbf6046e" y="50.922968749999825"/>
      </g>
     </g>
     <g id="line2d_34">
      <g>
       <use style="fill:#262626;stroke:#262626;stroke-width:1.25;" x="494.21124999999995" xlink:href="#m4f000efa69" y="50.922968749999825"/>
      </g>
     </g>
     <g id="text_18">
      <!-- 16 -->
      <g style="fill:#262626;" transform="translate(23.81375 53.9582812499998)scale(0.11 -0.11)">
       <use xlink:href="#DejaVuSans-31"/>
       <use x="63.623046875" xlink:href="#DejaVuSans-36"/>
      </g>
     </g>
    </g>
    <g id="ytick_10">
     <g id="line2d_35">
      <g>
       <use style="fill:#262626;stroke:#262626;stroke-width:1.25;" x="47.81125" xlink:href="#m4dcbf6046e" y="12.522968749999848"/>
      </g>
     </g>
     <g id="line2d_36">
      <g>
       <use style="fill:#262626;stroke:#262626;stroke-width:1.25;" x="494.21124999999995" xlink:href="#m4f000efa69" y="12.522968749999848"/>
      </g>
     </g>
     <g id="text_19">
      <!-- 18 -->
      <g style="fill:#262626;" transform="translate(23.81375 15.558281249999823)scale(0.11 -0.11)">
       <use xlink:href="#DejaVuSans-31"/>
       <use x="63.623046875" xlink:href="#DejaVuSans-38"/>
      </g>
     </g>
    </g>
    <g id="text_20">
     <!-- Throughput (Mbit/s) -->
     <defs>
      <path d="M 9.8125 72.90625 
L 24.515625 72.90625 
L 43.109375 23.296875 
L 61.8125 72.90625 
L 76.515625 72.90625 
L 76.515625 0 
L 66.890625 0 
L 66.890625 64.015625 
L 48.09375 14.015625 
L 38.1875 14.015625 
L 19.390625 64.015625 
L 19.390625 0 
L 9.8125 0 
z
" id="DejaVuSans-4d"/>
      <path d="M 25.390625 72.90625 
L 33.6875 72.90625 
L 8.296875 -9.28125 
L 0 -9.28125 
z
" id="DejaVuSans-2f"/>
      <path d="M 30.609375 48.390625 
Q 23.390625 48.390625 19.1875 42.75 
Q 14.984375 37.109375 14.984375 27.296875 
Q 14.984375 17.484375 19.15625 11.84375 
Q 23.34375 6.203125 30.609375 6.203125 
Q 37.796875 6.203125 41.984375 11.859375 
Q 46.1875 17.53125 46.1875 27.296875 
Q 46.1875 37.015625 41.984375 42.703125 
Q 37.796875 48.390625 30.609375 48.390625 
M 30.609375 56 
Q 42.328125 56 49.015625 48.375 
Q 55.71875 40.765625 55.71875 27.296875 
Q 55.71875 13.875 49.015625 6.21875 
Q 42.328125 -1.421875 30.609375 -1.421875 
Q 18.84375 -1.421875 12.171875 6.21875 
Q 5.515625 13.875 5.515625 27.296875 
Q 5.515625 40.765625 12.171875 48.375 
Q 18.84375 56 30.609375 56 
" id="DejaVuSans-6f"/>
      <path d="M 54.890625 33.015625 
L 54.890625 0 
L 45.90625 0 
L 45.90625 32.71875 
Q 45.90625 40.484375 42.875 44.328125 
Q 39.84375 48.1875 33.796875 48.1875 
Q 26.515625 48.1875 22.3125 43.546875 
Q 18.109375 38.921875 18.109375 30.90625 
L 18.109375 0 
L 9.078125 0 
L 9.078125 75.984375 
L 18.109375 75.984375 
L 18.109375 46.1875 
Q 21.34375 51.125 25.703125 53.5625 
Q 30.078125 56 35.796875 56 
Q 45.21875 56 50.046875 50.171875 
Q 54.890625 44.34375 54.890625 33.015625 
" id="DejaVuSans-68"/>
      <path d="M 18.3125 70.21875 
L 18.3125 54.6875 
L 36.8125 54.6875 
L 36.8125 47.703125 
L 18.3125 47.703125 
L 18.3125 18.015625 
Q 18.3125 11.328125 20.140625 9.421875 
Q 21.96875 7.515625 27.59375 7.515625 
L 36.8125 7.515625 
L 36.8125 0 
L 27.59375 0 
Q 17.1875 0 13.234375 3.875 
Q 9.28125 7.765625 9.28125 18.015625 
L 9.28125 47.703125 
L 2.6875 47.703125 
L 2.6875 54.6875 
L 9.28125 54.6875 
L 9.28125 70.21875 
z
" id="DejaVuSans-74"/>
      <path d="M 8.5 21.578125 
L 8.5 54.6875 
L 17.484375 54.6875 
L 17.484375 21.921875 
Q 17.484375 14.15625 20.5 10.265625 
Q 23.53125 6.390625 29.59375 6.390625 
Q 36.859375 6.390625 41.078125 11.03125 
Q 45.3125 15.671875 45.3125 23.6875 
L 45.3125 54.6875 
L 54.296875 54.6875 
L 54.296875 0 
L 45.3125 0 
L 45.3125 8.40625 
Q 42.046875 3.421875 37.71875 1 
Q 33.40625 -1.421875 27.6875 -1.421875 
Q 18.265625 -1.421875 13.375 4.4375 
Q 8.5 10.296875 8.5 21.578125 
M 31.109375 56 
z
" id="DejaVuSans-75"/>
      <path d="M 45.40625 27.984375 
Q 45.40625 37.75 41.375 43.109375 
Q 37.359375 48.484375 30.078125 48.484375 
Q 22.859375 48.484375 18.828125 43.109375 
Q 14.796875 37.75 14.796875 27.984375 
Q 14.796875 18.265625 18.828125 12.890625 
Q 22.859375 7.515625 30.078125 7.515625 
Q 37.359375 7.515625 41.375 12.890625 
Q 45.40625 18.265625 45.40625 27.984375 
M 54.390625 6.78125 
Q 54.390625 -7.171875 48.1875 -13.984375 
Q 42 -20.796875 29.203125 -20.796875 
Q 24.46875 -20.796875 20.265625 -20.09375 
Q 16.0625 -19.390625 12.109375 -17.921875 
L 12.109375 -9.1875 
Q 16.0625 -11.328125 19.921875 -12.34375 
Q 23.78125 -13.375 27.78125 -13.375 
Q 36.625 -13.375 41.015625 -8.765625 
Q 45.40625 -4.15625 45.40625 5.171875 
L 45.40625 9.625 
Q 42.625 4.78125 38.28125 2.390625 
Q 33.9375 0 27.875 0 
Q 17.828125 0 11.671875 7.65625 
Q 5.515625 15.328125 5.515625 27.984375 
Q 5.515625 40.671875 11.671875 48.328125 
Q 17.828125 56 27.875 56 
Q 33.9375 56 38.28125 53.609375 
Q 42.625 51.21875 45.40625 46.390625 
L 45.40625 54.6875 
L 54.390625 54.6875 
z
" id="DejaVuSans-67"/>
      <path d="M 48.6875 27.296875 
Q 48.6875 37.203125 44.609375 42.84375 
Q 40.53125 48.484375 33.40625 48.484375 
Q 26.265625 48.484375 22.1875 42.84375 
Q 18.109375 37.203125 18.109375 27.296875 
Q 18.109375 17.390625 22.1875 11.75 
Q 26.265625 6.109375 33.40625 6.109375 
Q 40.53125 6.109375 44.609375 11.75 
Q 48.6875 17.390625 48.6875 27.296875 
M 18.109375 46.390625 
Q 20.953125 51.265625 25.265625 53.625 
Q 29.59375 56 35.59375 56 
Q 45.5625 56 51.78125 48.09375 
Q 58.015625 40.1875 58.015625 27.296875 
Q 58.015625 14.40625 51.78125 6.484375 
Q 45.5625 -1.421875 35.59375 -1.421875 
Q 29.59375 -1.421875 25.265625 0.953125 
Q 20.953125 3.328125 18.109375 8.203125 
L 18.109375 0 
L 9.078125 0 
L 9.078125 75.984375 
L 18.109375 75.984375 
z
" id="DejaVuSans-62"/>
      <path d="M 18.109375 8.203125 
L 18.109375 -20.796875 
L 9.078125 -20.796875 
L 9.078125 54.6875 
L 18.109375 54.6875 
L 18.109375 46.390625 
Q 20.953125 51.265625 25.265625 53.625 
Q 29.59375 56 35.59375 56 
Q 45.5625 56 51.78125 48.09375 
Q 58.015625 40.1875 58.015625 27.296875 
Q 58.015625 14.40625 51.78125 6.484375 
Q 45.5625 -1.421875 35.59375 -1.421875 
Q 29.59375 -1.421875 25.265625 0.953125 
Q 20.953125 3.328125 18.109375 8.203125 
M 48.6875 27.296875 
Q 48.6875 37.203125 44.609375 42.84375 
Q 40.53125 48.484375 33.40625 48.484375 
Q 26.265625 48.484375 22.1875 42.84375 
Q 18.109375 37.203125 18.109375 27.296875 
Q 18.109375 17.390625 22.1875 11.75 
Q 26.265625 6.109375 33.40625 6.109375 
Q 40.53125 6.109375 44.609375 11.75 
Q 48.6875 17.390625 48.6875 27.296875 
" id="DejaVuSans-70"/>
      <path d="M 41.109375 46.296875 
Q 39.59375 47.171875 37.8125 47.578125 
Q 36.03125 48 33.890625 48 
Q 26.265625 48 22.1875 43.046875 
Q 18.109375 38.09375 18.109375 28.8125 
L 18.109375 0 
L 9.078125 0 
L 9.078125 54.6875 
L 18.109375 54.6875 
L 18.109375 46.1875 
Q 20.953125 51.171875 25.484375 53.578125 
Q 30.03125 56 36.53125 56 
Q 37.453125 56 38.578125 55.875 
Q 39.703125 55.765625 41.0625 55.515625 
z
" id="DejaVuSans-72"/>
     </defs>
     <g style="fill:#262626;" transform="translate(16.318124999999995 245.04453124999984)rotate(-90.0)scale(0.12 -0.12)">
      <use xlink:href="#DejaVuSans-54"/>
      <use x="61.083984375" xlink:href="#DejaVuSans-68"/>
      <use x="124.462890625" xlink:href="#DejaVuSans-72"/>
      <use x="165.544921875" xlink:href="#DejaVuSans-6f"/>
      <use x="226.7265625" xlink:href="#DejaVuSans-75"/>
      <use x="290.10546875" xlink:href="#DejaVuSans-67"/>
      <use x="353.58203125" xlink:href="#DejaVuSans-68"/>
      <use x="416.9609375" xlink:href="#DejaVuSans-70"/>
      <use x="480.4375" xlink:href="#DejaVuSans-75"/>
      <use x="543.81640625" xlink:href="#DejaVuSans-74"/>
      <use x="583.025390625" xlink:href="#DejaVuSans-20"/>
      <use x="614.8125" xlink:href="#DejaVuSans-28"/>
      <use x="653.826171875" xlink:href="#DejaVuSans-4d"/>
      <use x="740.10546875" xlink:href="#DejaVuSans-62"/>
      <use x="803.58203125" xlink:href="#DejaVuSans-69"/>
      <use x="831.365234375" xlink:href="#DejaVuSans-74"/>
      <use x="870.57421875" xlink:href="#DejaVuSans-2f"/>
      <use x="904.265625" xlink:href="#DejaVuSans-73"/>
      <use x="956.365234375" xlink:href="#DejaVuSans-29"/>
     </g>
    </g>
   </g>
   <g id="line2d_37">
    <path clip-path="url(#p5f4beb1532)" d="M 86.074107 358.122969 
L 92.45125 183.402969 
L 98.828393 127.722969 
L 105.205536 127.722969 
L 111.582679 127.722969 
L 117.959821 127.722969 
L 124.336964 127.722969 
L 130.714107 128.106969 
L 137.09125 127.338969 
L 143.468393 127.722969 
L 149.845536 127.722969 
L 156.222679 127.722969 
L 162.599821 127.722969 
L 168.976964 127.722969 
L 175.354107 127.722969 
L 181.73125 127.722969 
L 188.108393 127.722969 
L 194.485536 127.722969 
L 200.862679 127.722969 
L 207.239821 127.722969 
L 213.616964 127.722969 
L 219.994107 128.106969 
L 226.37125 127.722969 
L 232.748393 127.338969 
L 239.125536 127.722969 
L 245.502679 127.722969 
L 251.879821 127.722969 
L 258.256964 127.722969 
L 264.634107 127.722969 
L 271.01125 127.722969 
L 277.388393 127.722969 
L 283.765536 127.722969 
L 290.142679 127.722969 
L 296.519821 128.106969 
L 302.896964 127.338969 
L 309.274107 127.722969 
L 315.65125 127.722969 
L 322.028393 128.106969 
L 328.405536 127.338969 
L 334.782679 127.722969 
L 341.159821 127.722969 
L 347.536964 128.106969 
L 353.914107 127.338969 
L 360.29125 128.106969 
L 366.668393 127.338969 
L 373.045536 128.106969 
L 379.422679 127.338969 
L 385.799821 127.722969 
L 392.176964 127.722969 
L 398.554107 127.722969 
L 404.93125 127.722969 
L 411.308393 127.722969 
L 417.685536 127.722969 
L 424.062679 128.106969 
L 430.439821 127.338969 
L 436.816964 127.722969 
L 443.194107 127.722969 
L 449.57125 127.722969 
L 455.948393 127.722969 
L 462.325536 127.722969 
L 468.702679 127.722969 
L 475.079821 302.826969 
" style="fill:none;stroke:#4c72b0;stroke-linecap:round;stroke-width:1.5;"/>
   </g>
   <g id="line2d_38">
    <path clip-path="url(#p5f4beb1532)" d="M 86.074107 166.314969 
L 92.45125 115.818969 
L 98.828393 116.586969 
L 105.205536 116.586969 
L 111.582679 115.818969 
L 117.959821 116.586969 
L 124.336964 115.818969 
L 130.714107 116.586969 
L 137.09125 115.818969 
L 143.468393 115.818969 
L 149.845536 116.586969 
L 156.222679 116.202969 
L 162.599821 116.202969 
L 168.976964 115.818969 
L 175.354107 116.586969 
L 181.73125 115.818969 
L 188.108393 116.586969 
L 194.485536 115.818969 
L 200.862679 116.202969 
L 207.239821 116.202969 
L 213.616964 116.586969 
L 219.994107 116.586969 
L 226.37125 116.586969 
L 232.748393 109.290969 
L 239.125536 98.154969 
L 245.502679 94.506969 
L 251.879821 88.938969 
L 258.256964 88.938969 
L 264.634107 80.682969 
L 271.01125 82.026969 
L 277.388393 81.258969 
L 283.765536 74.346969 
L 290.142679 69.738969 
L 296.519821 122.154969 
L 302.896964 102.762969 
L 309.274107 143.466969 
L 315.65125 123.114969 
L 322.028393 133.290969 
L 328.405536 134.250969 
L 334.782679 120.810969 
L 341.159821 146.538969 
L 347.536964 103.722969 
L 353.914107 163.626969 
L 360.29125 83.562969 
L 366.668393 183.978969 
L 373.045536 65.130969 
L 379.422679 202.410969 
L 385.799821 45.738969 
L 392.176964 220.842969 
L 398.554107 28.266969 
L 404.93125 221.802969 
L 411.308393 26.346969 
L 417.685536 223.530969 
L 424.062679 25.386969 
L 430.439821 223.530969 
L 436.816964 24.426969 
L 443.194107 226.410969 
L 449.57125 21.738969 
L 455.948393 229.098969 
L 462.325536 19.818969 
L 468.702679 335.082969 
" style="fill:none;stroke:#4c72b0;stroke-dasharray:4.000000,1.500000;stroke-dashoffset:0.0;stroke-width:1.5;"/>
   </g>
   <g id="line2d_39">
    <path clip-path="url(#p5f4beb1532)" d="M 92.45125 358.122969 
L 98.828393 338.538969 
L 105.205536 289.386969 
L 111.582679 230.634969 
L 117.959821 199.530969 
L 124.336964 154.026969 
L 130.714107 142.314969 
L 137.09125 183.978969 
L 143.468393 149.802969 
L 149.845536 145.386969 
L 156.222679 170.922969 
L 162.599821 151.914969 
L 168.976964 154.986969 
L 175.354107 146.730969 
L 181.73125 134.442969 
L 188.108393 127.722969 
L 194.485536 196.842969 
L 200.862679 148.842969 
L 207.239821 151.530969 
L 213.616964 163.818969 
L 219.994107 152.298969 
L 226.37125 155.946969 
L 232.748393 155.562969 
L 239.125536 143.466969 
L 245.502679 149.802969 
L 251.879821 127.914969 
L 258.256964 169.770969 
L 264.634107 154.602969 
L 271.01125 141.738969 
L 277.388393 146.154969 
L 283.765536 143.082969 
L 290.142679 145.002969 
L 296.519821 140.394969 
L 302.896964 173.994969 
L 309.274107 150.954969 
L 315.65125 135.210969 
L 322.028393 150.570969 
L 328.405536 192.618969 
L 334.782679 153.642969 
L 341.159821 137.898969 
L 347.536964 197.994969 
L 353.914107 154.602969 
L 360.29125 154.218969 
L 366.668393 138.858969 
L 373.045536 153.642969 
L 379.422679 149.226969 
L 385.799821 140.010969 
L 392.176964 133.482969 
L 398.554107 232.362969 
L 404.93125 208.746969 
L 411.308393 160.746969 
L 417.685536 141.354969 
L 424.062679 156.330969 
L 430.439821 152.298969 
L 436.816964 180.522969 
L 443.194107 140.010969 
L 449.57125 136.170969 
L 455.948393 178.026969 
L 462.325536 143.466969 
L 468.702679 143.658969 
L 475.079821 306.282969 
" style="fill:none;stroke:#dd8452;stroke-linecap:round;stroke-width:1.5;"/>
   </g>
   <g id="line2d_40">
    <path clip-path="url(#p5f4beb1532)" d="M 92.45125 338.538969 
L 98.828393 289.386969 
L 105.205536 230.250969 
L 111.582679 199.530969 
L 117.959821 154.026969 
L 124.336964 137.898969 
L 130.714107 188.394969 
L 137.09125 149.802969 
L 143.468393 144.810969 
L 149.845536 171.306969 
L 156.222679 150.954969 
L 162.599821 155.946969 
L 168.976964 146.730969 
L 175.354107 109.674969 
L 181.73125 145.386969 
L 188.108393 203.370969 
L 194.485536 149.418969 
L 200.862679 151.338969 
L 207.239821 163.818969 
L 213.616964 152.298969 
L 219.994107 155.946969 
L 226.37125 155.178969 
L 232.748393 143.850969 
L 239.125536 144.426969 
L 245.502679 117.546969 
L 251.879821 185.322969 
L 258.256964 154.602969 
L 264.634107 141.738969 
L 271.01125 146.154969 
L 277.388393 143.082969 
L 283.765536 144.426969 
L 290.142679 140.778969 
L 296.519821 173.610969 
L 302.896964 150.954969 
L 309.274107 131.178969 
L 315.65125 154.986969 
L 322.028393 192.618969 
L 328.405536 153.642969 
L 334.782679 122.538969 
L 341.159821 213.930969 
L 347.536964 154.218969 
L 353.914107 153.258969 
L 360.29125 139.626969 
L 366.668393 153.642969 
L 373.045536 149.226969 
L 379.422679 140.010969 
L 385.799821 127.722969 
L 392.176964 238.314969 
L 398.554107 208.554969 
L 404.93125 160.746969 
L 411.308393 141.354969 
L 417.685536 156.330969 
L 424.062679 152.298969 
L 430.439821 174.378969 
L 436.816964 146.154969 
L 443.194107 133.482969 
L 449.57125 180.714969 
L 455.948393 143.466969 
L 462.325536 141.930969 
L 468.702679 308.010969 
" style="fill:none;stroke:#dd8452;stroke-dasharray:4.000000,1.500000;stroke-dashoffset:0.0;stroke-width:1.5;"/>
   </g>
   <g id="line2d_41">
    <path clip-path="url(#p5f4beb1532)" d="M 86.074107 358.122969 
L 92.45125 348.138969 
L 98.828393 271.146969 
L 105.205536 276.330969 
L 111.582679 274.026969 
L 117.959821 274.410969 
L 124.336964 275.562969 
L 130.714107 259.050969 
L 137.09125 234.282969 
L 143.468393 207.978969 
L 149.845536 212.202969 
L 156.222679 208.554969 
L 162.599821 207.978969 
L 168.976964 200.298969 
L 175.354107 201.258969 
L 181.73125 200.106969 
L 188.108393 190.506969 
L 194.485536 193.962969 
L 200.862679 202.602969 
L 207.239821 213.354969 
L 213.616964 220.074969 
L 219.994107 220.650969 
L 226.37125 217.770969 
L 232.748393 228.522969 
L 239.125536 233.898969 
L 245.502679 233.130969 
L 251.879821 232.362969 
L 258.256964 233.706969 
L 264.634107 210.282969 
L 271.01125 189.546969 
L 277.388393 191.850969 
L 283.765536 190.506969 
L 290.142679 169.002969 
L 296.519821 129.450969 
L 302.896964 128.682969 
L 309.274107 137.898969 
L 315.65125 154.794969 
L 322.028393 133.290969 
L 328.405536 128.106969 
L 334.782679 170.346969 
L 341.159821 172.842969 
L 347.536964 173.994969 
L 353.914107 167.466969 
L 360.29125 172.458969 
L 366.668393 173.226969 
L 373.045536 152.874969 
L 379.422679 147.498969 
L 385.799821 140.202969 
L 392.176964 136.362969 
L 398.554107 137.706969 
L 404.93125 162.666969 
L 411.308393 156.330969 
L 417.685536 156.906969 
L 424.062679 131.370969 
L 430.439821 128.106969 
L 436.816964 128.298969 
L 443.194107 128.490969 
L 449.57125 128.106969 
L 455.948393 141.546969 
L 462.325536 140.394969 
L 468.702679 150.378969 
L 475.079821 279.786969 
" style="fill:none;stroke:#55a868;stroke-linecap:round;stroke-width:1.5;"/>
   </g>
   <g id="line2d_42">
    <path clip-path="url(#p5f4beb1532)" d="M 86.074107 347.946969 
L 92.45125 270.762969 
L 98.828393 276.714969 
L 105.205536 273.642969 
L 111.582679 274.794969 
L 117.959821 275.178969 
L 124.336964 259.050969 
L 130.714107 234.282969 
L 137.09125 208.362969 
L 143.468393 211.818969 
L 149.845536 208.554969 
L 156.222679 207.978969 
L 162.599821 200.298969 
L 168.976964 201.258969 
L 175.354107 200.106969 
L 181.73125 190.506969 
L 188.108393 193.962969 
L 194.485536 203.178969 
L 200.862679 212.778969 
L 207.239821 220.074969 
L 213.616964 220.650969 
L 219.994107 217.770969 
L 226.37125 228.522969 
L 232.748393 234.282969 
L 239.125536 233.130969 
L 245.502679 231.978969 
L 251.879821 233.706969 
L 258.256964 210.282969 
L 264.634107 189.546969 
L 271.01125 191.850969 
L 277.388393 189.930969 
L 283.765536 169.002969 
L 290.142679 129.450969 
L 296.519821 126.570969 
L 302.896964 139.818969 
L 309.274107 154.794969 
L 315.65125 127.146969 
L 322.028393 133.866969 
L 328.405536 170.922969 
L 334.782679 173.226969 
L 341.159821 173.994969 
L 347.536964 167.466969 
L 353.914107 172.458969 
L 360.29125 172.842969 
L 366.668393 152.874969 
L 373.045536 147.690969 
L 379.422679 140.202969 
L 385.799821 131.946969 
L 392.176964 142.698969 
L 398.554107 162.282969 
L 404.93125 156.330969 
L 411.308393 157.290969 
L 417.685536 122.730969 
L 424.062679 111.402969 
L 430.439821 113.898969 
L 436.816964 125.610969 
L 443.194107 142.314969 
L 449.57125 169.962969 
L 455.948393 139.434969 
L 462.325536 150.954969 
L 468.702679 279.210969 
" style="fill:none;stroke:#55a868;stroke-dasharray:4.000000,1.500000;stroke-dashoffset:0.0;stroke-width:1.5;"/>
   </g>
   <g id="line2d_43"/>
   <g id="line2d_44"/>
   <g id="line2d_45"/>
   <g id="line2d_46"/>
   <g id="line2d_47"/>
   <g id="line2d_48"/>
   <g id="line2d_49"/>
   <g id="patch_3">
    <path d="M 47.81125 12.522969 
L 494.21125 12.522969 
" style="fill:none;stroke:#262626;stroke-linecap:square;stroke-linejoin:miter;stroke-width:1.25;"/>
   </g>
   <g id="patch_4">
    <path d="M 494.21125 358.122969 
L 494.21125 12.522969 
" style="fill:none;stroke:#262626;stroke-linecap:square;stroke-linejoin:miter;stroke-width:1.25;"/>
   </g>
   <g id="patch_5">
    <path d="M 47.81125 358.122969 
L 494.21125 358.122969 
" style="fill:none;stroke:#262626;stroke-linecap:square;stroke-linejoin:miter;stroke-width:1.25;"/>
   </g>
   <g id="patch_6">
    <path d="M 47.81125 358.122969 
L 47.81125 12.522969 
" style="fill:none;stroke:#262626;stroke-linecap:square;stroke-linejoin:miter;stroke-width:1.25;"/>
   </g>
   <g id="legend_1">
    <g id="patch_7">
     <path d="M 503.13925 358.122969 
L 586.993625 358.122969 
L 586.993625 241.801406 
L 503.13925 241.801406 
z
" style="fill:#ffffff;stroke:#262626;stroke-linejoin:miter;"/>
    </g>
    <g id="line2d_50">
     <path d="M 510.83925 250.709687 
L 526.23925 250.709687 
" style="fill:none;"/>
    </g>
    <g id="line2d_51"/>
    <g id="text_21">
     <!-- Scheme -->
     <defs>
      <path d="M 53.515625 70.515625 
L 53.515625 60.890625 
Q 47.90625 63.578125 42.921875 64.890625 
Q 37.9375 66.21875 33.296875 66.21875 
Q 25.25 66.21875 20.875 63.09375 
Q 16.5 59.96875 16.5 54.203125 
Q 16.5 49.359375 19.40625 46.890625 
Q 22.3125 44.4375 30.421875 42.921875 
L 36.375 41.703125 
Q 47.40625 39.59375 52.65625 34.296875 
Q 57.90625 29 57.90625 20.125 
Q 57.90625 9.515625 50.796875 4.046875 
Q 43.703125 -1.421875 29.984375 -1.421875 
Q 24.8125 -1.421875 18.96875 -0.25 
Q 13.140625 0.921875 6.890625 3.21875 
L 6.890625 13.375 
Q 12.890625 10.015625 18.65625 8.296875 
Q 24.421875 6.59375 29.984375 6.59375 
Q 38.421875 6.59375 43.015625 9.90625 
Q 47.609375 13.234375 47.609375 19.390625 
Q 47.609375 24.75 44.3125 27.78125 
Q 41.015625 30.8125 33.5 32.328125 
L 27.484375 33.5 
Q 16.453125 35.6875 11.515625 40.375 
Q 6.59375 45.0625 6.59375 53.421875 
Q 6.59375 63.09375 13.40625 68.65625 
Q 20.21875 74.21875 32.171875 74.21875 
Q 37.3125 74.21875 42.625 73.28125 
Q 47.953125 72.359375 53.515625 70.515625 
" id="DejaVuSans-53"/>
      <path d="M 48.78125 52.59375 
L 48.78125 44.1875 
Q 44.96875 46.296875 41.140625 47.34375 
Q 37.3125 48.390625 33.40625 48.390625 
Q 24.65625 48.390625 19.8125 42.84375 
Q 14.984375 37.3125 14.984375 27.296875 
Q 14.984375 17.28125 19.8125 11.734375 
Q 24.65625 6.203125 33.40625 6.203125 
Q 37.3125 6.203125 41.140625 7.25 
Q 44.96875 8.296875 48.78125 10.40625 
L 48.78125 2.09375 
Q 45.015625 0.34375 40.984375 -0.53125 
Q 36.96875 -1.421875 32.421875 -1.421875 
Q 20.0625 -1.421875 12.78125 6.34375 
Q 5.515625 14.109375 5.515625 27.296875 
Q 5.515625 40.671875 12.859375 48.328125 
Q 20.21875 56 33.015625 56 
Q 37.15625 56 41.109375 55.140625 
Q 45.0625 54.296875 48.78125 52.59375 
" id="DejaVuSans-63"/>
     </defs>
     <g style="fill:#262626;" transform="translate(538.3392499999999 254.55968749999982)scale(0.11 -0.11)">
      <use xlink:href="#DejaVuSans-53"/>
      <use x="63.4765625" xlink:href="#DejaVuSans-63"/>
      <use x="118.45703125" xlink:href="#DejaVuSans-68"/>
      <use x="181.8359375" xlink:href="#DejaVuSans-65"/>
      <use x="243.359375" xlink:href="#DejaVuSans-6d"/>
      <use x="340.771484375" xlink:href="#DejaVuSans-65"/>
     </g>
    </g>
    <g id="line2d_52">
     <path d="M 510.83925 266.855625 
L 526.23925 266.855625 
" style="fill:none;stroke:#4c72b0;stroke-linecap:round;stroke-width:1.5;"/>
    </g>
    <g id="line2d_53"/>
    <g id="text_22">
     <!-- cubic -->
     <g style="fill:#262626;" transform="translate(538.3392499999999 270.7056249999998)scale(0.11 -0.11)">
      <use xlink:href="#DejaVuSans-63"/>
      <use x="54.98046875" xlink:href="#DejaVuSans-75"/>
      <use x="118.359375" xlink:href="#DejaVuSans-62"/>
      <use x="181.8359375" xlink:href="#DejaVuSans-69"/>
      <use x="209.619140625" xlink:href="#DejaVuSans-63"/>
     </g>
    </g>
    <g id="line2d_54">
     <path d="M 510.83925 283.001562 
L 526.23925 283.001562 
" style="fill:none;stroke:#dd8452;stroke-linecap:round;stroke-width:1.5;"/>
    </g>
    <g id="line2d_55"/>
    <g id="text_23">
     <!-- vivace -->
     <defs>
      <path d="M 2.984375 54.6875 
L 12.5 54.6875 
L 29.59375 8.796875 
L 46.6875 54.6875 
L 56.203125 54.6875 
L 35.6875 0 
L 23.484375 0 
z
" id="DejaVuSans-76"/>
      <path d="M 34.28125 27.484375 
Q 23.390625 27.484375 19.1875 25 
Q 14.984375 22.515625 14.984375 16.5 
Q 14.984375 11.71875 18.140625 8.90625 
Q 21.296875 6.109375 26.703125 6.109375 
Q 34.1875 6.109375 38.703125 11.40625 
Q 43.21875 16.703125 43.21875 25.484375 
L 43.21875 27.484375 
z
M 52.203125 31.203125 
L 52.203125 0 
L 43.21875 0 
L 43.21875 8.296875 
Q 40.140625 3.328125 35.546875 0.953125 
Q 30.953125 -1.421875 24.3125 -1.421875 
Q 15.921875 -1.421875 10.953125 3.296875 
Q 6 8.015625 6 15.921875 
Q 6 25.140625 12.171875 29.828125 
Q 18.359375 34.515625 30.609375 34.515625 
L 43.21875 34.515625 
L 43.21875 35.40625 
Q 43.21875 41.609375 39.140625 45 
Q 35.0625 48.390625 27.6875 48.390625 
Q 23 48.390625 18.546875 47.265625 
Q 14.109375 46.140625 10.015625 43.890625 
L 10.015625 52.203125 
Q 14.9375 54.109375 19.578125 55.046875 
Q 24.21875 56 28.609375 56 
Q 40.484375 56 46.34375 49.84375 
Q 52.203125 43.703125 52.203125 31.203125 
" id="DejaVuSans-61"/>
     </defs>
     <g style="fill:#262626;" transform="translate(538.3392499999999 286.85156249999983)scale(0.11 -0.11)">
      <use xlink:href="#DejaVuSans-76"/>
      <use x="59.1796875" xlink:href="#DejaVuSans-69"/>
      <use x="86.962890625" xlink:href="#DejaVuSans-76"/>
      <use x="146.142578125" xlink:href="#DejaVuSans-61"/>
      <use x="207.421875" xlink:href="#DejaVuSans-63"/>
      <use x="262.40234375" xlink:href="#DejaVuSans-65"/>
     </g>
    </g>
    <g id="line2d_56">
     <path d="M 510.83925 299.1475 
L 526.23925 299.1475 
" style="fill:none;stroke:#55a868;stroke-linecap:round;stroke-width:1.5;"/>
    </g>
    <g id="line2d_57"/>
    <g id="text_24">
     <!-- pcc -->
     <g style="fill:#262626;" transform="translate(538.3392499999999 302.99749999999983)scale(0.11 -0.11)">
      <use xlink:href="#DejaVuSans-70"/>
      <use x="63.4765625" xlink:href="#DejaVuSans-63"/>
      <use x="118.45703125" xlink:href="#DejaVuSans-63"/>
     </g>
    </g>
    <g id="line2d_58">
     <path d="M 510.83925 315.293437 
L 526.23925 315.293437 
" style="fill:none;"/>
    </g>
    <g id="line2d_59"/>
    <g id="text_25">
     <!-- Traffic -->
     <defs>
      <path d="M 37.109375 75.984375 
L 37.109375 68.5 
L 28.515625 68.5 
Q 23.6875 68.5 21.796875 66.546875 
Q 19.921875 64.59375 19.921875 59.515625 
L 19.921875 54.6875 
L 34.71875 54.6875 
L 34.71875 47.703125 
L 19.921875 47.703125 
L 19.921875 0 
L 10.890625 0 
L 10.890625 47.703125 
L 2.296875 47.703125 
L 2.296875 54.6875 
L 10.890625 54.6875 
L 10.890625 58.5 
Q 10.890625 67.625 15.140625 71.796875 
Q 19.390625 75.984375 28.609375 75.984375 
z
" id="DejaVuSans-66"/>
     </defs>
     <g style="fill:#262626;" transform="translate(538.3392499999999 319.14343749999983)scale(0.11 -0.11)">
      <use xlink:href="#DejaVuSans-54"/>
      <use x="60.865234375" xlink:href="#DejaVuSans-72"/>
      <use x="101.978515625" xlink:href="#DejaVuSans-61"/>
      <use x="163.2578125" xlink:href="#DejaVuSans-66"/>
      <use x="198.462890625" xlink:href="#DejaVuSans-66"/>
      <use x="233.66796875" xlink:href="#DejaVuSans-69"/>
      <use x="261.451171875" xlink:href="#DejaVuSans-63"/>
     </g>
    </g>
    <g id="line2d_60">
     <path d="M 510.83925 331.439375 
L 526.23925 331.439375 
" style="fill:none;stroke:#333333;stroke-linecap:round;stroke-width:1.5;"/>
    </g>
    <g id="line2d_61"/>
    <g id="text_26">
     <!-- egress -->
     <g style="fill:#262626;" transform="translate(538.3392499999999 335.28937499999984)scale(0.11 -0.11)">
      <use xlink:href="#DejaVuSans-65"/>
      <use x="61.5234375" xlink:href="#DejaVuSans-67"/>
      <use x="125.0" xlink:href="#DejaVuSans-72"/>
      <use x="166.08203125" xlink:href="#DejaVuSans-65"/>
      <use x="227.60546875" xlink:href="#DejaVuSans-73"/>
      <use x="279.705078125" xlink:href="#DejaVuSans-73"/>
     </g>
    </g>
    <g id="line2d_62">
     <path d="M 510.83925 347.585312 
L 526.23925 347.585312 
" style="fill:none;stroke:#333333;stroke-dasharray:4.000000,1.500000;stroke-dashoffset:0.0;stroke-width:1.5;"/>
    </g>
    <g id="line2d_63"/>
    <g id="text_27">
     <!-- ingress -->
     <defs>
      <path d="M 54.890625 33.015625 
L 54.890625 0 
L 45.90625 0 
L 45.90625 32.71875 
Q 45.90625 40.484375 42.875 44.328125 
Q 39.84375 48.1875 33.796875 48.1875 
Q 26.515625 48.1875 22.3125 43.546875 
Q 18.109375 38.921875 18.109375 30.90625 
L 18.109375 0 
L 9.078125 0 
L 9.078125 54.6875 
L 18.109375 54.6875 
L 18.109375 46.1875 
Q 21.34375 51.125 25.703125 53.5625 
Q 30.078125 56 35.796875 56 
Q 45.21875 56 50.046875 50.171875 
Q 54.890625 44.34375 54.890625 33.015625 
" id="DejaVuSans-6e"/>
     </defs>
     <g style="fill:#262626;" transform="translate(538.3392499999999 351.43531249999984)scale(0.11 -0.11)">
      <use xlink:href="#DejaVuSans-69"/>
      <use x="27.783203125" xlink:href="#DejaVuSans-6e"/>
      <use x="91.162109375" xlink:href="#DejaVuSans-67"/>
      <use x="154.638671875" xlink:href="#DejaVuSans-72"/>
      <use x="195.720703125" xlink:href="#DejaVuSans-65"/>
      <use x="257.244140625" xlink:href="#DejaVuSans-73"/>
      <use x="309.34375" xlink:href="#DejaVuSans-73"/>
     </g>
    </g>
   </g>
  </g>
 </g>
 <defs>
  <clipPath id="p5f4beb1532">
   <rect height="345.6" width="446.4" x="47.81125" y="12.522968749999848"/>
  </clipPath>
 </defs>
</svg>
